<?xml version="1.0" encoding="utf-8"?>
<!-- Generator: Adobe Illustrator 16.0.0, SVG Export Plug-In . SVG Version: 6.00 Build 0)  -->
<!DOCTYPE svg PUBLIC "-//W3C//DTD SVG 1.1//EN" "http://www.w3.org/Graphics/SVG/1.1/DTD/svg11.dtd">
<svg version="1.1" id="Layer_1" xmlns="http://www.w3.org/2000/svg" xmlns:xlink="http://www.w3.org/1999/xlink" x="0px" y="0px"
	 width="612px" height="792px" viewBox="0 0 612 792" enable-background="new 0 0 612 792" xml:space="preserve">
<g id="rolls-royce">
	<title>brand-icon-rolls-royce-solid</title>
	<g>
		<path fill-rule="evenodd" clip-rule="evenodd" d="M497.364,262c2.469-6.497,8.829-0.834,12.378-3.96
			c9.091-4.497,13.956,1.697,18.974,7.499c0.467,2.376-0.501,5.511,3.257,6.138c9.684,22.364-5.396,39.561-12.204,58.486
			c-2.373-0.574-3.996-2.103-5.263-4.103c-1.058-2.069-1.571-4.286-1.745-6.594c-0.15-2.273,0.06-4.516,0.59-6.73
			c1.208-4.326,3.974-7.855,6.027-11.757c7.417-12.145,7.04-23.142-4.714-32.462c-3.531-2.63-7.817-2.503-11.88-3.21
			C500.601,264.82,498.672,263.914,497.364,262z"/>
		<path fill-rule="evenodd" clip-rule="evenodd" fill="#0E0E0E" d="M185.835,248.848c1.047,0.006,2.095,0.016,3.142,0.022
			c5.877-0.534,11.761-0.952,17.692-0.772c1.529,0.626,2.601,1.684,3.187,3.241c-0.322,14.712,0.251,29.608-8.845,42.498
			c-2.112,2.714-4.739,4.563-8.27,4.848c-3.748-0.363-5.508-2.71-6.136-6.178c-0.367-3.731,0.963-7.31,1.053-11.004
			c-1.738-6.014,5.93-11.14,1.558-17.383c-2.284-3.53-6.57-5.391-7.957-9.63C181.177,251.298,181.482,248.429,185.835,248.848z"/>
		<path fill-rule="evenodd" clip-rule="evenodd" fill="#F9F9F9" d="M424.006,230.357c-3.168,1.262-5.317,3.511-6.481,6.708
			c-8.73-0.896-10.772-9.887-16.913-13.919c-3.265-3.365-6.409-6.854-10.12-9.76c-3.638-3.042-8.521-4.271-11.701-7.983
			c-0.587-1.383-0.374-2.605,0.757-3.632C402.188,200.95,416.649,210.248,424.006,230.357z"/>
		<path fill-rule="evenodd" clip-rule="evenodd" fill="#111111" d="M288.638,201.282c4.908,0.298,9.816,0.599,14.722,0.896
			c1.059,1.073,1.626,2.367,1.712,3.877c-0.333,3.098-1.71,5.688-3.819,7.937c-1.878,1.579-4.032,1.976-6.392,1.513
			c-13.168-4.311-26.377-4.705-39.626-0.354c-6.612,1.417-12.415,6.786-19.867,4.134c-0.594-0.5-1.185-1.008-1.774-1.514
			c1.097-1.979,2.194-3.957,3.292-5.936c0.612-1.488,0.876-3.291,3.042-3.377c9.191,1.374,14.561-10.293,24.28-7.114
			C272.346,199.536,280.49,199.685,288.638,201.282z"/>
		<path fill-rule="evenodd" clip-rule="evenodd" fill="#EBEBEB" d="M207.796,249.493l-1.402,0.1l-1.399-0.137
			c-3.673,2.103-7.195,2.549-10.352-0.949c-0.316-5.604,4.583-7.127,7.798-9.962c3.545-2.45,7.528-3.793,11.747-4.521
			c1.327-1.293,2.653-2.587,3.979-3.88c4.343-4.212,8.127-9.432,15.324-8.547c3.202,0.682,5.683,2.338,7.146,5.353
			c0.368,5.303-3.672,8.212-6.404,11.85C225.841,243.39,219.672,253.524,207.796,249.493z"/>
		<path fill-rule="evenodd" clip-rule="evenodd" d="M364.167,198.364c1.882,0.341,3.764,0.679,5.645,1.021
			c0.396,7.378-5.096,8.817-10.46,10.405c-14.514-2.527-28.075,1.229-41.418,6.401c-2.384,0.165-4.428-0.527-5.976-2.422
			c-0.666-1.352-0.942-2.794-0.9-4.298c0.411-3.213,2.696-5.102,4.975-6.997c6.969-1.479,13.938-2.962,20.909-4.441
			C346.033,196.782,355.12,195.991,364.167,198.364z"/>
		<path fill-rule="evenodd" clip-rule="evenodd" fill="#FEFEFE" stroke="#050000" stroke-width="6" stroke-miterlimit="10" d="
			M188.89,290.974c-0.017,2.791-0.344,5.725,3.169,6.895c-0.42,12.238-9.366,16.797-18.822,20.925
			c-2.425,0.49-4.823,0.397-7.198-0.319c-1.594-0.605-2.817-1.647-3.689-3.108c-1.422-5.356,1.957-7.409,6.136-8.913
			c3.553-3.759,8.124-6.891,7.944-12.942C180.202,290.794,183.596,286.222,188.89,290.974z"/>
		<path fill-rule="evenodd" clip-rule="evenodd" fill="#040404" d="M125.836,303.543c-0.034,1.923-0.07,3.846-0.104,5.771
			c1.613,4.228-0.826,6.321-4.177,7.939c-4.513,0.428-8.374-1.265-11.288-4.45c-6.417-7.021-11.536-16.555-4.347-23.76
			c7.817-7.834,11.345,4.227,16.664,7.815C124.289,298.783,125.538,300.935,125.836,303.543z"/>
		<path fill-rule="evenodd" clip-rule="evenodd" fill="#F8F8F8" d="M185.835,248.848c-3.78,1.172-3.694,3.893-2.782,6.944
			c3.457,4.413,3.858,9.397,2.79,14.672c-0.941,3.499-2.676,6.342-6.358,7.53c-15.151-2.989-4.06-12.569-4.148-19.309
			c0.625,3.207,1.249,6.414,1.872,9.617c2.297-6.547,3.025-12.886,0.596-19.303c-1.107-2.925-0.063-5.232,3.413-5.378
			C184.692,243.479,185.303,246.208,185.835,248.848z"/>
		<path fill-rule="evenodd" clip-rule="evenodd" fill="#F7F7F7" d="M141.378,281.164c1.038-0.031,2.077-0.037,3.115-0.022
			c2.094,1.607,5.282,2.658,3.213,6.364c1.772,4.543,6.489,10.014,0.632,13.479c-3.12,1.848-10.061,8.981-13.475-1.219
			C133.231,292.233,136.885,286.551,141.378,281.164z"/>
		<path fill-rule="evenodd" clip-rule="evenodd" fill="#191919" d="M179.485,277.994c1.028-2.108,2.058-4.221,3.086-6.33
			c3.633-2.844,2.271-10.209,9.149-10.12c4.206,4.013,9.092,7.756,0.333,12.433c-2.83,1.51-0.882,4.609,0.099,6.95
			c-3.394,3.66-7.291,5.523-12.292,3.439C179.735,282.243,179.611,280.119,179.485,277.994z"/>
		<path fill-rule="evenodd" clip-rule="evenodd" fill="#010101" d="M141.378,281.164c1.101,7.347-2.687,12.982-6.514,18.602
			c-2.929,1.451-5.113,4.683-9.028,3.777c-1.174-0.924-2.348-1.852-3.523-2.776c1.203-6.444,5.543-11.332,8.398-16.971
			c2.145-2.165,4.716-3.34,7.791-3.324C139.462,280.696,140.42,280.928,141.378,281.164z"/>
		<path fill-rule="evenodd" clip-rule="evenodd" fill="#181818" d="M360.4,207.088c3.137-2.568,6.273-5.136,9.411-7.704
			c3.245,0.794,6.489,1.591,9.735,2.388c0.148,0.775,0.262,1.554,0.341,2.342c1.51,2.326,1.759,4.745,0.538,7.279
			c-1.97,1.929-4.402,2.59-7.074,2.63C368.231,213.226,363.001,212.605,360.4,207.088z"/>
		<path fill-rule="evenodd" clip-rule="evenodd" fill="#FDFDFD" d="M436.708,570.168c-3.157-2.115-6.314-4.23-9.472-6.346
			c-1.816-5.796,1.784-7.977,6.347-9.515c3.257,1.966,4.561,6.851,9.478,6.333C443.05,565.222,440.927,568.394,436.708,570.168z"/>
		<path fill-rule="evenodd" clip-rule="evenodd" d="M179.86,284.368c3.743-2.413,7.805-3.688,12.292-3.436
			c-1.087,3.346-2.175,6.692-3.262,10.042c-4.154,0.847-8.307,1.69-12.46,2.537C175.379,289.64,177.854,287.091,179.86,284.368z"/>
		<path fill-rule="evenodd" clip-rule="evenodd" d="M93.2,319.32c0.752-2.165-0.54-2.913-2.307-3.328
			c-0.344-3.207-0.688-6.414-1.033-9.617c0.606-0.447,1.211-0.893,1.817-1.343c2.313-0.692,4.497-0.394,6.565,0.85
			c3.221,2.562,4.787,6.048,5.625,9.962c0.915,7.982-2.607,10.271-9.903,7.685C92.602,322.332,92.348,320.927,93.2,319.32z"/>
		<path fill-rule="evenodd" clip-rule="evenodd" fill="#3F3F3F" d="M168.486,306.453c-1.873,2.804-5.179,4.978-4.024,9.118
			c-2.038,3.976-5.516,5.071-9.662,4.845c-3.667-1.56-6.293-4.137-7.676-7.921C154.018,309.675,160.202,304.356,168.486,306.453z"/>
		<path fill-rule="evenodd" clip-rule="evenodd" fill="#2C2C2C" d="M232.377,223.627c-5.339,0.859-8.259,6.994-14.21,6.516
			c-4.449-4.109-1.298-5.66,2.368-7.034c1.358-2.958,4.097-4.146,6.842-5.325c2.073-0.003,4.145-0.006,6.216-0.013l-0.215-0.388
			C235.187,219.807,235.548,221.999,232.377,223.627z"/>
		<path fill-rule="evenodd" clip-rule="evenodd" d="M147.124,312.494c3.511,1.054,7.012,2.115,7.291,6.689
			c-1.222,1.014-2.627,1.551-4.211,1.634c-7.219-2.958-17.54,5-22.406-6.324c1.902-3.821,4.945-3.207,8.116-2.087
			C139.651,312.435,143.388,312.463,147.124,312.494z"/>
		<path fill-rule="evenodd" clip-rule="evenodd" fill="#1A1A1A" d="M364.167,198.364c-9.075-0.112-18.149-0.22-27.226-0.332
			C346.063,194.403,355.141,194.248,364.167,198.364z"/>
		<path fill-rule="evenodd" clip-rule="evenodd" fill="#242424" d="M288.638,201.282c-8.143,0.021-16.285,0.04-24.43,0.062
			C272.341,197.79,280.486,197.771,288.638,201.282z"/>
		<path fill-rule="evenodd" clip-rule="evenodd" fill="#F9F9F9" d="M115.954,262.115c0,0.89,0.001,1.78,0.004,2.67
			c-0.964,4.618-4.222,6.004-8.462,6.02c-1.535-0.286-2.867-0.974-3.996-2.057l-0.473-0.592
			C106.403,264.147,109.278,259.063,115.954,262.115z"/>
		<path fill-rule="evenodd" clip-rule="evenodd" fill="#3A3A3A" d="M204.806,239.106c-3.148,2.403-6.294,4.807-9.442,7.208
			c-1.014,1.058-1.937,0.983-2.771-0.22c-1.71-7.462,5.88-6.324,8.792-9.509C204.607,234.603,204.901,236.591,204.806,239.106z"/>
		<path fill-rule="evenodd" clip-rule="evenodd" fill="#F3F3F3" d="M147.707,287.506c-1.07-2.122-2.142-4.243-3.213-6.361
			c4.238-2.109,2.627-10.101,9.557-9.5C150.033,276.171,152.815,283.416,147.707,287.506z"/>
		<path fill-rule="evenodd" clip-rule="evenodd" d="M316.032,202.473c-0.187,2.658-1.157,4.807-3.806,5.868
			c-3.843,1.399-6.463-0.586-8.854-3.201c0.025-0.986,0.022-1.972-0.012-2.962C307.584,202.278,311.808,202.374,316.032,202.473z"/>
		<path fill-rule="evenodd" clip-rule="evenodd" fill="#D4D4D4" d="M87.216,287.491c0.977-0.065,1.954-0.081,2.932-0.046
			c6.13,6.153,5.039,12.666,0.965,19.328l-0.78,0.289l-0.473-0.686C84.031,300.771,88.21,293.768,87.216,287.491z"/>
		<path fill-rule="evenodd" clip-rule="evenodd" fill="#333333" d="M204.806,239.106c-1.14-0.84-2.279-1.681-3.421-2.521
			c3.33-5.548,7.768-5.555,12.803-2.562C211.062,235.72,207.934,237.413,204.806,239.106z"/>
		<path fill-rule="evenodd" clip-rule="evenodd" fill="#E7E7E7" d="M192.593,246.094c0.956-0.313,1.878-0.239,2.771,0.22
			c2.343,3.709,6.167,2.875,9.631,3.142c-5.542,5.353-10.75,1.557-16.019-0.586C190.182,247.945,191.388,247.018,192.593,246.094z"
			/>
		<path fill-rule="evenodd" clip-rule="evenodd" fill="#EFEFEF" d="M227.376,217.785c-2.28,1.774-4.561,3.551-6.842,5.325
			c-1.104-2.152-2.675-4.404,0.087-6.395C223.11,214.922,225.162,217.149,227.376,217.785z"/>
		<path fill-rule="evenodd" clip-rule="evenodd" fill="#282828" d="M135.914,312.407c-2.383,1.058-4.769,2.115-7.153,3.169
			c-2.238,2.137-4.429,2.162-6.569-0.143c1.18-2.041,2.36-4.082,3.54-6.119C129.126,310.345,132.521,311.377,135.914,312.407z"/>
		<path fill-rule="evenodd" clip-rule="evenodd" fill="#F4F4F4" d="M239.928,208.458c-1.014,1.126-2.028,2.252-3.042,3.377
			c-1.397-2.934-4.412-3.768-8.431-4.603C233.956,203.834,237.208,204.771,239.928,208.458z"/>
		<path fill-rule="evenodd" clip-rule="evenodd" fill="#FEFEFE" d="M455.733,466.275c-3.241,2.899-6.482,5.8-9.724,8.699
			c-16.652,6.091-24.808,0.258-27.868-19.911c0.56-3.511,2.095-6.568,4.387-9.264c3.242-2.928,6.955-4.553,11.427-3.994
			c6.04,2.013,9.256,5.867,8.118,12.521c-5.396,11.435,5.936,2.865,7.398,6.097C452.329,461.555,454.935,462.957,455.733,466.275z"
			/>
		<path fill-rule="evenodd" clip-rule="evenodd" fill="#060606" d="M420.714,452.639c2.377,18.639,6.175,21.991,25.296,22.336
			c-0.006,5.278-0.014,10.557-0.02,15.836c-2.001,2.134-0.994,5.303-2.601,7.576c-2.695,3.073-3.387,7.998-8.321,9.003
			c-4.146-1.618-4.667-5.328-5.238-9.016c1.548-11.72-5.449-18.372-14.262-23.948c-3.436-3.238-5.88-6.919-5.35-11.931
			C413.165,458.637,413.769,452.254,420.714,452.639z"/>
		<path fill-rule="evenodd" clip-rule="evenodd" fill="#161616" d="M458.812,414.901c1.114,0.896,2.229,1.792,3.345,2.688
			c14.506,9.311,9.596,22.386,6.792,35.052c-2.115,2.221-2.441,6.401-6.776,6.196c-2.74-2.217-3.325-5.291-2.743-8.441
			c0.99-5.384-2.935-1.97-4.557-2.711c-3.308-1.051-4.255-3.613-4.422-6.702c1.312-7.61-1.563-14.278-4.491-21.021
			c-1.757-4.041-5.85-7.813-2.388-12.893C451.937,403.305,455.541,408.782,458.812,414.901z"/>
		<path fill-rule="evenodd" clip-rule="evenodd" fill="#F4F4F4" d="M468.948,452.642c1.42-12.399,1.876-24.609-6.792-35.052
			c2.108-2.078,4.219-4.152,6.329-6.228c6.163-0.04,10.015,5.65,15.86,6.398c-2.448,7.645-12.582,12.194-8.971,22.28
			C476.619,445.968,475.712,450.8,468.948,452.642z"/>
		<path fill-rule="evenodd" clip-rule="evenodd" fill="#EEEEEE" d="M455.727,447.146c5.836-1.002,0.453-9.268,7.813-10.394
			c4.717,7.583-4.721,14.804-1.367,22.085c0.178,4.491-2.66,6.361-6.438,7.428c-2.134-1.451-4.268-2.912-6.401-4.373
			c-1.923-4.273,1.758-6.983,2.865-10.42C453.004,449.729,454.128,448.241,455.727,447.146z"/>
		<path fill-rule="evenodd" clip-rule="evenodd" fill="#262626" d="M516.01,350.784c-2.033,3.47-4.066,6.94-6.101,10.411
			c-8.15-1.132-6.048-7.146-5.097-11.838c1.32-6.538,3.093-13.035,5.783-19.213c1.35-2.305,3.186-3.995,5.876-4.581
			c1.1,1.532,2.199,3.064,3.297,4.6C521.392,337.559,517.208,343.898,516.01,350.784z"/>
		<path fill-rule="evenodd" clip-rule="evenodd" fill="#080808" d="M442.936,497.466c0.135-2.624,0.58-5.108,3.055-6.655
			c0.222,8.51,0.443,17.017,0.667,25.527l-0.817-0.416c-3.695,1.358-5.676-0.626-7.129-3.65
			C439.486,507.16,439.206,501.739,442.936,497.466z"/>
		<path fill-rule="evenodd" clip-rule="evenodd" fill="#F2F2F2" stroke="#050000" stroke-width="6" stroke-miterlimit="10" d="
			M442.936,497.466c0.398,5.297,0.581,10.56-2.311,15.364c4.65,10.281,0.272,19.353-3.815,28.461
			c-1.076,4.339-2.152,8.678-3.229,13.017c-2.114,3.17-4.229,6.342-6.345,9.515c-4.22,2.134-7.527,5.192-9.599,9.5
			c-6.217,7.186-13.979,11.677-23.337,13.419c-8.26-0.14-16.932,2.333-24.314-3.653c-2.269-5.303-3.849-10.659-0.915-16.264
			c4.9-3.886,10.266-0.626,15.391-1.017c5.758,0.03,10.954-2.106,16.13-4.28c5.924-2.512,10.258-7.04,14.628-11.516
			c1.408-1.531,2.862-3.021,4.236-4.574c3.816-4.181,5.248-9.506,7.005-14.669c1.28-3.864,2.664-7.701,3.385-11.729
			c0.349-2.035,0.872-4.02,1.588-5.952c0.944-2.673,2.692-4.775,4.729-6.674C437.434,502.686,434.14,495.499,442.936,497.466z"/>
		<path fill-rule="evenodd" clip-rule="evenodd" fill="#444444" d="M436.81,541.291c1.272-9.487,2.544-18.974,3.815-28.461
			c1.738,1.029,3.477,2.059,5.215,3.092C444.361,524.925,448.158,535.802,436.81,541.291z"/>
		<path fill-rule="evenodd" clip-rule="evenodd" fill="#F8F8F8" d="M103.252,360.565c-3.177,1.057-6.355,2.115-9.532,3.172
			c-5.818-8.681,8.203-9.406,6.578-16.406c6.406,0.403,9.338,3.074,6.285,9.642C105.473,358.171,104.362,359.368,103.252,360.565z"
			/>
		<path fill-rule="evenodd" clip-rule="evenodd" fill="#FEFEFE" d="M93.2,319.32c0.354,1.029,0.709,2.059,1.063,3.089
			c1.501,1.625,3.813,2.472,4.618,4.782c0.676,3.151,0.6,6.063-2.58,7.964C85.266,331.837,84.231,326.559,93.2,319.32z"/>
		<path fill-rule="evenodd" clip-rule="evenodd" d="M96.3,335.156c0.037-3.126,0.074-6.252,0.111-9.378
			c2.939-2.583,5.6-1.752,8.146,0.648c2.776,4.928,4.868,9.878,0.29,14.952c-1.366,0.902-2.767,0.946-4.191,0.13
			C99.205,339.389,97.751,337.274,96.3,335.156z"/>
		<path fill-rule="evenodd" clip-rule="evenodd" d="M100.656,341.507c1.019-0.037,2.036-0.087,3.053-0.152
			c3.878-0.834,6.221,1.153,7.947,4.305c1.306,4.177,1.458,8.144-2.191,11.373l-1.447,0.264l-1.436-0.323
			c0.158-4.683-2.179-7.741-6.285-9.642C100.417,345.39,100.537,343.449,100.656,341.507z"/>
		<path fill-rule="evenodd" clip-rule="evenodd" fill="#E2E2E2" d="M521.963,303.314c-1.928,3.272-3.855,6.544-5.784,9.813
			c-1.5,1.19-1.954,3.008-2.756,4.621c-0.62,1.787-1.475,3.437-2.722,4.882c-0.893,0.934-1.884,1.74-2.958,2.453
			c-1.647,1.088-3.373,2.031-5.146,2.906c-3.121,1.501-6.319,2.667-9.876,2.317c-3.539-0.453-7.089-0.741-10.671-0.651
			c-6.084-0.053-12.194,0.372-18.179-1.15c-6.584-2.208-12.529-5.759-18.686-8.886c-4.042-2.316-7.565-5.291-10.847-8.582
			c-5.41-6.559-10.537-13.122,1.714-18.009c4.534-0.745,6.933,2.031,8.933,5.446c4.637,6.746,11.988,9.825,18.689,13.795
			c11.289,7.019,22.776,1.941,34.201,0.58c2.883-1.941,5.766-3.883,8.648-5.824c1.379-3.97,1.498-8.641,6.045-10.852
			C518.064,295.443,520.486,298.758,521.963,303.314z"/>
		<path fill-rule="evenodd" clip-rule="evenodd" fill="#F6F6F6" d="M521.963,303.314c-2.866-2.103-5.731-4.206-8.596-6.308
			c-1.382-0.813-2.791-2.078-2.685-3.511c0.732-9.841-4.219-1.036-6.159-1.932c-5.5-2.016-9.008-6.383-12.596-10.669
			c-0.814-1.135-1.495-2.354-2.117-3.604c-0.602-1.262-0.987-2.596-1.214-3.976c-0.375-4.575,3.324-7.341,4.927-11.047
			c1.28-0.087,2.56-0.177,3.841-0.267c2.01,0.249,4.021,0.493,6.03,0.738c3.684,3.43,9.008-1.175,12.624,2.581
			C531.438,278.516,532.492,285.239,521.963,303.314z"/>
		<path fill-rule="evenodd" clip-rule="evenodd" fill="#F4F4F4" d="M423.681,249.297c1.314,0.109,2.63,0.214,3.943,0.32
			c-2.308,11.748-9.266,9.686-16.892,5.722c-7.026-8.367-18.716-12.734-21.486-24.817c-0.031-2.469,0.567-4.751,2.023-6.773
			c1.947-1.579,4.173-1.976,6.587-1.52C409.646,228.205,413.489,241.78,423.681,249.297z"/>
		<path fill-rule="evenodd" clip-rule="evenodd" fill="#070707" d="M503.392,289.895c5.097-2.23,3.858-8.737,8.104-11.841
			c7.174,5.682-1.662,13.004,1.872,18.953c-2.281,3.34-4.561,6.677-6.842,10.018c-0.623-7.822-8.451-6.811-12.616-10.288
			c-1.775-2.261-2.005-4.565-0.188-6.928C496.964,287.665,500.187,288.018,503.392,289.895z"/>
		<path fill-rule="evenodd" clip-rule="evenodd" d="M423.681,249.297c-14.204-2.574-16.245-17.293-25.134-25.177
			c-0.589-2.958,0.203-4.494,3.527-3.421c6.974,3.734,11.18,10.08,15.45,16.366C418.847,241.51,425.735,243.154,423.681,249.297z"/>
		<path fill-rule="evenodd" clip-rule="evenodd" fill="#030303" d="M411.342,252.455c6.325,4.203,12.374,6.823,16.282-2.837
			c4.4-0.605,3.284,4.435,5.845,5.712c1.045,0.949,1.396,2.109,1.059,3.474c-1.018,2.431-2.82,4.097-5.122,5.25
			c-1.409,0.76-2.849,1.517-3.894,2.801c-0.327,1.023-0.525,2.047-0.498,3.135c0.169,1.783,0.202,3.526-0.583,5.201
			c-0.541,0.36-1.071,0.691-1.623,1.039c-1.329,0.292-2.627,0.267-3.933-0.099c-3.321-1.641-4.959-4.68-6.573-7.753
			c-1.554-3.911-4.37-7.267-5.146-11.534C407.599,254.471,409.034,253.047,411.342,252.455z"/>
		<path fill-rule="evenodd" clip-rule="evenodd" fill="#161616" d="M497.877,312.848c-11.875,7.896-23.875,7.285-35.965,0.527
			c-1.2-1.492-1.084-2.872,0.35-4.144C473.549,316.194,486.348,308.258,497.877,312.848z"/>
		<path fill-rule="evenodd" clip-rule="evenodd" fill="#141414" d="M443.384,300.141c-2.252-2.143-4.502-4.283-6.754-6.426
			c-0.578-0.323-1.156-0.645-1.747-0.952c-1.553-1.275-2.957-2.708-4.425-4.084c-3.778-3.846-9.04-6.991-6.705-13.795l0.311-0.108
			c1.432-1.759,3.292-2,5.352-1.526c1.617,4.01,5.081-0.335,7.173,1.566c3.397,7.065,6.796,14.13,10.193,21.195
			C448.383,299.636,446.194,300.145,443.384,300.141z"/>
		<path fill-rule="evenodd" clip-rule="evenodd" fill="#1B1B1B" d="M493.919,291.163c-0.004,1.858-0.007,3.716-0.01,5.573
			c-12.532-2.608-14.313-11.205-12.228-21.955c2.891-2.217,5.741-2.729,8.516,0.189l1.04-0.307c0.591,1.29,0.899,2.646,0.931,4.063
			C491.73,283.016,494.083,286.911,493.919,291.163z"/>
		<path fill-rule="evenodd" clip-rule="evenodd" fill="#282828" d="M443.384,300.141c1.132-1.377,2.264-2.754,3.397-4.131
			c5.159,4.407,10.319,8.814,15.48,13.221c-0.116,1.383-0.233,2.763-0.35,4.144C453.78,311.7,447.183,307.879,443.384,300.141z"/>
		<path fill-rule="evenodd" clip-rule="evenodd" d="M436.588,274.815c-2.231,0.583-4.638,3.365-6.51-0.524
			c-0.907-0.599-1.535-1.411-1.902-2.432c-0.398-0.971-0.694-1.969-0.947-2.983c-0.512-1.495-1.12-2.965-1.231-4.565
			c0.382-1.039,1.104-1.749,2.113-2.18c1.49-1.048,2.979-2.1,4.468-3.148c4.79,1.852,0.969,6.91,3.571,9.58
			C436.295,270.647,436.441,272.731,436.588,274.815z"/>
		<path fill-rule="evenodd" clip-rule="evenodd" fill="#0C0C0C" d="M490.197,274.971c-2.838-0.062-5.676-0.127-8.516-0.189
			c2.021-5.995,6.119-10.023,11.842-12.514C495.434,267.295,489.22,270.191,490.197,274.971z"/>
		<path fill-rule="evenodd" clip-rule="evenodd" fill="#F4F4F4" d="M434.797,234.116c-1.077,1.34-1.989,3.471-3.532,4.137
			c-1.884,0.813-2.462-1.135-1.635-2.543c0.922-1.569,2.407-2.804,3.647-4.184C433.694,232.237,434.111,232.947,434.797,234.116z"/>
		<path fill-rule="evenodd" clip-rule="evenodd" fill="#343434" d="M436.149,268.563c-3.494-2.338-2.596-6.305-3.565-9.58
			c0.292-1.219,0.588-2.435,0.885-3.653C439.857,258.626,435.089,264.184,436.149,268.563z"/>
		<path fill-rule="evenodd" clip-rule="evenodd" fill="#030303" d="M106.47,268.988c3.163-1.399,6.325-2.801,9.488-4.203
			c10.09,1.526,19.794,3.61,22.544,15.687c-1.141,2.707-3.374,3.697-6.119,3.879c-6.754-5.151-13.886-9.475-22.632-10.265
			C107.646,273.035,106.004,271.686,106.47,268.988z"/>
		<path fill-rule="evenodd" clip-rule="evenodd" fill="#F5F5F5" d="M516.019,265.319c-3.854-2.593-9.938,5.722-12.624-2.581
			C507.838,262.447,512.642,260.394,516.019,265.319z"/>
		<path fill-rule="evenodd" clip-rule="evenodd" fill="#FEFEFE" d="M516.472,325.563c-1.152,1.11-2.305,2.224-3.455,3.337
			c-0.445-0.366-0.89-0.732-1.341-1.098c-0.549-1.039-0.862-2.143-0.96-3.315c0.146-1.157,0.37-2.301,0.668-3.433
			c0.282-1.175,0.889-2.137,1.87-2.856c1.309-0.248,2.182,0.286,2.685,1.489C516.115,321.643,516.293,323.603,516.472,325.563z"/>
		<path fill-rule="evenodd" clip-rule="evenodd" fill="#0C0C0C" d="M515.938,319.686l-1.478-0.307l-1.51,0.031
			c-0.9-0.726-1.2-1.452-0.897-2.174c0.301-0.723,0.602-1.085,0.904-1.085c1.073-1.008,2.147-2.016,3.221-3.023
			C516.098,315.313,516.019,317.5,515.938,319.686z"/>
		<path fill-rule="evenodd" clip-rule="evenodd" fill="#F9F9F9" d="M214.183,322.458c-1.455,0.363-2.908,0.726-4.362,1.089
			c2.094-12.235-6.369-20.454-11.405-29.978c6.074-14.064,7.688-29.078,9.38-44.077c8.715-4.33,17.431-8.662,26.146-12.992
			c5.159-4.013,9.56-9.016,15.549-11.965c4.798-2.214,9.589-4.562,15-1.876c3.604,3.464,2.022,8.411,3.607,12.468
			c-1,9.574,7.5,17.957,3.561,27.912c-2.936,3.377-6.707,5.704-10.343,8.191c-8.887,5.84-15.558,14.052-22.916,21.523
			c-4.571,4.032-6.429,11.357-14.03,11.705c-1.37-0.236-3.199-1.585-4.083-0.577c-1.586,1.814,0.856,3.288,1.375,5.009
			c0.5,1.358,0.636,2.723,0.502,4.141C220.797,317.276,219.086,321.225,214.183,322.458z"/>
		<path fill-rule="evenodd" clip-rule="evenodd" d="M191.72,261.545c-3.683,2.8-3.824,8.805-9.149,10.12
			c0.161-5.291,0.323-10.582,0.482-15.873C187.091,255.981,190.187,257.587,191.72,261.545z"/>
		<path fill-rule="evenodd" clip-rule="evenodd" fill="#202020" d="M379.405,211.743c0.161-2.543,0.322-5.086,0.482-7.629
			c4.903,0.992,9.414,2.68,12.419,7.024c1.543,3.591-0.412,5.697-3.169,7.468C384.208,218.712,379.774,218.104,379.405,211.743z"/>
		<path fill-rule="evenodd" clip-rule="evenodd" fill="#0B0B0B" d="M389.044,217.723c1.087-2.196,2.176-4.389,3.263-6.584
			c4.539,1.876,8.018,4.835,9.768,9.562c-1.177,1.138-2.352,2.28-3.527,3.421c-2.063-0.146-4.13-0.292-6.193-0.438
			C389.455,222.691,387.582,221.134,389.044,217.723z"/>
		<path fill-rule="evenodd" clip-rule="evenodd" fill="#F4F4F4" d="M252.545,211.886c15.139-3.104,30.44-8.991,44.739,2.565
			c7.183,4.354,8.659,11.019,7.604,18.726c-2.053,3.957-5.258,5.827-9.746,5.362c-2.271-0.564-4.053-1.883-5.514-3.657
			c-2.597-3.849-3.512-8.864-7.885-11.509c-4.284-2.574-9.108-1.641-13.714-2.13c-2.865-0.546-5.827-0.431-8.642-1.333
			C255.999,218.178,252.19,216.795,252.545,211.886z"/>
		<path fill-rule="evenodd" clip-rule="evenodd" fill="#121212" d="M302.612,233.58c0.622-7.043-3.288-12.827-5.328-19.129
			c0.981-1.117,1.965-2.233,2.946-3.35c4.17-2.295,8.356,6.789,12.521-0.019c1.208,1.178,2.416,2.357,3.622,3.536
			c2.281,11.196,0.394,22.863,3.816,33.935c-1.205,2.214-3.23,3.008-5.583,3.222c-4.777-0.409-9.412-2.986-14.388-1.021
			c-1.461,0.05-2.788-0.347-3.998-1.16c-1.247-1.898-1.46-3.948-0.921-6.113C296.696,239.419,301.724,238.033,302.612,233.58z"/>
		<path fill-rule="evenodd" clip-rule="evenodd" fill="#FDFDFD" d="M252.545,211.886c2.101,1.817,4.203,3.638,6.302,5.455
			c-2.347,4.897-7.721,5.629-11.59,8.439c-2.375,1.284-4.59,3.477-7.572,1.355c-2.436-1.169-4.872-2.338-7.308-3.508
			c0.333-2.081,0.667-4.162,1-6.243C240.916,219.555,246.067,213.408,252.545,211.886z"/>
		<path fill-rule="evenodd" clip-rule="evenodd" fill="#D3D3D3" d="M312.751,211.083c-4.162,8.417-8.343,3.123-12.521,0.019
			c1.047-1.985,2.093-3.973,3.142-5.961c3.888-1.523,5.972,1.941,8.854,3.201C312.445,209.247,312.62,210.161,312.751,211.083z"/>
		<path fill-rule="evenodd" clip-rule="evenodd" fill="#2C2C2C" d="M239.686,227.135c2.211-1.023,4.423-2.05,6.634-3.077
			c3.21-1.241,3.692,0.254,2.968,2.958c-3.948,5.052-8.985,8.34-15.346,9.484C233.77,232.101,237.602,230.153,239.686,227.135z"/>
		<path fill-rule="evenodd" clip-rule="evenodd" fill="#EDEDED" d="M319.778,249.17c-11.025-10.542-7.398-22.532-3.405-34.552
			c13.396-9.993,28.118-12.235,44.027-7.53c5.368-1.365,8.893,2.149,12.74,4.81c0.949,3.501-0.785,5.663-3.618,7.279
			c-4.52,1.439-8.47-0.558-12.498-2.053c-5.032-2.224-10.094-2.397-15.177-0.13c-4.334,1.814-8.625,3.678-12.265,6.736
			c-1.797,3.557-11.591,8.513,2.326,8.718c8.783,0.133,9.92,7.313,8.772,14.707c-1.912,4.962-5.438,7.729-10.817,7.992
			C325.523,254.812,321.907,253.239,319.778,249.17z"/>
		<path fill-rule="evenodd" clip-rule="evenodd" fill="#191919" d="M170.356,319.472c-6.468,3.312-12.937,6.627-19.407,9.94
			c-2.165,1.361-4.368,1.411-6.612,0.198c-1.639-1.972-1.896-4.181-1.126-6.565c1.782-3.136,4.829-3.613,8.012-3.806
			c1.063-0.019,2.126-0.037,3.19-0.053c3.193-1.644,6.02-4.301,10.048-3.616c0.919-0.056,1.713,0.233,2.383,0.862
			C168.033,317.425,169.899,317.636,170.356,319.472z"/>
		<path fill-rule="evenodd" clip-rule="evenodd" fill="#010101" d="M170.356,319.472c-1.169-1.014-2.34-2.025-3.511-3.04
			c1.988-0.071,3.976-0.143,5.966-0.217C173.216,318.222,172.019,319.022,170.356,319.472z"/>
		<path fill-rule="evenodd" clip-rule="evenodd" fill="#050505" d="M106.47,268.988c1.137,0.921,2.275,1.842,3.411,2.763
			c-6.707,10.755-7.183,23.917-13.463,34.841c-1.768,0.059-3.537,0.118-5.305,0.18c-3.041-6.308,0.242-12.93-0.965-19.328
			c1.591-8.274,9.464-12.062,13.352-18.695C104.521,268.442,105.511,268.52,106.47,268.988z"/>
		<path fill-rule="evenodd" clip-rule="evenodd" fill="#F6F6F6" d="M96.418,306.592c0.535-13.141-1.788-27.388,13.463-34.841
			c10.258-0.723,20.302-1.067,22.502,12.601c0.394,7.772-3.566,12.874-10.07,16.416c-6.477-2.075-11.736-5.319-10.748-14.564
			c-8.192,15.752-5.546,21.682,10.627,29.23c2.189,0.046,4.379,0.096,6.569,0.143c6.741,5.806,16.186-4.99,22.463,3.663
			c-0.929,3.554-4.326,2.751-6.683,3.787c-5.246,4.149-11.454,3.588-17.543,3.613c-3.393-0.049-6.752-0.418-10.036-1.312
			c-6.519-1.554-11.976-4.984-16.723-9.636C101.157,311.737,97.921,309.529,96.418,306.592z"/>
		<path fill-rule="evenodd" clip-rule="evenodd" fill="#F6F6F6" d="M369.805,218.203c1.112-2.1,2.224-4.202,3.336-6.305
			c2.089-0.049,4.178-0.102,6.265-0.155c3.213,1.991,6.426,3.985,9.639,5.979c1.103,1.988,2.205,3.973,3.31,5.96
			c-0.095,2.379-0.189,4.761-0.284,7.143c-1.932,1.405-4.058,1.712-6.347,1.126C380.1,227.746,371.5,226.964,369.805,218.203z"/>
		<path fill-rule="evenodd" clip-rule="evenodd" fill="#121212" d="M100.239,315.691c5.359,2.208,10.718,4.417,16.076,6.625
			c-1.363,3.582-3.875,6.119-7.202,7.924c-2.278,0.604-4.326,0.335-5.922-1.598c-1.611-2.487-4.064-2.986-6.78-2.865
			c-1.845-0.403-2.931-1.291-2.149-3.368C99.324,322.899,103.07,322.223,100.239,315.691z"/>
		<path fill-rule="evenodd" clip-rule="evenodd" fill="#FBFBFB" d="M493.986,328.823c3.262-1.175,6.522-2.348,9.784-3.52
			c0.523,0.13,1.048,0.264,1.573,0.384c1.01,0.369,1.999,0.791,2.985,1.213c1.551,0.428,3.157,0.732,4.457,1.78l0.23,0.22
			c0.462,7.859-2.3,15.023-5.157,22.057c-1.69,4.162-3.23,7.726,2.05,10.238c-0.09,0.831-0.137,1.662-0.141,2.5
			c-2.74,2.453-4.229,5.607-5.074,9.115c-1.537,3.836-3.033,7.704-6.238,10.538c-1.118,0.608-2.334,0.884-3.582,0.841
			c-3.571-1.777-3.067,1.917-4.349,3.334c-1.183,0.933-2.427,1.634-3.825,2.162c-16.243,3.036-32.614,7.685-47.254-4.779
			c-1.503-2.1-2.125-4.454-1.986-7.015c0.419-2.438,1.512-4.41,3.888-5.446c2.786,0.878,9.893,0.788,10.179-0.14
			c-0.215-1.247-0.234-2.487-0.1-3.731c0.725-2.382,2.398-4.233,3.529-6.395c0.443-1.138,0.942-2.245,1.417-3.377
			c0.435-1.197,0.967-2.332,1.54-3.458c1.82-3.504,3.869-6.851,6.217-10.023c4.024-4.742,4.954-11.705,10.806-15.144
			c2.667-1.333,5.559-1.222,8.418-1.309C486.897,328.826,490.442,328.844,493.986,328.823z"/>
		<path fill-rule="evenodd" clip-rule="evenodd" fill="#0E0E0E" d="M439.882,382.845c16.385,10.157,33.8,5.793,51.06,3.625
			c2.379-0.146,4.328,0.67,5.788,2.587c-2.143,3.417-5.475,3.641-9,3.355c-9.546,3.703-19.723-0.468-29.318,2.335
			c-4.982,5.446-18.593-0.986-17.608,12.775c-5.563,5.269-10.273,3.216-14.669-1.672c-2.669-6.981-0.267-13.296,2.56-19.567
			C431.726,382.889,435.154,380.74,439.882,382.845z"/>
		<path fill-rule="evenodd" clip-rule="evenodd" fill="#FBFBFB" d="M440.57,405.076c-2.479-3.328-6.09-7.775-3.219-10.985
			c5.579-6.237,12.11,2.972,18.456,0.512c1.306-0.626,2.337-0.285,3.132,0.887c-0.043,6.472-0.085,12.942-0.128,19.412
			c-4.922-3.015-8.472-9.245-15.757-6.715C441.659,407.604,440.858,406.543,440.57,405.076z"/>
		<path fill-rule="evenodd" clip-rule="evenodd" fill="#202020" d="M458.939,395.49c-1.043-0.295-2.087-0.589-3.132-0.887
			c10.366-4.742,21.286-1.396,31.922-2.189C478.656,398.334,468.475,393.889,458.939,395.49z"/>
		<path fill-rule="evenodd" clip-rule="evenodd" fill="#FEFEFE" d="M484.346,417.761c-6.574,1.061-11.807-1.21-15.861-6.398
			C476.703,406.229,479.188,415.311,484.346,417.761z"/>
		<path fill-rule="evenodd" clip-rule="evenodd" fill="#575757" d="M497.312,382.963c1.896-3.412,3.794-6.823,5.69-10.235
			c1.962,0.373,2.149,2.311,3.131,3.548c-1.7,3.433-1.316,8.06-5.704,9.949C498.6,385.894,497.644,384.728,497.312,382.963z"/>
		<path fill-rule="evenodd" clip-rule="evenodd" fill="#292929" d="M506.133,376.277c-1.043-1.182-2.087-2.367-3.131-3.548
			c0.105-4.624,0.796-8.805,6.767-9.034C508.557,367.888,507.346,372.083,506.133,376.277z"/>
		<path fill-rule="evenodd" clip-rule="evenodd" fill="#0A0A0A" d="M497.312,382.963c1.039,1.088,2.078,2.177,3.117,3.263
			c-1.233,0.943-2.466,1.889-3.699,2.832c-1.93-0.862-3.859-1.725-5.788-2.587l-0.456-0.986c0.963-1.362,2.263-1.768,3.851-1.349
			C495.326,383.745,496.319,383.354,497.312,382.963z"/>
		<path fill-rule="evenodd" clip-rule="evenodd" fill="#1B1B1B" d="M455.573,453.262c-2.081,2.875-4.16,5.753-6.241,8.631
			c-2.376,0.791-4.758,1.561-7.126,2.376c-3.894,1.34-9.547,3.22-11.135-0.536c-2.807-6.634,6.471-4.286,8.257-8.21
			c2.313-1.417,5.342-0.84,7.491-2.732C449.817,451.426,452.888,449.068,455.573,453.262z"/>
		<path fill-rule="evenodd" clip-rule="evenodd" fill="#383838" d="M446.104,456.674c-2.838,3.029-4.447-1.176-6.775-1.151
			c3.059-6.081-2.609-8.798-4.936-12.802c0.438-3.439,2.424-5.663,5.521-7.021c0.794-0.016,1.586-0.022,2.385-0.037
			c1.529,0.61,2.765,1.584,3.738,2.912C450.044,444.588,450.045,450.626,446.104,456.674z"/>
		<path fill-rule="evenodd" clip-rule="evenodd" fill="#1D1D1D" d="M439.813,438.152c-1.807,1.522-3.614,3.045-5.421,4.568
			c-3.292,1.246-6.583,2.496-9.875,3.746c-2.354,1.765-4.75,1.733-7.188,0.158c-1.266-4.02,0.724-6.857,3.398-9.469
			C427.297,433.435,433.867,429.961,439.813,438.152z"/>
		<path fill-rule="evenodd" clip-rule="evenodd" fill="#030303" d="M418.081,446.377c2.146,0.031,4.292,0.059,6.437,0.09
			c-0.831,2.326-0.805,5.183-3.804,6.172c-4.126,1.988-2.052,9.316-8.222,9.543c-2.753-0.71-3.561-2.896-4.064-5.325
			c-0.246-2.45,0.172-4.776,1.315-6.966C411.812,447.044,414.7,446.129,418.081,446.377z"/>
		<path fill-rule="evenodd" clip-rule="evenodd" fill="#FBFBFB" d="M411.675,449.633c-0.026,2.054-0.051,4.106-0.077,6.156
			c-4.175,4.981-1.484,12.908-8.194,17.173c5.378,1.216,9.791,0.127,14.217-0.741c9.886,4.996,18.415,10.861,15.393,24.101
			c-2.832,5.809,0.521,11.44,0.499,17.169c-0.039,2.084-0.079,4.168-0.118,6.253c-3.45,2.654-4.305,6.687-5.579,10.504
			c-2.579,5.831-3.368,12.359-7.006,17.759c-1.007,1.023-2.012,2.044-3.017,3.063c-6.204,4.237-11.646,9.651-18.92,12.238
			c-5.033,2.097-10.098,4.041-15.714,3.555c-4.86-0.031-8.836-2.888-13.316-4.141c-14.655-10.653-1.074-16.093,4.217-23.09
			c7.679-14.27,6.815-18.559-5.649-27.603c-0.963-0.443-1.871-0.964-2.82-1.404c-24.833-11.476-24.834-11.473-4.729-29.792
			c2.982-3.204,6.105-6.228,10.487-7.431c7.005-0.158,5.721-5.186,5.544-9.568c0.311-3.883,1.934-6.965,5.352-8.972
			c11.613-3.3,20.439-8.548,15.839-22.981c-1.02-3.2-1.656-7.827,1.667-8.141c13.69-1.29,15.917-11.159,18.003-21.632
			c0.158-0.794,1.65-1.055,2.767-1.12c2.334,0.701,3.785,2.366,4.877,4.432c3.73,6.879,8.857,12.691,13.9,18.605
			c3.162,3.706,8.291,7.241,3.363,13.152c-1.123-0.183-2.07,0.144-2.846,0.975c-6.089,0.602-12.759-3.846-18.235,2.097
			C416.776,441.793,413.94,445.412,411.675,449.633z"/>
		<path fill-rule="evenodd" clip-rule="evenodd" fill="#FAFAFA" d="M417.62,472.221c-2.594,4.701-6.702,6.845-11.756,5.394
			c-2.789-0.804-6.523-2.755-7.353-5.071c-2.165-6.051,4.321-1.135,5.471-3.557c2.182-4.606,2.649-10.198,7.615-13.197
			c0.298,2.131,0.596,4.262,0.895,6.393C413.23,466.024,414.232,469.733,417.62,472.221z"/>
		<path fill-rule="evenodd" clip-rule="evenodd" fill="#363636" d="M433.512,513.49c-7.192-5.518-1.222-11.419-0.499-17.169
			c1.05,3.365,2.101,6.729,3.15,10.092C437.01,509.422,436.306,511.847,433.512,513.49z"/>
		<path fill-rule="evenodd" clip-rule="evenodd" fill="#FAFAFA" d="M442.659,437.178c1.368-8.072-6.998-9.536-10.084-14.65
			c-3.395-5.623-9.952-9.556-8.574-17.501c1.12-1.222,2.273-1.2,3.457-0.1c4.348,2.138,8.665,6.892,13.112,0.149
			c0.828,1.036,1.656,2.071,2.484,3.11c5.146,10.052,15.525,18.5,9.8,31.892c-4.455,2.577-7.111-1.123-10.304-2.953L442.659,437.178
			z"/>
		<path fill-rule="evenodd" clip-rule="evenodd" fill="#F7F7F7" d="M442.551,437.125c3.435,0.986,6.869,1.97,10.304,2.953
			c-0.654,3.012-0.494,5.69,2.872,7.068c-0.051,2.037-0.103,4.078-0.153,6.115c-4.544-2.714-6.193,2.605-9.47,3.412
			C447.628,449.664,443.439,443.694,442.551,437.125z"/>
		<path fill-rule="evenodd" clip-rule="evenodd" fill="#FAFAFA" d="M369.991,567.652c-1.628,4.091,4.181,8.812-1.065,12.595
			c-28.677,1.467-47.331-30.653-33.755-58.079c3.16-3.814,5.891-8.014,9.649-11.342c8.962-6.661,17.475-3.836,25.88,1.24
			c9.726,8.126,12.026,17.489,4.752,28.437c-3.817,6.404-10.957,6.867-17.051,8.632c-0.311,7.108,5.186,9.174,8.733,12.65
			C368.868,563.363,370.021,565.225,369.991,567.652z"/>
		<path fill-rule="evenodd" clip-rule="evenodd" fill="#101010" d="M338.489,522.959c-10.573,27.36,1.694,50.45,30.437,57.288
			c8.277,4.854,17.432,1.439,26.082,2.77c-12.282,6.352-26.017,6.628-36.599-0.347c-17.324-11.42-31.391-7.744-45.913,3.492
			c-4.537-7.124,0.226-11.634,4.539-16.273c9.315-4.643,5.681-13.115,5.951-20.435c-0.779-12.304-1.074-24.42,11.966-31.448
			C337.599,518.61,339.61,519.668,338.489,522.959z"/>
		<path fill-rule="evenodd" clip-rule="evenodd" fill="#111111" d="M369.991,567.652c-1.118-1.145-2.236-2.288-3.354-3.433
			c-0.499-3.331,0.612-4.963,4.199-3.982c3.97,1.383,7.939,2.767,11.909,4.152c2.25,0.983,3.911,2.317,3.041,5.146
			C380.179,571.78,375.428,566.847,369.991,567.652z"/>
		<path fill-rule="evenodd" clip-rule="evenodd" fill="#040404" d="M398.65,560.849c6.947-2.149,10.373-11.196,19.142-9.779
			c-3.804,6.141-8.272,11.454-15.932,12.794C398.502,565.296,398.067,563.611,398.65,560.849z"/>
		<path fill-rule="evenodd" clip-rule="evenodd" fill="#3D3D3D" d="M420.809,548.006c-2.041-7.813,2.975-13.457,6.06-19.697
			c1.904,0.484,2.1,2.379,3.035,3.663C427.008,537.396,428.308,545.195,420.809,548.006z"/>
		<path fill-rule="evenodd" clip-rule="evenodd" fill="#202020" d="M398.65,560.849c1.07,1.005,2.141,2.01,3.21,3.015
			c-4.425,4.53-10.427,4.602-16.074,5.672c-1.014-1.715-2.028-3.43-3.041-5.146C388.047,563.208,393.349,562.026,398.65,560.849z"/>
		<path fill-rule="evenodd" clip-rule="evenodd" fill="#2D2D2D" d="M429.903,531.972c-1.011-1.219-2.022-2.441-3.035-3.663
			c0.915-3.814-1.805-10.398,6.525-8.565C432.23,523.821,431.067,527.896,429.903,531.972z"/>
		<path fill-rule="evenodd" clip-rule="evenodd" fill="#FBFBFB" d="M169.596,366.138c1.341,4.984,2.683,9.968,4.022,14.949
			c-4.942,5.589-11.872,3.725-18.016,4.816c-5.059-0.028-10.125,0.251-15.166-0.332c-5.279-1.389-10.044-4.673-15.814-4.311
			c-2.846-0.543-5.161-1.87-6.578-4.494c-3.255-5.005-3.318-11.689-8.292-15.801c-0.096-1.312-0.192-2.621-0.289-3.933
			c-0.014-3.988-0.026-7.98-0.039-11.968c1.667-4.643,5.558-6.444,9.879-7.726c7.215,1.042,10.033,10.809,18.524,9.261
			c4.598,0.105,7.31,3.272,10.145,6.24c0.738,1.076,1.256,2.267,1.597,3.511c0.668,2.484,2.055,4.395,4.513,5.439
			C159.131,363.747,165.118,362.283,169.596,366.138z"/>
		<path fill-rule="evenodd" clip-rule="evenodd" fill="#161616" d="M176.191,449.559c5.232-6.305,10.42-3.358,15.606,0.074
			c4.922,3.561,7.22,8.303,6.542,14.4c-0.997,6.854-6.635,11.714-7.932,18.453c-0.135,1.479-0.301,2.949-0.403,4.429
			c-0.498,5.197,0.104,10.572-2.445,15.436c-2.298,3.055-4.858,1.969-7.431,0.475c-1.411-1.139-2.393-2.627-3.18-4.222
			c-0.624-0.974-1.512-1.445-2.745-1.269c-2.421,0.934-4.813,2.146-7.017-0.272c-2.23-5.35-4.46-10.703-6.691-16.053
			c0.523-8.445,8.604-5.176,12.617-8.197c4.041-2.114,7.454-4.819,8.777-9.446C182.945,457.529,177.891,454.227,176.191,449.559z"/>
		<path fill-rule="evenodd" clip-rule="evenodd" fill="#FBFBFB" d="M151.64,472.094c-1.306-0.143-2.612-0.286-3.917-0.429
			c-0.136-1.333-0.273-2.667-0.409-4c-6.637-4.963-6.742-12.855-8.901-19.83c0.69-6.197-2.916-13.427,4.317-18.054
			c8.022,5.409,4.913,15.597,9.63,22.414c1.785,3.011,2.142,6.947,5.679,8.845c3.314,2.603,8.706,1.728,10.779,6.433
			c0.769,3.234,0.468,6.172-2.328,8.42C161.049,476.522,155.017,479.487,151.64,472.094z"/>
		<path fill-rule="evenodd" clip-rule="evenodd" fill="#F1F1F1" d="M179.527,499.906c2.129,1.26,4.26,2.521,6.389,3.781
			c4.551,1.652,5.502,5.321,5.406,9.589c-2.115,7.475,4.221,15.789-2.211,22.851c-2.421,1.039-4.662,0.928-6.614-1.032l0.297,0.316
			c-4.991-5.186-4.951-12.908-9.294-18.423c-0.149-1.396-0.296-2.791-0.444-4.187C170.378,506.078,167.201,499.1,179.527,499.906z"
			/>
		<path fill-rule="evenodd" clip-rule="evenodd" fill="#121212" d="M157.335,383.258c5.428-0.723,10.856-1.448,16.284-2.171
			c1.874,6.888,8.335,12.613,5.252,20.754c-4.59,2.925-7.29,0.553-9.441-3.364c0.667-9.053-6.178-8.867-12.089-9.825
			C155.376,386.855,155.38,385.057,157.335,383.258z"/>
		<path fill-rule="evenodd" clip-rule="evenodd" fill="#141414" d="M169.43,398.477c3.146,1.122,6.293,2.242,9.441,3.364
			c-10.943,3.104-18.677,10.207-24.51,19.676c-2.998,0.105-4.948-1.641-6.679-3.777C149.214,404.865,160.938,403.494,169.43,398.477
			z"/>
		<path fill-rule="evenodd" clip-rule="evenodd" fill="#151515" d="M147.682,417.739c2.889,0.087,5.398,0.847,6.679,3.777
			c-2.433,8.233-4.077,16.489-0.74,24.895c-1.319,3.147,0.923,7.338-2.858,9.77c-4.902-7.648-5.968-16.311-6.625-25.078
			c-1.778-2.602-1.566-5.238-0.152-7.899C145.22,421.38,146.451,419.56,147.682,417.739z"/>
		<path fill-rule="evenodd" clip-rule="evenodd" fill="#474747" d="M143.987,423.203c0.051,2.634,0.101,5.267,0.152,7.899
			c-5.389,5.443-1.71,12.418-3.126,18.534c-1.13,1.336-1.355,3.492-3.52,3.895C133.478,442.1,131.606,431.124,143.987,423.203z"/>
		<path fill-rule="evenodd" clip-rule="evenodd" fill="#373737" d="M157.335,383.258c0.001,1.799,0.003,3.595,0.006,5.394
			c-9.99,0.239-20.111,2.41-29.773-2.057c1.135-3.058,3.827-3.895,6.595-4.624c1.39-0.527,2.703-0.351,3.95,0.431
			C144.52,382.687,150.928,382.973,157.335,383.258z"/>
		<path fill-rule="evenodd" clip-rule="evenodd" fill="#505050" d="M182.497,535.095c2.25,0.062,4.5,0.124,6.75,0.186
			c2.543-0.865,3.698,0.661,4.592,2.652c-0.127,5.129,2.911,10.73-2.202,15.141c-1.569,0.224-3.139,0.443-4.708,0.667
			C185.451,547.524,183.973,541.31,182.497,535.095z"/>
		<path fill-rule="evenodd" clip-rule="evenodd" fill="#2F2F2F" d="M179.527,499.906c-9.693,0.515-4.356,8.575-6.471,12.896
			c-9-2.62-6.207-9.636-5.869-15.739c5.283,1.176,5.295-5.384,9.183-6.256c0.836,0.993,1.775,1.87,2.833,2.624
			C179.31,495.59,179.418,497.748,179.527,499.906z"/>
		<path fill-rule="evenodd" clip-rule="evenodd" fill="#131313" d="M137.493,453.531c1.174-1.299,2.348-2.596,3.52-3.895
			c2.101,6.01,4.201,12.018,6.3,18.028C136.492,468.198,138.791,459.616,137.493,453.531z"/>
		<path fill-rule="evenodd" clip-rule="evenodd" fill="#2F2F2F" d="M151.64,472.094c4.515,3.631,9.969,2.707,15.148,3.116
			c3.377-2.868,6.612-3.24,9.606,0.553c-4.044,5.548-11.854-0.301-15.899,5.247c-2.137,0.056-4.273,0.115-6.412,0.171
			C153.269,478.15,152.454,475.123,151.64,472.094z"/>
		<path fill-rule="evenodd" clip-rule="evenodd" fill="#343434" d="M173.5,516.988c10.732,2.289,5.037,12.868,9.294,18.423
			C173.761,532.266,173.667,524.608,173.5,516.988z"/>
		<path fill-rule="evenodd" clip-rule="evenodd" fill="#222222" d="M134.957,383.249c-2.464,1.117-4.926,2.23-7.389,3.346
			c-6.634-0.22-11.888-1.963-11.246-10.203c0.884-1.021,1.658-0.94,2.318,0.235c2.259,1.058,4.519,2.119,6.778,3.176
			C128.942,380.001,132.544,379.979,134.957,383.249z"/>
		<path fill-rule="evenodd" clip-rule="evenodd" fill="#3B3B3B" d="M118.641,376.627l-1.184,0.115l-1.135-0.35
			c-5.337-3.802-6.021-9.586-6.569-15.426C119.635,362.262,116.642,370.862,118.641,376.627z"/>
		<path fill-rule="evenodd" clip-rule="evenodd" fill="#F4F4F4" d="M147.729,493.915c-3.901-7.174,3.01-7.158,6.334-9.528
			C154.051,488.959,151.968,492.153,147.729,493.915z"/>
		<path fill-rule="evenodd" clip-rule="evenodd" fill="#0B0B0B" d="M309.538,586.09c0.871,3.406,3.464,7.379-1.204,9.652
			c-3.89,1.892-7.854-0.49-9.626-3.523c-11.3-19.328-25.988-16.465-44.472-10.79c-12.729,3.911-29.655,9.435-40.713-6.903
			c13.235-5.291,28.025,0.344,41.101-5.88c6.92-2.429,12.657-6.525,17.083-12.402c2.035-2.835,3.1-6.101,4.082-9.4
			c1.428-4.014,1.679-8.461,4.437-11.978c1.867-1.396,3.917-1.672,6.121-0.986c4.821,8.274,3.275,17.287,3.013,26.157
			c-0.684,2.654-4.627,4.562-1.758,7.985c1.504,0.968,3.053,1.793,4.585,2.664c2.211,1.223,4.26,2.658,6.175,4.299
			c1.51,1.247,2.94,2.577,4.387,3.896C305.176,581.128,308.12,582.899,309.538,586.09z"/>
		<path fill-rule="evenodd" clip-rule="evenodd" fill="#F2F2F2" d="M309.538,586.09c-5.046,0.729-7.729-2.238-9.751-6.236
			c0.67-4.172,3.148-7.63,4.479-11.537c1.918-10.944,4.186-21.809,6.552-32.651c0.008-1.414,0.203-2.801,0.512-4.178
			c2.087-5.269,4.025-10.601,6.249-15.835c2.021-3.313,4.65-5.982,8.15-7.751c3.033-1.203,6.139-1.488,9.333-0.76
			c1.585,0.453,2.938,1.287,4.072,2.479c1.933,4.68,0.158,7.731-4.239,9.63c-6.651,9.682-12.607,19.514-6.84,31.86
			c-8.546,3.852-0.799,15.144-8.791,19.247c0.577,6.481-9.839,8.256-6.768,15.805l-1.48,0.037L309.538,586.09z"/>
		<path fill-rule="evenodd" clip-rule="evenodd" fill="#F0F0F0" d="M259.119,570.279c-14.347,10.566-30.208,4.857-45.596,4.246
			c-0.707-0.446-1.447-0.831-2.221-1.153c-6.57-4.724-11.625-11.314-18.816-15.271c-0.284-1.675-0.566-3.353-0.85-5.027
			c-0.487-5.021-3.066-10.11,0.48-15.005c10.542-0.623,13.857,9.484,20.922,14.021c5.694,5.583,13.356,6.845,20.483,9.255
			c7.51,3.988,14.603-3.08,22.048-0.859C258.647,563.065,259.489,566.455,259.119,570.279z"/>
		<path fill-rule="evenodd" clip-rule="evenodd" fill="#101010" d="M192.486,558.101c9.363,1.28,14.87,7.313,18.816,15.271
			C201.275,572.906,197.679,564.521,192.486,558.101z"/>
		<path fill-rule="evenodd" clip-rule="evenodd" fill="#F4F4F4" d="M233.587,597.652c-8.979,1.327-11.74-2.004-14.437-6.897
			C225.283,589.731,228.336,593.273,233.587,597.652z"/>
		<path fill-rule="evenodd" clip-rule="evenodd" fill="#F5F5F5" d="M241.72,598.108c-1.39-0.912-3.36-1.563-3.422-2.363
			c-0.22-2.859,2.307-3.086,4.309-3.086c1.317-0.003,2.635,0.855,3.951,1.327C245.049,595.273,243.539,596.561,241.72,598.108z"/>
		<path fill-rule="evenodd" clip-rule="evenodd" fill="#F4F4F4" d="M336.446,593.031c0.016,2.909-1.42,4.276-3.45,4.695
			c-1.87,0.385-2.814-0.834-2.084-2.643c0.543-1.343,1.313-2.887,2.444-3.575C333.919,591.167,335.53,592.544,336.446,593.031z"/>
		<path fill-rule="evenodd" clip-rule="evenodd" fill="#F4F4F4" d="M119.123,338.328c-3.231,2.246-6.465,4.491-9.696,6.736
			c-1.906-1.237-3.812-2.472-5.717-3.709c2.954-4.364-1.408-8.43-0.518-12.713c2.138-0.248,4.278-0.496,6.417-0.744
			c5.693-2.599,11.268-3.858,16.279,1.417C126.948,334.805,123.508,336.92,119.123,338.328z"/>
		<path fill-rule="evenodd" clip-rule="evenodd" fill="#151515" d="M436.63,293.715c-11.712,5.375-3.033,10.544,0.16,15.767
			c1.71,2.097,1.913,4.317,0.549,6.668c-13.349-0.949-16.639-10.296-17.865-21.384c0.806-1.51,2-2.596,3.564-3.281
			c1.558-0.604,3.173-0.931,4.84-1.021c3.453-0.062,6.456,1.061,8.944,3.489L436.63,293.715z"/>
		<path fill-rule="evenodd" clip-rule="evenodd" fill="#050505" d="M484.342,331.54c-3.183,0.316-6.364,0.636-9.546,0.952
			c-3.61,1.755-7.258,3.139-11.243,1.107c-1.322-0.927-2.231-2.167-2.791-3.675c-0.09-1.616,0.337-3.07,1.363-4.339
			c7.399,0.381,14.798,0.763,22.198,1.145C486.047,328.327,486.171,329.93,484.342,331.54z"/>
		<path fill-rule="evenodd" clip-rule="evenodd" fill="#262626" d="M462.125,325.585c-0.021,1.116-0.045,2.236-0.066,3.353
			c-4.507,3.65-8.762,1.07-13.071-0.502c-2.145-1.145-3.76-2.772-4.605-5.096c-0.479-2.425-0.164-4.646,1.709-6.451
			C451.77,319.171,457.668,321.047,462.125,325.585z"/>
		<path fill-rule="evenodd" clip-rule="evenodd" fill="#010101" d="M446.091,316.889c0.056,1.817,0.111,3.638,0.167,5.455
			c-6.558,3.576-9.199,0.63-9.723-5.84c0.086-2.341,0.169-4.68,0.255-7.021C439.89,311.951,442.991,314.42,446.091,316.889z"/>
		<path fill-rule="evenodd" clip-rule="evenodd" fill="#070707" d="M484.342,331.54c-0.007-1.604-0.013-3.207-0.019-4.81
			c3.264,0.499,7.491-3.439,9.663,2.093C491.451,332.141,488.02,332.278,484.342,331.54z"/>
		<path fill-rule="evenodd" clip-rule="evenodd" fill="#EDEDED" d="M512.786,328.68c-2.072,0.363-4.09,3.712-6.234,0.111
			c-0.844-0.856-1.319-1.882-1.43-3.08c0.107-1.191,0.53-2.251,1.271-3.191c1.27-0.108,2.54-0.22,3.81-0.332
			c0,0,1.107,0.986,1.112,0.98c0.333,0.952,0.871,1.771,1.617,2.453C512.89,326.643,512.842,327.66,512.786,328.68z"/>
		<path fill-rule="evenodd" clip-rule="evenodd" fill="#484848" d="M512.958,316.15c-0.003,1.085-0.005,2.174-0.007,3.26
			c-0.035,0.859-0.104,1.715-0.201,2.568c-0.81,1.321-1.801,1.542-2.999,0.49c0,0,0.45-0.279,0.451-0.279
			C510.416,319.856,509.321,316.923,512.958,316.15z"/>
		<path fill-rule="evenodd" clip-rule="evenodd" d="M506.393,322.521c0.225,0.688,0.53,1.365,0.637,2.072
			c0.052,0.329-0.282,0.716-0.441,1.076c-1.139,0.977-2.142,0.856-3.014-0.366h0.196
			C503.547,323.339,504.629,322.611,506.393,322.521z"/>
		<path fill-rule="evenodd" clip-rule="evenodd" fill="#F9F9F9" d="M493.919,291.163c-6.412-3.244-8.171-7.446-2.706-13.137
			c0.824-0.971,1.694-1.011,2.609-0.121c1.234,5.555,9.305,5.66,9.569,11.99C500.234,290.316,497.076,290.738,493.919,291.163z"/>
		<path fill-rule="evenodd" clip-rule="evenodd" fill="#EDEDED" d="M493.822,277.904c-0.87,0.053-1.739,0.093-2.609,0.121
			c0.008-1.12,0.017-2.242,0.024-3.362C492.1,275.743,492.96,276.822,493.822,277.904z"/>
		<path fill-rule="evenodd" clip-rule="evenodd" fill="#0D0D0D" d="M386.039,229.988c2.01,0.279,4.021,0.559,6.03,0.837
			c3.804,9.543,15.074,12.437,19.272,21.629c-1.229,1.154-2.461,2.304-3.69,3.458c-12.172-2.832-19.921-11.047-25.982-21.331
			C382.181,232.15,383.654,230.637,386.039,229.988z"/>
		<path fill-rule="evenodd" clip-rule="evenodd" fill="#FCFCFC" d="M382.327,233.694c8.44,7.406,16.882,14.813,25.324,22.218
			c4.562,2.956,8.449,6.308,7.308,12.583c0.985,8.718,8.666,15.795,6.214,25.356c2.361,9.422,6.865,17.393,15.362,22.652
			c1.97,4.063,4.776,6.736,9.723,5.84c1.046,1.216,2.091,2.432,3.136,3.647c1.714,1.455,1.877,3.263,1.208,5.254
			c-1.777,2.788-5.814,1.792-7.561,4.59c-1.224,3.055-0.219,6.23-0.595,9.298c-0.144,1.284-0.429,2.546-0.8,3.777
			c-0.862,2.918-1.601,5.855-0.839,8.929c0.701,2.323,2.4,4.122,3.34,6.324c0.194,1.269-0.02,2.466-0.56,3.623
			c-2.701,2.627-5.544,5.164-5.912,9.286c-1.669,3.638-4.797,6.119-7.213,9.161c1.647,6.659-3.113,12.285-3.005,18.695
			c-1.152,0.034-2.305,0.065-3.457,0.1c-1.058-1.061-2.114-2.118-3.174-3.179c-1.68-1.154-3.806-1.557-5.271-3.077
			c-2.675-4.466-7.852-1.188-11.207-3.594c-3.916-4.64-3.347-10.299-3.679-15.761c0.149-9.564-0.268-19.12-0.586-28.663
			c7.354-8.938,2.738-18.462,1.242-27.816c-1.427-6.907-5.362-10.173-12.595-8.755c-7.429-5.303-10.883-13.51-15.387-20.947
			c-4.164-8.247-9.762-15.135-18.271-19.287c-4.856-5.263-12.893-7.229-15.491-14.859c-0.572-3.901,0.932-7.49,1.668-11.199
			c0.609-7.562,0.417-13.904-9.449-16.121c-12.296-2.763-5.096-6.978,0.027-10.542C351.367,213.756,371.025,218.616,382.327,233.694
			z"/>
		<path fill-rule="evenodd" clip-rule="evenodd" fill="#0B0B0B" d="M421.173,293.852c-5.373-7.645-8.673-15.795-6.214-25.356
			c1.934,2.093,3.866,4.187,5.8,6.28c2.546,6.084,7.555,11.767,3.094,18.989C422.958,293.784,422.066,293.812,421.173,293.852z"/>
		<path fill-rule="evenodd" clip-rule="evenodd" fill="#161616" d="M423.853,293.765c-0.833-6.361-4.314-12.291-3.092-18.986
			c0.998-0.016,1.995,0.021,2.992,0.105c2.159,4.897,5.482,8.845,9.796,11.983c-0.555,3.573-4.32,4.327-6.035,6.882
			C426.293,293.752,425.073,293.759,423.853,293.765z"/>
		<path fill-rule="evenodd" clip-rule="evenodd" fill="#9F9F9F" d="M430.083,272.139c-0.074,0.716-0.076,1.436-0.005,2.152
			c-2.005,0.161-4.01,0.322-6.015,0.484c-0.891-2.165-1.778-4.333-2.667-6.498c1.557-1.606,3.355-1.923,5.384-1.008
			C428.551,268.436,429.126,270.418,430.083,272.139z"/>
		<path fill-rule="evenodd" clip-rule="evenodd" fill="#D4D4D4" d="M427.469,268.647c-2.023-0.124-4.049-0.245-6.072-0.369
			c-0.726-0.837-0.891-1.771-0.493-2.807c1.923-1.979,4.097-1.92,6.401-0.785c0.903,1.036,1.808,2.072,2.712,3.107
			C429.584,269.32,428.714,269.543,427.469,268.647z"/>
		<path fill-rule="evenodd" clip-rule="evenodd" fill="#222222" d="M427.305,264.687c-2.134,0.264-4.268,0.524-6.401,0.785
			c1.453-3.148,3.988-3.963,7.199-3.34C427.706,262.94,427.437,263.793,427.305,264.687z"/>
		<path fill-rule="evenodd" clip-rule="evenodd" fill="#FCFCFC" d="M427.514,293.75c-0.664-4.643,0.899-7.329,6.035-6.882
			c3.244,1.368,1.771,4.913,3.272,7.087C433.72,293.886,430.616,293.817,427.514,293.75z"/>
		<path fill-rule="evenodd" clip-rule="evenodd" fill="#1A1A1A" d="M427.469,268.647c0.839-0.316,1.688-0.602,2.549-0.853
			c0.022,1.445,0.045,2.894,0.067,4.342C429.212,270.976,428.34,269.81,427.469,268.647z"/>
		<path fill-rule="evenodd" clip-rule="evenodd" fill="#FEFEFE" d="M509.751,322.468c0.991-0.22,1.989-0.381,2.999-0.49
			c0.061,1.212,0.121,2.428,0.182,3.644C511.871,324.571,510.811,323.52,509.751,322.468z"/>
		<path fill-rule="evenodd" clip-rule="evenodd" fill="#0F0F0F" d="M214.183,322.458c2.214-3.126,4.429-6.249,6.642-9.375
			c4.869,1.015,7.619,4.153,8.872,8.808c-0.807,24.91-10.34,48.958-7.394,74.244c2.896,19.682,8.74,38.668,13.671,57.878
			c-0.346,2.543-1.425,4.643-3.7,5.995c-2.475,0.713-4.632,0.077-6.542-1.566c-3.107-3.341-4.917-7.478-6.945-11.481
			c-0.639-1.309-1.14-2.674-1.596-4.051c-1.787-6.178-4.184-12.29-2.466-18.928c-8.091-30.204-10.732-60.436-0.845-90.838
			C214.974,329.778,216.101,326.072,214.183,322.458z"/>
		<path fill-rule="evenodd" clip-rule="evenodd" fill="#FDFDFD" d="M220.113,443.104c0.493,0.943,0.737,1.948,0.732,3.012
			c1.241,6.755-4.878,3.483-7.232,5.372c-4.43,1.274-7.26,6.249-12.583,5.477c-2.963-1.684-7.378-2.273-5.679-7.483
			c1.054-1.058,2.109-2.112,3.165-3.17c6.776-1.895,2.966-9.09,6.352-12.682c1.068-1.069,2.137-2.137,3.205-3.206
			C220.44,426.721,214.591,440.311,220.113,443.104z"/>
		<path fill-rule="evenodd" clip-rule="evenodd" fill="#FEFEFE" d="M176.191,449.559c8.763,1.96,14.438,5.691,9.036,15.768
			c-7.349,5.682-14.852,12.173-18.199-3.434c-0.567-3.458,0.507-6.438,2.618-9.121c1.408-0.164,2.816-0.328,4.223-0.493
			c0.82-1.042,1.699-2.028,2.638-2.965L176.191,449.559z"/>
		<path fill-rule="evenodd" clip-rule="evenodd" fill="#5A5A5A" d="M166.792,340.996c2.177,0.815,6.529,0.053,5.665,3.455
			c-1.656,6.522-8.051,1.56-11.765,3.712c-3.144,2.881-6.721,3.042-10.546,1.69c-3.954-2.388-5.041-5.455-2.221-9.444
			C154.352,336.198,160.608,337.441,166.792,340.996z"/>
		<path fill-rule="evenodd" clip-rule="evenodd" fill="#F0F0F0" d="M151.008,363.731c-4.131-0.685-8.178-1.408-3.007-6.438
			c7.768-6.777,16.983-1.678,25.405-3.099c2.219,1.256,4.931,2.705,4.122,5.555c-0.963,3.393-4.376,3.787-7.498,3.998
			C163.69,363.691,157.349,363.71,151.008,363.731z"/>
		<path fill-rule="evenodd" clip-rule="evenodd" fill="#F6F6F6" d="M195.35,449.481c2.118,2.118,4.235,4.236,6.353,6.357
			c1.869,1.076,3.976,1.861,4.953,4.041c0.467,1.418,0.639,2.872,0.541,4.361c-3.075,8.246-7.263,5.263-11.563,1.141
			c-1.279-5.25-2.557-10.498-3.836-15.749C192.982,449.584,194.166,449.531,195.35,449.481z"/>
		<path fill-rule="evenodd" clip-rule="evenodd" fill="#343434" d="M169.646,452.771c0.008,2.925,0.014,5.853,0.021,8.78
			c-0.75,1.489-1.023,3.315-2.842,4.057c-3.826,0.81-8.123,3.058-9.642-3.16c-1.555-1.417-1.455-2.704,0.306-3.861
			C163.85,461.475,163.53,450.396,169.646,452.771z"/>
		<path fill-rule="evenodd" clip-rule="evenodd" fill="#4B4B4B" d="M151.008,363.731c6.344-3.638,12.686-5.191,19.022,0.016
			c-0.53,0.726-0.674,1.523-0.434,2.391C163.209,366.814,156.625,369.02,151.008,363.731z"/>
		<path fill-rule="evenodd" clip-rule="evenodd" fill="#252525" d="M150.879,332.042c4.106,1.083,8.212,2.162,12.319,3.244
			c-2.452,9.707-10.179,2.199-14.883,4.559c-4.739-0.595-5.773-3.424-4.578-7.595C146.057,330.063,148.438,329.967,150.879,332.042z
			"/>
		<path fill-rule="evenodd" clip-rule="evenodd" fill="#F6F6F6" d="M220.113,443.104c-6.671-1.702-3.591-12.665-12.041-12.681
			c0.118-4.314,2.515-6.277,6.652-6.442C216.52,430.355,218.315,436.731,220.113,443.104z"/>
		<path fill-rule="evenodd" clip-rule="evenodd" fill="#2E2E2E" d="M173.406,354.195c-7.817,6.367-16.913,2.252-25.405,3.099
			c-0.475-0.993-0.485-1.991-0.031-2.993c0.971-1.234,2.207-2.096,3.663-2.658c5.167-1.864,10.419,2.791,15.578-0.195
			C169.784,351.218,172.665,350.3,173.406,354.195z"/>
		<path fill-rule="evenodd" clip-rule="evenodd" fill="#070707" d="M157.489,458.587c-0.103,1.287-0.203,2.574-0.306,3.861
			c-2.14-2.091-4.28-4.181-6.42-6.268c0.278-3.455-0.563-7.236,2.858-9.77C155.493,450.284,158.213,453.889,157.489,458.587z"/>
		<path fill-rule="evenodd" clip-rule="evenodd" fill="#B8B8B8" d="M167.211,351.447c-5.043,4.63-11.115,0.992-16.602,2.065
			c-1.574-1.601-1.477-3.238-0.112-4.903c3.399-0.149,6.797-0.298,10.194-0.446C162.865,349.258,165.039,350.353,167.211,351.447z"
			/>
		<path fill-rule="evenodd" clip-rule="evenodd" fill="#F6F6F6" d="M147.707,338.905c4.816-2.692,11.596,3.015,15.491-3.619
			c2.732,0.937,3.444,3.147,3.594,5.709c-6.333,0.248-12.666,0.496-18.997,0.744c-0.67-0.611-0.906-1.234-0.709-1.87
			C147.285,339.225,147.491,338.905,147.707,338.905z"/>
		<path fill-rule="evenodd" clip-rule="evenodd" fill="#F6F6F6" d="M204.867,433.63c-2.266,4.153,4.863,13.011-6.352,12.682
			C203.409,443.474,196.285,434.619,204.867,433.63z"/>
		<path fill-rule="evenodd" clip-rule="evenodd" fill="#E9E9E9" d="M150.879,332.042c-1.74,0.093-3.479,0.186-5.218,0.279
			c-4.195,2.518-8.479,3.721-13.046,0.908c-1.512-1.423-1.842-3.085-0.996-4.98c4.311-3.229,8.617-2.633,12.919,0.021
			c2.137,0.382,4.273,0.763,6.41,1.142C150.994,330.293,150.971,331.167,150.879,332.042z"/>
		<path fill-rule="evenodd" clip-rule="evenodd" fill="#4C4C4C" d="M176.506,449.313c-0.879,0.986-1.759,1.976-2.638,2.965
			C174.748,451.289,175.627,450.3,176.506,449.313z"/>
		<path fill-rule="evenodd" clip-rule="evenodd" fill="#080808" d="M296.531,249.245c1.143,0.059,2.286,0.118,3.428,0.174
			c1.103,1.083,1.715,2.394,1.844,3.936c-0.296,3.201-2.056,5.576-4.297,7.688c-7.153,6.655-15.953,7.235-25.05,6.746
			c-2.229-0.813-4.024-1.998-3.928-4.739c2.715-1.703,5.48-3.79,2.121-6.91c-6.936-6.445-6.521-14.279-5.046-22.473
			c1.204-3.25,3.148-4.975,6.758-3.288c1.462,1.731,2.18,3.778,2.538,5.97c0.974,4.357-0.333,9.81,5.679,11.736
			C285.818,249.654,291.368,246.888,296.531,249.245z"/>
		<path fill-rule="evenodd" clip-rule="evenodd" d="M226.588,319.243c-1.921-2.053-3.842-4.106-5.764-6.16
			c0.078-1.076,0.155-2.152,0.231-3.225c-0.143-2.596,0.608-4.745,3.03-6.057c4.115-4.556,8.229-9.112,12.345-13.667
			c2.287,0.574,3.708,2.053,4.454,4.246c-1.425,8.569-5.545,15.873-10.7,22.699C229.177,318.114,227.972,318.83,226.588,319.243z"/>
		<path fill-rule="evenodd" clip-rule="evenodd" fill="#141414" d="M240.477,294.069c-1.349-1.312-2.697-2.624-4.046-3.936
			c6.027-8.653,13.299-15.997,22.503-21.294c2.002,0.741,3.823,1.678,4.401,3.988c0.025,1.414-0.314,2.738-0.988,3.982
			c-3.556,5.176-9.481,7.667-13.699,12.102C246.2,291.061,244.565,294.531,240.477,294.069z"/>
		<path fill-rule="evenodd" clip-rule="evenodd" fill="#161616" d="M249.288,227.017c-0.989-0.986-1.979-1.972-2.968-2.958
			c2.666-5.055,8.358-4.466,12.528-6.718c3.179,0.289,6.357,0.574,9.537,0.862c1.889,1.749,1.81,3.75,0.749,5.874
			c-1.239,0.921-2.562,1.113-3.981,0.453C259.328,221.94,254.768,227.417,249.288,227.017z"/>
		<path fill-rule="evenodd" clip-rule="evenodd" fill="#FBFBFB" d="M224.086,303.801c-0.369,2.342,0.309,5.201-3.03,6.057
			c-3.261-2.205-8.839-2.28-8.343-7.927c0.133-1.517,2.57-3.551,4.323-4.066C221.881,296.448,223.646,299.53,224.086,303.801z"/>
		<path fill-rule="evenodd" clip-rule="evenodd" fill="#F2F2F2" d="M265.152,224.53c1.078-0.338,2.154-0.679,3.232-1.017
			c4.135-2.673,8.321-3.247,12.59-0.298c0.898,7.533-2.616,9.639-9.442,7.676c-1.976,0.924-3.953,1.852-5.929,2.776
			C260.272,230.875,263.918,227.644,265.152,224.53z"/>
		<path fill-rule="evenodd" clip-rule="evenodd" fill="#0A0A0A" d="M262.678,271.931c-1.249-1.03-2.495-2.063-3.744-3.092
			c3.198-1.929,6.397-3.858,9.594-5.791c1.467,0.958,2.934,1.917,4.401,2.875c1.32,3.002,1.537,6.153-1.151,8.269
			C268.125,277.064,265.303,274.394,262.678,271.931z"/>
		<path fill-rule="evenodd" clip-rule="evenodd" fill="#151515" d="M271.532,230.891c4.179-0.679,7.942-1.957,9.409-6.541
			c-0.671-3.384,0.061-5.294,4.015-3.818c5.552,2.689,5.78,7.927,6.256,13.051c2.346,5.514,2.266,10.622-3.917,13.286
			c-6.935,2.986-8.309-4.819-12.533-7.189c-1.016-0.909-2.039-1.811-3.08-2.695C271.633,234.954,271.582,232.922,271.532,230.891z"
			/>
		<path fill-rule="evenodd" clip-rule="evenodd" fill="#F7F7F7" d="M274.756,237.152c2.574-0.065,5.461-0.899,7.649-0.012
			c3.616,1.464-5.331,9.257,3.046,8.215c5.181-0.645,5.072-7.155,5.761-11.772c0.882,1.067,1.765,2.137,2.647,3.204
			c2.43,1.854,5.533,3.377,3.641,7.369c-0.324,1.697-0.647,3.393-0.969,5.089c-5.627,4.795-12.141,3.539-18.59,2.72
			C274.711,247.493,270.907,243.145,274.756,237.152z"/>
		<path fill-rule="evenodd" clip-rule="evenodd" fill="#181818" d="M284.956,220.532c-1.338,1.275-2.676,2.546-4.015,3.818
			c-4.187-0.279-8.372-0.558-12.557-0.837c0-1.771,0-3.539,0-5.31C274.102,217.602,279.993,215.775,284.956,220.532z"/>
		<path fill-rule="evenodd" clip-rule="evenodd" fill="#E7E7E7" d="M297.5,244.155c-1.214-2.456-2.429-4.913-3.641-7.369
			c2.918-1.067,5.835-2.137,8.753-3.207C302.901,238.07,300.625,241.318,297.5,244.155z"/>
		<path fill-rule="evenodd" clip-rule="evenodd" fill="#0B0B0B" d="M319.778,249.17c2.957,1.315,5.916,2.627,8.873,3.942
			c1.292,3.142-0.468,5.213-2.5,7.204c-2.259,1.65-4.727,2.888-7.417,3.691c-2.11,0.447-4.168,0.289-6.162-0.568
			c-2.503-1.634-3.997-3.876-4.17-6.922c0.311-2.953,1.846-5.192,4.109-7.003C314.934,249.4,317.356,249.285,319.778,249.17z"/>
		<path fill-rule="evenodd" clip-rule="evenodd" fill="#DCDCDC" d="M312.512,249.515c0.604,2.875-0.749,4.925-2.81,6.677
			c-7.301,8.405-7.381-0.037-9.374-4.016c-0.003-0.937-0.127-1.855-0.369-2.757C304.2,241.944,308.392,240.979,312.512,249.515z"/>
		<path fill-rule="evenodd" clip-rule="evenodd" fill="#030303" d="M382.327,233.694c-15.577-9.604-31.714-16.396-50.466-10.048
			c-1.337-0.76-3.126-0.989-3.444-2.943c3.381-4.106,8.202-5.44,13.03-6.758c5.253-1.637,10.537-1.302,15.831-0.242
			c4.176,1.501,8.351,2.999,12.526,4.5c4.364,5.372,13.455,4.23,16.234,11.785C384.802,231.223,383.564,232.457,382.327,233.694z"/>
		<path fill-rule="evenodd" clip-rule="evenodd" d="M328.417,220.703c1.149,0.98,2.297,1.963,3.444,2.943
			c0.34,2.447-10.382,5.862-1.591,5.945c16.607,0.165,15.277,9.041,14.014,19.752c-3.241,1.464-4.457-0.604-5.418-3.11
			c-2.329-11.491-2.352-11.519-11.082-4.627c-2.949,2.326-4.445,0.71-5.658-1.857C318.192,231.418,319.105,224.667,328.417,220.703z
			"/>
		<path fill-rule="evenodd" clip-rule="evenodd" fill="#121212" d="M338.866,246.233c1.806,1.036,3.612,2.072,5.418,3.11
			c2.005,4.286-2.476,6.355-3.304,9.673c-0.715,1.836-1.364,3.719-3.264,4.751c-1.247,0.53-2.546,0.834-3.896,0.952
			c-2.083,0.019-4.038-0.45-5.842-1.517c-1.641-1.38-2.646-3.058-2.44-5.291c1.038-1.601,2.076-3.201,3.113-4.801
			C333.476,252.926,336.755,250.445,338.866,246.233z"/>
		<path fill-rule="evenodd" clip-rule="evenodd" fill="#DDDDDD" d="M357.278,213.703c-5.276,0.081-10.554,0.161-15.831,0.242
			C346.662,209.777,351.939,209.73,357.278,213.703z"/>
		<path fill-rule="evenodd" clip-rule="evenodd" fill="#1A1A1A" d="M144.539,328.271c-4.226,0.202-8.45,0.403-12.675,0.605
			c-3.53-0.438-7.129-0.797-6.358-5.883c6.344,0.012,12.689,0.021,19.035,0.034C144.541,324.775,144.539,326.521,144.539,328.271z"
			/>
		<path fill-rule="evenodd" clip-rule="evenodd" fill="#0F0F0F" d="M125.506,322.992c2.118,1.96,4.238,3.923,6.358,5.883
			c-0.428,0.822-0.83,1.659-1.205,2.509c-0.304,1.107-1.023,1.755-2.159,1.945c-1.125-0.09-1.969-0.639-2.574-1.579
			c-5.438-1.284-10.878-2.568-16.318-3.852c0.385-4.084,3.03-5.452,6.707-5.583C119.379,322.542,122.441,322.766,125.506,322.992z"
			/>
		<path fill-rule="evenodd" clip-rule="evenodd" fill="#E0E0E0" d="M465.665,347.831c-2.242,3.222-4.484,6.444-6.727,9.664
			c-2.062-0.046-3.935-0.785-5.811-1.526c-4.423-1.842-9.681-1.008-13.681-4.224c-0.805-1.318-0.79-2.599,0.166-3.836l0.176-0.329
			c2.425-2.043,4.523-4.553,7.75-5.48c4.83-1.361,9.661-1.579,14.485,0.065C464.352,343.334,466.146,344.857,465.665,347.831z"/>
		<path fill-rule="evenodd" clip-rule="evenodd" fill="#F4F4F4" d="M455.299,354.009c1.213,1.163,2.427,2.323,3.64,3.486
			c-0.002,1.058-0.013,2.112-0.033,3.17c-7.365,5.846-14.751,2.397-22.134,0.046c0.327-4.407-1.509-9.295,2.846-12.806
			c0.006,1.052,0.096,2.097,0.268,3.132C444.479,354.843,450.611,350.681,455.299,354.009z"/>
		<path fill-rule="evenodd" clip-rule="evenodd" fill="#F5F5F5" d="M465.665,347.831c-1.242-1.064-2.484-2.127-3.728-3.194
			c-1.221-1.312-3.107-1.861-4.029-3.505c-0.211-1.175-0.054-2.311,0.442-3.39c0.939-1.377,1.859-2.788,2.551-4.335
			c0.316-0.45,0.654-0.89,0.991-1.331c4.302,0.136,8.603,0.276,12.903,0.416C471.003,337.159,472.594,345.03,465.665,347.831z"/>
		<path fill-rule="evenodd" clip-rule="evenodd" fill="#252525" d="M440.172,374.44c-5.929-5.148-2.844-6.885,2.886-7.617
			c4.266-2.23,6.964,0.378,9.619,3.12l0.095,0.081c-0.804,7.322-5.418,5.201-9.696,3.917c-1.027,0.174-2.055,0.351-3.082,0.527
			c0.152,0.716,0.229,1.073,0.229,1.073c0.02-0.003,0.058-0.006,0.058-0.009C440.267,374.804,440.23,374.44,440.172,374.44z"/>
		<path fill-rule="evenodd" clip-rule="evenodd" fill="#EFEFEF" d="M443.075,373.941c2.969-1.957,8.628,2.748,9.696-3.917
			c6.396,2.614,4.197,5.638,0.392,8.696C446.542,384.036,446.268,375.895,443.075,373.941z"/>
		<path fill-rule="evenodd" clip-rule="evenodd" fill="#F4F4F4" d="M452.677,369.944c-3.207-1.042-6.412-2.081-9.619-3.12
			c-0.037-0.822-0.043-1.644-0.021-2.465c5.15-3.737,10.502-2.596,15.887-0.661C456.842,365.778,454.759,367.859,452.677,369.944z"
			/>
		<path fill-rule="evenodd" clip-rule="evenodd" fill="#171717" d="M458.924,363.698c-5.295,0.22-10.591,0.44-15.887,0.661
			c-2.248-0.94-5.954,0.62-6.266-3.647c7.372-2.822,14.756-0.084,22.134-0.046C459.512,361.672,459.52,362.68,458.924,363.698z"/>
		<path fill-rule="evenodd" clip-rule="evenodd" fill="#EFEFEF" d="M440.172,374.44c0,0-0.183,0.031-0.182,0.028
			c-0.034,2.791-0.071,5.583-0.108,8.376c-3.14,1.129-6.278,2.258-9.419,3.387C430.47,379.642,435.075,376.838,440.172,374.44z"/>
		<path fill-rule="evenodd" clip-rule="evenodd" fill="#F5F5F5" d="M483.285,349.881c-0.354,5.245-2.839,7.446-7.418,8.671
			C476.215,353.305,478.713,351.115,483.285,349.881z"/>
		<path fill-rule="evenodd" clip-rule="evenodd" fill="#F3F3F3" d="M494.336,384.136c-1.284,0.45-2.566,0.899-3.851,1.349
			c-0.555-2.875-5.787-5.989-3.224-7.413C491.358,375.793,492.752,381.009,494.336,384.136z"/>
		<path fill-rule="evenodd" clip-rule="evenodd" fill="#FEFEFE" d="M503.574,325.303c0.988,0.264,1.991,0.384,3.014,0.366
			c0.016,1.042,0.004,2.084-0.036,3.123C505.56,327.629,504.567,326.466,503.574,325.303z"/>
		<path fill-rule="evenodd" clip-rule="evenodd" fill="#FAFAFA" d="M411.675,449.633c-2.451-9.195,4.544-8.429,9.903-9.384
			c-1.167,2.043-2.331,4.084-3.497,6.128C415.945,447.462,413.811,448.548,411.675,449.633z"/>
		<path fill-rule="evenodd" clip-rule="evenodd" fill="#121212" d="M402.369,347.871c3.25,10.07,1.822,20.481,2.238,30.756
			c-3.349,8.864,0.752,18.193-1.664,27.119c-8.008,16.14-3.77,37.089-19.646,50.146c-1.389,3.021-4.724,5.217-3.877,9.177
			c-1.712,3.508-1.978,7.931-6.228,9.822c-2.938,2.202-5.877,4.401-8.815,6.6c-1.239,1.102-2.574,1.176-3.992,0.369
			c-2.295-6.017,2.518-9.738,4.589-14.356c3.99-5.458,7.14-11.388,9.788-17.609c9.304-17.234,10.854-36.527,14.669-55.213
			c2.687-13.01,2.486-26.027,0.147-39.043c-3.061-16.046-8.55-31.222-16.026-45.739c-2.608-5.064-5.719-10.073-5.22-16.195
			c1.437-3.74,3.598-5.657,7.564-2.993c4.595,7.397,9.188,14.793,13.781,22.19c4.434,4.298,8.156,9.071,10.104,15.048
			C401.093,334.529,407.279,340.49,402.369,347.871z"/>
		<path fill-rule="evenodd" clip-rule="evenodd" fill="#FAFAFA" d="M383.298,455.892c7.981-16.124,12.595-33.321,16.212-50.834
			c2.556-2.909,3.537-7.499,8.442-7.894c3.263,0.329,6.627,0.013,9.707,1.514c1.056,1.058,2.112,2.115,3.168,3.17
			c-2.912,7.942-0.15,17.374-9.665,23.813c-5.045,3.414-7.195-0.416-10.044-0.59c-5.448,7.726,14.018,12.272,2.126,18.202
			C395.978,446.895,398.33,465.742,383.298,455.892z"/>
		<path fill-rule="evenodd" clip-rule="evenodd" fill="#030303" d="M360.073,481.057c1.436,0.146,2.87,0.291,4.305,0.434
			c-2.189,8.229-10.258,10.157-16.372,15.219c4.901,8.668,17.223,4.646,22.224,12.693c1.189,1.477,1.08,2.845-0.331,4.113
			c-8.327-3.8-16.751-2.32-25.181-0.45c-2.585,1.25-3.664-0.198-4.313-2.376c-0.285-6.031-2.821-3.706-5.354-1.401
			c-3.118,0.062-6.236,0.124-9.355,0.187c-1.201-0.925-2.074-2.094-2.636-3.502c-0.881-2.94-0.863-5.905-0.217-8.886
			c0.423-1.448,1.121-2.763,2.05-3.947c1.164-0.922,2.463-1.619,3.856-2.128c4.139-1.188,8.386-2.063,12.323-3.923
			C347.542,485.516,351.153,474.848,360.073,481.057z"/>
		<path fill-rule="evenodd" clip-rule="evenodd" fill="#232323" d="M370.836,560.237c-1.398,1.327-2.799,2.655-4.199,3.982
			c-6.79-0.09-10.266-4.624-12.434-10.092c-1.279-3.229-5.136-6.464-2.715-10.123c3.427-5.186,6.046,0.931,9.118,1.495
			c5.151,0.942,8.926-2.416,13.355-3.685c1.302-1.247,2.532-1.179,3.691,0.198c-2.152,2.152-3.933,5.347-6.524,6.274
			C359.935,552.292,367.017,556.193,370.836,560.237z"/>
		<path fill-rule="evenodd" clip-rule="evenodd" fill="#242424" d="M377.653,542.014c-1.23-0.065-2.461-0.13-3.691-0.198
			c5.414-10.405,2.326-19.592-4.063-28.3c0.111-1.371,0.222-2.742,0.331-4.113C384.994,516.756,387.227,526.56,377.653,542.014z"/>
		<path fill-rule="evenodd" clip-rule="evenodd" fill="#FAFAFA" d="M373.193,474.891c0.876-4.035,1.865-7.995,6.228-9.822
			c1.037,3.198,4.247,6.179,1.156,9.807C378.188,477.682,375.662,478.246,373.193,474.891z"/>
		<path fill-rule="evenodd" clip-rule="evenodd" fill="#F4F4F4" d="M374.447,502.171c8.192,0.865,11.618,2.019,10.381,8.866
			C381.883,508.522,379.532,506.513,374.447,502.171z"/>
		<path fill-rule="evenodd" clip-rule="evenodd" fill="#2C2C2C" d="M341.658,509.747c1.021,1.107,2.041,2.215,3.062,3.318
			c-1.011,3.97-2.142,7.862-6.23,9.894c-1.197-1.237-2.396-2.472-3.595-3.709c1.98-2.782,4.798-5.285,3.089-9.292
			C339.162,509.077,340.387,509.006,341.658,509.747z"/>
		<path fill-rule="evenodd" clip-rule="evenodd" fill="#F4F4F4" d="M362.287,530.452c4.323-1.303,8.691,0.896,8.369,3.551
			c-0.619,5.099-4.043,2.298-6.18,0.242C363.537,533.342,363.103,531.916,362.287,530.452z"/>
		<path fill-rule="evenodd" clip-rule="evenodd" fill="#F2F2F2" d="M319.264,570.357c3.194-6.296-2.881-16.825,8.791-19.247
			C323.191,556.643,336.277,570.376,319.264,570.357z"/>
		<path fill-rule="evenodd" clip-rule="evenodd" fill="#F6F6F6" d="M128.663,331.847l0.864-0.81l1.132,0.347
			c5.001,0.313,10.002,0.626,15.003,0.937c-0.617,2.599-1.343,5.229,2.045,6.584c0.015,0.943,0.045,1.889,0.088,2.834
			c-0.135,2.698-0.481,5.477,2.703,6.87c0.037,1.634,0.075,3.269,0.112,4.903c-0.822,0.456-1.703,0.716-2.639,0.788
			c-4.997,0.493-6.474-4.37-9.793-6.429C130.072,345.458,124.957,341.271,128.663,331.847z"/>
		<path fill-rule="evenodd" clip-rule="evenodd" fill="#FDFDFD" d="M128.663,331.847c0.645,6.841,5.36,11.267,9.515,16.024
			c-2.625,3.306-4.432,9.596-9.527,1.88c-2.715-4.113-6.322-7.636-9.527-11.423c1.241-3.256,3.703-5.247,6.803-6.578
			C126.858,331.226,127.771,331.26,128.663,331.847z"/>
		<path fill-rule="evenodd" clip-rule="evenodd" fill="#3E3E3E" d="M165.816,374.962c-6.994,1.197-10.839,3.2-14.434-1.886
			C155.971,369.603,159.653,369.553,165.816,374.962z"/>
		<path fill-rule="evenodd" clip-rule="evenodd" fill="#FAFAFA" d="M134.957,383.249c-2.999-1.647-7.46,0.75-9.538-3.446
			c5.592-5.778,8.833-0.074,12.694,2.599C137.06,382.684,136.008,382.966,134.957,383.249z"/>
		<path fill-rule="evenodd" clip-rule="evenodd" fill="#FDFDFD" d="M195.634,465.382c3.066-1.107,8.671,5.127,9.241-3.197
			c3.652-2.326,8.099-2.354,11.911-4.187c1.208-0.633,2.462-1.179,3.717-1.716c1.915-0.775,3.861-1.225,5.88-0.354
			c1.16,1.089,2.321,2.175,3.483,3.26c6.832,2.674,9.834,8.498,12.236,14.824c0.264,1.431,0.298,2.875,0.155,4.312
			c-3.413,9.766,4.559,6.268,8.606,7.325c7.312,3.545,15.735,5.636,19.01,14.478c-0.651,5.514-5.448,6.534-9.276,8.606
			c-6.541,3.548-13.297,6.872-15.226,15.085c-0.225,2.741-1.255,5.188-2.64,7.502c-3.81,7.341,1.648,10.728,6.234,14.474
			c4.995,3.635,11.829,6.926,2.714,13.396c-3.781,1.584-7.713,2.351-11.809,2.322c-9.146-0.452-17.6-3.145-25.41-7.896
			c-13.621-10.539-22.156-24.234-25.434-41.174c-1.036-2.919-2.073-5.837-3.111-8.755c0.205-6.411,0.408-12.824,0.611-19.235
			c0.545-1.234,2.676-0.626,2.713-1.811c0.034-1.064-2.134-0.057-2.538-1.431C189.679,475.933,192.657,470.657,195.634,465.382z"/>
		<path fill-rule="evenodd" clip-rule="evenodd" fill="#F2F2F2" d="M166.825,465.608c0.948-1.353,1.895-2.704,2.842-4.057
			c1.58,16.111,10.937,0.192,15.56,3.774c-0.949,5.167-5.545,7.248-8.833,10.437c-3.202-0.187-6.404-0.369-9.606-0.553
			C166.8,472.01,166.813,468.809,166.825,465.608z"/>
		<path fill-rule="evenodd" clip-rule="evenodd" fill="#F4F4F4" d="M186.702,481.211c3.307-1.364,6.615-2.729,10.941-4.515
			c-0.981,7.545-6.006,7.71-11.117,7.756C186.585,483.37,186.643,482.291,186.702,481.211z"/>
		<path fill-rule="evenodd" clip-rule="evenodd" fill="#FCFCFC" d="M179.203,493.431c-1.676-0.084-3.784,0.295-2.833-2.624
			C178.232,490.692,179.277,491.455,179.203,493.431z"/>
		<path fill-rule="evenodd" clip-rule="evenodd" fill="#0F0F0F" d="M189.026,512.442c11.069,11.075,12.714,28.418,25.5,38.352
			c0.707,3.107-0.22,4.584-3.604,3.604c-6.268-5.443-12.537-10.886-18.805-16.329c-0.957-0.93-1.914-1.86-2.87-2.788
			C193.514,527.627,179.987,520.143,189.026,512.442z"/>
		<path fill-rule="evenodd" clip-rule="evenodd" fill="#F4F4F4" d="M240.34,528.718c0.873-1.668,1.745-3.34,2.618-5.009
			c2.814-7.046,7.557-11.891,15.259-13.376c6.542,0.704,12.506,2.878,17.701,7.021c1.864,1.703,3.32,3.697,4.308,6.035
			c0.873,2.419,1.171,4.906,0.921,7.466c-2.996,5.284-0.016,11.729-3.268,16.97c-0.741,3.409,2.053,7.868-2.97,10.012
			c-4.419,0.679-8.218,0.279-9.138-5.194c-3.334-9.98-13.085-1.529-18.213-6.334C241.846,541.797,235.955,537.361,240.34,528.718z"
			/>
		<path fill-rule="evenodd" clip-rule="evenodd" fill="#F6F6F6" d="M306.919,569.039c-0.343,4.946-2.227,8.876-7.132,10.814
			c-1.036-1.026-2.072-2.053-3.109-3.076c-1.628-1.988-1.676-6.649-6.232-3.685c-1.259-0.931-2.517-1.864-3.774-2.795
			c-2.28-3.259-1.224-6.481,0.101-9.704c1.278-8.441-4.14-16.934,0.188-25.351c-4.399-5.231-6.175-12.033-10.408-17.38
			c-0.568-2.596,0.023-4.772,2.262-6.38c15.939-2.968,20.799,8.231,25.391,19.803C309.017,543.586,305.535,556.484,306.919,569.039z
			"/>
		<path fill-rule="evenodd" clip-rule="evenodd" fill="#FEFEFE" d="M268.147,553.65c2.254,1.396,4.509,2.791,6.762,4.187
			c-4.562,5.036-7.502,12.133-15.791,12.442c-3.858-2.078-3.436-5.669-3.251-9.18c0.115-0.695,0.229-1.393,0.339-2.094
			C258.92,554.4,262.096,550.818,268.147,553.65z"/>
		<path fill-rule="evenodd" clip-rule="evenodd" fill="#0E0E0E" d="M277.747,519.554c7.293,2.748,10.737,7.76,9.213,15.689
			c-1.83-0.003-3.661-0.003-5.491-0.006c-2.77-1.331-1.388-4.863-3.475-6.557c-0.068-1.957-0.138-3.917-0.206-5.877
			c-0.375-0.536-0.752-1.073-1.132-1.612C277.015,520.646,277.381,520.1,277.747,519.554z"/>
		<path fill-rule="evenodd" clip-rule="evenodd" fill="#2B2B2B" d="M286.772,560.594c-0.034,3.235-0.068,6.47-0.101,9.704
			c-2.787-0.452-7.173,0.989-7.384-3.16C279.076,562.985,284.131,562.7,286.772,560.594z"/>
		<path fill-rule="evenodd" clip-rule="evenodd" fill="#8B8B8B" d="M290.446,573.093c1.365-2.652,0.023-8.511,2.958-7.912
			c6.367,1.297,1.676,7.731,3.273,11.597C294.602,575.549,292.523,574.32,290.446,573.093z"/>
		<path fill-rule="evenodd" clip-rule="evenodd" fill="#F1F1F1" d="M277.994,528.681c1.158,2.187,2.317,4.373,3.475,6.557
			c-1.352,4.152,0.036,9.084-3.59,12.588C277.918,541.443,277.955,535.063,277.994,528.681z"/>
		<path fill-rule="evenodd" clip-rule="evenodd" fill="#191919" d="M306.919,569.039c-5.584-11.804-1.731-25.131-5.978-37.151
			c1.413-2.14-0.16-5.586,3.035-6.95c6.035,0.375,5.107,7.261,9.005,9.639C313.841,546.572,309.803,557.703,306.919,569.039z"/>
		<path fill-rule="evenodd" clip-rule="evenodd" fill="#CFCFCF" d="M312.98,534.576c-9.172,2.521-5.066-7.514-9.214-9.741
			c-2.28-1.414-3.028-3.625-3.211-6.144c0.136-4.469,1.917-7.977,5.947-10.179c1.668-0.487,3.327-0.459,4.985,0.065
			c3.379,1.895,4.45,4.972,4.421,8.612c-0.087,5.13-0.571,10.179-3.044,14.821C313.084,532.858,313.123,533.715,312.98,534.576z"/>
		<path fill-rule="evenodd" clip-rule="evenodd" fill="#F1F1F1" d="M312.962,516.567c-0.688-2.329,0.384-5.415-2.852-6.653
			c-1.287-3.303,0.916-4.608,3.318-5.814c4.562-1.321,8.655-0.757,11.944,2.999c0.063,0.797,0.171,1.588,0.322,2.376
			c-1.275,3.337-3.588,5.632-6.938,6.878C316.887,518.09,314.951,518.068,312.962,516.567z"/>
		<path fill-rule="evenodd" clip-rule="evenodd" fill="#0F0F0F" d="M341.658,509.747c-1.225,0.071-2.45,0.143-3.675,0.211
			c-1.016-0.056-1.992-0.279-2.933-0.67c0.482-4.286-0.731-11.016,6.103-9.453C345.579,500.85,345.799,506.131,341.658,509.747z"/>
		<path fill-rule="evenodd" clip-rule="evenodd" d="M312.962,516.567c1.932-0.071,3.862-0.144,5.795-0.215
			c1.271,6.438-1.086,11.51-5.893,15.659C312.896,526.863,312.929,521.715,312.962,516.567z"/>
		<path fill-rule="evenodd" clip-rule="evenodd" d="M210.922,554.397c1.202-1.203,2.402-2.403,3.604-3.604
			c8.473,2.105,15.879,7.955,25.174,7.188c0.259,4.848-1.47,7.483-6.8,6.122C224.438,563.441,216.117,562.455,210.922,554.397z"/>
		<path fill-rule="evenodd" clip-rule="evenodd" fill="#121212" d="M232.9,564.104c2.266-2.04,4.533-4.081,6.8-6.122
			c3.991-0.301,7.984-0.602,11.978-0.905c3.487-1.725,3.824,0.449,3.799,3.073l0.391,0.949
			C248.332,563.022,241.517,570.463,232.9,564.104z"/>
		<path fill-rule="evenodd" clip-rule="evenodd" fill="#F4F4F4" d="M449.389,331.298c0.002-1.768,0.004-3.536,0.005-5.307
			c4.223,0.983,8.443,1.966,12.665,2.946c-0.055,1.045-0.107,2.09-0.163,3.139c-0.003,0,0.356-0.267,0.356-0.267
			C457.817,335.345,453.495,336.024,449.389,331.298z"/>
		<path fill-rule="evenodd" clip-rule="evenodd" fill="#0B0B0B" d="M337.85,263.012c1.044-1.331,2.088-2.664,3.131-3.995
			c5.186,4.658,12.666,6.479,16.234,13.134c0.44,2.757-1.256,3.96-3.469,4.798C334.219,279.744,333.423,279.046,337.85,263.012z"/>
		<path fill-rule="evenodd" clip-rule="evenodd" fill="#161616" d="M353.411,275.16c1.269-1.001,2.535-2.006,3.804-3.008
			c10.546,1.839,14.302,10.514,18.683,18.559c-2.748,0.137-4.99,1.085-6.138,3.802C359.473,292.149,355.535,284.42,353.411,275.16z"
			/>
		<path fill-rule="evenodd" clip-rule="evenodd" fill="#FAFAFA" d="M402.369,347.871c-2.07-6.379-4.141-12.759-6.21-19.135
			c1.894-3.532,2.789-8.454,8.768-6.302c3.427,4.596-0.503,10.47,3.74,15.674C413.762,344.357,407.813,346.671,402.369,347.871z"/>
		<path fill-rule="evenodd" clip-rule="evenodd" fill="#F4F4F4" d="M404.927,322.434c-2.924,2.1-5.845,4.199-8.768,6.302
			c1.428-6.749-7.954-9.071-6.48-15.835C400.717,306.555,403.061,314.11,404.927,322.434z"/>
		<path fill-rule="evenodd" clip-rule="evenodd" fill="#222222" d="M449.389,331.298c4.288,0.17,8.576,0.341,12.863,0.512
			c2.01,3.746,3.308,7.155-3.253,6.804c-4.47,3.479-8.923,2.323-13.389-0.016c-3.044-1.584-4.586-4.249-5.322-7.48
			C443.414,326.537,446.341,331.964,449.389,331.298z"/>
		<path fill-rule="evenodd" clip-rule="evenodd" fill="#F3F3F3" d="M408.101,398.665c-3.261,1.598-3.99,6.597-8.591,6.393
			c1.699-8.808,3.399-17.619,5.098-26.427c1.652,5.526-1.785,12.114,3.507,16.89c0.72,0.701,0.957,1.402,0.714,2.1
			C408.584,398.318,408.343,398.665,408.101,398.665z"/>
		<path fill-rule="evenodd" clip-rule="evenodd" fill="#FDFDFD" d="M408.101,398.665c0.011-1.048,0.016-2.096,0.014-3.145
			c0.477-2.469,0.628-5.731,4.158-5.074c4.21,0.782,5.131,4.463,5.387,8.231C414.471,400.659,411.284,400.626,408.101,398.665z"/>
		<path fill-rule="evenodd" clip-rule="evenodd" fill="#F4F4F4" d="M440.288,331.118c1.944,1.542,3.89,3.086,5.834,4.627
			c1.011,0.983,1.431,2.183,1.349,3.579c-0.232,2.007-1.116,3.868-1.291,5.89c-2.13,0.791-4.259,1.582-6.39,2.37
			C440.58,342.112,436.343,336.489,440.288,331.118z"/>
		<path fill-rule="evenodd" clip-rule="evenodd" fill="#FAFAFA" d="M325.905,494.029c-0.644,0.664-0.864,1.445-0.661,2.348
			c-1.196,2.196-3.134,3.396-5.455,4.088c-5.229,0.778-10.356,2.962-15.789,1.312c-4.433-2.859-4.656-7.319-5.064-11.413
			c-1.462,2.112,1.269,5.059,0.03,7.754c-0.591,1.43-1.579,2.475-2.962,3.16c-5.091,0.195-8.664-2.091-10.884-6.606
			c-1.879-5.129-1.836-11.499-8.699-13.403c-9.121-1.951-17.194-7.453-26.79-7.71c-1.467-0.09-2.849-0.487-4.159-1.145
			c-4.757-5.282-10.219-10.114-11.585-17.632c-8.088-17.907-10.573-37.384-15.727-56.109c6.659-10.377,14.702-7.279,22.956-2.385
			c3.426,2.106,5.614,5.052,6.152,9.106c-0.397,2.45-1.604,4.1-4.265,4.295c-4.405,1.104-8.682-1.284-13.084-0.515
			c1.586,0.636,0.8,4.742,2.49,3.297c3.717-3.173,7.896-1.374,11.686-2.479c4.061,0.64,7.572,3.561,7.031,6.969
			c-1.698,10.697,5.038,10.052,11.822,9.938c14.743,2.459,26.643,9.093,33.65,22.885c0.422,1.408,0.617,2.878,0.624,4.345
			c-0.564,4.146,2.593,6.169,5,8.622c-1.12-2.583-4.547-4.584-2.052-8.092c4.077-3.638,6.584-7.958,6.783-13.624
			c0.319-9.09,6.113-11.292,13.99-10.616c7.229,1.274,14.583,2.352,18.255,10.076c-2.722,7.385-6.831,14.369,3.546,20.293
			c3.93,2.245,3.745,9.192,3.697,14.421c-0.828,5.254-0.772,10.809-5.033,14.893c-3.634,2.869-7.524,4.869-12.364,3.685
			c-2.723-3.867-3.395-8.2-3.14-12.464C323.747,485.29,329.179,489.743,325.905,494.029z"/>
		<path fill-rule="evenodd" clip-rule="evenodd" fill="#FCFCFC" d="M239.82,398.675c-7.22-3.263-14.44-4.621-21.661-0.003
			c-0.47-26.824,3.774-53.148,8.429-79.429c0.363-1.036,0.724-2.072,1.085-3.108c3.646-2.323,6.584-6.714,11.93-4.09
			c2.81,6.184,7.935,11.078,9.966,17.737c1.893,17.088,1.617,34.174,0.287,51.25C248.535,388.04,243.823,393.154,239.82,398.675z"/>
		<path fill-rule="evenodd" clip-rule="evenodd" fill="#0F0F0F" d="M233.886,454.781c6.089,3.626,9.307,9.658,12.886,15.386
			c0.637,5.741-2.064,6.687-6.789,4.727c-3.373-5.234-6.746-10.47-10.118-15.705C231.205,457.719,232.546,456.252,233.886,454.781z"
			/>
		<path fill-rule="evenodd" clip-rule="evenodd" fill="#F6F6F6" d="M226.382,455.929c-1.876,1.03-3.752,2.06-5.627,3.086
			c-4.623-1.504-8.125-3.756-6.347-9.527c2.146-1.122,4.291-2.245,6.437-3.371C222.69,449.389,224.536,452.66,226.382,455.929z"/>
		<path fill-rule="evenodd" clip-rule="evenodd" fill="#FDFDFD" d="M214.408,449.487c2.115,3.176,4.23,6.352,6.347,9.527h0.001
			c-5.292,2.242-10.586,2.922-15.883,0.013c-1.056-1.063-2.114-2.124-3.17-3.188C206.879,455.604,206.841,444.935,214.408,449.487z"
			/>
		<path fill-rule="evenodd" clip-rule="evenodd" fill="#F7F7F7" d="M204.873,459.027c5.294-0.003,10.589-0.01,15.883-0.013
			c-4.643,4.317-9.839,5.862-15.882,3.17C204.875,461.133,204.875,460.082,204.873,459.027z"/>
		<path fill-rule="evenodd" clip-rule="evenodd" fill="#F6F6F6" d="M262.678,271.931c6.167,2.692,9.941,1.299,10.251-6.007
			c8.262-1.12,16.319-2.977,23.895-6.587c3.56,0.971,4.945,3.434,4.776,6.959c-18.303,18.438-26.518,20.175-39.832,8.417
			C262.091,273.792,262.396,272.865,262.678,271.931z"/>
		<path fill-rule="evenodd" clip-rule="evenodd" fill="#040404" d="M300.192,265.192c-1.123-1.951-2.246-3.905-3.368-5.855
			c1.169-2.388,2.337-4.776,3.504-7.161c3.652,0.108,3.399,9.329,9.374,4.016c1.044,1.799,2.086,3.598,3.129,5.396
			c0.09,4.214-1.478,7.279-5.821,8.429C303.5,270.164,301.51,268.151,300.192,265.192z"/>
		<path fill-rule="evenodd" clip-rule="evenodd" fill="#F1F1F1" d="M274.756,237.152c1.063,4.938,2.125,9.875,3.185,14.813
			c-7.545-2.711-6.801-8.889-6.258-14.98C272.708,237.041,273.731,237.097,274.756,237.152z"/>
		<path fill-rule="evenodd" clip-rule="evenodd" fill="#F2F2F2" d="M239.704,313.037c-4.01,1.033-8.02,2.065-12.03,3.098
			c4.268-7.356,8.535-14.709,12.803-22.066c3.954-0.552,1.228-6.59,5.59-6.808c9.445,7.673,4.263,14.949-0.574,22.255
			C243.984,311.377,242.136,312.692,239.704,313.037z"/>
		<path fill-rule="evenodd" clip-rule="evenodd" fill="#FCFCFC" d="M243.153,309.542c1.732-7.326,7.853-14.08,2.914-22.28
			c3.596-6.23,10.025-8.919,15.701-12.548c15.986,9.648,26.47-2.903,38.424-9.521c2.098,1.271,4.196,2.54,6.295,3.809
			c-1.096,10.244,7.514,7.325,12.417,8.708c7.603,2.146-0.968-3.995,2.039-4.574c1.204-3.033,4.064-2.94,6.503-3.61
			c3.727-1.256,4.846-5.657,8.443-7.065c0.572,0.472,1.227,0.655,1.96,0.552c0.484,4.097,0.97,8.197,1.716,14.496
			c4.411-6.286,9.104-6.708,13.846-2.348c5.449,6.451,10.899,12.902,16.349,19.353c10.129,18.971,20.481,37.858,23.023,59.754
			c1.623,13.727,1.594,27.454,0.017,41.18c-3.859,19.508-3.624,40.193-16.47,57.105c-2.338-0.124-4.315-1.139-6.175-2.463
			c-19.261-14.449-34.859-32.515-50.16-50.899c-3.029-6.085-0.09-8.91,5.578-10.262c4.574-0.837,9.245-0.633,13.84-1.207
			c25.439-9.506,25.439-9.506,26.191-41.583c1.762-2.267,4.155-3.061,6.945-2.931c-2.883-0.465-5.098,0.791-7.074,2.708
			c-7.122,2.013-12.792-1.948-18.814-4.472c-8.611-4.932-18.559-2.075-27.569-4.692c-2.701-1.514-4.392-3.88-5.629-6.628
			c-2.94-10.852-11.645-12.623-21.046-13.28c-3.063-0.183-6.082-0.583-9.062-1.3C270.273,311.359,255.681,317.32,243.153,309.542z"
			/>
		<path fill-rule="evenodd" clip-rule="evenodd" fill="#F6F6F6" d="M322.429,271.748c3.227,6.268,4.345,11.261-5.733,9.379
			c-4.967-0.928-9.923-1.917-14.891-2.881c1.557-3.086,3.12-6.166,4.683-9.245c2.114-2.472,4.229-4.94,6.344-7.412
			c2.069-0.009,4.138-0.019,6.206-0.028C322.814,264.076,318.961,269.131,322.429,271.748z"/>
		<path fill-rule="evenodd" clip-rule="evenodd" fill="#E8E8E8" d="M322.429,271.748c-13.203,0.624,1.063-7.899-3.392-10.188
			c0.657-3.908,4.196-2.677,6.501-3.647c1.296,1.383,2.591,2.767,3.887,4.149c2.822,4.026,1.938,8.116,0.219,12.223
			C327.238,273.441,324.834,272.595,322.429,271.748z"/>
		<path fill-rule="evenodd" clip-rule="evenodd" fill="#202020" d="M329.644,274.285c-0.072-4.075-0.146-8.147-0.219-12.223
			c2.154,0.13,4.31,0.264,6.465,0.397C332.586,265.756,335.924,272.564,329.644,274.285z"/>
		<path fill-rule="evenodd" clip-rule="evenodd" fill="#0A0A0A" d="M446.18,345.213c-4.56-2.217-5.645-4.429,0.012-6.625
			c4.083,1.827,8.768,0.53,12.829,2.472c0.973,1.194,1.944,2.385,2.917,3.576C456.686,344.829,451.433,345.021,446.18,345.213z"/>
		<path fill-rule="evenodd" clip-rule="evenodd" fill="#0B0B0B" d="M455.299,354.009c-5.285-0.229-11.265,3.142-15.414-2.971
			C445.13,351.472,450.984,348.746,455.299,354.009z"/>
		<path fill-rule="evenodd" clip-rule="evenodd" fill="#D4D4D4" d="M459.021,341.061c-4.503,0.357-9.273,2.087-12.829-2.472
			c-0.079-0.946-0.103-1.895-0.069-2.844c4.292,0.958,8.584,1.914,12.877,2.869C458.926,339.429,458.934,340.245,459.021,341.061z"
			/>
		<path fill-rule="evenodd" clip-rule="evenodd" fill="#F4F4F4" d="M373.703,449.469c0.875,1.026,1.751,2.057,2.627,3.083
			c-0.673,6.748-4.023,11.956-9.266,16.071c-1.381,1.129-2.924,1.433-4.635,0.934c-10.521-5.18-18.11-11.909-13.213-25.177
			C358.868,438.841,364.727,451.668,373.703,449.469z"/>
		<path fill-rule="evenodd" clip-rule="evenodd" fill="#F2F2F2" d="M363.613,468.518c1.15,0.034,2.301,0.071,3.451,0.105
			c0.131,5.529-4.944,8.132-6.991,12.434c-9.889-4.553-9.438,12.237-18.667,9.043c0.65-5.151-2.091-11.021,3.203-15.196
			C348.985,466.945,357.692,471.876,363.613,468.518z"/>
		<path fill-rule="evenodd" clip-rule="evenodd" fill="#121212" d="M392.8,395.446c-0.006-13.727-0.012-27.453-0.017-41.18
			C397.069,367.99,397.055,381.72,392.8,395.446z"/>
		<path fill-rule="evenodd" clip-rule="evenodd" fill="#0F0F0F" d="M319.166,497.674c2.026-0.432,4.054-0.862,6.078-1.297
			c0.044,3.573,0.086,7.146,0.129,10.722c-4.158-0.332-8.317-0.664-12.477-0.996C311.755,500.89,316.877,500.334,319.166,497.674z"
			/>
		<path fill-rule="evenodd" clip-rule="evenodd" fill="#2D2D2D" d="M325.905,494.029c-0.4-4.563-4.521-8.441-2.614-13.895
			c8.199,2.225,3.861,9.258,5.751,13.649l-1.554,0.304L325.905,494.029z"/>
		<path fill-rule="evenodd" clip-rule="evenodd" fill="#0F0F0F" d="M239.983,474.894c3.201-0.229,5.705-1.457,6.789-4.727
			c0.972,0.273,1.963,0.41,2.973,0.41c8.466,5.281,16.839,10.725,25.713,15.314c3.714,3.079,8.518,4.516,12.063,7.868
			c3.17,2.214,6.339,4.432,9.507,6.646c2.436,1.839,2.979,4.553,3.433,7.313c0.497,3.92-0.15,8.073,2.323,11.611
			c0.327,1.833,0.654,3.669,0.981,5.505c-0.941,2.352-1.883,4.702-2.825,7.053c-5.052-9.313-8.87-20.155-22.828-18.466
			c-6.922-1.641-8.344-7.18-9.267-13.075c-6.283-4.348-12.567-8.696-18.85-13.041c-5.359-1.063-8.535-4.432-10.058-9.54
			C239.664,476.805,239.679,475.846,239.983,474.894z"/>
		<path fill-rule="evenodd" clip-rule="evenodd" fill="#1B1B1B" d="M255.476,560.15c-1.267-1.023-2.534-2.05-3.799-3.073
			c8.853-10.814-9.168-2.286-6.321-8.777c0.493-2.056,2.34-2.313,3.909-2.937c3.567-0.198,7.62,0.592,10.573-0.859
			c3.283-1.612,6.578-4.748,9.597-2.019c3.826,3.455-2.762,7.127-1.289,11.165C263.924,555.818,259.7,557.982,255.476,560.15z"/>
		<path fill-rule="evenodd" clip-rule="evenodd" fill="#0B0B0B" d="M268.846,500.347c3.089,4.357,6.178,8.718,9.267,13.075
			c-0.123,2.044-0.245,4.088-0.368,6.129c0.001,0.003-0.014-0.108-0.014-0.108c-0.704-0.131-1.409-0.261-2.115-0.392
			c-4.979-3.715-12.192-1.749-16.737-6.571c-1.929-2.022-1.896-4.097-0.166-6.215C260.228,501.101,267.773,506.265,268.846,500.347z
			"/>
		<path fill-rule="evenodd" clip-rule="evenodd" fill="#F7F7F7" d="M239.938,477.766c3.353,3.179,6.705,6.358,10.058,9.54
			c-4.931,0.937-9.861,1.876-14.604,2.782C233.405,483.56,239.194,481.795,239.938,477.766z"/>
		<path fill-rule="evenodd" clip-rule="evenodd" fill="#101010" d="M258.714,506.265c0.056,2.071,0.11,4.143,0.166,6.215
			c-8.118-0.242-9.889,8.517-15.922,11.229C242.492,512.73,250.289,509.214,258.714,506.265z"/>
		<path fill-rule="evenodd" clip-rule="evenodd" fill="#131313" d="M249.266,545.363c-1.302,0.979-2.605,1.957-3.909,2.937
			c-10.973-8.752-11.376-10.324-5.017-19.582C239.909,536.093,243.274,541.434,249.266,545.363z"/>
		<path fill-rule="evenodd" clip-rule="evenodd" fill="#2A2A2A" d="M275.617,519.051c0.811-0.44,1.515-0.31,2.115,0.392
			c0.019,1.119,0.038,2.242,0.056,3.361C276.01,522.162,274.489,521.374,275.617,519.051z"/>
		<path fill-rule="evenodd" clip-rule="evenodd" d="M296.986,510.02c0.014-3.203,0.028-6.41,0.042-9.613l-0.16-0.189
			c2.225-1.806,4.477-1.812,6.75-0.09c5.453,0.89,9.824-5.071,15.547-2.453c0.391,4.654-4.271,5.551-6.27,8.429
			c-1.751,0.67-3.286,1.495-2.786,3.812c-0.99,0.091-1.98,0.189-2.969,0.295C303.73,511.518,300.344,511.574,296.986,510.02z"/>
		<path fill-rule="evenodd" clip-rule="evenodd" fill="#181818" d="M296.986,510.02c3.438-2.807,6.814-2.242,10.155,0.189
			c-1.453,3.039-2.906,6.082-4.357,9.121C299.092,517.32,296.974,514.334,296.986,510.02z"/>
		<path fill-rule="evenodd" clip-rule="evenodd" fill="#0C0C0C" d="M284.136,311.716c3.21,0.53,6.418,1.063,9.628,1.597
			c0.554,5.145-3.457,6.497-6.89,8.333c-7.2,3.368-16.011-1.058-22.685,4.742c-7.195,23.394-0.902,31.352,21.241,26.96
			c2.643-0.527,6.919-1.364,6.404-3.396c-3.152-12.474,10.911-15.957,12.679-25.642c7.341-7.654,8.896-0.967,10.978,4.423
			c1.332,2.165,2.664,4.326,3.997,6.491c9.177,3.551,19.043-0.472,28.265,2.568c6.136,2.524,12.271,5.046,18.405,7.567v-0.009
			c11.127,24.044,6.157,33.349-24.794,46.409c-4.26-1.7-5.871-4.618-4.183-9.059c3.325-4.218,8.509-5.645,12.739-8.507
			c7.019-3.911,4.546-9.167,2.018-14.384c-2.573-4.022-5.78-7.391-10.047-9.667c-7.628-2.078-15.219-4.06-22.823-0.149
			c-3.824,3.024-5.384,7.44-7.169,11.714c-2.2,5.043-2.071,11.168-6.922,14.977c-0.642,0.301-1.292,0.589-1.931,0.884
			c-1.425,0.096-2.723-0.27-3.863-1.147c-1.682-2.097-2.579-4.708-4.363-6.739c-6.942-3.458-13.972-4.174-21.089-0.964
			c0.292,6.516,6.521,9.388,8.837,14.592c2.039,2.813,4.463,5.291,6.722,7.917c1.808,2.311,3.179,4.798,3.163,7.843
			c-0.428,3.096-1.951,5.44-4.732,6.923c-1.439,0.304-2.841,0.173-4.19-0.432c-3.625-3.321-7.158-6.773-11.392-9.388
			c-3.056-1.721-4.576-5.526-8.414-6.218c-4.362,13.268,3.648,27.153-2.335,40.234c-5.151,0-10.304,0-15.912,0
			c0.29-6.621,7.186-13.637-1.247-19.277c-0.952-0.453-1.904-0.903-2.855-1.353c1.011-0.295,2.022-0.586,3.033-0.881
			c2.614-0.09,3.28-1.318,2.113-3.616c-3.937-6.309-3.438-12.682-0.287-19.095c-0.163-20.119-0.326-40.234-0.488-60.353
			c-5.848-13.64-5.581-14.22,8.254-14.201C264.047,311.421,274.099,311.002,284.136,311.716z"/>
		<path fill-rule="evenodd" clip-rule="evenodd" fill="#F9F9F9" d="M284.668,404.878c0.887,0.127,1.76,0.322,2.617,0.583
			c12.826,3.47,17.278,13.072,16.949,25.021c-0.239,8.684,3.374,19.82-10.11,22.969c-6.248-14.319-18.208-20.597-32.733-23.264
			c-5.415-16.264-1.72-33.386-4.514-50.735c8.699,2.323,12.546,9.974,17.999,15.652
			C278.507,397.992,281.754,401.268,284.668,404.878z"/>
		<path fill-rule="evenodd" clip-rule="evenodd" fill="#090909" d="M294.124,453.451c10.083-15.185,7.789-31.274-6.839-47.99
			c1.168-2.42,2.337-4.839,3.506-7.258c4.077-1.811,6.773-5.145,9.413-8.575c8.98-5.778,18.089-12.914,25.293,2.134
			c-7.077,0.14-5.69,2.99-2.095,6.547c-1.194,2.732-3.678,3.809-6.195,4.86c-1.274,0.437-2.577,0.757-3.867,1.035
			c-5.896,2.668-2.693,6.017-0.656,9.236c3.684,4.634,8.685,7.667,13.212,11.298c7.771,6.234-0.048,6.811-3.574,8.846
			c-6.808,0.521-16.87-3.341-10.992,11.242c1.904,4.727-3.806,10.92-11.158,11.181c-2.435,1.476-4.67,2.131-5.886-1.427
			L294.124,453.451z"/>
		<path fill-rule="evenodd" clip-rule="evenodd" fill="#FDFDFD" d="M363.613,468.518c-6.335,2.128-12.669,4.255-19.004,6.386
			c-4.453-4.832-2.082-12.191-12.023-16.403c-11.985-5.077,3.032-12.133,5.661-18.549c1.583-2.692,4.062-3.936,7.043-4.383
			c3.919,0.816,6.753,2.509,5.8,7.235C347.159,455.324,356.751,461.254,363.613,468.518z"/>
		<path fill-rule="evenodd" clip-rule="evenodd" fill="#F6F6F6" d="M344.72,436.452c-1.313,2.727-3.731,3.412-6.471,3.499
			c-5.31-2.125-10.618-4.246-15.928-6.367c-1.085-3.313,9.956-3.25,3.19-5.561c-8.007-2.736-10.98-8.963-16.261-13.513
			c-0.938-5.021-4.503-10.728,3.509-13.404c0.957,0.527,1.914,1.058,2.872,1.585C326.668,412.789,340.528,420.456,344.72,436.452z"
			/>
		<path fill-rule="evenodd" clip-rule="evenodd" fill="#F8F8F8" d="M274.945,486.853c-11.444-0.71-19.618-6.487-25.2-16.275
			c10.887-2.888,18.487,6.528,28.323,7.573C280.976,482.468,279.171,485.095,274.945,486.853z"/>
		<path fill-rule="evenodd" clip-rule="evenodd" fill="#E2E2E2" d="M274.945,486.853c1.04-2.902,2.081-5.803,3.121-8.705
			c10.422,0.803,9.234,8.634,9.455,15.612C281.881,494.095,275.476,495.822,274.945,486.853z"/>
		<path fill-rule="evenodd" clip-rule="evenodd" fill="#FCFCFC" d="M244.411,408.677c-0.039,0.744-0.098,1.488-0.178,2.233
			c-6.228,1.504-11.509,3.886-12.063,12.101c-1.896-6.727-3.794-13.456-6.784-24.054
			C232.298,406.825,238.358,407.74,244.411,408.677z"/>
		<path fill-rule="evenodd" clip-rule="evenodd" fill="#393939" d="M303.619,500.127c-2.25,0.03-4.5,0.059-6.75,0.09
			c4.134-6.262-6.639-13.609,1.924-20.014C300.443,487.018,302.031,493.57,303.619,500.127z"/>
		<path fill-rule="evenodd" clip-rule="evenodd" fill="#F3F3F3" d="M294.285,454.58c1.963,0.475,3.925,0.949,5.886,1.427
			c1.143,5.126,7.275,4.735,10.419,9.291C302.214,464.892,294.834,464.976,294.285,454.58z"/>
		<path fill-rule="evenodd" clip-rule="evenodd" fill="#F5F5F5" d="M246.237,385.965c0.854,6.355,2.337,12.697,0.287,19.095
			c-2.234-2.131-4.469-4.258-6.704-6.386C236.473,391.669,243.277,389.786,246.237,385.965z"/>
		<path fill-rule="evenodd" clip-rule="evenodd" fill="#F5F5F5" d="M251.277,457.88c-3.562-5.136-6.496-8.485-2.013-12.303
			c0.594-0.506,2.259-0.661,2.757-0.221C256.331,449.165,252.176,452.57,251.277,457.88z"/>
		<path fill-rule="evenodd" clip-rule="evenodd" fill="#535353" d="M314.097,495.065c-4.186-5.731-4.975-9.493-2.41-14.232
			C317.172,484.526,316.141,488.785,314.097,495.065z"/>
		<path fill-rule="evenodd" clip-rule="evenodd" fill="#F4F4F4" d="M284.136,311.716c-9.499,0.068-19.092,1.011-28.475,0
			c-12.785-1.377-14.882,3.362-9.912,13.897c-4.378-3.058-9.864-5.583-6.043-12.576c1.148-1.163,2.295-2.326,3.446-3.492
			C256.838,309.83,270.648,307.736,284.136,311.716z"/>
		<path fill-rule="evenodd" clip-rule="evenodd" fill="#0B0B0B" d="M344.72,436.452c-7.973-12.74-23.245-19.188-29.088-33.761
			c1.58-3.251,4.563-4.02,7.771-4.383c16.768,17.055,33.533,34.109,50.301,51.16c-11.229,10.306-15.516-2.949-22.613-6.665
			C348.967,440.686,346.843,438.57,344.72,436.452z"/>
		<path fill-rule="evenodd" clip-rule="evenodd" fill="#0C0C0C" d="M325.497,391.762c-8.478-8.91-16.652-4.608-24.808,0.571
			c-5.191-5.307-5.146-10.653-0.127-16.037c0.934,0.065,1.867,0.112,2.804,0.133c4.102-1.619,7.425,1.926,11.337,1.65
			c7.916,1.544,17.048-2.18,23.558,5.399c1.034,2.76,2.069,5.521,3.104,8.281C336.074,391.759,330.787,391.762,325.497,391.762z"/>
		<path fill-rule="evenodd" clip-rule="evenodd" d="M287.733,318.563c2.011-1.749,4.021-3.501,6.031-5.25
			c9.706,1.668,22.384-0.847,21.727,15.42c-3.029-1.039-4.066-9.921-9.28-2.354c-2.97,0.8-5.458-0.599-8.02-1.696
			C294.696,322.673,289.835,322.955,287.733,318.563z"/>
		<path fill-rule="evenodd" clip-rule="evenodd" fill="#F5F5F5" d="M347.753,337.792c-9.169-0.028-18.339-0.05-27.508-0.112
			c-0.464-0.003-1.327-0.381-1.318-0.546c0.037-0.645,0.351-1.274,0.562-1.91C329.082,334.179,338.714,332.737,347.753,337.792z"/>
		<path fill-rule="evenodd" clip-rule="evenodd" fill="#F9F9F9" d="M331.903,293.874c3.899,2.025,8.689-4.215,12.112,1.287
			c0.361,0.58-0.076,2.394-0.653,2.713c-5.211,2.881-8.283-0.781-11.456-4.007L331.903,293.874z"/>
		<path fill-rule="evenodd" clip-rule="evenodd" fill="#F6F6F6" d="M366.158,345.359c4.053-4.938,8.454-7.753,14.34-2.497
			c-3.999,6.249-9.696,1.147-14.34,2.487V345.359z"/>
		<path fill-rule="evenodd" clip-rule="evenodd" fill="#F6F6F6" d="M315.664,289.37c-0.035,1.293-1.113,2.726-2.431,1.172
			c-1.577-1.858-5.772-0.226-5.254-3.979c0.106-0.778,2.482-1.746,3.807-1.737C314.141,284.842,315.427,286.526,315.664,289.37z"/>
		<path fill-rule="evenodd" clip-rule="evenodd" fill="#F6F6F6" d="M331.906,293.867c-3.205-1.619-6.15-3.504-7.473-7.496
			c6.908-1.662,6.579,3.536,7.47,7.502L331.906,293.867z"/>
		<path fill-rule="evenodd" clip-rule="evenodd" fill="#F8F8F8" d="M300.151,322.071c2.019,1.436,4.04,2.872,6.06,4.308
			c-0.386,3.486,2.084,9.394-1.479,10.03c-10.492,1.873-14.39,4.36-5.206,13.513c2.311,2.301-1.219,4.76-3.221,5.985
			c-1.604,0.986-3.957,0.81-5.993,1.018c-34.045,3.43-36.291,0.952-31.513-34.708C272.576,320.046,286.361,320.285,300.151,322.071z
			"/>
		<path fill-rule="evenodd" clip-rule="evenodd" fill="#F8F8F8" d="M338.261,383.478c-9.507-0.232-19.015-0.468-28.52-0.701
			c-3.572-7.298-1.611-14.75-0.617-22.175c1.186-5.04,2.57-9.977,6.954-13.354c9.487-2.205,18.98-1.052,28.474-0.053
			c3.328,3.12,6.656,6.237,9.983,9.356c-0.483,6.823,3.152,14.363-3.488,20.119C347.801,380.848,343.047,382.191,338.261,383.478z"
			/>
		<path fill-rule="evenodd" clip-rule="evenodd" fill="#F1F1F1" d="M300.563,376.295c0.042,5.344,0.083,10.69,0.127,16.037
			c0.188,7.837-2.531,10.774-9.898,5.871c-1.163-1.82-2.326-3.641-3.487-5.461c-2.289-4.087-3.621-8.296-1.653-12.936
			c3.666-4.99,7.86-7.716,13.719-3.139L300.563,376.295z"/>
		<path fill-rule="evenodd" clip-rule="evenodd" fill="#F3F3F3" d="M280.999,386.25c-2.075-8.073-14.808-9.626-12.48-20.395
			c5.716-0.384,11.506-1.644,16.927,1.464c1.115,2.087,1.279,4.295,0.89,6.584C284.153,377.843,285.042,383.118,280.999,386.25z"/>
		<path fill-rule="evenodd" clip-rule="evenodd" fill="#F7F7F7" d="M284.271,373.271c0.001-2.06,0.003-4.119,0.004-6.175
			c5.29-2.441,10.542-3.089,15.711,0.322c-0.205,3.083-0.411,6.166-0.617,9.249c-4.418-0.834-8.162,1.036-11.886,2.974
			C284.687,378.389,282.422,376.866,284.271,373.271z"/>
		<path fill-rule="evenodd" clip-rule="evenodd" fill="#161616" d="M300.151,322.071c-13.784,0.046-27.568,0.096-41.352,0.146
			c8.964-6.606,19.462-1.036,28.933-3.647C291.889,319.674,296.934,317.636,300.151,322.071z"/>
		<path fill-rule="evenodd" clip-rule="evenodd" fill="#111111" d="M299.987,367.419c-5.191-2.295-10.447-1.56-15.711-0.322
			c-5.252-0.413-10.504-0.828-15.756-1.241C279.299,360.494,289.742,361.973,299.987,367.419z"/>
		<path fill-rule="evenodd" clip-rule="evenodd" fill="#F3F3F3" d="M351.047,376.67c2.329-6.503-0.87-13.965,3.488-20.119
			C356.806,363.853,366.378,372.422,351.047,376.67z"/>
		<path fill-rule="evenodd" clip-rule="evenodd" fill="#0F0F0F" d="M344.552,347.195c-9.491,0.016-18.983,0.034-28.474,0.053
			C325.555,339.597,335.056,344.671,344.552,347.195z"/>
		<path fill-rule="evenodd" clip-rule="evenodd" fill="#FCFCFC" d="M284.271,373.271c1.07,2.125,2.141,4.246,3.211,6.37
			c-0.059,4.367-0.12,8.733-0.178,13.1c-2.103-2.165-4.204-4.326-6.305-6.491C281.594,381.8,279.56,376.686,284.271,373.271z"/>
		<path fill-rule="evenodd" clip-rule="evenodd" fill="#111111" d="M309.124,360.603c0.204,7.391,0.41,14.784,0.617,22.175
			c-2.126-2.115-4.251-4.233-6.377-6.349C305.284,371.153,307.204,365.878,309.124,360.603z"/>
		<path fill-rule="evenodd" clip-rule="evenodd" fill="#EFEFEF" d="M284.668,404.878c-4.737-1.784-8.009-5.034-9.792-9.773
			C280.247,396.25,283.23,399.788,284.668,404.878z"/>
		<path fill-rule="evenodd" clip-rule="evenodd" fill="#0B0B0B" d="M312.76,401.106c-6.151,3.163-1.773,9.084-3.509,13.404
			C304.448,408.479,300.736,402.731,312.76,401.106z"/>
	</g>
</g>
<g id="Layer_2">
	<path fill="none" stroke="#050000" stroke-width="6" stroke-miterlimit="10" d="M306,593.167c0,0-12.165-27.999-38.832-23.333
		c0,0,38-32,0-64c0,0,34.33-4,38.832,39.333c0,0,2.501-44.192,37.835-39.43c0,0-36.667,39.431,0,62.765
		C343.835,568.502,318.164,564.5,306,593.167z"/>
</g>
<g id="Layer_3">
</g>
</svg>
