<?xml version="1.0" encoding="utf-8"?>
<!-- Generator: Adobe Illustrator 16.0.0, SVG Export Plug-In . SVG Version: 6.00 Build 0)  -->
<!DOCTYPE svg PUBLIC "-//W3C//DTD SVG 1.1//EN" "http://www.w3.org/Graphics/SVG/1.1/DTD/svg11.dtd">
<svg version="1.1" xmlns="http://www.w3.org/2000/svg" xmlns:xlink="http://www.w3.org/1999/xlink" x="0px" y="0px" width="612px"
	 height="792px" viewBox="0 0 612 792" enable-background="new 0 0 612 792" xml:space="preserve">
<g id="Layer_1">
	<g>
		<path fill-rule="evenodd" clip-rule="evenodd" fill="#050500" stroke="#020200" stroke-width="3" stroke-miterlimit="3.8637" d="
			M451.854,235.578c2.047,5.18,1.896,10.184-0.466,15.338c-2.127,4.637-5.994,9.83-0.967,14.507c4.201,3.913,9.023,0.9,13.362-0.966
			c5.563-2.395,11.054-3.132,16.565,0.057c0.516,4.722,0.707,9.146-1.725,13.773c-2.94,5.593-10.464,11.274-3.955,18.226
			c5.863,6.261,12.756,0.746,19.145-0.703c12.969,5.653,12.269,12.949,2.464,21.198c-3.797,3.195-7.408,6.6-5.419,12.04
			c2.163,5.916,7.589,4.888,12.21,4.43c7.006-0.696,12.363,1.562,16.141,7.509c-0.933,1.906-1.76,3.872-2.818,5.703
			c-3.678,6.362-14.645,7.18-14.148,16.069c0.574,10.227,12.017,6.857,17.168,11.438c8.65,7.691,4.46,13.585-3.603,18.743
			c-16.83,10.761-16.89,12.792,0.363,21.97c4.982,2.648,7.652,5.644,7.101,11.029c-0.58,5.663-4.544,7.431-9.712,8.876
			c-19.173,5.368-19.867,8.236-6.418,23.296c2.919,3.267,6.185,6.39,4.056,11.134c-1.874,4.179-5.508,5.806-10.166,6.584
			c-18.69,3.129-19.063,4-8.316,19.855c2.643,3.9,4.333,7.133,1.68,11.579c-2.688,4.505-6.854,4.229-11.199,4.17
			c-20.093-0.279-20.177-0.204-13.233,17.545c1.627,4.164,3.101,8.274,0.068,12.062c-3.096,3.872-7.452,3.126-11.808,2.173
			c-19.412-4.239-19.682-4.113-14.672,13.823c1.314,4.703,1.303,8.613-2.069,11.673c-4.098,3.719-8.703,2.245-13.401,0.201
			c-18.798-8.171-18.911-8.07-18.992,12.622c-0.021,5.158-1.27,9.846-5.773,12.376c-5.718,3.21-9.885-0.763-14.222-4.12
			c-14.586-11.287-14.692-11.206-17.976,6.688c-0.884,4.822-1.534,9.886-7.172,11.396c-6.313,1.69-9.783-1.997-12.515-7.217
			c-2.153-4.114-3.911-9.896-9.894-8.917c-5.89,0.959-5.232,7.242-6.944,11.525c-2.046,5.12-0.892,12.87-8.772,13.616
			c-8.309,0.784-10.042-6.292-12.483-12.249c-1.593-3.892-2.771-9.143-7.431-9.667c-5.176-0.579-6.227,4.985-8.144,8.61
			c-2.996,5.662-5.437,12.745-13.162,12.033c-8.09-0.746-8.677-7.964-9.591-14.522c-0.574-4.114-1.317-8.773-6.339-10.188
			c-6.139-1.728-8.292,3.34-11.165,7.026c-3.504,4.499-5.944,11.005-13.479,8.864c-8.241-2.343-7.262-9.453-7.265-15.834
			c-0.003-4.361-0.022-9.168-4.178-11.415c-4.875-2.638-7.829,1.987-10.687,4.828c-5.648,5.618-11.47,9.713-19.784,5.734
			c-4.684-5.916-2.334-11.955-0.657-18.185c1.062-3.941,2.662-8.588-2.271-11.463c-3.833-2.235-7.141-0.197-10.444,1.693
			c-5.648,3.226-10.764,10.933-18.146,4.241c-6.695-6.072-1.792-12.694,0.674-19.094c3.755-9.741-0.033-13.318-9.792-10.836
			c-5.165,1.314-10.102,4.48-15.242,4.729c-8.682,0.42-10.994-9.682-4.819-19.759c2.655-4.33,8.636-8.102,4.524-13.946
			c-3.314-4.709-8.847-2.596-13.374-1.37c-6.349,1.719-11.716,1.082-15.43-4.837c-4.283-6.829,0.733-10.839,4.854-15.037
			c3.725-3.794,8.646-7.469,6.93-13.444c-1.988-6.923-8.299-5.123-13.535-5.095c-5.631,0.031-10.787-1.183-12.771-7.347
			c-2.237-6.944,1.691-10.977,7.081-14.403c4.228-2.69,10.957-3.847,9.345-11.08c-1.313-5.895-7.264-5.688-11.668-6.904
			c-4.899-1.351-9.801-2.916-10.654-8.324c-1.038-6.568,4.507-9.218,9.321-11.431c11.798-5.434,13.092-10.328-0.1-15.567
			c-5.502-2.185-11.132-4.64-10.119-12.375c0.881-6.722,6.251-8.014,11.425-9.462c4.479-1.251,10.124-0.796,10.874-7.343
			c0.6-5.246-3.535-7.465-7.053-9.738c-5.36-3.458-9.167-7.221-6.717-14.404c2.169-6.355,6.997-7.55,12.682-7.312
			c5.018,0.21,10.174,0.119,12.289-5.245c1.859-4.716-1.815-8.055-4.924-10.958c-4.551-4.249-8.303-8.569-4.824-15.244
			c3.604-6.913,9.719-5.117,15.509-4.38c4.657,0.593,9.984,2.674,13.019-2.58c2.546-4.408-0.738-8.309-3.356-11.569
			c-4.12-5.129-5.956-10.428-1.657-15.984c4.593-5.935,10.489-6.249,17.192-3.073c4.183,1.981,9.091,4.756,13.368,0.401
			c4.063-4.139,2.199-8.804,0.047-13.331c-2.875-6.051-4.846-12.356,1.435-17.47c5.855-4.769,11.038-1.354,15.861,2.348
			c4.473,3.434,9.34,6.189,14.539,2.38c5-3.665,2.054-8.804,0.87-13.284c-1.519-5.756-0.878-10.993,4.494-14.043
			c5.282-3,9.8-0.728,14.493,2.957c13.798,10.835,15.465,10.143,18.274-7.287c0.874-5.424,3.01-9.243,8.147-10.594
			c5.377-1.414,8.67,2.013,12.028,5.879c11.722,13.494,13.714,13.071,19.484-3.559c1.834-5.286,3.781-10.074,10.489-10.375
			c5.427-0.245,8.886,2.113,11.582,6.841c2.372,4.161,0.166,12.309,8.073,11.786c6.436-0.426,6.768-7.493,9.508-11.833
			c1.419-2.251,2.604-4.646,3.896-6.976c10.667-1.878,17.331,1.213,18.894,13.174c1.753,13.432,8.179,13.61,16.655,4.571
			c3.966-4.226,7.475-9.679,14.623-7.205c7.465,2.583,6.581,8.559,5.732,14.629c-0.638,4.574,1.013,8.594,5.183,10.798
			c4.709,2.486,8.021-0.687,11.23-3.625c4.584-4.192,8.435-10.541,16.204-6.365c8.451,4.543,4.974,11.494,3.767,18.279
			c-1.748,9.839,2.461,13.429,11.683,8.97C437.578,236.785,443.877,232.559,451.854,235.578z"/>
	</g>
	
		<circle fill-rule="evenodd" clip-rule="evenodd" fill="none" stroke="#020200" stroke-width="4" stroke-miterlimit="3.8637" cx="308.002" cy="400.004" r="232.5"/>
	
		<circle fill-rule="evenodd" clip-rule="evenodd" fill="#C6C609" stroke="#020200" stroke-width="3" stroke-miterlimit="3.8637" cx="308.002" cy="400.004" r="182.233"/>
</g>
<g id="Layer_2">
	
		<ellipse fill-rule="evenodd" clip-rule="evenodd" fill="#020000" stroke="#020000" stroke-width="3" stroke-miterlimit="3.8637" cx="307.833" cy="261.667" rx="9" ry="8.833"/>
	<path fill-rule="evenodd" clip-rule="evenodd" fill="#3D3D3D" stroke="#020000" stroke-width="3" stroke-miterlimit="3.8637" d="
		M377.501,438.847l0.103-38.843l0,0l-142.213-0.001v38.844h-14.224V294.831c0-1.32,3.306-8.442,8.542-10.947
		c18.857-9.02,62.755-18.066,67.509-18.066h19.897c4.688,0,47.421,9.653,66.697,18.683c5.705,2.673,9.354,8.944,9.354,10.331
		v144.016H377.501z"/>
	<path fill-rule="evenodd" clip-rule="evenodd" fill="#020000" stroke="#020200" stroke-width="3" stroke-miterlimit="3.8637" d="
		M378.942,304.423c0-1.158-3.046-6.392-7.808-8.623c-16.088-7.536-51.752-15.592-55.665-15.592h-16.606
		c-3.968,0-40.605,7.55-56.343,15.078c-4.371,2.091-7.129,8.035-7.129,9.137v90.826c0,5.07,4.11,9.18,9.181,9.18h125.19
		c5.07,0,9.181-4.109,9.181-9.18V304.423z"/>
	<g id="Layer_3">
		<path fill-rule="evenodd" clip-rule="evenodd" fill="#3D3D3D" stroke="#020000" stroke-width="3" stroke-miterlimit="3.8637" d="
			M378.942,404.429H235.391v15.405h7.752c21.741,24.087,42.935,28.381,61.689,28.549c32.571,0.293,57.783-19.931,65.713-28.549
			h8.397V404.429z M297.5,419.834v13.782c-15.558-2.083-26.716-9.544-31.962-13.782H297.5z M311.833,433.883v-14.049h37.307
			C335.438,428.831,322.884,432.846,311.833,433.883z"/>
	</g>
	<path fill-rule="evenodd" clip-rule="evenodd" fill="#3D3D3D" stroke="#020000" stroke-width="3" stroke-miterlimit="3.8637" d="
		M398.5,399.17c0,4.418-3.582,8-8,8h-170c-4.418,0-8-3.582-8-8l0,0c0-4.418,3.582-8,8-8h170
		C394.918,391.17,398.5,394.751,398.5,399.17L398.5,399.17z"/>
</g>
<g id="Layer_4">
</g>
<g id="Layer_5">
	<path fill-rule="evenodd" clip-rule="evenodd" fill="#282525" stroke="#020000" stroke-width="5" stroke-miterlimit="3.8637" d="
		M306.917,473.167 M306.563,448.834c0,0-48.194-1.058-71.172-16l-12.222,0.629v-6.629c0,0-25.001-17.334-30.335-38.334h-7v-45.664
		c0-6.075-4.925-11-11-11h-6c-6.075,0-11,4.925-11,11v57.167c-6.259,0-11.333,8.394-11.333,18.748s5.074,18.748,11.333,18.748
		v53.337c0,6.075,4.925,11,11,11h6c6.075,0,11-4.925,11-11v-49.003H209.5c0,0,10,14.667,21.667,0h3c0,0,15.667,10,51.667,13
		c0,0,3.75,14,21.083,18.333 M195.167,428.409v-17.575l14.667,17.575H195.167z"/>
	<path fill-rule="evenodd" clip-rule="evenodd" fill="#282525" stroke="#020000" stroke-width="5" stroke-miterlimit="3.8637" d="
		M306.917,473.167c17.333-4.333,20.376-18.333,20.376-18.333c35.999-3,51.667-13,51.667-13h3c11.667,14.667,21.666,0,21.666,0
		h23.667v49.003c0,6.075,4.925,11,11,11h6c6.075,0,11-4.925,11-11V437.5c6.259,0,11.333-8.394,11.333-18.748
		s-5.074-18.748-11.333-18.748v-57.167c0-6.075-4.925-11-11-11h-6c-6.075,0-11,4.925-11,11V388.5h-7
		c-5.334,21-30.335,38.334-30.335,38.334v6.629l-12.223-0.629c-22.978,14.942-71.173,16-71.173,16 M403.293,428.409l14.667-17.575
		v17.575H403.293z"/>
</g>
<g id="Layer_6">
	<rect x="251.833" y="298.438" fill-rule="evenodd" clip-rule="evenodd" fill="#E0E510" width="15.929" height="86.396"/>
	<rect x="311.881" y="298.438" fill-rule="evenodd" clip-rule="evenodd" fill="#E0E510" width="15.929" height="86.396"/>
	<rect x="281.857" y="298.438" fill-rule="evenodd" clip-rule="evenodd" fill="#E0E510" width="15.929" height="86.396"/>
	<rect x="341.904" y="298.438" fill-rule="evenodd" clip-rule="evenodd" fill="#E0E510" width="15.929" height="86.396"/>
</g>
</svg>
