<?xml version="1.0" encoding="utf-8"?>
<!-- Generator: Adobe Illustrator 16.0.0, SVG Export Plug-In . SVG Version: 6.00 Build 0)  -->
<!DOCTYPE svg PUBLIC "-//W3C//DTD SVG 1.1//EN" "http://www.w3.org/Graphics/SVG/1.1/DTD/svg11.dtd">
<svg version="1.1" id="Layer_1" xmlns="http://www.w3.org/2000/svg" xmlns:xlink="http://www.w3.org/1999/xlink" x="0px" y="0px"
	 width="612px" height="792px" viewBox="0 0 612 792" enable-background="new 0 0 612 792" xml:space="preserve">
<path fill="none" stroke="#595858" stroke-width="3" stroke-miterlimit="3.8637" d="M599.14,318.98H418.502v-38.67
	c0-1.657-1.343-3-3-3h-216c-1.657,0-3,1.343-3,3v38.67H75.779c-1.657,0-6.003,1.343-6.003,3L8.729,451.983c0,1.657,1.343,3,3,3
	h184.773v39.456c0,1.656,1.343,3,3,3h216c1.657,0,3-1.344,3-3v-39.456h116.587c1.657,0,6.003-1.343,6.003-3L602.14,321.98
	C602.14,320.323,600.797,318.98,599.14,318.98z"/>
<path fill="none" stroke="#595858" stroke-width="3" stroke-miterlimit="3.8637" d="M571.61,335.916H403.281v-40.06
	c0-1.416-1.162-2.564-2.597-2.564H213.763c-1.434,0-2.596,1.148-2.596,2.564v40.06H87.679c-1.434,0-5.195,1.148-5.195,2.564
	l-45.823,96.117c0,1.417,1.162,2.564,2.596,2.564h171.909v41.733c0,1.416,1.163,2.564,2.596,2.564h186.922
	c1.435,0,2.597-1.148,2.597-2.564v-41.733h118.906c1.435,0,5.195-1.147,5.195-2.564l46.824-96.117
	C574.207,337.063,573.045,335.916,571.61,335.916z"/>
<path fill="#E5E4E1" stroke="#595858" stroke-miterlimit="3.8637" d="M124.9,402.335c-3.987,10.925-9.724,18.364-18.813,18.364
	c-13.107,0-23.732-15.467-23.732-34.545s10.625-34.545,23.732-34.545c4.915,0,9.48,2.175,13.269,5.899l2.104-2.875l3.441-0.159
	v13.213l-4.392,0.209c-2.918-6.348-7.328-10.393-12.263-10.393c-8.788,0-15.911,12.828-15.911,28.65s7.123,28.648,15.911,28.648
	c5.675,0.002,10.516-4.61,11.313-13.396L124.9,402.335z"/>
<polygon fill="#E5E4E1" stroke="#595858" stroke-miterlimit="3.8637" points="157.883,353.679 160.043,358.454 160.043,378.194 
	141.839,378.194 141.839,358.454 143.998,353.679 130.779,353.679 132.939,358.136 132.939,415.923 130.779,420.699 
	143.729,420.699 141.569,415.763 141.569,386.154 159.908,386.154 159.908,415.763 157.748,420.699 171.101,420.699 
	168.941,415.444 168.941,358.772 171.101,353.679 "/>
<path fill="#E5E4E1" stroke="#595858" stroke-miterlimit="3.8637" d="M215.863,366.732h2.427v-3.184l-5.392-9.87h-20.319h-6.791
	h-4.269l2.159,4.457v57.787l-2.159,4.776h3.011h7.779h24.057l9.205-15.919v-3.185h-2.291c-8.09,11.463-19.872,11.303-19.872,11.303
	H192.31v-26.744h7.54l3.136,4.935h2.359v-17.352h-2.157l-3.203,4.457h-7.405v-19.105
	C192.579,359.089,209.255,357.021,215.863,366.732z"/>
<path fill="#E5E4E1" stroke="#595858" stroke-miterlimit="3.8637" d="M222.365,353.679h22.114v2.388c0,0-5.754,1.273-4.854,7.005
	l11.866,35.659l12.405-35.022c0,0,3.416-5.731-1.618-7.642v-2.388h17.08v2.176c0,0-5.934-0.425-8.81,9.127l-15.462,41.604
	c0,0-3.057,6.792,1.978,7.429v3.82H243.76v-3.396c0,0,4.314,0,1.978-6.155l-14.742-44.361c0,0-1.798-7.005-8.63-7.005V353.679z"/>
<path fill="#E5E4E1" stroke="#595858" stroke-miterlimit="3.8637" d="M332.012,412.209c-18.968-19.422-14.473-25.789-14.473-25.789
	c-0.09-0.105,15.192,0.955,15.192-16.026c0-16.98-15.552-16.715-15.552-16.715h-32.183v3.343c4.584,0,5.124,2.76,5.124,2.76v49.88
	c-0.181,5.201-5.124,5.308-5.124,5.308v2.865h18.608v-2.76c-4.766-1.061-5.034-5.413-5.034-5.413l-0.18-21.543l11.776,0.212
	c2.428,9.552,15.462,29.504,15.462,29.504h11.776v-2.653C334.71,414.862,332.012,412.209,332.012,412.209z M298.571,381.538v-21.97
	c0,0,11.396-0.132,15.192,0c3.23,0.113,9.933,0.69,10.158,9.446c0.235,9.123-2.966,12.523-10.428,12.523H298.571z"/>
<path fill="#E5E4E1" stroke="#595858" stroke-miterlimit="3.8637" d="M362.18,353.679c-13.455,0-24.363,14.694-24.363,32.82
	s10.908,32.82,24.363,32.82c13.453,0,24.361-14.694,24.361-32.82S375.633,353.679,362.18,353.679z M362.18,414.174
	c-9.086,0-16.451-12.392-16.451-27.675c0-15.284,7.365-27.675,16.451-27.675c9.085,0,16.45,12.391,16.45,27.675
	C378.63,401.782,371.265,414.174,362.18,414.174z"/>
<path fill="#E5E4E1" stroke="#595858" stroke-miterlimit="3.8637" d="M402.512,382.175l0.135-23.086v-0.953l2.16-4.457h-8.95h-4.27
	l2.16,4.457v57.787l-2.16,4.776h3.012h7.778h24.057l9.205-15.919v-3.185h-2.291c-8.09,11.463-19.871,11.303-19.871,11.303h-11.1
	L402.512,382.175L402.512,382.175z"/>
<path fill="#E5E4E1" stroke="#595858" stroke-miterlimit="3.8637" d="M475.592,366.732h2.426v-3.184l-5.392-9.87h-20.319h-6.79
	h-4.269l2.159,4.457v57.787l-2.159,4.776h3.011h7.778h24.057l9.206-15.919v-3.185h-2.292c-8.089,11.463-19.871,11.303-19.871,11.303
	h-11.1v-26.744h7.541l3.135,4.935h2.36v-17.352h-2.158l-3.202,4.457h-7.406v-19.105
	C452.307,359.089,468.983,357.021,475.592,366.732z"/>
<path fill="#E5E4E1" stroke="#595858" stroke-miterlimit="3.8637" d="M490.23,355.43h34.88l8.27,13.16v2.547h-2.877
	c0,0-6.651-9.127-17.619-9.551v47.546c0,0,0.898,5.73,3.596,5.942v2.76h-15.103v-2.76c0,0,3.956,0.638,3.956-6.579l-0.18-46.485
	c0,0-10.968-2.122-17.62,9.552h-3.416v-2.547L490.23,355.43z"/>
<rect x="231.833" y="314.162" fill="#E5E4E1" stroke="#595858" stroke-width="3" stroke-miterlimit="3.8637" width="150" height="14.667"/>
<rect x="231.833" y="445.265" fill="#E5E4E1" stroke="#595858" stroke-width="3" stroke-miterlimit="3.8637" width="150" height="14.667"/>
</svg>
