<?xml version="1.0" encoding="utf-8"?>
<!-- Generator: Adobe Illustrator 16.0.0, SVG Export Plug-In . SVG Version: 6.00 Build 0)  -->
<!DOCTYPE svg PUBLIC "-//W3C//DTD SVG 1.1//EN" "http://www.w3.org/Graphics/SVG/1.1/DTD/svg11.dtd">
<svg version="1.1" id="bugatti" xmlns="http://www.w3.org/2000/svg" xmlns:xlink="http://www.w3.org/1999/xlink" x="0px" y="0px"
	 width="612px" height="792px" viewBox="0 0 612 792" enable-background="new 0 0 612 792" xml:space="preserve">
<title>brand-icon-bugatti-solid</title>
<path stroke="#000000" stroke-miterlimit="10" d="M306,217.848c149.175,0,270.943,61.2,270.943,138.121S455.175,494.09,306,494.09
	S35.056,432.832,35.056,355.969C35.056,279.106,156.825,217.848,306,217.848z M306,220.181
	c-149.558,0-268.611,61.353-268.611,135.788c0,74.435,119.053,135.787,268.611,135.787c149.558,0,268.61-61.372,268.61-135.787
	C574.61,281.553,455.558,220.181,306,220.181z"/>
<path fill="#FFFFFF" stroke="#000000" stroke-miterlimit="10" d="M36.223,355.969c0-75.639,120.354-136.954,269.777-136.954
	s269.777,61.315,269.777,136.954c0,75.64-120.373,136.954-269.777,136.954S36.223,431.608,36.223,355.969z"/>
<path fill="#F4350F" stroke="#000000" stroke-miterlimit="10" d="M62.29,355.969c0-61.263,108.724-110.925,243.71-110.925
	c134.986,0,243.711,49.662,243.711,110.925c0,61.264-108.742,110.925-243.711,110.925C171.032,466.894,62.29,417.232,62.29,355.969z
	"/>
<path stroke="#000000" stroke-miterlimit="10" d="M552.043,355.969c0,50.854-93.712,113.22-246.043,113.22
	S59.957,406.822,59.957,355.969c0-50.854,93.712-113.22,246.043-113.22S552.043,305.115,552.043,355.969z M549.71,355.969
	c0-48.444-91.055-110.925-243.71-110.925c-152.656,0-243.71,62.481-243.71,110.925c0,48.443,91.054,110.925,243.71,110.925
	S549.71,404.432,549.71,355.969z"/>
<path fill="#F4350F" stroke="#000000" stroke-miterlimit="10" d="M106.258,399.344h26.89c11.245,0,19.125-11.991,19.125-21.859
	c0-9.429-4.437-15.031-9.563-17.806l-2.027-1.109l1.913-1.204c4.59-2.792,7.65-10.48,7.65-15.739c0-6.636-3.997-15.835-12.948-18.8
	l0.325-0.918c2.046,0.679,3.98,1.658,5.737,2.907c1.019,0.755,1.983,1.579,2.888,2.467c1.697,1.526,3.313,3.141,4.838,4.839
	c1.374,1.492,2.651,3.069,3.825,4.724c2.426,3.627,3.754,7.877,3.825,12.24c0,5.202-2.773,12.852-7.401,16.18l-0.249,0.269
	l3.519,3.519c4.253,4.189,6.527,9.987,6.254,15.95c0,10.193-8.167,22.95-20.158,22.95h-28.649l-7.133-7.114l1.338-1.339
	L106.258,399.344L106.258,399.344z M128.003,389.361h-8.472v-25.877h9.563c4.169,0,7.65,3.825,8.951,8.664
	c-0.486-0.136-0.988-0.206-1.492-0.21h-8.549L128.003,389.361L128.003,389.361z M128.003,353.464h-0.994h-7.478v-21.611h7.478
	c4.9,0.014,8.974,3.779,9.371,8.664c-0.627-0.141-1.269-0.211-1.913-0.21h-6.464V353.464L128.003,353.464z"/>
<path fill="#F4350F" stroke="#000000" stroke-miterlimit="10" d="M193.793,401.257c12.746-0.093,23.08-10.358,23.256-23.104v-55.825
	l1.338-1.339l7.134,7.114v57.49c-0.177,13.305-10.964,24.023-24.27,24.116c-5.738,0-11.475-2.354-17.404-6.713
	c-3.485-2.729-6.485-6.026-8.874-9.754c-0.229-0.497-1.224-2.123-2.295-4.322l0.516-0.134c4.052,7.619,11.949,12.411,20.579,12.487
	L193.793,401.257z M185.589,320.932l7.134,7.115v57.49c-0.002,0.644,0.069,1.284,0.21,1.912c-4.906-0.296-8.722-4.381-8.683-9.296
	v-55.825l1.338-1.339L185.589,320.932L185.589,320.932z"/>
<path fill="#F4350F" stroke="#000000" stroke-miterlimit="10" d="M241.205,392.688c-0.249-0.517-1.301-2.257-2.391-4.569
	l0.536-0.174c3.925,8.075,12.061,13.252,21.037,13.389c15.855,0,23.084-9.199,23.084-23.122v-17.863l1.339-1.339l7.134,7.114v19.525
	c0,14.421-7.65,24.117-24.098,24.117c-5.967,0-11.647-2.313-17.557-6.713c-3.625-2.889-6.729-6.375-9.18-10.309L241.205,392.688z
	 M269.892,378.249l-7.134-7.114l1.339-1.339h7.822v8.453H269.892z M250.767,378.135V343.06c-0.136-5.547,4.039-10.256,9.563-10.787
	c5.582-0.733,10.701,3.198,11.434,8.78c0.016,0.12,0.029,0.241,0.041,0.362c-1.207-0.517-2.515-0.752-3.825-0.688
	c-5.001,0.48-8.778,4.75-8.645,9.773v35.095c0.004,0.942,0.159,1.879,0.459,2.772c-5.068-0.772-8.841-5.088-8.931-10.214
	L250.767,378.135z M278.154,324.585c2.322,1.729,4.451,3.705,6.35,5.891c1.722,2.004,3.228,4.184,4.495,6.502
	c2.115,4.179,3.154,8.82,3.021,13.502v1.338h-13.885l-7.133-7.114l1.338-1.339h11.208v-0.325c0-10.671-4.246-18.608-13.483-21.707
	l0.229-0.976C273.133,321.314,275.791,322.743,278.154,324.585z"/>
<path fill="#F4350F" stroke="#000000" stroke-miterlimit="10" d="M328.95,373.182h-10.137l8.396-37.141
	c0.535-2.276,2.18-2.219,2.62,0l3.576,17.633L328.95,373.182z M341.975,400.664l1.339-1.339H356.7l-17.729-77.074l0.994-1.262
	l7.134,7.114l18.991,79.675h-17.002l-7.134-7.113H341.975z M324.475,393.014l-3.347,14.765h-16.601l-7.114-7.096l1.759-1.356h13.694
	l3.347-14.766h23.447l1.721,8.453H324.475z"/>
<path fill="#F4350F" stroke="#000000" stroke-miterlimit="10" d="M378.675,400.836l1.339-1.339h13.272v-65.542h16.391v-11.647
	l1.339-1.338l7.135,7.114v14.306h-16.524v65.542h-15.931L378.675,400.836z M369.419,342.409l-7.134-7.115l1.339-1.338h15.931v8.453
	H369.419z"/>
<path fill="#F4350F" stroke="#000000" stroke-miterlimit="10" d="M429.375,342.409l-7.133-7.115l1.338-1.338h15.932v8.453H429.375z
	 M470.953,320.99l7.134,7.114v14.306h-16.391v65.542h-15.932l-7.134-7.114l1.339-1.339h13.292v-65.542h16.391v-11.648l1.339-1.338
	L470.953,320.99z"/>
<polygon fill="#F4350F" stroke="#000000" stroke-miterlimit="10" points="499.966,320.99 507.1,328.104 507.1,407.798 
	491.168,407.798 484.034,400.683 485.373,399.344 498.627,399.344 498.627,322.328 "/>
<path fill="#F4350F" stroke="#000000" stroke-miterlimit="10" d="M151.776,341.625c-0.093-4.976-1.783-9.789-4.819-13.732
	c1.167,1.071,2.735,2.582,4.188,4.227c1.354,1.493,2.612,3.071,3.768,4.724c2.426,3.627,3.754,7.877,3.825,12.24
	c0,5.202-2.773,12.852-7.401,16.18l-0.249,0.268l3.519,3.52c4.253,4.189,6.527,9.987,6.254,15.95c0,10.193-8.167,22.95-20.158,22.95
	h-28.649l-6.866-7.076h27.961c12.393,0,20.674-13.023,20.674-23.391c0-9.812-4.59-15.893-10.06-18.99
	C148.812,355.204,151.776,347.018,151.776,341.625z M128.003,387.831h-6.961v-22.816h8.014c3.06,0,6.005,2.869,7.325,6.924h-8.377
	L128.003,387.831L128.003,387.831z M127.009,333.363c3.988-0.006,7.346,2.981,7.803,6.942h-6.809v11.628h-0.994h-5.967v-18.609
	L127.009,333.363z"/>
<path fill="#F4350F" stroke="#000000" stroke-miterlimit="10" d="M192.742,385.594v0.306c-3.954-0.356-6.978-3.68-6.961-7.649
	v-57.088l6.942,6.942v57.49H192.742L192.742,385.594z M177.002,396.131c9.982,9.306,25.617,8.758,34.923-1.225
	c4.242-4.551,6.611-10.532,6.636-16.754v-56.992l6.942,6.942v57.49c-0.177,13.305-10.964,24.022-24.27,24.116
	c-5.738,0-11.475-2.354-17.404-6.713C181.289,400.988,178.997,398.683,177.002,396.131z"/>
<path fill="#F4350F" stroke="#000000" stroke-miterlimit="10" d="M243.519,396.131c4.607,4.298,10.664,6.701,16.964,6.731
	c16.792,0,24.614-9.964,24.614-24.651v-19.01l6.942,6.923v19.525c0,14.421-7.65,24.117-24.097,24.117
	c-5.967,0-11.647-2.313-17.557-6.713c-2.562-2.026-4.868-4.357-6.866-6.942V396.131L243.519,396.131z M262.931,371.269h7.458v6.924
	h-0.497L262.931,371.269z M260.501,333.727c4.619-0.633,8.904,2.518,9.677,7.114c-0.738-0.175-1.5-0.233-2.257-0.172
	c-5.001,0.48-8.778,4.75-8.644,9.772v35.095c-0.026,0.382-0.026,0.766,0,1.146c-4.037-0.906-6.935-4.45-7.019-8.587v-35.037
	c-0.143-4.766,3.439-8.824,8.186-9.276L260.501,333.727z M271.211,344.838h13.885v-1.913c0-7.191-1.912-13.253-5.737-17.576
	c3.987,3.123,7.292,7.028,9.715,11.475c2.116,4.179,3.154,8.82,3.022,13.502v1.339h-13.885l-6.942-6.923L271.211,344.838z"/>
<path fill="#F4350F" stroke="#000000" stroke-miterlimit="10" d="M329.352,371.67h-8.625l7.783-34.424l4.074,20.1L329.352,371.67z
	 M342.223,400.874h16.468l-18.266-79.502l6.79,6.771l18.99,79.674h-17.002l-6.942-6.923L342.223,400.874z M297.623,400.874h16.505
	l3.347-14.766h21.038l1.396,6.925h-15.3l-3.348,14.765h-16.601l-6.942-6.924H297.623z"/>
<path fill="#F4350F" stroke="#000000" stroke-miterlimit="10" d="M378.828,401.027h15.931v-65.542h16.429v-14.325l6.942,6.942
	v14.306h-16.505v65.541h-15.931l-6.942-6.923L378.828,401.027L378.828,401.027z M362.438,335.486h15.568v6.923H369.4l-6.942-6.923
	H362.438z"/>
<path fill="#F4350F" stroke="#000000" stroke-miterlimit="10" d="M422.433,335.486h15.53v6.923h-8.605l-6.942-6.923H422.433z
	 M438.823,401.027h15.931v-65.542h16.391v-14.325l6.942,6.942v14.306h-16.391v65.541h-15.932L438.823,401.027L438.823,401.027z"/>
<polygon fill="#F4350F" stroke="#000000" stroke-miterlimit="10" points="484.226,400.874 500.157,400.874 500.157,321.161 
	507.1,328.104 507.1,407.798 491.168,407.798 "/>
<path stroke="#000000" stroke-miterlimit="10" d="M104.461,400.683l1.664-1.663h27.024c10.997,0,18.838-11.781,18.838-21.555
	c0-9.294-4.379-14.803-9.371-17.52l-2.524-1.377l2.448-1.49c4.456-2.716,7.401-10.271,7.401-15.454
	c0-6.636-4.035-15.797-13.043-18.589l0.535-1.53c3.39,1.124,6.477,3.008,9.027,5.508c1.73,1.542,3.378,3.177,4.934,4.896
	c1.374,1.499,2.651,3.083,3.825,4.743c2.477,3.672,3.839,7.983,3.92,12.412c0,5.279-2.812,13.042-7.535,16.447l3.251,3.252
	c4.325,4.242,6.634,10.128,6.35,16.18c0,10.31-8.243,23.198-20.483,23.198h-28.688l-7.458-7.438L104.461,400.683z M128.31,372.264
	v17.423h-9.104v-26.525h9.85c4.532,0,8.186,4.282,9.409,9.467c-0.61-0.234-1.258-0.357-1.912-0.363L128.31,372.264L128.31,372.264z
	 M128.31,340.631v13.139c-0.439,0.023-0.88,0.023-1.319,0h-7.784v-22.243h7.803c5.25,0.027,9.549,4.182,9.753,9.429
	c-0.746-0.216-1.518-0.326-2.295-0.325H128.31L128.31,340.631z"/>
<path stroke="#000000" stroke-miterlimit="10" d="M173.368,388.481c5.818,11.262,19.664,15.672,30.924,9.854
	c7.535-3.895,12.308-11.624,12.413-20.104v-56.037l1.664-1.664l7.459,7.439v57.624c-0.167,13.488-11.105,24.359-24.595,24.441
	c-5.738,0-11.705-2.371-17.595-6.771c-3.526-2.759-6.559-6.096-8.97-9.868c-0.249-0.517-1.319-2.313-2.467-4.667l1.147-0.306
	L173.368,388.481z M183.925,322.271l1.664-1.664l7.459,7.44v57.624c0.002,0.743,0.105,1.482,0.306,2.199
	c-5.221-0.083-9.41-4.341-9.409-9.563v-56.113L183.925,322.271z"/>
<path stroke="#000000" stroke-miterlimit="10" d="M333.731,353.731l-4.477,19.793h-10.844l8.491-37.522
	c0.611-2.64,2.734-2.525,3.231,0l3.597,17.709L333.731,353.731L333.731,353.731z M349.031,408.142l-7.459-7.438l1.664-1.664h13.139
	l-17.671-76.844l1.319-1.664l7.459,7.439l19.125,80.153L349.031,408.142z M341.783,393.377h-17.002l-3.349,14.765h-17.001
	l-7.458-7.438l2.142-1.664h13.541l3.347-14.766h23.945l1.912,9.104L341.783,393.377L341.783,393.377z"/>
<path stroke="#000000" stroke-miterlimit="10" d="M385.655,408.275l-7.458-7.438l1.663-1.664h13.082v-65.541h16.333v-11.475
	l1.662-1.664l7.46,7.44v14.764h-16.391v65.542L385.655,408.275z M379.918,342.735h-10.595l-7.459-7.44l1.664-1.664h16.39V342.735
	L379.918,342.735z"/>
<path stroke="#000000" stroke-miterlimit="10" d="M439.875,342.735h-10.596l-7.458-7.44l1.664-1.664h16.39V342.735z
	 M469.347,322.194l1.664-1.664l7.458,7.439v14.765h-16.39v65.541h-16.467l-7.459-7.438l1.664-1.664h13.082v-65.541h16.39v-11.475
	L469.347,322.194z"/>
<polygon stroke="#000000" stroke-miterlimit="10" points="498.321,322.194 499.966,320.531 507.425,327.97 507.425,408.123 
	491.034,408.123 483.575,400.683 485.239,399.02 498.321,399.02 "/>
<path stroke="#000000" stroke-miterlimit="10" d="M250.193,403.265c-3.666-2.917-6.804-6.443-9.276-10.423
	c-0.268-0.555-1.396-2.429-2.543-4.896l1.147-0.362c3.865,8.128,12.038,13.329,21.038,13.388c15.663,0,22.778-9.026,22.778-22.797
	v-17.997l1.664-1.663l7.458,7.439v19.659c0,14.573-7.746,24.442-24.422,24.442c-6.063,0-11.819-2.353-17.748-6.771L250.193,403.265z
	 M272.225,378.594h-2.563l-7.459-7.439l1.664-1.663h8.281v9.104L272.225,378.594L272.225,378.594z M260.196,388.749
	c-5.428-0.598-9.566-5.137-9.658-10.597v-35.094c-0.136-5.72,4.173-10.571,9.869-11.112c5.774-0.725,11.043,3.369,11.768,9.144
	c0.034,0.272,0.058,0.546,0.07,0.82c-1.318-0.625-2.769-0.92-4.227-0.861c-4.828,0.479-8.471,4.597-8.357,9.448v35.095
	c0.003,1.081,0.211,2.151,0.612,3.155L260.196,388.749L260.196,388.749z M270.083,319.899c3.003,0.96,5.813,2.442,8.3,4.38
	c2.343,1.74,4.491,3.728,6.407,5.929c1.736,2.022,3.255,4.221,4.533,6.56c2.141,4.226,3.192,8.92,3.06,13.655v1.721h-14.344
	l-7.458-7.439l1.664-1.664h11.035c0-10.69-4.284-18.532-13.54-21.496l0.382-1.606L270.083,319.899z"/>
<path fill="#FFFFFF" stroke="#000000" stroke-miterlimit="10" d="M120.851,364.822v23.199h8.205c5.202,0,8.205-5.736,8.205-11.608
	c0-6.33-3.959-11.608-8.205-11.608L120.851,364.822z M120.851,333.191v18.953h6.139c5.202,0,8.205-3.614,8.205-9.563
	c0-6.33-3.959-9.563-8.205-9.563L120.851,333.191z M143.438,358.493c5.527,3.021,10.251,9.064,10.251,18.99
	c0,10.31-8.243,23.198-20.483,23.198h-28.688V320.53h26.584c14.344,0,20.483,12.661,20.483,21.037c0,5.508-3.06,13.751-8.205,16.868
	L143.438,358.493z"/>
<path fill="#FFFFFF" stroke="#000000" stroke-miterlimit="10" d="M201.979,378.153v-57.623h16.39v57.623
	c-0.378,13.578-11.693,24.278-25.271,23.899c-13.045-0.363-23.535-10.854-23.899-23.899v-57.623h16.314v57.623
	c0.219,4.526,4.065,8.02,8.591,7.801c4.22-0.204,7.595-3.579,7.799-7.801H201.979z"/>
<path fill="#FFFFFF" stroke="#000000" stroke-miterlimit="10" d="M270.562,378.153v-6.999h-8.281v-12.642h22.682v19.641
	c0,14.573-7.746,24.462-24.422,24.462c-13.531-0.062-24.529-10.932-24.748-24.462V343.06c0.229-13.522,11.224-24.381,24.748-24.442
	c16.677,0,24.422,9.869,24.422,24.442v1.664h-14.344v-1.664c0.303-4.945-3.459-9.199-8.404-9.502
	c-0.559-0.034-1.12-0.016-1.675,0.054c-4.837,0.461-8.49,4.59-8.358,9.448v35.094c0.098,4.679,3.698,8.533,8.358,8.951
	c5.967,0.518,10.079-3.193,10.079-8.97L270.562,378.153z"/>
<path fill="#FFFFFF" stroke="#000000" stroke-miterlimit="10" d="M335.721,371.861l-7.211-35.515l-8.032,35.515H335.721z
	 M296.973,400.683l20.5-80.152h22.529l18.438,80.152h-16.868l-3.061-14.764h-21.21l-3.347,14.764H296.973z"/>
<polygon fill="#FFFFFF" stroke="#000000" stroke-miterlimit="10" points="394.587,400.836 378.197,400.836 378.197,335.295 
	361.807,335.295 361.807,320.531 410.978,320.531 410.978,335.295 394.587,335.295 "/>
<polygon fill="#FFFFFF" stroke="#000000" stroke-miterlimit="10" points="454.563,400.836 438.173,400.836 438.173,335.295 
	421.783,335.295 421.783,320.531 470.953,320.531 470.953,335.295 454.563,335.295 "/>
<polygon fill="#FFFFFF" stroke="#000000" stroke-miterlimit="10" points="483.575,320.531 499.966,320.531 499.966,400.683 
	483.575,400.683 "/>
<path fill="#F4350F" stroke="#000000" stroke-miterlimit="10" d="M310.609,284.958v13.388h13.388
	c3.696-0.396,6.372-3.713,5.977-7.411c-0.337-3.15-2.825-5.64-5.977-5.977H310.609z M310.609,264.073v11.991h13.388
	c3.311-0.187,5.844-3.023,5.656-6.334c-0.172-3.05-2.606-5.484-5.656-5.657H310.609L310.609,264.073z M284.962,285.206v-12.374
	h7.401v3.175h8.338v-11.838h-20.1v4.035h-7.42v-11.475h50.738c7.816,0.012,14.144,6.359,14.131,14.175
	c-0.006,3.418-1.248,6.718-3.497,9.292l-0.19,0.229l0.21,0.21c5.735,5.885,5.613,15.305-0.271,21.041
	c-2.776,2.707-6.503,4.222-10.382,4.223H273.2v-11.475h7.42v4.036h20.024v-13.388h-8.338v3.175h-7.344V285.206z"/>
<path stroke="#000000" stroke-miterlimit="10" d="M323.92,298.116c3.539-0.003,6.404-2.875,6.401-6.413
	c-0.003-3.534-2.867-6.398-6.401-6.401h-13.005v12.814H323.92z M323.92,275.778c3.138-0.447,5.318-3.353,4.871-6.49
	c-0.36-2.526-2.345-4.511-4.871-4.871h-13.005v11.36L323.92,275.778L323.92,275.778z M292.612,285.206v3.175h-8.051v-15.874h8.051
	v3.175h7.65v-11.36h-19.335v4.035h-8.052V256.27h51.044c7.985-0.011,14.468,6.453,14.479,14.438c0.005,3.52-1.274,6.92-3.598,9.564
	c5.861,6.012,5.74,15.638-0.271,21.5c-2.838,2.768-6.646,4.317-10.61,4.318h-51.044v-12.087h8.052v4.035h19.335v-12.833
	L292.612,285.206L292.612,285.206z"/>
</svg>
