<?xml version="1.0" encoding="utf-8"?>
<!-- Generator: Adobe Illustrator 16.0.0, SVG Export Plug-In . SVG Version: 6.00 Build 0)  -->
<!DOCTYPE svg PUBLIC "-//W3C//DTD SVG 1.1//EN" "http://www.w3.org/Graphics/SVG/1.1/DTD/svg11.dtd">
<svg version="1.1" id="bugatti" xmlns="http://www.w3.org/2000/svg" xmlns:xlink="http://www.w3.org/1999/xlink" x="0px" y="0px"
	 width="612px" height="792px" viewBox="0 0 612 792" enable-background="new 0 0 612 792" xml:space="preserve">
<title>brand-icon-bugatti-solid</title>
<path stroke="#000000" stroke-miterlimit="10" d="M306,257.879c149.175,0,270.943,61.2,270.943,138.121S455.175,534.121,306,534.121
	S35.056,472.863,35.056,396S156.825,257.879,306,257.879z M306,260.212c-149.558,0-268.611,61.353-268.611,135.788
	S156.442,531.787,306,531.787S574.61,470.415,574.61,396C574.61,321.584,455.558,260.212,306,260.212z"/>
<path fill="#FFFFFF" stroke="#000000" stroke-miterlimit="10" d="M36.223,396c0-75.639,120.354-136.954,269.777-136.954
	S575.777,320.361,575.777,396c0,75.64-120.373,136.954-269.777,136.954S36.223,471.64,36.223,396z"/>
<path fill="#F4350F" stroke="#000000" stroke-miterlimit="10" d="M62.29,396c0-61.263,108.724-110.925,243.71-110.925
	c134.986,0,243.711,49.662,243.711,110.925c0,61.264-108.742,110.925-243.711,110.925C171.032,506.925,62.29,457.264,62.29,396z"/>
<path stroke="#000000" stroke-miterlimit="10" d="M552.043,396c0,50.854-93.712,113.22-246.043,113.22
	c-152.331,0-246.043-62.366-246.043-113.22S153.669,282.78,306,282.78C458.331,282.78,552.043,345.146,552.043,396z M549.71,396
	c0-48.444-91.055-110.925-243.71-110.925c-152.656,0-243.71,62.481-243.71,110.925c0,48.443,91.054,110.925,243.71,110.925
	C458.656,506.925,549.71,444.463,549.71,396z"/>
<path fill="#F4350F" stroke="#000000" stroke-miterlimit="10" d="M106.258,439.375h26.89c11.245,0,19.125-11.991,19.125-21.859
	c0-9.429-4.437-15.032-9.563-17.806l-2.027-1.109l1.913-1.204c4.59-2.792,7.65-10.481,7.65-15.74c0-6.636-3.997-15.835-12.948-18.8
	l0.325-0.918c2.046,0.679,3.98,1.658,5.737,2.907c1.019,0.755,1.983,1.579,2.888,2.467c1.697,1.526,3.313,3.141,4.838,4.839
	c1.374,1.492,2.651,3.069,3.825,4.724c2.426,3.627,3.754,7.877,3.825,12.24c0,5.202-2.773,12.852-7.401,16.18l-0.249,0.268
	l3.519,3.519c4.253,4.189,6.527,9.987,6.254,15.95c0,10.194-8.167,22.95-20.158,22.95h-28.649l-7.133-7.114l1.338-1.339V439.375z
	 M128.003,429.393h-8.472v-25.877h9.563c4.169,0,7.65,3.825,8.951,8.664c-0.486-0.136-0.988-0.206-1.492-0.21h-8.549V429.393z
	 M128.003,393.495h-0.994h-7.478v-21.611h7.478c4.9,0.014,8.974,3.779,9.371,8.664c-0.627-0.141-1.269-0.211-1.913-0.21h-6.464
	V393.495L128.003,393.495z"/>
<path fill="#F4350F" stroke="#000000" stroke-miterlimit="10" d="M193.793,441.288c12.746-0.093,23.08-10.358,23.256-23.104v-55.825
	l1.338-1.339l7.134,7.114v57.49c-0.177,13.305-10.964,24.023-24.27,24.116c-5.738,0-11.475-2.353-17.404-6.713
	c-3.485-2.729-6.485-6.026-8.874-9.754c-0.229-0.497-1.224-2.123-2.295-4.322l0.516-0.134c4.052,7.62,11.949,12.412,20.579,12.488
	L193.793,441.288z M185.589,360.963l7.134,7.115v57.49c-0.002,0.644,0.069,1.285,0.21,1.912c-4.906-0.295-8.722-4.38-8.683-9.295
	v-55.825l1.338-1.339V360.963z"/>
<path fill="#F4350F" stroke="#000000" stroke-miterlimit="10" d="M241.205,432.72c-0.249-0.517-1.301-2.257-2.391-4.57l0.536-0.173
	c3.925,8.075,12.061,13.252,21.037,13.388c15.855,0,23.084-9.199,23.084-23.122V400.38l1.339-1.339l7.134,7.114v19.526
	c0,14.421-7.65,24.117-24.098,24.117c-5.967,0-11.647-2.314-17.557-6.713c-3.625-2.889-6.729-6.375-9.18-10.309L241.205,432.72z
	 M269.892,418.28l-7.134-7.114l1.339-1.339h7.822v8.453H269.892z M250.767,418.166v-35.075c-0.136-5.547,4.039-10.256,9.563-10.787
	c5.582-0.733,10.701,3.198,11.434,8.78c0.016,0.12,0.029,0.241,0.041,0.362c-1.207-0.517-2.515-0.752-3.825-0.688
	c-5.001,0.48-8.778,4.75-8.645,9.773v35.095c0.004,0.942,0.159,1.879,0.459,2.772c-5.068-0.772-8.841-5.087-8.931-10.213
	L250.767,418.166z M278.154,364.616c2.322,1.729,4.451,3.705,6.35,5.891c1.722,2.004,3.228,4.184,4.495,6.502
	c2.115,4.179,3.154,8.82,3.021,13.502v1.338h-13.885l-7.133-7.114l1.338-1.339h11.208v-0.325c0-10.671-4.246-18.608-13.483-21.707
	l0.229-0.976C273.133,361.345,275.791,362.774,278.154,364.616z"/>
<path fill="#F4350F" stroke="#000000" stroke-miterlimit="10" d="M328.95,413.213h-10.137l8.396-37.141
	c0.535-2.276,2.18-2.219,2.62,0l3.576,17.633L328.95,413.213z M341.975,440.695l1.338-1.339H356.7l-17.729-77.074l0.994-1.262
	l7.134,7.114l18.991,79.675h-17.002l-7.134-7.114H341.975z M324.475,433.045l-3.347,14.765h-16.601l-7.114-7.096l1.759-1.357h13.694
	l3.347-14.765h23.447l1.721,8.453H324.475z"/>
<path fill="#F4350F" stroke="#000000" stroke-miterlimit="10" d="M378.675,440.867l1.339-1.339h13.272v-65.541h16.391V362.34
	l1.339-1.338l7.134,7.114v14.306h-16.524v65.542h-15.931L378.675,440.867z M369.419,382.44l-7.134-7.115l1.339-1.338h15.931v8.453
	H369.419z"/>
<path fill="#F4350F" stroke="#000000" stroke-miterlimit="10" d="M429.375,382.44l-7.133-7.115l1.338-1.338h15.932v8.453H429.375z
	 M470.953,361.021l7.134,7.114v14.306h-16.391v65.541h-15.931l-7.134-7.114l1.339-1.339h13.292v-65.541h16.39V362.34l1.339-1.338
	L470.953,361.021z"/>
<polygon fill="#F4350F" stroke="#000000" stroke-miterlimit="10" points="499.966,361.021 507.1,368.135 507.1,447.829 
	491.168,447.829 484.034,440.714 485.373,439.375 498.627,439.375 498.627,362.359 499.966,361.021 "/>
<path fill="#F4350F" stroke="#000000" stroke-miterlimit="10" d="M151.776,381.656c-0.093-4.976-1.783-9.789-4.819-13.732
	c1.167,1.071,2.735,2.582,4.188,4.227c1.354,1.493,2.612,3.071,3.768,4.724c2.426,3.627,3.754,7.877,3.825,12.24
	c0,5.202-2.773,12.852-7.401,16.18l-0.249,0.268l3.519,3.519c4.253,4.189,6.527,9.987,6.254,15.95
	c0,10.194-8.167,22.95-20.158,22.95h-28.649l-6.866-7.076h27.961c12.393,0,20.674-13.023,20.674-23.39
	c0-9.812-4.59-15.893-10.06-18.991C148.812,395.235,151.776,387.049,151.776,381.656z M128.003,427.862h-6.961v-22.816h8.014
	c3.06,0,6.005,2.869,7.325,6.924h-8.377V427.862L128.003,427.862z M127.009,373.394c3.988-0.006,7.346,2.981,7.803,6.942h-6.809
	v11.628h-0.994h-5.967v-18.609L127.009,373.394z"/>
<path fill="#F4350F" stroke="#000000" stroke-miterlimit="10" d="M192.742,425.625v0.306c-3.954-0.357-6.978-3.68-6.961-7.65
	v-57.088l6.942,6.942v57.49H192.742z M177.002,436.162c9.982,9.306,25.617,8.758,34.923-1.224
	c4.242-4.551,6.611-10.533,6.636-16.754v-56.992l6.942,6.942v57.49c-0.177,13.305-10.964,24.023-24.27,24.116
	c-5.738,0-11.475-2.353-17.404-6.713C181.289,441.02,178.997,438.714,177.002,436.162z"/>
<path fill="#F4350F" stroke="#000000" stroke-miterlimit="10" d="M243.519,436.162c4.607,4.298,10.664,6.701,16.964,6.732
	c16.792,0,24.614-9.964,24.614-24.652v-19.01l6.942,6.923v19.526c0,14.421-7.65,24.117-24.097,24.117
	c-5.967,0-11.647-2.314-17.557-6.713c-2.562-2.026-4.868-4.357-6.866-6.942V436.162z M262.931,411.3h7.458v6.924h-0.497
	L262.931,411.3z M260.501,373.758c4.619-0.633,8.904,2.518,9.677,7.114c-0.738-0.175-1.5-0.233-2.257-0.172
	c-5.001,0.48-8.778,4.75-8.644,9.772v35.095c-0.026,0.382-0.026,0.766,0,1.147c-4.037-0.906-6.935-4.45-7.019-8.587v-35.037
	c-0.143-4.766,3.439-8.824,8.186-9.276L260.501,373.758z M271.211,384.869h13.885v-1.913c0-7.191-1.912-13.253-5.737-17.576
	c3.987,3.123,7.292,7.028,9.715,11.475c2.116,4.179,3.154,8.82,3.022,13.502v1.339h-13.885l-6.942-6.923L271.211,384.869z"/>
<path fill="#F4350F" stroke="#000000" stroke-miterlimit="10" d="M329.352,411.701h-8.625l7.783-34.424l4.074,20.1L329.352,411.701z
	 M342.223,440.905h16.467l-18.265-79.502l6.79,6.771l18.99,79.674h-17.002l-6.942-6.923L342.223,440.905z M297.623,440.905h16.505
	l3.347-14.765h21.038l1.396,6.924h-15.3l-3.347,14.765h-16.601l-6.942-6.924H297.623z"/>
<path fill="#F4350F" stroke="#000000" stroke-miterlimit="10" d="M378.828,441.059h15.931v-65.542h16.429v-14.325l6.942,6.942
	v14.306h-16.505v65.541h-15.931l-6.942-6.923H378.828z M362.438,375.517h15.568v6.923h-8.606l-6.942-6.923H362.438z"/>
<path fill="#F4350F" stroke="#000000" stroke-miterlimit="10" d="M422.433,375.517h15.53v6.923h-8.606l-6.942-6.923H422.433z
	 M438.823,441.059h15.931v-65.542h16.391v-14.325l6.942,6.942v14.306h-16.391v65.541h-15.931L438.823,441.059L438.823,441.059z"/>
<polygon fill="#F4350F" stroke="#000000" stroke-miterlimit="10" points="484.226,440.905 500.157,440.905 500.157,361.192 
	507.1,368.135 507.1,447.829 491.168,447.829 484.226,440.905 "/>
<path stroke="#000000" stroke-miterlimit="10" d="M104.461,440.714l1.664-1.663h27.024c10.997,0,18.838-11.781,18.838-21.555
	c0-9.294-4.379-14.803-9.371-17.519l-2.524-1.377l2.448-1.491c4.456-2.716,7.401-10.27,7.401-15.453
	c0-6.636-4.035-15.797-13.043-18.589l0.535-1.53c3.39,1.124,6.477,3.008,9.027,5.508c1.73,1.542,3.378,3.177,4.934,4.896
	c1.374,1.499,2.651,3.083,3.825,4.743c2.477,3.672,3.839,7.983,3.92,12.412c0,5.279-2.812,13.043-7.535,16.447l3.251,3.252
	c4.325,4.242,6.634,10.128,6.35,16.18c0,10.309-8.243,23.198-20.483,23.198h-28.688l-7.458-7.439L104.461,440.714z M128.31,412.295
	v17.423h-9.104v-26.526h9.85c4.532,0,8.186,4.283,9.409,9.467c-0.61-0.234-1.258-0.357-1.912-0.363H128.31z M128.31,380.662v13.139
	c-0.439,0.023-0.88,0.023-1.319,0h-7.784v-22.243h7.803c5.25,0.027,9.549,4.182,9.753,9.429c-0.746-0.216-1.518-0.326-2.295-0.325
	H128.31z"/>
<path stroke="#000000" stroke-miterlimit="10" d="M173.368,428.513c5.818,11.261,19.664,15.672,30.924,9.854
	c7.535-3.894,12.308-11.624,12.413-20.104v-56.037l1.664-1.664l7.459,7.439v57.624c-0.167,13.488-11.105,24.359-24.595,24.441
	c-5.738,0-11.705-2.371-17.595-6.771c-3.526-2.759-6.559-6.096-8.97-9.868c-0.249-0.517-1.319-2.314-2.467-4.667l1.147-0.306
	L173.368,428.513z M183.925,362.302l1.664-1.664l7.459,7.44v57.624c0.002,0.743,0.105,1.483,0.306,2.199
	c-5.221-0.083-9.41-4.34-9.409-9.563v-56.113L183.925,362.302z"/>
<path stroke="#000000" stroke-miterlimit="10" d="M333.731,393.762l-4.476,19.794h-10.844l8.491-37.523
	c0.612-2.64,2.735-2.525,3.232,0l3.596,17.709V393.762z M349.031,448.173l-7.459-7.439l1.664-1.664h13.139l-17.671-76.844
	l1.319-1.664l7.459,7.439l19.125,80.153L349.031,448.173z M341.783,433.408h-17.002l-3.348,14.765h-17.002l-7.458-7.439l2.142-1.664
	h13.54l3.347-14.765h23.945l1.912,9.104H341.783z"/>
<path stroke="#000000" stroke-miterlimit="10" d="M385.655,448.307l-7.458-7.439l1.663-1.664h13.082v-65.541h16.333v-11.475
	l1.663-1.664l7.459,7.44v14.764h-16.39v65.542L385.655,448.307z M379.918,382.766h-10.595l-7.459-7.44l1.664-1.664h16.39V382.766z"
	/>
<path stroke="#000000" stroke-miterlimit="10" d="M439.875,382.766h-10.596l-7.458-7.44l1.664-1.664h16.39V382.766z
	 M469.347,362.225l1.664-1.664l7.458,7.439v14.765h-16.39v65.541h-16.467l-7.459-7.439l1.664-1.664h13.082v-65.541h16.39v-11.475
	L469.347,362.225z"/>
<polygon stroke="#000000" stroke-miterlimit="10" points="498.321,362.225 499.966,360.562 507.425,368.001 507.425,448.154 
	491.034,448.154 483.575,440.714 485.239,439.051 498.321,439.051 498.321,362.225 "/>
<path stroke="#000000" stroke-miterlimit="10" d="M250.193,443.296c-3.666-2.917-6.804-6.443-9.276-10.423
	c-0.268-0.555-1.396-2.429-2.543-4.896l1.147-0.363c3.865,8.128,12.038,13.329,21.038,13.388c15.663,0,22.778-9.026,22.778-22.797
	v-17.997l1.664-1.663l7.458,7.439v19.66c0,14.573-7.746,24.442-24.422,24.442c-6.063,0-11.819-2.353-17.748-6.771L250.193,443.296z
	 M272.225,418.625h-2.563l-7.459-7.439l1.664-1.664h8.281v9.104H272.225z M260.196,428.78c-5.428-0.597-9.566-5.136-9.658-10.596
	v-35.094c-0.136-5.72,4.173-10.571,9.869-11.112c5.774-0.725,11.043,3.369,11.768,9.144c0.034,0.272,0.058,0.546,0.07,0.82
	c-1.318-0.625-2.769-0.92-4.227-0.861c-4.828,0.479-8.471,4.597-8.357,9.448v35.095c0.003,1.081,0.211,2.151,0.612,3.155H260.196z
	 M270.083,359.93c3.003,0.96,5.813,2.442,8.3,4.38c2.343,1.74,4.491,3.728,6.407,5.929c1.736,2.022,3.255,4.221,4.533,6.56
	c2.141,4.226,3.192,8.92,3.06,13.655v1.721h-14.344l-7.458-7.439l1.664-1.664h11.035c0-10.69-4.284-18.532-13.54-21.496l0.382-1.606
	L270.083,359.93z"/>
<path fill="#FFFFFF" stroke="#000000" stroke-miterlimit="10" d="M120.851,404.854v23.199h8.205c5.202,0,8.205-5.737,8.205-11.609
	c0-6.33-3.959-11.608-8.205-11.608L120.851,404.854z M120.851,373.222v18.953h6.139c5.202,0,8.205-3.614,8.205-9.563
	c0-6.33-3.959-9.563-8.205-9.563L120.851,373.222z M143.438,398.524c5.527,3.021,10.251,9.065,10.251,18.991
	c0,10.309-8.243,23.198-20.483,23.198h-28.688v-80.152h26.584c14.344,0,20.483,12.661,20.483,21.037
	c0,5.508-3.06,13.751-8.205,16.868L143.438,398.524z"/>
<path fill="#FFFFFF" stroke="#000000" stroke-miterlimit="10" d="M201.979,418.185v-57.623h16.39v57.623
	c-0.378,13.578-11.693,24.278-25.271,23.899c-13.045-0.363-23.535-10.854-23.899-23.899v-57.623h16.314v57.623
	c0.219,4.526,4.065,8.019,8.591,7.8c4.22-0.204,7.595-3.579,7.799-7.8H201.979z"/>
<path fill="#FFFFFF" stroke="#000000" stroke-miterlimit="10" d="M270.562,418.185v-6.999h-8.281v-12.642h22.682v19.641
	c0,14.573-7.746,24.461-24.422,24.461c-13.531-0.061-24.529-10.931-24.748-24.461v-35.094c0.229-13.522,11.224-24.381,24.748-24.442
	c16.677,0,24.422,9.869,24.422,24.442v1.664h-14.344v-1.664c0.303-4.945-3.459-9.199-8.404-9.502
	c-0.559-0.034-1.12-0.016-1.675,0.054c-4.837,0.461-8.49,4.59-8.358,9.448v35.094c0.098,4.678,3.698,8.533,8.358,8.951
	c5.967,0.517,10.079-3.194,10.079-8.97L270.562,418.185z"/>
<path fill="#FFFFFF" stroke="#000000" stroke-miterlimit="10" d="M335.721,411.893l-7.211-35.515l-8.032,35.515H335.721z
	 M296.973,440.714l20.501-80.152h22.529l18.437,80.152h-16.868l-3.06-14.764h-21.21l-3.347,14.764H296.973z"/>
<polygon fill="#FFFFFF" stroke="#000000" stroke-miterlimit="10" points="394.587,440.867 378.197,440.867 378.197,375.326 
	361.807,375.326 361.807,360.562 410.978,360.562 410.978,375.326 394.587,375.326 394.587,440.867 "/>
<polygon fill="#FFFFFF" stroke="#000000" stroke-miterlimit="10" points="454.563,440.867 438.173,440.867 438.173,375.326 
	421.783,375.326 421.783,360.562 470.953,360.562 470.953,375.326 454.563,375.326 454.563,440.867 "/>
<polygon fill="#FFFFFF" stroke="#000000" stroke-miterlimit="10" points="483.575,360.562 499.966,360.562 499.966,440.714 
	483.575,440.714 483.575,360.562 "/>
<path fill="#F4350F" stroke="#000000" stroke-miterlimit="10" d="M310.609,324.989v13.388h13.388
	c3.696-0.396,6.372-3.713,5.977-7.411c-0.337-3.15-2.826-5.64-5.977-5.977H310.609z M310.609,304.104v11.991h13.388
	c3.311-0.187,5.844-3.023,5.656-6.334c-0.172-3.05-2.606-5.484-5.656-5.657H310.609z M284.962,325.237v-12.374h7.401v3.175h8.338
	V304.2h-20.1v4.035h-7.42V296.76h50.738c7.816,0.012,14.143,6.359,14.131,14.175c-0.006,3.418-1.248,6.718-3.497,9.292l-0.191,0.229
	l0.21,0.21c5.736,5.885,5.614,15.305-0.271,21.041c-2.777,2.707-6.503,4.222-10.382,4.223h-50.719v-11.475h7.42v4.036h20.024
	v-13.388h-8.338v3.175h-7.344V325.237z"/>
<path stroke="#000000" stroke-miterlimit="10" d="M323.92,338.147c3.539-0.003,6.404-2.875,6.401-6.413
	c-0.003-3.534-2.867-6.398-6.401-6.401h-13.005v12.814H323.92z M323.92,315.809c3.138-0.447,5.318-3.353,4.871-6.49
	c-0.36-2.526-2.345-4.511-4.871-4.871h-13.005v11.36H323.92z M292.612,325.237v3.175h-8.051v-15.874h8.051v3.175h7.65v-11.36
	h-19.335v4.035h-8.052v-12.087h51.044c7.985-0.011,14.468,6.453,14.479,14.438c0.005,3.52-1.274,6.92-3.597,9.564
	c5.861,6.012,5.74,15.638-0.272,21.5c-2.838,2.768-6.646,4.317-10.61,4.318h-51.044v-12.087h8.052v4.035h19.335v-12.833H292.612z"/>
</svg>
