<?xml version="1.0" encoding="utf-8"?>
<!-- Generator: Adobe Illustrator 16.0.0, SVG Export Plug-In . SVG Version: 6.00 Build 0)  -->
<!DOCTYPE svg PUBLIC "-//W3C//DTD SVG 1.1//EN" "http://www.w3.org/Graphics/SVG/1.1/DTD/svg11.dtd">
<svg version="1.1" id="Layer_1" xmlns="http://www.w3.org/2000/svg" xmlns:xlink="http://www.w3.org/1999/xlink" x="0px" y="0px"
	 width="612px" height="792px" viewBox="0 0 612 792" enable-background="new 0 0 612 792" xml:space="preserve">
<ellipse fill="#3139AD" stroke="#5C5C5C" stroke-width="3" stroke-miterlimit="10" cx="295.25" cy="386.887" rx="263.25" ry="136.605"/>
<g id="audi_copy">
	<polygon fill="#ADADAD" stroke="#5C5C5C" stroke-width="3" stroke-miterlimit="10" points="510.549,430.771 510.549,352.933 
		478.036,352.933 478.036,430.771 	"/>
	<path fill="#ADADAD" stroke="#5C5C5C" stroke-width="3" stroke-miterlimit="10" d="M338.998,398.259v-45.326h-31.365v34.808
		c0,9.945-0.383,12.623-0.956,15.3c-2.104,7.076-9.754,10.328-17.404,10.328c-10.71,0-15.683-4.208-17.786-10.71
		c-0.574-2.104-0.765-4.59-0.956-6.886c-0.191-2.677,0-5.354,0-8.415v-34.425h-31.748v45.518c0,10.137,3.442,17.786,8.989,22.95
		c9.563,9.371,25.627,12.049,40.545,12.049c18.168,0,31.938-2.678,41.884-12.24C335.173,416.045,338.998,409.543,338.998,398.259
		L338.998,398.259z"/>
	<path fill="#ADADAD" stroke="#5C5C5C" stroke-width="3" stroke-miterlimit="10" d="M183.129,392.139h-43.223l21.611-35.572
		L183.129,392.139L183.129,392.139z M244.138,430.771L172.61,323.48h-40.162l11.092,13.196l-62.921,94.286h36.146l10.71-17.786
		h68.276l11.092,17.786L244.138,430.771L244.138,430.771z"/>
	<path fill="#ADADAD" stroke="#5C5C5C" stroke-width="3" stroke-miterlimit="10" d="M469.239,390.418
		c0-8.798-3.634-18.934-14.727-33.086l-26.775-34.043h-37.293l21.229,23.906c3.634,4.017,8.224,7.459,8.224,7.459
		c-5.164-3.061-11.666-4.208-16.83-4.208c-12.24,0-24.862,2.678-35.955,8.798c-11.857,6.502-19.89,17.403-19.89,31.938
		c0,11.093,4.973,19.699,11.283,26.201c14.344,14.344,40.354,15.683,49.917,15.683c14.152,0,36.146-3.251,48.769-14.535
		C464.267,412.029,469.239,402.85,469.239,390.418L469.239,390.418z M438.257,391.374c0,8.224-5.355,14.344-12.049,17.786
		c-5.547,3.061-12.049,3.825-17.978,3.825c-5.737,0-12.432-1.147-18.169-4.017c-6.693-3.442-11.857-9.944-11.857-17.021
		c0-8.606,6.502-15.301,14.344-18.743c4.781-2.104,10.519-3.06,15.108-3.06c4.399,0,10.71,0.573,15.683,2.678
		C432.328,376.457,438.257,383.725,438.257,391.374L438.257,391.374z"/>
</g>
</svg>
