<?xml version="1.0" encoding="utf-8"?>
<!-- Generator: Adobe Illustrator 16.0.0, SVG Export Plug-In . SVG Version: 6.00 Build 0)  -->
<!DOCTYPE svg PUBLIC "-//W3C//DTD SVG 1.1//EN" "http://www.w3.org/Graphics/SVG/1.1/DTD/svg11.dtd">
<svg version="1.1" id="Layer_1" xmlns="http://www.w3.org/2000/svg" xmlns:xlink="http://www.w3.org/1999/xlink" x="0px" y="0px"
	 width="612px" height="792px" viewBox="0 0 612 792" enable-background="new 0 0 612 792" xml:space="preserve">
<path fill="#91702B" stroke="#231F20" stroke-miterlimit="10" d="M269.801,285.797"/>
<path fill="#D7E517" stroke="#AFB212" stroke-width="4" stroke-miterlimit="10" d="M553.059,228.295l-43.192,33.131
	c-10.035,6.924-17.455,5.44-17.455,5.44c-26.617-3.957-24.437-25.714-24.437-25.714c1.312-16.813,10.908-8.407,10.908-8.407
	c-1.746,2.967-0.873,8.901-0.873,8.901c6.107,3.461,8.291-1.978,8.291-1.978c5.674-11.867-4.36-16.319-4.36-16.319
	c-10.476-3.954-24.437,8.902-24.437,8.902c-12.215,11.374-2.619,40.054-2.619,40.054c-6.545,16.319-12.219,15.33-12.219,15.33
	c-3.49-0.991-6.543-7.419-6.543-7.419c-3.49-16.813,0-42.526,0-42.526c-9.164,7.418-16.145,9.89-16.145,9.89v5.935
	c-15.273-1.979-18.765,1.979-18.765,1.979c-19.635,9.889-11.346,43.021-11.346,43.021c-2.183,9.89-8.729,13.353-8.729,13.353
	c-11.778,3.461-10.473-10.385-10.473-10.385l-7.416-47.472c-5.672-26.704-3.49-45.988-3.49-45.988
	c-9.6,11.372-20.069,13.351-20.069,13.351c6.979,9.89,7.418,26.208,7.418,26.208l5.672,38.571l2.182,24.23
	c-2.617,20.275-10.908,18.791-10.908,18.791c-6.545,0.988-7.854-11.374-7.854-11.374l-4.363-52.911c-3.053-37.582,0-43.516,0-43.516
	c-10.035,11.868-22.688,14.34-22.688,14.34c5.233,6.924,6.106,25.714,6.106,25.714l3.49,42.033
	c-0.875,29.174-5.67,36.591-5.67,36.591c-4.801,12.858-13.093,7.914-13.093,7.914c-4.8-5.935-5.236-15.33-5.236-15.33
	c-2.938-21.398,0.983-26.79,1.289-27.172c-7.853,10.361-18.741,12.337-18.741,12.337l2.619,27.693
	c-2.185,23.24-13.528,23.736-13.528,23.736c-5.671,1.483-6.98-8.408-6.98-8.408l-5.673-42.526
	c-3.837-28.771-2.617-55.384-2.617-55.384c-13.09,12.363-23.998,14.835-23.998,14.835c10.036,1.979,10.472,16.813,10.472,16.813
	l3.49,49.945c-15.271-2.474-23.889,0-23.889,0c-21.708,7.417-15.38,42.527-15.38,42.527c-0.437,15.33-9.164,20.768-9.164,20.768
	c-8.727,3.46-8.726-5.438-8.726-5.438c-4.363-23.734,0-41.542,0-41.542c-11.345,9.892-17.453,9.892-17.453,9.892l-0.437,6.921
	c-14.398-0.987-20.942,0.991-20.942,0.991c-19.635,8.406-17.892,45.493-17.892,45.493c-2.181,18.79-8.289,26.702-8.289,26.702
	c-4.8,6.923-8.291,0.985-8.291,0.985c-8.726-11.373-4.799-26.208-4.799-26.208c9.163-3.462,6.545-12.362,6.545-12.362
	c-3.928-1.486-5.235-8.898-5.235-8.898c8.726-1.484,8.943-9.147,8.943-9.147c-32.069-14.093-22.253-61.565-22.253-61.565
	c23.563-79.367,83.775-59.34,83.775-59.34c21.341,15.547,9.163,28.187,9.163,28.187c-15.054,7.418-17.672-10.384-17.672-10.384
	c-12.435,5.191-13.743,19.285-13.743,19.285c-0.655,35.604,34.033,30.412,34.033,30.412c44.505-16.319,22.253-61.566,22.253-61.566
	c-17.672-30.411-51.706-22.252-51.706-22.252c-65.448,12.61-89.011,72.692-89.011,72.692
	c-38.615,111.262,42.542,167.635,37.961,170.603c-4.582,2.966-75.922,68.24-75.922,68.24H39.5
	c42.324-28.188,77.667-22.748,77.667-22.748c12.653-27.69,26.615-30.658,26.615-30.658c1.745,0,28.361,10.386,69.813,1.483
	c41.451-8.9,58.468-44.012,58.468-44.012c17.018-25.715-5.235-49.944-5.235-49.944L508.99,274.286
	c23.127-10.88,35.776-20.273,35.776-20.273C556.984,243.13,553.059,228.295,553.059,228.295z M408.516,259.948
	c3.947-0.959,14.4,0,14.4,0l0.871,25.713c-2.182,11.869-14.066,9.508-18.326,6.924C389.104,282.663,402.406,261.433,408.516,259.948
	z M228.678,350.383c3.947-0.958,14.4,0,14.4,0l0.872,25.714c-2.183,11.868-14.069,9.507-18.326,6.923
	C209.267,373.099,222.569,351.867,228.678,350.383z M154.253,385.547c3.947-0.96,14.4,0,14.4,0l0.871,25.711
	c-2.182,11.868-14.068,9.506-18.325,6.925C134.842,408.259,148.145,387.03,154.253,385.547z M210.757,507.688
	c0,0-22.034,1.48-49.959-9.396l59.777-45.988c0,0,8.289,11.867,15.271,6.922c0,0-5.236-9.394,2.182-13.845
	c0,0,20.071-9.396,22.689,10.385C260.718,455.766,264.583,496.244,210.757,507.688z M358.02,350.438
	C317.006,367.744,135.928,480.49,135.928,480.49c-13.963,0.492-17.89-10.881-17.89-10.881c14.399-6.924,13.523-37.583,13.523-37.583
	c24.056,21.992,40.145-8.405,40.145-8.405c14.835,16.813,35.779-26.208,35.779-26.208c22.689,15.331,39.27-11.866,39.27-11.866
	c26.408,7.345,36.216-25.22,36.216-25.22c17.451,23.24,37.958-22.748,37.958-22.748c18.328,25.219,34.908-12.856,34.908-12.856
	c20.688,19.669,37.088-18.298,37.088-18.298c18.762,12.362,30.979-12.361,30.979-12.361c22.254,15.329,36.649-20.275,36.649-20.275
	l18.326,8.407C476.266,284.174,399.033,333.129,358.02,350.438z M516.406,261.426l31.854-24.725
	C548.26,236.701,544.555,256.802,516.406,261.426z"/>
<ellipse fill="#D7E517" cx="281.294" cy="300.485" rx="9.103" ry="9.659"/>
</svg>
