<?xml version="1.0" encoding="utf-8"?>
<!-- Generator: Adobe Illustrator 16.0.0, SVG Export Plug-In . SVG Version: 6.00 Build 0)  -->
<!DOCTYPE svg PUBLIC "-//W3C//DTD SVG 1.1//EN" "http://www.w3.org/Graphics/SVG/1.1/DTD/svg11.dtd">
<svg version="1.1" id="bugatti" xmlns="http://www.w3.org/2000/svg" xmlns:xlink="http://www.w3.org/1999/xlink" x="0px" y="0px"
	 width="612px" height="792px" viewBox="0 0 612 792" enable-background="new 0 0 612 792" xml:space="preserve">
<g>
	<path fill="none" stroke="#5F686B" stroke-width="3" stroke-miterlimit="10" d="M36.146,396
		c0-75.735,120.296-136.935,269.854-136.935S575.854,320.456,575.854,396S455.558,532.935,306,532.935S36.146,471.735,36.146,396z"
		/>
	<path fill="none" stroke="#5F686B" stroke-width="3" stroke-miterlimit="10" d="M306,283.928c152.617,0,244.8,62.347,244.8,112.072
		c0,49.725-92.374,112.072-244.8,112.072c-152.426,0-244.8-62.348-244.8-112.072C61.2,346.275,153.574,283.928,306,283.928z"/>
	<path fill="#5F686B" d="M106.335,439.414h26.966c11.284,0,19.125-12.049,19.125-21.803c0-9.371-4.399-15.108-9.563-17.786
		l-2.104-1.147l1.913-1.147c4.59-2.869,7.65-10.519,7.65-15.683c0-6.694-4.016-15.874-13.005-18.743l0.383-0.956
		c2.104,0.765,4.016,1.721,5.737,2.869c0.956,0.765,1.913,1.53,2.869,2.486c1.721,1.53,3.251,3.06,4.781,4.781
		c1.339,1.53,2.678,3.06,3.825,4.781c2.486,3.634,3.825,7.841,3.825,12.24c0,5.164-2.677,12.814-7.458,16.256h-0.191l3.442,3.442
		c4.208,4.208,6.503,9.945,6.312,15.874c0,10.136-8.224,22.95-20.082,22.95h-28.688l-7.076-7.076L106.335,439.414L106.335,439.414z
		 M127.946,429.469h-8.415V403.65h9.563c4.208,0,7.65,3.824,8.989,8.605c-0.574-0.19-0.956-0.19-1.53-0.19h-8.606V429.469z
		 M127.946,393.514h-0.956h-7.459v-21.611h7.459c4.972,0,8.988,3.825,9.371,8.606c-0.574-0.191-1.339-0.191-1.913-0.191h-6.502
		V393.514L127.946,393.514z"/>
	<path fill="#5F686B" d="M173.464,428.513c5.737,11.283,19.699,15.683,30.982,9.944c7.458-3.824,12.24-11.666,12.431-20.081V362.34
		l1.721-1.721l7.459,7.459v57.566c-0.191,13.579-11.093,24.289-24.671,24.48c-5.737,0-11.666-2.295-17.595-6.694
		c-3.442-2.677-6.502-6.12-8.988-9.944c-0.191-0.574-1.339-2.295-2.486-4.591L173.464,428.513L173.464,428.513z M183.982,362.34
		l1.721-1.721l7.459,7.459v57.566c0,0.766,0.191,1.53,0.382,2.104c-5.164,0-9.371-4.398-9.371-9.563L183.982,362.34L183.982,362.34z
		"/>
	<path fill="#5F686B" d="M333.731,393.705l-4.399,19.89h-10.9l8.415-37.485c0.573-2.677,2.677-2.486,3.251,0L333.731,393.705
		L333.731,393.705z M349.031,448.211l-7.459-7.458l1.722-1.722h13.196l-17.596-76.882l1.339-1.721l7.459,7.458l19.125,80.133
		L349.031,448.211z M341.764,433.485h-17.021l-3.442,14.726h-17.021l-7.459-7.458l2.104-1.722h13.579l3.442-14.727h23.906
		L341.764,433.485L341.764,433.485z"/>
	<path fill="#5F686B" d="M385.56,448.402l-7.458-7.459l1.721-1.721h13.005v-65.599h16.257v-11.475l1.721-1.721l7.459,7.458v14.726
		h-16.447v65.599L385.56,448.402z M379.822,382.804h-10.519l-7.459-7.458l1.722-1.721h16.447v9.18H379.822z"/>
	<path fill="#5F686B" d="M439.875,382.804h-10.519l-7.459-7.458l1.722-1.721h16.447v9.18H439.875z M469.327,362.149l1.722-1.721
		l7.459,7.458v14.726H462.06v65.599h-16.447l-7.459-7.458l1.722-1.722h13.005v-65.599h16.447V362.149L469.327,362.149z"/>
	<polygon fill="#5F686B" points="498.397,362.149 499.928,360.619 507.387,368.078 507.387,448.211 491.13,448.211 483.671,440.753 
		485.201,439.031 498.397,439.031 	"/>
	<path fill="#5F686B" d="M250.155,443.43c-3.633-2.868-6.885-6.502-9.18-10.327c-0.191-0.574-1.339-2.486-2.486-4.973l1.147-0.383
		c3.825,8.033,12.049,13.388,21.038,13.388c15.683,0,22.759-8.988,22.759-22.759v-17.978l1.721-1.721l7.458,7.459v19.698
		c0,14.535-7.841,24.48-24.48,24.48C261.821,450.124,256.084,447.829,250.155,443.43L250.155,443.43z M272.149,418.759h-2.486
		l-7.459-7.459l1.721-1.721h8.224V418.759L272.149,418.759z M260.1,428.895c-5.546-0.573-9.563-5.163-9.754-10.519v-34.999
		c-0.191-5.737,4.208-10.519,9.945-11.092c5.738-0.765,11.093,3.442,11.858,9.18c0,0.191,0,0.574,0,0.765
		c-1.339-0.574-2.678-0.956-4.208-0.765c-4.781,0.574-8.415,4.59-8.415,9.372v35.19C259.526,426.791,259.717,427.938,260.1,428.895
		L260.1,428.895z M270.045,360.045c3.06,0.957,5.738,2.486,8.224,4.399c2.295,1.721,4.399,3.634,6.503,5.929
		c1.721,2.104,3.251,4.208,4.59,6.502c2.104,4.208,3.251,8.989,3.06,13.579v1.721h-14.344l-7.459-7.458l1.721-1.721h11.093
		c0-10.71-4.208-18.551-13.579-21.42L270.045,360.045L270.045,360.045z"/>
	<path fill="#5F686B" d="M323.978,338.243c3.634,0,6.312-2.869,6.312-6.502c0-3.443-2.869-6.312-6.312-6.312h-13.005v12.814H323.978
		z M323.978,315.866c3.06-0.382,5.354-3.442,4.781-6.502c-0.383-2.486-2.295-4.59-4.781-4.781h-13.005v11.284H323.978z
		 M292.612,325.237v3.251h-8.032v-15.874h8.032v3.251h7.65v-11.284h-19.316v4.016h-8.033V296.55h51.064
		c8.032,0,14.535,6.503,14.535,14.344c0,3.443-1.339,6.885-3.634,9.563c5.929,5.929,5.737,15.683-0.191,21.42
		c-2.869,2.678-6.693,4.399-10.519,4.399h-51.064v-12.049h8.033v4.017h19.125v-13.005H292.612z"/>
</g>
</svg>
