<?xml version="1.0" encoding="utf-8"?>
<!-- Generator: Adobe Illustrator 16.0.0, SVG Export Plug-In . SVG Version: 6.00 Build 0)  -->
<!DOCTYPE svg PUBLIC "-//W3C//DTD SVG 1.1//EN" "http://www.w3.org/Graphics/SVG/1.1/DTD/svg11.dtd">
<svg version="1.1" xmlns="http://www.w3.org/2000/svg" xmlns:xlink="http://www.w3.org/1999/xlink" x="0px" y="0px" width="612px"
	 height="792px" viewBox="0 0 612 792" enable-background="new 0 0 612 792" xml:space="preserve">
<g id="Layer_2">
	<path fill="#282075" d="M586.51,289.603h-225.28l-13.477,14.557l-15.43-16.175L306,257.847l-26.322,30.138l-15.43,16.175
		l-16.168-14.557H25.491c16.417,66.24,60.505,124.524,119.901,161.667l-46.726,58.322h414.668l-46.726-58.322
		C526.005,414.127,570.093,355.843,586.51,289.603z"/>
	<path fill="#282075" stroke="#FCFCFC" stroke-width="3" stroke-miterlimit="3.8637" d="M574.634,300.551H366.071l-17.778,17.793
		l-18.602-19.411L306,271.971l-23.689,26.962l-17.524,19.411l-19.934-17.793H38.985c14.775,59.616,67.232,115.468,120.689,148.898
		l-41.893,50.873H494.22l-41.892-50.873C505.784,416.02,559.859,360.167,574.634,300.551z"/>
</g>
<g id="Layer_3">
	<polygon fill="#F9F7F7" stroke="#FCFCFC" stroke-miterlimit="3.8637" points="491.175,420.5 472.601,391.233 501.716,409.935 	"/>
	<polygon fill="#F9F7F7" stroke="#FCFCFC" stroke-miterlimit="3.8637" points="527.282,385.631 490.949,358.742 539.162,370.755 	
		"/>
	<polygon fill="#F9F7F7" stroke="#FCFCFC" stroke-miterlimit="3.8637" points="557.264,344.522 510.199,332.2 563.386,334.151 	"/>
	<polygon fill="#F9F7F7" stroke="#FCFCFC" stroke-miterlimit="3.8637" points="121.479,420.5 140.053,391.233 110.938,409.935 	"/>
	<polygon fill="#F9F7F7" stroke="#FCFCFC" stroke-miterlimit="3.8637" points="85.371,385.631 121.704,358.742 73.491,370.755 	"/>
	<polygon fill="#F9F7F7" stroke="#FCFCFC" stroke-miterlimit="3.8637" points="57.392,344.522 102.454,332.2 51.27,334.151 	"/>
</g>
<g id="Layer_4">
	<text transform="matrix(1 0 0 1 162.5249 492.874)" fill="#F9F9F9" font-family="'BerlinSansFB-Bold'" font-size="24">THE    UNIVERSAL    CAR</text>
</g>
<g id="Layer_1">
	<g id="ford_copy">
		<path fill="#FCFCFC" stroke="#E0E0E0" stroke-width="3" stroke-miterlimit="3.8637" d="M451.587,361.269l-25.818,38.633
			c-13.196-15.3-25.819-9.944-39.589,2.678c-1.53,1.339-3.252,2.869-4.781,4.59c-21.803,21.42-30.601,15.3-30.982-1.339
			c2.104-2.295,4.398-4.207,6.502-6.311c-4.016,19.698,25.437,10.519,13.388-6.694c-7.076-10.519-14.344-4.207-26.201,8.989
			c-0.765-26.967-17.786-7.65-30.026,0.19c-2.104,1.339-4.398,2.296-5.929,2.869c-0.957-4.207-3.634-12.24-6.312-12.24
			c-5.546,0-5.164,1.722-4.016,13.579c1.147,12.24-3.06,22.185-10.901,27.157c-3.634,2.295-8.415,3.634-13.77,3.442
			c-15.683-0.573-11.092-27.349,7.65-35.764c3.06-1.529,4.973-2.868,5.929-4.016c1.721-2.104,1.721-3.825,0-4.781
			c-1.53-0.766-4.59-1.147-8.606,0.382c-11.667,3.825-22.95,17.404-28.305,32.13c-6.694,6.503-8.032,9.754-9.371,13.962l2.869,1.721
			c2.295-3.251,4.016-5.354,8.033-8.224c4.59,14.344,20.655,19.316,35.764,12.049c10.136-4.973,19.699-15.491,25.436-32.13
			c0.383-0.956,1.147-1.722,1.913-2.486c9.371-12.432,22.567-17.786,15.108,4.973l-15.108,23.523l-0.766,1.147
			c-2.868,4.208-1.721,7.65,0.766,8.798c2.677,1.147,7.076-0.383,10.327-6.312c5.355-9.18,10.901-17.595,16.83-24.671
			c5.355,10.901,12.622,17.786,29.452,6.502c0,14.344,4.781,21.038,15.683,21.421c5.737,0.19,13.388-1.53,22.95-4.208
			c14.918,15.683,31.174,6.693,48.577-19.508h-4.972c-28.306,31.174-38.25,18.169-21.994-6.311l35.955-53.551
			c0.191-0.19,0.383-0.382,0.383-0.573v-0.574C466.505,356.87,454.073,357.253,451.587,361.269 M411.998,423.999
			c-5.164,9.945-15.491,12.622-22.759,10.901c-1.339-0.383-2.295-1.147-3.06-1.912c-1.913-2.486-1.53-6.886,0-11.093
			c1.147-3.251,3.06-6.503,5.163-8.989c6.503-7.841,14.153-15.873,20.464-11.666C417.354,404.874,417.162,414.245,411.998,423.999
			 M280.418,378.673c0.574,1.53,2.677,3.06,4.59,3.825c-0.382-1.339-0.765-3.442-0.765-4.973c0.765-0.191,1.721-0.574,2.486-1.147
			c12.623-5.737,13.579-18.36,3.251-20.847c-1.147-0.191-2.104-0.382-3.251-0.382c-7.076-0.191-10.136,7.267-8.989,18.934
			c-5.164,1.721-13.196,1.147-21.802,0.382c9.754-12.622,19.699-24.288,30.791-32.512c0.191,0,0.383-0.191,0.383-0.191
			c9.945,3.06,18.742,5.546,26.966,7.268c48.004,11.092,64.068-0.191,72.293-19.699c0.382-1.147,0.765-2.104,1.338-3.251
			c-0.382,0.191-0.956,0.383-1.338,0.573c-21.42,10.71-46.856,11.093-72.293,8.415c-9.18-1.147-18.36-2.295-27.349-4.016
			c-13.579-2.295-26.966-5.164-39.397-7.076c-49.151-8.224-67.511,25.245-57.566,43.413c9.371,17.213,38.25,14.344,44.943-18.934
			c-37.676,51.064-64.451-43.031,43.031-8.988c-12.048,8.797-23.523,21.229-34.233,34.616c-11.475-0.191-21.229,2.104-24.098,12.431
			c6.312-5.354,12.814-7.076,20.081-7.458c-9.18,11.666-18.36,23.523-27.157,34.233c-33.277,39.78-65.599,0.191-27.349-24.671
			c-13.579-5.164-27.731,12.048-27.923,29.069v0.574c0,9.371,4.59,18.742,15.874,23.906c15.3,6.885,32.321,1.147,53.358-26.584
			c8.606-11.093,17.021-23.715,25.819-35.764C261.102,380.585,270.473,381.351,280.418,378.673 M286.729,360.887
			c0.957,0,1.721,0,2.295,0.382c2.869,1.148,1.53,6.312-2.295,9.181c-1.147,0.765-2.104,1.529-3.633,1.721
			C282.331,365.285,284.052,361.46,286.729,360.887z"/>
	</g>
</g>
</svg>
