<?xml version="1.0" encoding="utf-8"?>
<!-- Generator: Adobe Illustrator 16.0.0, SVG Export Plug-In . SVG Version: 6.00 Build 0)  -->
<!DOCTYPE svg PUBLIC "-//W3C//DTD SVG 1.1//EN" "http://www.w3.org/Graphics/SVG/1.1/DTD/svg11.dtd">
<svg version="1.1" id="Layer_1" xmlns="http://www.w3.org/2000/svg" xmlns:xlink="http://www.w3.org/1999/xlink" x="0px" y="0px"
	 width="612px" height="792px" viewBox="0 0 612 792" enable-background="new 0 0 612 792" xml:space="preserve">
<g id="benz_copy">
	<g>
		<g>
			<path fill="none" stroke="#000000" stroke-width="3" stroke-miterlimit="10" d="M307.271,149.683
				c-142.1,0-257.231,115.133-257.231,257.231c0,142.098,115.133,257.23,257.231,257.23c142.098,0,257.23-115.133,257.23-257.23
				C564.502,264.816,449.369,149.683,307.271,149.683z M157.866,492.898L157.866,492.898 M456.604,493.041L456.604,493.041
				 M456.604,493.041c-30.181,50.253-86.553,86.27-149.332,86.27c-62.78,0-119.368-36.302-149.405-86.411l0,0
				c-13.667-24.771-22.991-55.805-22.991-85.984c0-93.957,77.871-170.26,171.257-172.396l0,0
				c94.384,0.997,173.534,77.728,173.534,172.396C479.666,437.379,470.412,468.271,456.604,493.041L456.604,493.041z"/>
		</g>
	</g>
	
		<circle display="none" fill="none" stroke="#FFFFFF" stroke-width="5" stroke-miterlimit="10" cx="307.234" cy="404.915" r="175.061"/>
</g>
<polygon fill="none" stroke="#000000" stroke-width="2" stroke-miterlimit="10" points="456.604,493.041 335.742,388.123 
	306.132,234.519 279.938,386.842 157.866,490.501 307.698,437.521 "/>
<polygon fill="#898989" stroke="#000000" stroke-width="2" stroke-miterlimit="10" points="306.132,234.519 307.698,404.642 
	335.742,388.123 "/>
<line fill="none" stroke="#000000" stroke-width="2" stroke-miterlimit="10" x1="307.234" y1="404.915" x2="279.938" y2="386.842"/>
<polygon fill="#898989" stroke="#000000" stroke-width="2" stroke-miterlimit="10" points="157.866,492.898 307.698,404.642 
	456.604,493.041 307.698,437.521 "/>
<polygon fill="none" stroke="#000000" stroke-width="2" stroke-miterlimit="10" points="170.148,272.808 138.832,235.924 
	144.399,230.357 165.625,233.836 167.017,213.307 174.325,208.088 201.465,247.407 194.854,252.975 175.367,226.877 
	174.672,243.928 156.229,242.535 177.107,266.545 "/>
<polygon fill="none" stroke="#000000" stroke-width="2" stroke-miterlimit="10" points="188.242,199.736 215.383,185.121 
	219.21,192.951 201.465,202.173 205.292,209.133 218.516,202.52 222.691,210.176 209.121,216.786 216.08,229.313 233.13,221.31 
	236.956,229.313 210.509,242.188 "/>
<path fill="none" stroke="#000000" stroke-width="2" stroke-miterlimit="10" d="M264.097,203.217c0,0,8.178-4.35,3.132-18.096
	c-5.433-14.801-19.833-9.742-19.833-9.742l-17.746,5.916l13.222,45.234l8.699-2.784l-4.175-13.222l8.351-2.436l12.179,12.178
	l9.742-2.435L264.097,203.217z M255.92,198.519l-11.309,3.306l-3.828-16.006l8.873-2.262c0,0,7.481-3.131,9.917,5.916
	C259.573,189.473,260.965,196.779,255.92,198.519z"/>
<path fill="none" stroke="#000000" stroke-width="2" stroke-miterlimit="10" d="M315.942,209.828c0,0-3.417,9.016-18.093,8.698
	c-16.094-0.348-21.922-17.224-21.922-28.358c0-13.483,11.309-23.313,22.443-22.791c11.135,0.521,16.527,7.168,16.527,7.168
	l-5.741,6.402c0,0-5.219-4.35-10.612-4.35s-13.57,5.22-13.396,14.614c0.139,7.487,3.132,18.094,12.875,17.746
	c0,0,6.524,1.044,12.005-4.959L315.942,209.828z"/>
<polygon fill="none" stroke="#000000" stroke-width="2" stroke-miterlimit="10" points="325.523,169.628 356.243,172.191 
	355.178,180.842 335.273,178.883 334.684,186.805 349.375,188.479 348.696,197.173 333.716,195.308 332.142,210.478 
	350.796,213.076 349.638,221.87 321.018,217.352 "/>
<path fill="none" stroke="#000000" stroke-width="2" stroke-miterlimit="10" d="M393.189,188.603
	c-7.654-9.396-22.966-11.31-22.966-11.31l-14.789,44.577c14.788,6.477,18.878,6.225,18.878,6.225
	C402.063,227.225,400.845,197.997,393.189,188.603z M375.704,220.209c0,0-2.185,0.136-10.085-3.35l9.477-28.779
	c0,0,8.181,1.03,12.27,6.086S390.528,219.741,375.704,220.209z"/>
<polygon fill="none" stroke="#000000" stroke-width="2" stroke-miterlimit="10" points="418.691,195.216 445.141,211.05 
	440.374,218.346 423.368,207.819 419.349,214.671 431.801,222.646 427.361,230.153 414.735,221.878 406.639,234.803 
	422.241,245.354 417.325,252.738 393.623,236.074 "/>
<path fill="none" stroke="#000000" stroke-width="2" stroke-miterlimit="10" d="M472.002,237.664
	c-3.305-15.658-20.54-19.664-26.861-12.004c-6.28,7.611-3.41,15.701-1.322,17.919c3.057,3.248,6.959,6.785,6.785,12.005
	c-0.174,5.22-6.395,7.308-11.311,4.697c-5.593-2.97-4.349-13.396-4.349-13.396h-8.699c0,0-2.001,19.765,15.484,22.792
	c13.569,2.349,18.269-10.178,18.269-14.093c0-3.914-0.783-6.133-9.265-16.702c0,0-1.957-3.262,0-6.002
	c1.957-2.74,6.394-4.045,9.395-0.392c0,0,1.305,1.044,5.089,7.829L472.002,237.664z"/>
<path fill="none" stroke="#000000" stroke-width="2" stroke-miterlimit="10" d="M252.267,604.108
	c3.131-12.396-10.178-16.051-10.178-16.051l-16.441-6.523l-18.268,45.146c26.88,14.876,36.014,7.047,36.014,7.047
	c14.354-7.828,2.609-22.442,2.609-22.442C251.483,609.979,252.267,604.108,252.267,604.108z M239.74,624.594
	c-4.437,6.786-12.357,2.623-20.878-1.305l6.002-14.628l10.961,4.712C235.825,613.373,244.176,617.809,239.74,624.594z
	 M242.22,603.688c-3.188,5.282-8.882,2.043-15.007-1.016l4.314-11.387l7.879,3.668C239.406,594.954,245.409,598.406,242.22,603.688z
	"/>
<polygon fill="none" stroke="#000000" stroke-width="2" stroke-miterlimit="10" points="303.677,649.125 303.677,599.02 
	313.072,599.02 338.908,627.465 336.3,597.192 344.389,596.146 350.912,643.906 341.778,645.211 312.55,613.373 313.072,649.125 "/>
<polygon fill="none" stroke="#000000" stroke-width="2" stroke-miterlimit="10" points="350.912,594.583 383.272,583.622 
	386.143,591.712 372.834,629.553 397.104,621.592 399.975,629.553 362.656,642.079 360.047,635.787 375.443,595.104 
	354.566,602.673 "/>
<polygon fill="none" stroke="#000000" stroke-width="2" stroke-miterlimit="10" points="263.652,595.04 294.267,598.646 
	292.908,607.255 273.083,604.622 272.224,612.519 286.851,614.691 285.876,623.358 270.969,620.984 268.88,635.046 289.525,638.278 
	288.068,647.027 257.529,642.585 "/>
<path fill="none" stroke="#000000" stroke-width="2" stroke-miterlimit="10" d="M200.829,597.264
	c-7.236-2.049-19.4-1.973-20.766-9.854c-1.877-10.84,3.958-24.027-1.861-34.185c-3.809-4.414-8.867,1.535-9.171,5.648
	c0.551,9.037,4.058,17.564,8.379,24.936c-25.354-5.758-10.465-42.844-16.834-62.039c-1.838-4.754-4.491-8.354-8.13-11.784
	c-3.143,22.873,4.553,43.866,11.262,65.032c-19.31-11.879-12.396-36.42-21.55-54.116c-1.497-2.785-4.927,0.854-5.4,3.979
	c0.892,11.01,12.11,17.186,10.046,28.707c-18.875-21.09-10.844-50.896-8.213-76.725c0.133-5.099-1.877-10.839-2.729-15.767
	c-6.84,10.318-8.122,21.959-7.473,33.771c0.654,11.828,3.265,23.969,4.095,35.354c-8.148-9.717-13.373-20.807-15.89-32.58
	c-2.517-11.772-2.343-24.295,0.225-36.526c1.516-7.828,3.9-15.662,6.894-23.285c1.933-6.424-0.247-13.15-1.441-20.047
	c-3.827,5.735-6.215,11.729-7.671,17.883c-1.456,6.149-1.981,12.459-2.085,18.817c0.04,12.681,1.272,25.66,0.278,38.24
	c-2.929-8.836-7.633-18.442-9.564-28.131c-1.932-9.688-1.089-19.475,6.992-28.486c0.814-1.155-0.039-6.084-2.995-5.569
	c-10.023,0.721-3.522,14.817-6.27,22.396c-8.681-20.822,7.481-38.846,16.404-57.644c2.917-6.594,4.034-11.862,5.967-18.286
	c-20.01,7.525-17.373,34.471-25.652,51.127c-5.592-26.435,0.64-54.915,19.772-74.083c4.466-5.724,7.96-11.911,7.581-19.964
	c-8.356,4.492-11.918,13.227-15.813,21.281c-3.442,8.19-5.994,17.049-10.891,24.021c-0.479-7.339,0.008-14.483,1.445-21.241
	c2.775-10.324,7.133-20.314,12.966-29.113c5.834-8.799,13.142-16.408,21.82-21.97c-12.165,0.077-18.512,10.31-24.044,19.387
	c2.157-22.701,21.958-37.294,36.66-52.019c-33.16,7.772-36.831,51.033-47.346,78.226c0.474-3.126-2.994-5.571-2.521-8.697
	c2.064-11.521,3.313-21.887,0.28-33.54c-1.459,3.297-3.902,6.765-4.376,9.892c-0.112,8.139,1.21,15.775,2.321,23.289
	c1.11,7.515,2.01,14.907,1.052,22.558c-0.373,12.497-2.096,25.989-3.004,38.324c-7.789-9.813-5.081-23.477-6.551-34.893
	c-0.423-8.3-1.338-16.514-4.673-24.055c-5.191,11.047-3.271,22.132,0.241,33.271c7.515,23.234,13.58,46.541,14.72,70.701
	c-3.468-2.445-4.965-5.23-5.478-8.187c-4.359-13.453-6.919-28.233-18.649-37.365c-1.117,5.269,0.892,11.009,1.745,15.937
	c5.857,16.238,21.699,25.674,25.756,43.238c-9.38-1.42-8.472-13.756-17.036-16.332c-2.142-0.646-1.801,1.326-2.615,2.481
	c-0.303,4.113,0.38,8.054,4.663,9.343c10.279,0.756,14.473,7.389,17.524,15.485c3.052,8.101,4.939,17.74,10.49,24.793
	c-10.695-4.694-11.584-15.723-17.062-23.907c-5.136-6.216-11.086-11.273-18.666-14.021c1.621,9.361,7.913,16.391,15.229,22.736
	c5.803,4.575,11.681,9.395,16.796,14.852c5.115,5.457,9.47,11.553,12.234,18.713c-3.474-2.467-8.23-0.631-8.742-3.588
	c-4.321-7.371-8.984-16.711-17.852-15.176c-5.098-0.133-5.532,9.076-1.25,10.365c8.65,3.067,17.505,5.85,24.887,10.346
	c7.374,4.516,13.191,11.004,15.709,21.34c-7.336-6.026-14.771-12.99-22.932-17.594c-8.15-4.576-16.962-7.109-27.138-4.332
	c-0.985,0.17,2.995,5.57,5.136,6.215c6.306,2.713,12.815,5.142,19.269,7.678c19.787,6.871,39.438,20.722,46.964,40.73
	c-11.048-5.191-24.314-23.191-37.729-12.748c19.784,8.75,43.982,13.693,58.233,31.522c-11.652,3.033-17.168-11.233-27.192-10.514
	c-7.068,0.209-6.347,10.234-0.265,10.195c18.419,0.869,34.223,4.223,50.718,8.522L200.829,597.264z"/>
<path fill="none" stroke="#000000" stroke-width="2" stroke-miterlimit="10" d="M409.716,590.541
	c7.321-1.721,19.469-1.095,21.189-8.906c2.364-10.745-2.867-24.183,3.403-34.064c4.004-4.237,8.789,1.935,8.907,6.057
	c-0.958,9.004-4.848,17.363-9.497,24.531c25.588-4.605,12.392-42.326,19.621-61.215c2.051-4.666,4.863-8.145,8.652-11.404
	c2.104,22.991-6.53,43.616-14.189,64.457c19.828-10.994,14.03-35.822,23.976-53.088c1.621-2.715,4.883,1.075,5.216,4.221
	c-1.391,10.958-12.876,16.62-11.335,28.224c19.809-20.216,13.133-50.354,11.673-76.274c0.098-5.098,2.364-10.741,3.44-15.626
	c6.365,10.617,7.118,22.304,5.938,34.074c-1.188,11.786-4.346,23.797-5.688,35.132c8.579-9.337,14.301-20.182,17.348-31.827
	c3.045-11.648,3.438-24.165,1.426-36.501c-1.16-7.889-3.188-15.822-5.835-23.573c-1.64-6.504,0.843-13.125,2.346-19.961
	c3.565,5.903,5.68,12,6.856,18.211c1.176,6.21,1.415,12.536,1.229,18.896c-0.61,12.664-2.429,25.575-2.004,38.188
	c3.323-8.695,8.459-18.08,10.826-27.671c2.367-9.592,1.966-19.405-5.698-28.772c-0.761-1.191,0.313-6.076,3.243-5.43
	c9.98,1.173,2.851,14.962,5.25,22.656c9.614-20.408-5.717-39.145-13.782-58.325c-2.614-6.72-3.491-12.032-5.134-18.537
	c19.649,8.422,15.797,35.222,23.315,52.233c6.78-26.153,1.843-54.887-16.403-74.9c-4.204-5.919-7.414-12.259-6.673-20.286
	c8.146,4.865,11.309,13.753,14.835,21.975c3.07,8.338,5.219,17.302,9.794,24.488c0.813-7.31,0.646-14.468-0.482-21.284
	c-2.308-10.439-6.209-20.616-11.638-29.67c-5.43-9.054-12.387-16.985-20.805-22.934c12.147,0.627,18.027,11.136,23.143,20.454
	c-1.129-22.775-20.25-38.248-34.271-53.622c32.773,9.263,34.486,52.646,43.762,80.285c-0.332-3.145,3.242-5.43,2.911-8.573
	c-1.542-11.604-2.321-22.016,1.235-33.519c1.309,3.359,3.594,6.935,3.926,10.079c-0.257,8.135-1.924,15.704-3.373,23.16
	c-1.447,7.457-2.681,14.801-2.068,22.487c-0.192,12.501,0.918,26.058,1.269,38.421c8.225-9.452,6.137-23.224,8.122-34.562
	c0.796-8.273,2.083-16.437,5.755-23.819c4.686,11.271,2.267,22.258-1.744,33.227c-8.56,22.87-15.67,45.879-17.901,69.963
	c3.576-2.287,5.196-5.001,5.844-7.932c4.963-13.24,8.188-27.893,20.317-36.483c0.878,5.313-1.387,10.957-2.463,15.842
	c-6.585,15.956-22.836,24.666-27.684,42.03c9.434-0.995,9.084-13.359,17.756-15.546c2.17-0.549,1.739,1.404,2.5,2.598
	c0.117,4.123-0.741,8.028-5.079,9.121c-10.303,0.292-14.792,6.729-18.206,14.679c-3.414,7.954-5.736,17.5-11.603,24.294
	c10.896-4.207,12.283-15.183,18.128-23.113c5.408-5.976,11.583-10.761,19.278-13.162c-2.042,9.277-8.646,16.017-16.24,22.024
	c-6.004,4.31-12.094,8.856-17.449,14.077c-5.356,5.22-9.981,11.112-13.068,18.141c3.583-2.307,8.251-0.258,8.896-3.188
	c4.65-7.169,9.729-16.289,18.52-14.354c5.098,0.099,5.117,9.316,0.779,10.411c-8.779,2.674-17.749,5.053-25.328,9.21
	c-7.569,4.179-13.676,10.396-16.656,20.608c7.601-5.69,15.342-12.312,23.703-16.54c8.348-4.203,17.266-6.336,27.306-3.101
	c0.977,0.214-3.243,5.429-5.411,5.976c-6.422,2.426-13.034,4.557-19.596,6.8c-20.077,5.97-40.336,18.917-48.758,38.565
	c11.271-4.687,25.338-22.068,38.269-11.029c-20.16,7.848-44.556,11.691-59.599,28.859c11.502,3.558,17.657-10.446,27.64-9.273
	c7.053,0.528,5.876,10.51-0.196,10.196c-18.438,0.036-34.378,2.672-51.05,6.223L409.716,590.541z"/>
<line fill="#898989" stroke="#000000" stroke-width="2" stroke-miterlimit="10" x1="307.271" y1="406.914" x2="307.698" y2="437.521"/>
</svg>
