<?xml version="1.0" encoding="utf-8"?>
<!-- Generator: Adobe Illustrator 16.0.0, SVG Export Plug-In . SVG Version: 6.00 Build 0)  -->
<!DOCTYPE svg PUBLIC "-//W3C//DTD SVG 1.1//EN" "http://www.w3.org/Graphics/SVG/1.1/DTD/svg11.dtd">
<svg version="1.1" id="Layer_1" xmlns="http://www.w3.org/2000/svg" xmlns:xlink="http://www.w3.org/1999/xlink" x="0px" y="0px"
	 width="612px" height="792px" viewBox="0 0 612 792" enable-background="new 0 0 612 792" xml:space="preserve">
<title>brand-icon-lancia</title>
<path fill="none" stroke="#706F6F" stroke-width="3" stroke-miterlimit="10" d="M527,227.5c-47-50.094-203.5,5.5-249.5,43
	c0,0-70,49-74.5,58s13.5-70.5-44.5-70.5c0,0-43.5,1.5-53.5,72c0,0-1,30,4,72.5c0,0,11.5,78,0,97c0,0-58,26-58,63s44.5-5.5,44.5-5.5
	s18.5-22.5,23-36.5c0,0,16-8,28.5-7.5c0,0-22,33-8.5,37.5c0,0,18.5,11.477,46-18.762c0,0,24-26.738,0-37.238
	c0,0,119.333-143.333,333.333-137.333v-15.333H496.5C496.5,341.833,574,277.594,527,227.5z M72.833,561.5
	c-6.333,2-7.667-4.667-7.667-4.667c2.708-20.69,35-32,35-32C84.167,560.499,72.833,561.5,72.833,561.5z M128.833,497.833v-8.666
	c0,0,19.669-19.668,23.335-26.334c0,0,0.515,26.215,20.665,24.334l-3.333,7.666C169.5,494.833,150.833,489.166,128.833,497.833z
	 M157.5,542.167c0,0-11.667,5.667-8-8c0,0,5.667-16.001,17-22.667c0,0,10.334-7.334,11.667,4
	C178.167,515.5,180.167,527.167,157.5,542.167z M197.216,435.717c-4.711,19.458-14.677,33.743-22.259,31.907
	s-9.909-19.098-5.197-38.556c4.711-19.458,14.677-33.744,22.259-31.908C199.6,398.996,201.927,416.259,197.216,435.717z
	 M200.25,462.5V456h7.25L200.25,462.5z M243,428.75c0,0-8.5,4-14,11h-2.5L251,364h4C255,364,243.25,407.25,243,428.75z M261.25,415
	c0,0-4-43,22.5-69.5h4c0,0-10.334,49.335,2.75,54.5L261.25,415z M316.25,386.5c0,0,3.5-2.25,3.25-6.25l9.25,1.25L316.25,386.5z
	 M416.75,352.25l5.75-5.5l4.25,2.75C426.75,349.5,421.75,352.5,416.75,352.25z M461,345.25l7-4.25l3,4.25H461z M438.212,343.358
	c-8.751-5-7.599-23.486,2.573-41.288c10.173-17.802,27.516-31.182,36.268-26.182c8.75,5,5.596,26.489-4.576,44.291
	C462.304,337.981,446.963,348.359,438.212,343.358z M481.5,337c0,0-4-1-2.75-5l33-69.5l-14.5,0.75l-3,5.5c0,0-11.75-13.75-36.25,0.5
	s-34.75,45.5-39.5,63.5c0,0-2.25,12.75-11.75,14.5c0,0-7-0.25-8-5.5c0,0-2-2.75,2.25-15.5L416.5,283l-17.5,0.75
	c0,0-0.271,9.211-3.249,20.75c0,0-3.251,22-19.751,40c0,0-8.5,11.75-31.75,23.25c0,0-12.5,5.75-11.5-11c0,0,2.25-21,25-46.25
	c0,0,8-6,9,2.5l-5.25,11.5l11.25,3l8-15.5c0,0,7.25-11.5-8.5-18.75c0,0-15.25-7.75-36.25,20.25s-18.125,46.875-22.5,58
	c0,0-4.832,11.167-8,14c-3.167,2.833-3.75,1.917-4.333,0.333c0,0-1.167-1.958-0.667-14.458l4-34c0,0,1.875-8-3.25-11.25
	c0,0-6.375-3.5-12.625,1.25c0,0-8.375,3.5-19.75,20.625c0,0-8.625-8.125-20.25-0.625c0,0-3.125,3.25-4.25,6.25
	c0,0-12.875,44.209-24.042,77.542c0,0-4.5,10-9.667,3c0,0-1-2.501-1-6.167l7.167-61.667l-12.167,7.333l-1.167,10.5
	c0,0-17.488-6.058-24.833,4.5C176.506,391.772,165.5,406.666,160,422.5c0,0-13.667,35.334-23.667,45.167l-4.5-0.833
	c0,0,2.667-41.001-3.667-77.334c0,0-10.885-43.333,4.224-88.667c0,0,6.109-32,33.109-26s17.102,73.667,5.333,81.001
	c0,0-5.083,4.666-11.083-2.834s-8.196-26.512,1.75-51l-14,0.5l1.5,1.75c0,0-20.25,41.5,6.25,64.5c0,0,11.5,6.25,19.5-0.25
	c0,0,40-38.25,68.75-58.5s89-55,128-66.5s106.75-30.25,137.75-6.5s7,63.75-11,90.25C498.25,327.25,489.75,338.75,481.5,337z"/>
</svg>
