<?xml version="1.0" encoding="utf-8"?>
<!-- Generator: Adobe Illustrator 16.0.0, SVG Export Plug-In . SVG Version: 6.00 Build 0)  -->
<!DOCTYPE svg PUBLIC "-//W3C//DTD SVG 1.1//EN" "http://www.w3.org/Graphics/SVG/1.1/DTD/svg11.dtd">
<svg version="1.1" id="Layer_1" xmlns="http://www.w3.org/2000/svg" xmlns:xlink="http://www.w3.org/1999/xlink" x="0px" y="0px"
	 width="612px" height="792px" viewBox="0 0 612 792" enable-background="new 0 0 612 792" xml:space="preserve">
<ellipse fill="none" stroke="#ADADAD" stroke-width="5" stroke-miterlimit="10" cx="305.258" cy="386.887" rx="263.25" ry="136.605"/>
<path fill="none" stroke="#5C5C5C" stroke-width="2" stroke-miterlimit="10" d="M504.934,405.876
	c-19.846,29.303-59.974,43.248-89.624,31.15c-29.651-12.099-37.6-45.66-17.754-74.961c19.846-29.303,59.973-43.248,89.623-31.15
	c1.707,0.697,3.341,1.465,4.903,2.298c0,0,6.228,2.651,8.549-2.493l15.247,2.058l-14.253,27.012h-16.573
	c0,0,12.596-23.791-20.549-23.925c-42.536-0.171-58.779,45.461-54.687,61.741c1.767,7.032,12.592,35.158,52.033,22.124
	c0,0,23.202-9.262,32.484-21.867L504.934,405.876z"/>
<path fill="none" stroke="#5C5C5C" stroke-width="2" stroke-miterlimit="10" d="M187.88,390.022
	c-0.878,6.428-9.502,13.939-16.56,16.719c-38.235,15.047-50.267-15.093-52.035-22.125c-4.093-16.279,12.15-61.912,54.687-61.74
	c33.145,0.133,20.55,23.924,20.55,23.924h16.573l14.252-27.012L210.1,317.73c-2.319,5.146-8.548,2.493-8.548,2.493
	c-1.562-0.833-3.196-1.601-4.902-2.297c-29.652-12.098-69.778,1.848-89.624,31.149c-19.847,29.302-11.898,62.862,17.753,74.962
	c29.651,12.098,55.846-1.334,75.692-30.635c0,0,2.772-5.699,13.71-6.215l4.532-10.805h-39.335l-1.657,8.49
	C177.721,384.874,188.755,383.617,187.88,390.022z"/>
<path fill="none" stroke="#5C5C5C" stroke-width="2" stroke-miterlimit="10" d="M498.371,438.501
	c-79.018,42.545-123.326-13.992-123.326-13.992c-59.078-91.5,35.446-110.942,35.446-110.942l10.34-17.547
	c-50.217-8.436-118.174,57.764-118.174,57.764c-19.201-48.021-64.97-63.604-64.97-63.604l-8.861,18.17
	c14.03,9.734,15.508,21.415,15.508,21.415c5.17,138.871-127.757,105.127-127.757,105.127l-11.077,9.734
	c67.94,22.713,99.695,3.894,99.695,3.894c69.416-32.446,65.724-96.691,65.724-96.691c9.601,7.138,14.031,31.776,14.031,31.776
	c-16.984,51.287-7.385,70.099-7.385,70.099c10.339,16.872,28.432,4.543,28.432,4.543c18.831-16.872,0-73.989,0-73.989
	c1.107-6.488,21.048-22.064,21.048-22.064s6.646,167.443,186.096,85.678L498.371,438.501z M298.981,446.356
	c-2.954,5.625-5.416,4.326-5.416,4.326c-12.431-7.564,0-35.908,0-35.908C302.921,443.681,298.981,446.356,298.981,446.356z"/>
</svg>
