<?xml version="1.0" encoding="utf-8"?>
<!-- Generator: Adobe Illustrator 16.0.0, SVG Export Plug-In . SVG Version: 6.00 Build 0)  -->
<!DOCTYPE svg PUBLIC "-//W3C//DTD SVG 1.1//EN" "http://www.w3.org/Graphics/SVG/1.1/DTD/svg11.dtd">
<svg version="1.1" id="bugatti" xmlns="http://www.w3.org/2000/svg" xmlns:xlink="http://www.w3.org/1999/xlink" x="0px" y="0px"
	 width="612px" height="792px" viewBox="0 0 612 792" enable-background="new 0 0 612 792" xml:space="preserve">
<g>
	<path fill="none" stroke="#5F686B" stroke-width="3" stroke-miterlimit="10" d="M36.146,355.969
		c0-75.735,120.296-136.935,269.854-136.935c149.558,0,269.854,61.391,269.854,136.935S455.558,492.903,306,492.903
		C156.442,492.903,36.146,431.704,36.146,355.969z"/>
	<path fill="none" stroke="#5F686B" stroke-width="3" stroke-miterlimit="10" d="M306,243.897c152.617,0,244.8,62.347,244.8,112.072
		c0,49.725-92.374,112.072-244.8,112.072S61.2,405.692,61.2,355.969C61.2,306.244,153.574,243.897,306,243.897z"/>
	<path fill="#5F686B" d="M106.335,399.383h26.966c11.284,0,19.125-12.049,19.125-21.803c0-9.371-4.399-15.108-9.563-17.786
		l-2.104-1.147l1.913-1.146c4.59-2.869,7.65-10.52,7.65-15.683c0-6.694-4.016-15.874-13.005-18.743l0.383-0.956
		c2.104,0.765,4.016,1.721,5.737,2.869c0.956,0.765,1.913,1.53,2.869,2.486c1.721,1.53,3.251,3.06,4.781,4.781
		c1.339,1.53,2.678,3.06,3.825,4.781c2.486,3.634,3.825,7.841,3.825,12.24c0,5.164-2.677,12.814-7.458,16.255h-0.191l3.442,3.442
		c4.208,4.208,6.503,9.945,6.312,15.874c0,10.136-8.224,22.95-20.082,22.95h-28.688l-7.076-7.076L106.335,399.383L106.335,399.383z
		 M127.946,389.438h-8.415v-25.818h9.563c4.208,0,7.65,3.823,8.989,8.604c-0.574-0.189-0.956-0.189-1.53-0.189h-8.606
		L127.946,389.438L127.946,389.438z M127.946,353.483h-0.956h-7.459v-21.611h7.459c4.972,0,8.988,3.825,9.371,8.606
		c-0.574-0.191-1.339-0.191-1.913-0.191h-6.502V353.483L127.946,353.483z"/>
	<path fill="#5F686B" d="M173.464,388.481c5.737,11.283,19.699,15.684,30.982,9.944c7.458-3.824,12.24-11.666,12.431-20.081v-56.036
		l1.721-1.721l7.459,7.459v57.565c-0.191,13.579-11.093,24.289-24.671,24.48c-5.737,0-11.666-2.295-17.595-6.694
		c-3.442-2.677-6.502-6.12-8.988-9.943c-0.191-0.574-1.339-2.295-2.486-4.592L173.464,388.481L173.464,388.481z M183.982,322.309
		l1.721-1.721l7.459,7.459v57.565c0,0.767,0.191,1.53,0.382,2.104c-5.164,0-9.371-4.398-9.371-9.563L183.982,322.309
		L183.982,322.309z"/>
	<path fill="#5F686B" d="M333.731,353.674l-4.399,19.89h-10.9l8.415-37.485c0.573-2.677,2.678-2.486,3.251,0L333.731,353.674
		L333.731,353.674z M349.031,408.18l-7.459-7.458l1.722-1.722h13.196l-17.597-76.882l1.34-1.721l7.459,7.458l19.125,80.133
		L349.031,408.18z M341.764,393.454h-17.021l-3.442,14.726H304.28l-7.459-7.458l2.104-1.722h13.579l3.442-14.728h23.905
		L341.764,393.454L341.764,393.454z"/>
	<path fill="#5F686B" d="M385.56,408.371l-7.458-7.459l1.722-1.722h13.005v-65.599h16.257v-11.475l1.721-1.721l7.459,7.458v14.726
		h-16.446v65.599L385.56,408.371z M379.822,342.773h-10.52l-7.459-7.458l1.723-1.721h16.446v9.18L379.822,342.773L379.822,342.773z"
		/>
	<path fill="#5F686B" d="M439.875,342.773h-10.519l-7.46-7.458l1.723-1.721h16.447v9.18L439.875,342.773L439.875,342.773z
		 M469.327,322.118l1.722-1.721l7.459,7.458v14.726H462.06v65.599h-16.446l-7.459-7.458l1.722-1.722h13.005v-65.599h16.447
		L469.327,322.118L469.327,322.118z"/>
	<polygon fill="#5F686B" points="498.397,322.118 499.928,320.588 507.387,328.047 507.387,408.18 491.13,408.18 483.671,400.722 
		485.201,399 498.397,399 	"/>
	<path fill="#5F686B" d="M250.155,403.398c-3.633-2.868-6.885-6.502-9.18-10.327c-0.191-0.573-1.339-2.485-2.486-4.973l1.147-0.383
		c3.825,8.033,12.049,13.388,21.038,13.388c15.683,0,22.759-8.987,22.759-22.759v-17.978l1.721-1.722l7.458,7.459v19.698
		c0,14.535-7.841,24.48-24.48,24.48C261.821,410.093,256.084,407.798,250.155,403.398L250.155,403.398z M272.149,378.728h-2.486
		l-7.459-7.459l1.721-1.721h8.224V378.728L272.149,378.728z M260.1,388.863c-5.546-0.572-9.563-5.162-9.754-10.519v-34.999
		c-0.191-5.737,4.208-10.519,9.945-11.092c5.738-0.765,11.093,3.442,11.858,9.18c0,0.191,0,0.574,0,0.765
		c-1.339-0.574-2.678-0.956-4.208-0.765c-4.781,0.574-8.415,4.59-8.415,9.372v35.19C259.526,386.76,259.717,387.906,260.1,388.863
		L260.1,388.863z M270.045,320.014c3.06,0.957,5.738,2.486,8.224,4.399c2.295,1.721,4.399,3.634,6.503,5.929
		c1.721,2.104,3.251,4.208,4.59,6.502c2.104,4.208,3.251,8.989,3.06,13.579v1.721h-14.344l-7.459-7.458l1.721-1.721h11.093
		c0-10.71-4.208-18.551-13.579-21.42L270.045,320.014L270.045,320.014z"/>
	<path fill="#5F686B" d="M323.978,298.212c3.635,0,6.313-2.869,6.313-6.502c0-3.443-2.869-6.312-6.313-6.312h-13.005v12.814H323.978
		L323.978,298.212z M323.978,275.835c3.061-0.382,5.354-3.442,4.781-6.502c-0.383-2.486-2.295-4.59-4.781-4.781h-13.005v11.284
		L323.978,275.835L323.978,275.835z M292.612,285.206v3.251h-8.032v-15.874h8.032v3.251h7.65V264.55h-19.316v4.016h-8.033v-12.047
		h51.063c8.032,0,14.535,6.503,14.535,14.344c0,3.443-1.339,6.885-3.634,9.563c5.929,5.929,5.737,15.683-0.191,21.42
		c-2.868,2.678-6.692,4.399-10.519,4.399h-51.064v-12.049h8.033v4.017h19.125v-13.005h-7.65V285.206z"/>
</g>
</svg>
