<?xml version="1.0" encoding="utf-8"?>
<!-- Generator: Adobe Illustrator 19.2.1, SVG Export Plug-In . SVG Version: 6.00 Build 0)  -->
<svg version="1.1" id="Layer_1" xmlns="http://www.w3.org/2000/svg" xmlns:xlink="http://www.w3.org/1999/xlink" x="0px" y="0px"
	 viewBox="0 0 1400 500" style="enable-background:new 0 0 1400 500;" xml:space="preserve">
<g id="car_1_">
	<g>
		<g>
			<circle style="fill:none;stroke:#5F686B;stroke-width:4;stroke-miterlimit:10;" cx="1078.7" cy="370.4" r="105.2"/>
			<circle style="fill:none;stroke:#5F686B;stroke-width:2;stroke-miterlimit:10;" cx="1078.7" cy="370.4" r="100.5"/>
			<g>
				
					<circle style="fill:none;stroke:#5F686B;stroke-width:6;stroke-miterlimit:10;stroke-dasharray:12.5002,62.501,8.3335,2.0834,6.2501,2.0834;" cx="1078.7" cy="370.4" r="89.5"/>
			</g>
			<path style="fill:none;stroke:#5F686B;stroke-width:2;stroke-miterlimit:10;" d="M1129.6,401.7c-8.2,13.3-21.4,23.1-37,26.9"/>
			<path style="fill:none;stroke:#5F686B;stroke-width:2;stroke-miterlimit:10;" d="M1137.3,382.1c-0.9,4.5-2.3,8.8-4.2,12.9"/>
			<path style="fill:none;stroke:#5F686B;stroke-width:2;stroke-miterlimit:10;" d="M1124.1,331.6c8.9,10.4,14.3,24,14.3,38.8
				c0,1.6-0.1,3.1-0.2,4.6"/>
			<path style="fill:none;stroke:#5F686B;stroke-width:2;stroke-miterlimit:10;" d="M1107.8,318.2c4.1,2.3,7.9,5.1,11.3,8.2"/>
			<path style="fill:none;stroke:#5F686B;stroke-width:2;stroke-miterlimit:10;" d="M1056.6,314.8c6.8-2.7,14.3-4.2,22.1-4.2
				c8.1,0,15.8,1.6,22.8,4.5"/>
			<path style="fill:none;stroke:#5F686B;stroke-width:2;stroke-miterlimit:10;" d="M1038,326.5c3.4-3.2,7.2-5.9,11.3-8.2"/>
			<path style="fill:none;stroke:#5F686B;stroke-width:2;stroke-miterlimit:10;" d="M1019.1,375c-0.1-1.5-0.2-3.1-0.2-4.6
				c0-14.8,5.4-28.3,14.3-38.8"/>
			<path style="fill:none;stroke:#5F686B;stroke-width:2;stroke-miterlimit:10;" d="M1024.4,395.4c-1.9-4.2-3.4-8.7-4.3-13.3"/>
			<path style="fill:none;stroke:#5F686B;stroke-width:2;stroke-miterlimit:10;" d="M1064.7,428.5c-15.6-3.7-28.8-13.6-37-26.8"/>
			<path style="fill:none;stroke:#5F686B;stroke-width:2;stroke-miterlimit:10;" d="M1085.8,429.8c-2.3,0.3-4.7,0.4-7.1,0.4
				s-4.7-0.1-7-0.4"/>
			<path style="fill:none;stroke:#5F686B;stroke-width:4;stroke-miterlimit:10;" d="M1103.3,389.7c-3.6,4.5-8.3,8.1-13.8,10.1"/>
			<path style="fill:none;stroke:#5F686B;stroke-width:4;stroke-miterlimit:10;" d="M1104.5,352.7c3.3,4.8,5.2,10.5,5.4,16.6"/>
			<path style="fill:none;stroke:#5F686B;stroke-width:4;stroke-miterlimit:10;" d="M1069.8,340.3c2.8-0.8,5.8-1.3,8.8-1.3
				s5.9,0.4,8.6,1.2"/>
			<path style="fill:none;stroke:#5F686B;stroke-width:4;stroke-miterlimit:10;" d="M1047.4,369.4c0.2-6.1,2.1-11.8,5.3-16.6"/>
			<path style="fill:none;stroke:#5F686B;stroke-width:4;stroke-miterlimit:10;" d="M1068.1,399.9c-5.6-2-10.5-5.6-14.1-10.2"/>
			<circle style="fill:none;stroke:#5F686B;stroke-width:2;stroke-miterlimit:10;" cx="1078.7" cy="370.4" r="7"/>
			<path style="fill:none;stroke:#5F686B;stroke-width:3;stroke-miterlimit:10;" d="M1078.7,293.1c-42.7,0-77.3,34.6-77.3,77.3
				s34.6,77.3,77.3,77.3s77.3-34.6,77.3-77.3S1121.4,293.1,1078.7,293.1z M1149.7,377.3l-54-10.8l-1-3.2L1132,323
				c11.2,12.6,18,29.2,18,47.3C1150,372.7,1149.9,375,1149.7,377.3z M1098.5,375l-0.9-2.7l51,12.5c-1.1,5.2-2.7,10.2-4.9,15
				l-48.4-19.9l2.1-1.5C1098.5,377.6,1098.9,376.2,1098.5,375z M1092.8,357.4l-0.8-1.7c-0.4-1.2-1.5-1.3-2.8-1.3h-2.9l27.6-45.4
				c4.6,2.6,8.9,5.3,12.7,8.8L1092.8,357.4z M1107.2,305.7l-26.9,48.8h-3.3l-26.8-48.8c8.7-3.8,18.4-6,28.5-6
				C1088.8,299.8,1098.4,301.9,1107.2,305.7z M1070.7,354.5h-2.6c-1.3,0-2.4,0-2.8,1.3l-0.9,2.3l-33.9-40.2c3.9-3.5,8.1-6,12.7-8.6
				L1070.7,354.5z M1025.2,323.1l37.3,40.4l-1,3.1l-53.9,10.6c-0.2-2.3-0.3-4.6-0.3-6.9C1007.3,352.2,1014.1,335.7,1025.2,323.1z
				 M1059.9,378.3l2.3,1.7l-48.5,19.8c-2.1-4.7-3.8-9.7-4.9-15l50.9-12.3l-0.8,2.5C1058.4,376.2,1058.9,377.6,1059.9,378.3z
				 M1017.1,406.5l50-23l2.7,1.9l-6.5,54.6C1043.6,435.7,1027,423.4,1017.1,406.5z M1070.8,441.3l4-52.2l2.1,1.5
				c1,0.8,2.4,0.8,3.5,0l2.3-1.7l3.9,52.3c-2.6,0.3-5.2,0.4-7.9,0.4C1076,441.8,1073.4,441.6,1070.8,441.3z M1094,440.1l-6.4-54.6
				l2.7-2l49.9,23.1C1130.3,423.4,1113.7,435.8,1094,440.1z"/>
			<polygon style="fill:none;stroke:#5F686B;stroke-width:2;stroke-miterlimit:10;" points="1094,393.7 1091.4,392.2 1091.4,389.2 
				1094,387.7 1096.6,389.2 1096.6,392.2 			"/>
			<polygon style="fill:none;stroke:#5F686B;stroke-width:2;stroke-miterlimit:10;" points="1063.4,393.7 1060.8,392.2 
				1060.8,389.2 1063.4,387.7 1066,389.2 1066,392.2 			"/>
			<polygon style="fill:none;stroke:#5F686B;stroke-width:2;stroke-miterlimit:10;" points="1054,365.6 1051.4,364.1 1051.4,361.1 
				1054,359.6 1056.6,361.1 1056.6,364.1 			"/>
			<polygon style="fill:none;stroke:#5F686B;stroke-width:2;stroke-miterlimit:10;" points="1102.6,365.6 1100,364.1 1100,361.1 
				1102.6,359.6 1105.3,361.1 1105.3,364.1 			"/>
			<polygon style="fill:none;stroke:#5F686B;stroke-width:2;stroke-miterlimit:10;" points="1078.7,347.7 1076.1,346.2 
				1076.1,343.1 1078.7,341.6 1081.3,343.1 1081.3,346.2 			"/>
		</g>
		<g>
			<circle style="fill:none;stroke:#5F686B;stroke-width:4;stroke-miterlimit:10;" cx="269.5" cy="361.2" r="105.2"/>
			<circle style="fill:none;stroke:#5F686B;stroke-width:2;stroke-miterlimit:10;" cx="269.5" cy="361.2" r="100.5"/>
			<g>
				
					<circle style="fill:none;stroke:#5F686B;stroke-width:6;stroke-miterlimit:10;stroke-dasharray:12.5002,62.501,8.3335,2.0834,6.2501,2.0834;" cx="269.5" cy="361.2" r="89.5"/>
			</g>
			<path style="fill:none;stroke:#5F686B;stroke-width:2;stroke-miterlimit:10;" d="M320.4,392.4c-8.2,13.3-21.4,23.1-37,26.9"/>
			<path style="fill:none;stroke:#5F686B;stroke-width:2;stroke-miterlimit:10;" d="M328.1,372.9c-0.9,4.5-2.3,8.8-4.2,12.9"/>
			<path style="fill:none;stroke:#5F686B;stroke-width:2;stroke-miterlimit:10;" d="M314.9,322.4c8.9,10.4,14.3,24,14.3,38.8
				c0,1.6-0.1,3.1-0.2,4.6"/>
			<path style="fill:none;stroke:#5F686B;stroke-width:2;stroke-miterlimit:10;" d="M298.6,309c4.1,2.3,7.9,5.1,11.3,8.2"/>
			<path style="fill:none;stroke:#5F686B;stroke-width:2;stroke-miterlimit:10;" d="M247.4,305.6c6.8-2.7,14.3-4.2,22.1-4.2
				c8.1,0,15.8,1.6,22.8,4.5"/>
			<path style="fill:none;stroke:#5F686B;stroke-width:2;stroke-miterlimit:10;" d="M228.9,317.3c3.4-3.2,7.2-5.9,11.3-8.2"/>
			<path style="fill:none;stroke:#5F686B;stroke-width:2;stroke-miterlimit:10;" d="M209.9,365.8c-0.1-1.5-0.2-3.1-0.2-4.6
				c0-14.8,5.4-28.3,14.3-38.8"/>
			<path style="fill:none;stroke:#5F686B;stroke-width:2;stroke-miterlimit:10;" d="M215.2,386.2c-1.9-4.2-3.4-8.7-4.3-13.3"/>
			<path style="fill:none;stroke:#5F686B;stroke-width:2;stroke-miterlimit:10;" d="M255.5,419.3c-15.6-3.7-28.8-13.6-37-26.8"/>
			<path style="fill:none;stroke:#5F686B;stroke-width:2;stroke-miterlimit:10;" d="M276.6,420.5c-2.3,0.3-4.7,0.4-7.1,0.4
				s-4.7-0.1-7-0.4"/>
			<path style="fill:none;stroke:#5F686B;stroke-width:4;stroke-miterlimit:10;" d="M294.1,380.4c-3.6,4.5-8.3,8.1-13.8,10.1"/>
			<path style="fill:none;stroke:#5F686B;stroke-width:4;stroke-miterlimit:10;" d="M295.3,343.5c3.3,4.8,5.2,10.5,5.4,16.6"/>
			<path style="fill:none;stroke:#5F686B;stroke-width:4;stroke-miterlimit:10;" d="M260.6,331.1c2.8-0.8,5.8-1.3,8.8-1.3
				s5.9,0.4,8.6,1.2"/>
			<path style="fill:none;stroke:#5F686B;stroke-width:4;stroke-miterlimit:10;" d="M238.2,360.2c0.2-6.1,2.1-11.8,5.3-16.6"/>
			<path style="fill:none;stroke:#5F686B;stroke-width:4;stroke-miterlimit:10;" d="M258.9,390.6c-5.6-2-10.5-5.6-14.1-10.2"/>
			<circle style="fill:none;stroke:#5F686B;stroke-width:2;stroke-miterlimit:10;" cx="269.5" cy="361.2" r="7"/>
			<path style="fill:none;stroke:#5F686B;stroke-width:3;stroke-miterlimit:10;" d="M269.5,283.8c-42.7,0-77.3,34.6-77.3,77.3
				s34.6,77.3,77.3,77.3s77.3-34.6,77.3-77.3C346.8,318.5,312.2,283.8,269.5,283.8z M340.5,368.1l-54-10.8l-1-3.2l37.3-40.3
				c11.2,12.6,18,29.2,18,47.3C340.8,363.5,340.7,365.8,340.5,368.1z M289.3,365.8l-0.9-2.7l51,12.5c-1.1,5.2-2.7,10.2-4.9,15
				l-48.4-19.9l2.1-1.5C289.3,368.3,289.7,367,289.3,365.8z M283.6,348.2l-0.8-2.1c-0.4-1.2-1.5-1.6-2.8-1.6h-2.9l27.6-45
				c4.6,2.6,8.9,5.5,12.7,9L283.6,348.2z M298,296.1l-27,48.4h-3.3l-26.8-48.4c8.7-3.8,18.4-6,28.5-6
				C279.6,290.2,289.2,292.3,298,296.1z M261.5,344.5h-2.6c-1.3,0-2.4,0.4-2.8,1.6l-0.9,2.5l-33.9-40.1c3.9-3.5,8.1-6.3,12.7-8.9
				L261.5,344.5z M216.1,313.8l37.3,40.4l-1,3.1l-53.9,10.6c-0.2-2.3-0.3-4.6-0.3-6.9C198.1,343,204.9,326.4,216.1,313.8z
				 M250.7,369.1l2.3,1.7l-48.5,19.8c-2.1-4.7-3.8-9.7-4.9-15l50.9-12.3l-0.8,2.5C249.2,367,249.7,368.3,250.7,369.1z M207.9,397.3
				l50-23l2.7,1.9l-6.5,54.6C234.4,426.5,217.8,414.1,207.9,397.3z M261.6,432.1l4-52.2l2.1,1.5c1,0.8,2.4,0.8,3.5,0l2.3-1.7
				l3.9,52.3c-2.6,0.3-5.2,0.4-7.9,0.4C266.8,432.5,264.2,432.4,261.6,432.1z M284.8,430.9l-6.4-54.6l2.7-2l49.9,23.1
				C321.1,414.1,304.5,426.5,284.8,430.9z"/>
			<polygon style="fill:none;stroke:#5F686B;stroke-width:2;stroke-miterlimit:10;" points="284.8,384.5 282.2,383 282.2,380 
				284.8,378.5 287.4,380 287.4,383 			"/>
			<polygon style="fill:none;stroke:#5F686B;stroke-width:2;stroke-miterlimit:10;" points="254.2,384.5 251.6,383 251.6,380 
				254.2,378.5 256.8,380 256.8,383 			"/>
			<polygon style="fill:none;stroke:#5F686B;stroke-width:2;stroke-miterlimit:10;" points="244.8,356.4 242.2,354.9 242.2,351.9 
				244.8,350.3 247.4,351.9 247.4,354.9 			"/>
			<polygon style="fill:none;stroke:#5F686B;stroke-width:2;stroke-miterlimit:10;" points="293.5,356.4 290.9,354.9 290.9,351.9 
				293.5,350.3 296.1,351.9 296.1,354.9 			"/>
			<polygon style="fill:none;stroke:#5F686B;stroke-width:2;stroke-miterlimit:10;" points="269.5,338.4 266.9,336.9 266.9,333.9 
				269.5,332.4 272.1,333.9 272.1,336.9 			"/>
		</g>
		<g>
			<path style="fill:none;stroke:#5F686B;stroke-width:6;stroke-miterlimit:10;" d="M443.3,169.8c0,0-136.4,1-190.1,5.2
				s-118.3,12.6-149.6,23.2c-31.3,10.6-80.1,38.2-80.1,38.2l13.1,43.8c0,0-13.8,15.7-13.1,24.4c0.6,8.8,3.1,33.2,3.1,33.2l7.5,3.1
				c0,0-2.5,3.8-5,10S23.9,379,23.9,379s-7.5,0.2-8.6,1.3s-1.3,11-1.3,11s101.2,8.8,112.4,9.7c12.2,1,26.9,0,26.9,0
				s-14.4-154.6,116.4-154.6s119,164.6,119,164.6s20.1,2.5,54.5,2.3c114.4-0.7,367.5-4.7,402.1-4.6c45.1,0.2,62.2,6.4,74.7,6.4
				s37.4,0,37.4,0s-10.6-161.2,122.7-161.2s122.7,148.7,122.7,148.7s78.6-2.5,92.7-3.8l11.1-8.2"/>
			<path style="fill:none;stroke:#5F686B;stroke-width:3;stroke-miterlimit:10;" d="M462.6,171.5c0,0,5.6-0.1,16,7.8"/>
			<path style="fill:none;stroke:#5F686B;stroke-width:3;stroke-miterlimit:10;" d="M443.3,174v-6.4h15.6c0,0,0.8,0.4,2,1.3
				c1.3,0.9,2.7,5.1,2.7,5.1L443.3,174L443.3,174z"/>
			<path style="fill:none;stroke:#5F686B;stroke-width:3;stroke-miterlimit:10;" d="M41,248.4c0,0,12.5-5,21.1-6.5
				s64.1-6.7,77.8-7.1c13.8-0.4,34-0.8,34.8,0s-4.2,7.7-7.3,10.2s-20.5,12.9-29.6,16c-9.2,3-40.5,8.2-53.8,9.9
				c-13.4,1.7-19.2,1-19.2,1"/>
			<path style="fill:none;stroke:#5F686B;stroke-width:4;stroke-miterlimit:10;" d="M115.5,239.2c3.5-0.2,44.8-3.3,49.6-2.9
				s4.6,2.1,2.9,4c-1.7,1.9-15.4,12.7-24.2,16.1c-8.8,3.3-21.9,6.1-22.7,5.8s-4-4.4-5.4-11.7C114.2,243.2,115.5,239.2,115.5,239.2z"
				/>
			<path style="fill:none;stroke:#5F686B;stroke-width:4;stroke-miterlimit:10;" d="M74.7,243c-1.7,0.2-10.2,1.3-10,1.9
				c0.2,0.6,13,24.4,13,24.4s5-1.1,5.2-4s-1.1-8.3-1.1-8.3"/>
			<path style="fill:none;stroke:#5F686B;stroke-width:4;stroke-miterlimit:10;" d="M88.4,242c-1.7,0.2-10.2,1.3-10,1.9
				c0.2,0.6,13,24.4,13,24.4s5-1.1,5.2-4s-1.1-8.3-1.1-8.3"/>
			<path style="fill:none;stroke:#5F686B;stroke-width:4;stroke-miterlimit:10;" d="M102,240.1c-1.7,0.2-10.2,1.3-10,1.9
				c0.2,0.6,13,24.4,13,24.4s5-1.1,5.2-4s-1.1-8.3-1.1-8.3"/>
			<path style="fill:none;stroke:#5F686B;stroke-width:3;stroke-miterlimit:10;" d="M179.9,237.4c0,0-20.7,23.7-47.4,31.9
				c-19.8,6.1-39.7,9.4-58.8,10.6c-19.1,1.3-31.2,0-31.2,0"/>
			<path style="fill:none;stroke:#5F686B;stroke-width:4;stroke-miterlimit:10;" d="M29.5,240.1c3.3,0.2,15-6.9,22.1-10.9
				s32.3-15.9,58.6-25.2c53.6-19,141.4-22.4,221.5-24.3s167.2,0,167.2,0s27.5-22.5,72.3-47.3s89.2-42.9,89.2-42.9s-3.6-5.8-8.1-7.3"
				/>
			<path style="fill:none;stroke:#5F686B;stroke-width:3;stroke-miterlimit:10;" d="M153,394.5c0,0-16.9,1.2-21.7,0
				s-82.6-7.2-92-8.5s-15.4-5.6-15.4-5.6"/>
			<path style="fill:none;stroke:#5F686B;stroke-width:3;stroke-miterlimit:10;" d="M41,324.4c0,0,35.2-3.3,37.4-1.9
				c2.2,1.5,23.1,29.4,27.5,38s6.3,13.1,3.7,13.1s-55.4,0.6-64.6,0s-13.4-1.3-13.4-1.3"/>
			<path style="fill:none;stroke:#5F686B;stroke-width:4;stroke-miterlimit:10;" d="M46,325c0,0-0.8,10.2,1.3,11.1s37.6,0,37.6,0"/>
			<path style="fill:none;stroke:#5F686B;stroke-width:3;stroke-miterlimit:10;" d="M75.6,323.6c0,0,10,10.9,16.4,21.7
				c6.4,10.9,11.4,23.3,11.4,23.3s-24.2-0.1-30.9,0s-15.2-1.2-15.2-1.2"/>
			<path style="fill:none;stroke:#5F686B;stroke-width:4;stroke-miterlimit:10;" d="M67.3,339c0,0-1.7,10.6-0.8,18.6
				c0.8,7.9,1.9,11,1.9,11"/>
			<path style="fill:none;stroke:#5F686B;stroke-width:2;stroke-miterlimit:10;" d="M132.6,366.3c0,0,10.4-140,136.9-140
				S406,359.4,406,359.4"/>
			<path style="fill:none;stroke:#5F686B;stroke-width:4;stroke-miterlimit:10;" d="M494.5,403.1c0,0-5.3-26.2-6.9-36.7
				s-1.6-17.6-0.9-22.6c0.6-5,0.8-8.3,0.8-8.3s-8.5-43.1-10.8-109.2c-0.3-10,29.4-46.5,44.4-48.5c6.6-0.9,12.5-0.3,12.5-0.3"/>
			<path style="fill:none;stroke:#5F686B;stroke-width:3;stroke-miterlimit:10;" d="M389,404.9c0,0,56.6,0.4,67.5,0
				s32.1-2.1,50.9-2.1c18.8,0,361.8-5.2,379.4-2.2c17.5,3,45.1,3.8,51.3,4.5s19.2,0,19.2,0"/>
			<path style="fill:none;stroke:#5F686B;stroke-width:4;stroke-miterlimit:10;" d="M882.6,175.4c0,0,14.6,36.7,15,47.5
				c0.4,10.9-15.4,67.6-30,98.1s-47.2,78.7-47.2,78.7"/>
			<path style="fill:none;stroke:#5F686B;stroke-width:4;stroke-miterlimit:10;" d="M1361.3,355.3c0,0-29.6,33.8-34.2,34.2
				c-4.6,0.4-79.3,3.8-79.3,3.8"/>
			<path style="fill:none;stroke:#5F686B;stroke-width:6;stroke-miterlimit:10;" d="M1327,389.5h18.4c0,0,7.5-6.7,12.5-9.2
				s11.8-6.9,11.8-6.9c0.6-0.9,16-29.1,16.3-32.2s-13.1-39.1-13.1-39.1s8.1-31,7.2-33.5s-13.8-24.4-21.6-35.7
				c-7.8-11.3-21.3-30.4-21.3-30.4s9.7-13.5,10-16s-12.2-13.5-15-15.3s-15,2.8-25,4.7s-22.5,3.4-22.5,3.4s-35.1-7.5-95.8-27.5
				s-158.2-53.5-279.9-76s-194.7-9.4-235.1,0c-40.4,9.4-114.9,47.6-153.1,67.3c-38.2,19.7-58.2,28.5-58.2,28.5"/>
			<path style="fill:none;stroke:#5F686B;stroke-width:3;stroke-miterlimit:10;" d="M1341.9,191.3c0,0-12.2,6.9-16.6,10.3
				s-11.9,21-11.9,21.9s25,26.6,26.3,27.9s16,1.6,20,0s5.9-3.4,5.9-3.4"/>
			<path style="fill:none;stroke:#5F686B;stroke-width:4;stroke-miterlimit:10;" d="M1363.8,244.2c0,0,1.3,3.4-7.5,5
				s-14.1-1.9-14.1-1.9l-22.2-25.5c0,0,7.5-16.8,11.3-18.4c3.8-1.6,5.9-0.9,5.9-0.9"/>
			<path style="fill:none;stroke:#5F686B;stroke-width:3;stroke-miterlimit:10;" d="M1326.1,237.4l-56.3,42.5c0,0-39.1,0.6-52,2.8
				c-12.8,2.2-21,3.1-21,3.1l-29.9,1.8"/>
			<path style="fill:none;stroke:#5F686B;stroke-width:3;stroke-miterlimit:10;" d="M1190.9,203.3c-2.9,2-2.7,26.6,2.8,33
				s26.4,7.5,35.2,6.3s18.7-15.9,13.7-28.7s-17.4-13.6-22.4-15.1C1215.1,197.3,1198.2,198.2,1190.9,203.3z"/>
			<path style="fill:none;stroke:#5F686B;stroke-width:3;stroke-miterlimit:10;" d="M1326.1,174.1c0,0-25.9,10.3-35.3,11.6
				s-178.1-8.5-228.5-7.8c-50.4,0.6-151.2,13.5-151.2,13.5"/>
			<path style="fill:none;stroke:#5F686B;stroke-width:3;stroke-miterlimit:10;" d="M943.5,225.1c0,0-28,7.9-77.2,7.9
				s-382.3,4.6-423,3.3s-69.9-9.9-69.9-9.9"/>
			<path style="fill:none;stroke:#5F686B;stroke-width:3;stroke-miterlimit:10;" d="M423.9,354.5c0,0,100.6-1.7,194.5-3.4
				c93.9-1.7,301.7-3.8,301.7-3.8"/>
			<path style="fill:none;stroke:#5F686B;stroke-width:2;stroke-miterlimit:10;" d="M474,387.3c0,0,105.3,1.1,199.2,0
				c93.8-1.1,196.5-3,196.5-3"/>
			<path style="fill:none;stroke:#5F686B;stroke-width:2;stroke-miterlimit:10;" d="M939.3,399.7c0,0-0.8-162.1,135.2-165.5
				c138.1-3.4,147.7,145.7,147.7,145.7"/>
			<path style="fill:none;stroke:#5F686B;stroke-width:3;stroke-miterlimit:10;" d="M1230.6,338.2c0,0,86-0.3,106-2.7
				c20-2.3,29-4.4,29-4.4"/>
			<path style="fill:none;stroke:#5F686B;stroke-width:4;stroke-miterlimit:10;" d="M793.5,220.3c1.3-4,31-7.2,45.4-6.9
				s33.5,1.3,35.1,5c1.6,3.8-5,7.1-17.8,7.9c-12.8,0.8-25.7,1.3-38.8,0S792.2,224.1,793.5,220.3z"/>
			<path style="fill:none;stroke:#5F686B;stroke-width:2;stroke-miterlimit:10;" d="M799.6,219.3c0,0,26.1-2.3,42.4-2
				s28.3,1.3,28.3,1.3"/>
			<polyline style="fill:none;stroke:#5F686B;stroke-width:2;stroke-miterlimit:10;" points="436,256.4 437.9,263.9 423.9,263.9 			
				"/>
			<polyline style="fill:none;stroke:#5F686B;stroke-width:2;stroke-miterlimit:10;" points="441.6,256.4 443.3,263.9 460.6,263.9 
							"/>
			<path style="fill:none;stroke:#5F686B;stroke-width:4;stroke-miterlimit:10;" d="M611.9,178.5c0,0,214.7-1.5,264.4-4.5
				s142.6-7.3,151.5-10.3c12.6-4.4,23.8-23.8,23.8-23.8s-83.1-32.6-167.8-43.4s-141.5-14.3-192.8,0c-50.3,14-79.2,29.5-107.7,45.9
				c-25.4,14.6-49.2,31.3-49.7,35.1c-0.4,3.8,18.8,1.8,18.8,1.8"/>
			<path style="fill:none;stroke:#5F686B;stroke-width:6;stroke-miterlimit:10;" d="M552.4,179.3c-4.3-4.8,2.7-12.9,8.3-18.2
				c6.7-6.2,22.5-12.5,22.5-12.5s26.3,0,28.8,2.5s6.3,15.5,4.2,20.9s-7.5,10.3-13.4,10.6c-5.8,0.3-36.3,0.2-40.1,0
				C559.1,182.5,554.1,181.2,552.4,179.3z"/>
			<path style="fill:none;stroke:#5F686B;stroke-width:6;stroke-miterlimit:10;" d="M599,148.7c0,0,55.5-36.1,99.5-45.3
				s105.1-7.5,141-4c40.3,4,52.4,6.3,52.4,6.3L865.8,174"/>
			<path style="fill:none;stroke:#5F686B;stroke-width:6;stroke-miterlimit:10;" d="M878.5,172.1l24.7-64.5c0,0,38.9,5.1,79,15.8
				s65.5,21.6,65.5,21.6"/>
			<line style="fill:none;stroke:#5F686B;stroke-width:2;stroke-miterlimit:10;" x1="423.9" y1="255.1" x2="456.4" y2="255.1"/>
			<path style="fill:none;stroke:#5F686B;stroke-width:4;stroke-miterlimit:10;" d="M171.4,393.4c-8.9,2.1-18,7.6-18,7.6"/>
			<path style="fill:none;stroke:#5F686B;stroke-width:4;stroke-miterlimit:10;" d="M388.7,411c0,0-9.9-9.2-21.6-10.2"/>
			<path style="fill:none;stroke:#5F686B;stroke-width:4;stroke-miterlimit:10;" d="M957.3,415.1c0,0,8.9-8.4,23.5-8.9"/>
			<path style="fill:none;stroke:#5F686B;stroke-width:4;stroke-miterlimit:10;" d="M1180.4,394.1c11.7,0,22.4,8.4,22.4,8.4"/>
		</g>
		<g>
			<line style="fill:none;stroke:#5F686B;stroke-width:4;stroke-miterlimit:10;" x1="1215.2" y1="160.3" x2="1258.6" y2="95.7"/>
			<path style="fill:none;stroke:#5F686B;stroke-width:4;stroke-miterlimit:10;" d="M1284.7,96.2l-10.3,3.2
				c-6.7,2.1-12.5,6.4-16.4,12.2l-34,50.4"/>
			<path style="fill:none;stroke:#5F686B;stroke-width:4;stroke-miterlimit:10;" d="M1191.7,152.8l26.9-40.1
				c2.7-4.1,1.6-9.6-2.6-12.2l-6.7-4.3"/>
			<line style="fill:none;stroke:#5F686B;stroke-width:4;stroke-miterlimit:10;" x1="1238.6" y1="97.5" x2="1200.4" y2="154.7"/>
			<path style="fill:none;stroke:#5F686B;stroke-width:4;stroke-miterlimit:10;" d="M1180.8,96.2h107.9c13.1,0,24-15.7,26-22.6
				s6.7-25.8,6.7-25.8l-139.5,25.9c-4.3,1.1-7.7,4.3-9.1,8.5l-0.7,2C1170.2,90.1,1174.6,96.2,1180.8,96.2z"/>
			<line style="fill:none;stroke:#5F686B;stroke-width:4;stroke-miterlimit:10;" x1="1236.1" y1="129.2" x2="1218.7" y2="127.3"/>
		</g>
	</g>
</g>
<g id="_x24_">
	<text transform="matrix(1 0 0 1 601.2593 375.2993)" style="fill:#FFFFFF; font-family:'Detente'; font-size:360px;">$</text>
	
		<text transform="matrix(1 0 0 1 601.2593 375.2993)" style="fill:none;stroke:#5F686B;stroke-width:8;stroke-miterlimit:10; font-family:'Detente'; font-size:360px;">$</text>
	<text transform="matrix(1 0 0 1 444.3649 326.5096)" style="fill:#FFFFFF; font-family:'Detente'; font-size:240px;">$</text>
	
		<text transform="matrix(1 0 0 1 444.3649 326.5096)" style="fill:none;stroke:#5F686B;stroke-width:8;stroke-miterlimit:10; font-family:'Detente'; font-size:240px;">$</text>
	<text transform="matrix(1 0 0 1 821.6884 326.5096)" style="fill:#FFFFFF; font-family:'Detente'; font-size:240px;">$</text>
	
		<text transform="matrix(1 0 0 1 821.6884 326.5096)" style="fill:none;stroke:#5F686B;stroke-width:8;stroke-miterlimit:10; font-family:'Detente'; font-size:240px;">$</text>
</g>
</svg>
