<?xml version="1.0" encoding="utf-8"?>
<!-- Generator: Adobe Illustrator 19.1.1, SVG Export Plug-In . SVG Version: 6.00 Build 0)  -->
<svg version="1.1" id="Layer_1" xmlns="http://www.w3.org/2000/svg" xmlns:xlink="http://www.w3.org/1999/xlink" x="0px" y="0px"
	 viewBox="-319 121 320 320" style="enable-background:new -319 121 320 320;" xml:space="preserve">
<g id="audi_copy">
	<polygon style="fill:#E50038;stroke:#E50038;stroke-width:3;stroke-miterlimit:10;" points="-52.7,377.2 -52.7,336.5 -69.7,336.5 
		-69.7,377.2 	"/>
	<path style="fill:#E50038;stroke:#E50038;stroke-width:3;stroke-miterlimit:10;" d="M-142.4,360.2v-23.7h-16.4v18.2
		c0,5.2-0.2,6.6-0.5,8c-1.1,3.7-5.1,5.4-9.1,5.4c-5.6,0-8.2-2.2-9.3-5.6c-0.3-1.1-0.4-2.4-0.5-3.6c-0.1-1.4,0-2.8,0-4.4v-18h-16.6
		v23.8c0,5.3,1.8,9.3,4.7,12c5,4.9,13.4,6.3,21.2,6.3c9.5,0,16.7-1.4,21.9-6.4C-144.4,369.5-142.4,366.1-142.4,360.2L-142.4,360.2z"
		/>
	<path style="fill:#E50038;stroke:#E50038;stroke-width:3;stroke-miterlimit:10;" d="M-223.9,357h-22.6l11.3-18.6L-223.9,357
		L-223.9,357z M-192,377.2l-37.4-56.1h-21l5.8,6.9l-32.9,49.3h18.9l5.6-9.3h35.7l5.8,9.3L-192,377.2L-192,377.2z"/>
	<path style="fill:#E50038;stroke:#E50038;stroke-width:3;stroke-miterlimit:10;" d="M-74.3,356.1c0-4.6-1.9-9.9-7.7-17.3L-96,321
		h-19.5l11.1,12.5c1.9,2.1,4.3,3.9,4.3,3.9c-2.7-1.6-6.1-2.2-8.8-2.2c-6.4,0-13,1.4-18.8,4.6c-6.2,3.4-10.4,9.1-10.4,16.7
		c0,5.8,2.6,10.3,5.9,13.7c7.5,7.5,21.1,8.2,26.1,8.2c7.4,0,18.9-1.7,25.5-7.6C-76.9,367.4-74.3,362.6-74.3,356.1L-74.3,356.1z
		 M-90.5,356.6c0,4.3-2.8,7.5-6.3,9.3c-2.9,1.6-6.3,2-9.4,2c-3,0-6.5-0.6-9.5-2.1c-3.5-1.8-6.2-5.2-6.2-8.9c0-4.5,3.4-8,7.5-9.8
		c2.5-1.1,5.5-1.6,7.9-1.6c2.3,0,5.6,0.3,8.2,1.4C-93.6,348.8-90.5,352.6-90.5,356.6L-90.5,356.6z"/>
	<g>
		<g>
			<path style="fill:#ADADAD;" d="M-58.4,187.3c-12.7,0-24.3,4.4-33.5,11.6c-9.2-7.3-20.9-11.6-33.5-11.6
				c-12.7,0-24.3,4.4-33.5,11.6c-9.2-7.3-20.9-11.6-33.5-11.6c-12.7,0-24.3,4.4-33.5,11.6c-9.2-7.3-20.9-11.6-33.5-11.6
				c-29.9,0-54.1,24.2-54.1,54.1s24.2,54.1,54.1,54.1c12.7,0,24.3-4.4,33.5-11.6c9.2,7.3,20.9,11.6,33.5,11.6
				c12.7,0,24.3-4.4,33.5-11.6c9.2,7.3,20.9,11.6,33.5,11.6c12.7,0,24.3-4.4,33.5-11.6c9.2,7.3,20.9,11.6,33.5,11.6
				c29.9,0,54.1-24.2,54.1-54.1C-4.4,211.5-28.6,187.3-58.4,187.3z M-234.9,274.9c-6.9,5-15.5,8.1-24.7,8.1
				c-23,0-41.7-18.6-41.7-41.7c0-23,18.6-41.7,41.7-41.7c9.2,0,17.8,3.1,24.7,8.1c-7.3,9.2-11.7,20.9-11.7,33.6
				S-242.2,265.7-234.9,274.9z M-226,266.1c-5.1-6.9-8.2-15.5-8.2-24.8s3-17.8,8.2-24.8c5.1,6.9,8.2,15.5,8.2,24.8
				C-217.9,250.6-220.9,259.2-226,266.1z M-167.8,274.9c-6.9,5.1-15.5,8.1-24.7,8.1s-17.7-3-24.6-8.1c7.3-9.2,11.7-20.9,11.7-33.6
				c0-12.7-4.4-24.4-11.7-33.6c6.9-5.1,15.4-8.1,24.6-8.1s17.8,3,24.7,8.1c-7.3,9.2-11.7,20.9-11.7,33.6
				C-179.5,254-175.1,265.7-167.8,274.9z M-159,266.1c-5.1-6.9-8.2-15.5-8.2-24.8s3-17.8,8.2-24.8c5.1,6.9,8.2,15.5,8.2,24.8
				S-153.9,259.2-159,266.1z M-100.8,274.9c-6.9,5.1-15.5,8.1-24.7,8.1s-17.7-3-24.6-8.1c7.3-9.2,11.7-20.9,11.7-33.6
				c0-12.7-4.4-24.4-11.7-33.6c6.9-5.1,15.4-8.1,24.6-8.1c9.3,0,17.8,3,24.7,8.1c-7.3,9.2-11.7,20.9-11.7,33.6
				C-112.5,254-108.1,265.7-100.8,274.9z M-92,266.1c-5.1-6.9-8.2-15.5-8.2-24.8s3-17.8,8.2-24.8c5.1,6.9,8.2,15.5,8.2,24.8
				S-86.8,259.2-92,266.1z M-58.4,283c-9.2,0-17.8-3.1-24.7-8.1c7.3-9.2,11.7-20.9,11.7-33.6c0-12.7-4.4-24.4-11.7-33.6
				c6.9-5,15.5-8.1,24.7-8.1c23,0,41.7,18.6,41.7,41.7C-16.8,264.4-35.4,283-58.4,283z"/>
		</g>
		<g>
			<path style="fill:none;stroke:#E0E0E0;stroke-width:3;stroke-miterlimit:3.8637;" d="M-58.4,187.3c-12.7,0-24.3,4.4-33.5,11.6
				c-9.2-7.3-20.9-11.6-33.5-11.6c-12.7,0-24.3,4.4-33.5,11.6c-9.2-7.3-20.9-11.6-33.5-11.6c-12.7,0-24.3,4.4-33.5,11.6
				c-9.2-7.3-20.9-11.6-33.5-11.6c-29.9,0-54.1,24.2-54.1,54.1s24.2,54.1,54.1,54.1c12.7,0,24.3-4.4,33.5-11.6
				c9.2,7.3,20.9,11.6,33.5,11.6c12.7,0,24.3-4.4,33.5-11.6c9.2,7.3,20.9,11.6,33.5,11.6c12.7,0,24.3-4.4,33.5-11.6
				c9.2,7.3,20.9,11.6,33.5,11.6c29.9,0,54.1-24.2,54.1-54.1C-4.4,211.5-28.6,187.3-58.4,187.3z M-234.9,274.9
				c-6.9,5-15.5,8.1-24.7,8.1c-23,0-41.7-18.6-41.7-41.7c0-23,18.6-41.7,41.7-41.7c9.2,0,17.8,3.1,24.7,8.1
				c-7.3,9.2-11.7,20.9-11.7,33.6S-242.2,265.7-234.9,274.9z M-226,266.1c-5.1-6.9-8.2-15.5-8.2-24.8s3-17.8,8.2-24.8
				c5.1,6.9,8.2,15.5,8.2,24.8C-217.9,250.6-220.9,259.2-226,266.1z M-167.8,274.9c-6.9,5.1-15.5,8.1-24.7,8.1s-17.7-3-24.6-8.1
				c7.3-9.2,11.7-20.9,11.7-33.6c0-12.7-4.4-24.4-11.7-33.6c6.9-5.1,15.4-8.1,24.6-8.1s17.8,3,24.7,8.1
				c-7.3,9.2-11.7,20.9-11.7,33.6C-179.5,254-175.1,265.7-167.8,274.9z M-159,266.1c-5.1-6.9-8.2-15.5-8.2-24.8s3-17.8,8.2-24.8
				c5.1,6.9,8.2,15.5,8.2,24.8S-153.9,259.2-159,266.1z M-100.8,274.9c-6.9,5.1-15.5,8.1-24.7,8.1s-17.7-3-24.6-8.1
				c7.3-9.2,11.7-20.9,11.7-33.6c0-12.7-4.4-24.4-11.7-33.6c6.9-5.1,15.4-8.1,24.6-8.1c9.3,0,17.8,3,24.7,8.1
				c-7.3,9.2-11.7,20.9-11.7,33.6C-112.5,254-108.1,265.7-100.8,274.9z M-92,266.1c-5.1-6.9-8.2-15.5-8.2-24.8s3-17.8,8.2-24.8
				c5.1,6.9,8.2,15.5,8.2,24.8S-86.8,259.2-92,266.1z M-58.4,283c-9.2,0-17.8-3.1-24.7-8.1c7.3-9.2,11.7-20.9,11.7-33.6
				c0-12.7-4.4-24.4-11.7-33.6c6.9-5,15.5-8.1,24.7-8.1c23,0,41.7,18.6,41.7,41.7C-16.8,264.4-35.4,283-58.4,283z"/>
		</g>
	</g>
</g>
</svg>
