<?xml version="1.0" encoding="utf-8"?>
<!-- Generator: Adobe Illustrator 16.0.0, SVG Export Plug-In . SVG Version: 6.00 Build 0)  -->
<!DOCTYPE svg PUBLIC "-//W3C//DTD SVG 1.1//EN" "http://www.w3.org/Graphics/SVG/1.1/DTD/svg11.dtd">
<svg version="1.1" id="Layer_1" xmlns="http://www.w3.org/2000/svg" xmlns:xlink="http://www.w3.org/1999/xlink" x="0px" y="0px"
	 width="612px" height="792px" viewBox="0 0 612 792" enable-background="new 0 0 612 792" xml:space="preserve">
<g id="audi_copy">
	<polygon fill="#E50038" stroke="#E50038" stroke-width="3" stroke-miterlimit="10" points="190.299,700.982 190.299,623.144 
		157.786,623.144 157.786,700.982 	"/>
	<path fill="#E50038" stroke="#E50038" stroke-width="3" stroke-miterlimit="10" d="M18.748,668.47v-45.326h-31.365v34.808
		c0,9.945-0.382,12.623-0.956,15.3c-2.104,7.076-9.754,10.328-17.404,10.328c-10.71,0-15.683-4.208-17.786-10.71
		c-0.574-2.104-0.765-4.59-0.956-6.886c-0.191-2.677,0-5.354,0-8.415v-34.425h-31.748v45.518c0,10.137,3.442,17.786,8.989,22.95
		c9.563,9.371,25.627,12.049,40.545,12.049c18.168,0,31.938-2.678,41.884-12.24C14.922,686.256,18.748,679.754,18.748,668.47
		L18.748,668.47z"/>
	<path fill="#E50038" stroke="#E50038" stroke-width="3" stroke-miterlimit="10" d="M-137.121,662.35h-43.223l21.611-35.572
		L-137.121,662.35L-137.121,662.35z M-76.112,700.982l-71.528-107.291h-40.162l11.092,13.196l-62.921,94.286h36.146l10.71-17.786
		h68.276l11.092,17.786L-76.112,700.982L-76.112,700.982z"/>
	<path fill="#E50038" stroke="#E50038" stroke-width="3" stroke-miterlimit="10" d="M148.989,660.629
		c0-8.798-3.634-18.934-14.726-33.086L107.487,593.5H70.194l21.229,23.906c3.634,4.017,8.224,7.459,8.224,7.459
		c-5.164-3.061-11.667-4.208-16.83-4.208c-12.24,0-24.863,2.678-35.955,8.798c-11.857,6.502-19.89,17.403-19.89,31.938
		c0,11.093,4.973,19.699,11.284,26.201c14.344,14.344,40.354,15.683,49.917,15.683c14.152,0,36.146-3.251,48.769-14.535
		C144.016,682.24,148.989,673.061,148.989,660.629L148.989,660.629z M118.006,661.585c0,8.224-5.355,14.344-12.049,17.786
		c-5.546,3.061-12.049,3.825-17.978,3.825c-5.737,0-12.431-1.147-18.169-4.017c-6.693-3.442-11.857-9.944-11.857-17.021
		c0-8.606,6.502-15.301,14.344-18.743c4.781-2.104,10.519-3.06,15.109-3.06c4.399,0,10.71,0.573,15.683,2.678
		C112.078,646.668,118.006,653.936,118.006,661.585L118.006,661.585z"/>
	<g>
		<g>
			<path fill="#ADADAD" d="M179.397,337.799c-24.289,0-46.474,8.415-64.069,22.185c-17.595-13.961-39.971-22.185-64.068-22.185
				c-24.289,0-46.474,8.415-64.069,22.185c-17.595-13.961-39.971-22.185-64.069-22.185c-24.289,0-46.474,8.415-64.069,22.185
				c-17.595-13.961-39.971-22.185-64.069-22.185c-57.184,0-103.466,46.282-103.466,103.466c0,57.185,46.283,103.467,103.466,103.467
				c24.289,0,46.474-8.415,64.069-22.186c17.595,13.962,39.971,22.186,64.069,22.186c24.289,0,46.474-8.415,64.069-22.186
				c17.595,13.962,39.971,22.186,64.069,22.186c24.289,0,46.474-8.415,64.068-22.186c17.595,13.962,39.971,22.186,64.069,22.186
				c57.184,0,103.466-46.282,103.466-103.467C282.672,384.081,236.39,337.799,179.397,337.799z M-158.159,505.334
				c-13.196,9.563-29.644,15.491-47.239,15.491c-43.987,0-79.751-35.572-79.751-79.751c0-43.988,35.573-79.751,79.751-79.751
				c17.595,0,34.042,5.929,47.239,15.492c-13.961,17.595-22.376,39.971-22.376,64.26
				C-180.535,465.362-172.12,487.739-158.159,505.334z M-141.138,488.504c-9.753-13.196-15.682-29.644-15.682-47.43
				c0-17.787,5.737-34.043,15.682-47.431c9.754,13.196,15.683,29.644,15.683,47.431
				C-125.646,458.86-131.384,475.308-141.138,488.504z M-29.83,505.334c-13.196,9.754-29.644,15.491-47.239,15.491
				c-17.595,0-33.851-5.737-47.047-15.491c13.961-17.596,22.376-39.972,22.376-64.26c0-24.289-8.415-46.665-22.376-64.26
				c13.196-9.754,29.453-15.492,47.047-15.492c17.595,0,34.042,5.738,47.239,15.492c-13.961,17.595-22.376,39.971-22.376,64.26
				C-52.206,465.362-43.791,487.739-29.83,505.334z M-13,488.504c-9.754-13.196-15.683-29.644-15.683-47.43
				c0-17.787,5.738-34.043,15.683-47.431c9.754,13.196,15.683,29.644,15.683,47.431C2.683,458.86-3.246,475.308-13,488.504z
				 M98.308,505.334c-13.196,9.754-29.644,15.491-47.239,15.491c-17.595,0-33.851-5.737-47.047-15.491
				c13.961-17.596,22.376-39.972,22.376-64.26c0-24.289-8.415-46.665-22.376-64.26c13.196-9.754,29.452-15.492,47.047-15.492
				c17.786,0,34.042,5.738,47.239,15.492c-13.961,17.595-22.376,39.971-22.376,64.26C75.931,465.362,84.346,487.739,98.308,505.334z
				 M115.138,488.504c-9.754-13.196-15.683-29.644-15.683-47.43c0-17.787,5.737-34.043,15.683-47.431
				c9.753,13.196,15.682,29.644,15.682,47.431C130.82,458.86,125.083,475.308,115.138,488.504z M179.397,520.825
				c-17.595,0-34.042-5.929-47.239-15.491c13.961-17.596,22.376-39.972,22.376-64.26c0-24.289-8.415-46.665-22.376-64.26
				c13.196-9.563,29.644-15.492,47.239-15.492c43.987,0,79.751,35.572,79.751,79.752
				C258.958,485.253,223.385,520.825,179.397,520.825z"/>
		</g>
		<g>
			<path fill="none" stroke="#E0E0E0" stroke-width="3" stroke-miterlimit="3.8637" d="M179.397,337.799
				c-24.289,0-46.474,8.415-64.069,22.185c-17.595-13.961-39.971-22.185-64.068-22.185c-24.289,0-46.474,8.415-64.069,22.185
				c-17.595-13.961-39.971-22.185-64.069-22.185c-24.289,0-46.474,8.415-64.069,22.185c-17.595-13.961-39.971-22.185-64.069-22.185
				c-57.184,0-103.466,46.282-103.466,103.466c0,57.185,46.283,103.467,103.466,103.467c24.289,0,46.474-8.415,64.069-22.186
				c17.595,13.962,39.971,22.186,64.069,22.186c24.289,0,46.474-8.415,64.069-22.186c17.595,13.962,39.971,22.186,64.069,22.186
				c24.289,0,46.474-8.415,64.068-22.186c17.595,13.962,39.971,22.186,64.069,22.186c57.184,0,103.466-46.282,103.466-103.467
				C282.672,384.081,236.39,337.799,179.397,337.799z M-158.159,505.334c-13.196,9.563-29.644,15.491-47.239,15.491
				c-43.987,0-79.751-35.572-79.751-79.751c0-43.988,35.573-79.751,79.751-79.751c17.595,0,34.042,5.929,47.239,15.492
				c-13.961,17.595-22.376,39.971-22.376,64.26C-180.535,465.362-172.12,487.739-158.159,505.334z M-141.138,488.504
				c-9.753-13.196-15.682-29.644-15.682-47.43c0-17.787,5.737-34.043,15.682-47.431c9.754,13.196,15.683,29.644,15.683,47.431
				C-125.646,458.86-131.384,475.308-141.138,488.504z M-29.83,505.334c-13.196,9.754-29.644,15.491-47.239,15.491
				c-17.595,0-33.851-5.737-47.047-15.491c13.961-17.596,22.376-39.972,22.376-64.26c0-24.289-8.415-46.665-22.376-64.26
				c13.196-9.754,29.453-15.492,47.047-15.492c17.595,0,34.042,5.738,47.239,15.492c-13.961,17.595-22.376,39.971-22.376,64.26
				C-52.206,465.362-43.791,487.739-29.83,505.334z M-13,488.504c-9.754-13.196-15.683-29.644-15.683-47.43
				c0-17.787,5.738-34.043,15.683-47.431c9.754,13.196,15.683,29.644,15.683,47.431C2.683,458.86-3.246,475.308-13,488.504z
				 M98.308,505.334c-13.196,9.754-29.644,15.491-47.239,15.491c-17.595,0-33.851-5.737-47.047-15.491
				c13.961-17.596,22.376-39.972,22.376-64.26c0-24.289-8.415-46.665-22.376-64.26c13.196-9.754,29.452-15.492,47.047-15.492
				c17.786,0,34.042,5.738,47.239,15.492c-13.961,17.595-22.376,39.971-22.376,64.26C75.931,465.362,84.346,487.739,98.308,505.334z
				 M115.138,488.504c-9.754-13.196-15.683-29.644-15.683-47.43c0-17.787,5.737-34.043,15.683-47.431
				c9.753,13.196,15.682,29.644,15.682,47.431C130.82,458.86,125.083,475.308,115.138,488.504z M179.397,520.825
				c-17.595,0-34.042-5.929-47.239-15.491c13.961-17.596,22.376-39.972,22.376-64.26c0-24.289-8.415-46.665-22.376-64.26
				c13.196-9.563,29.644-15.492,47.239-15.492c43.987,0,79.751,35.572,79.751,79.752
				C258.958,485.253,223.385,520.825,179.397,520.825z"/>
		</g>
	</g>
</g>
</svg>
