<?xml version="1.0" encoding="utf-8"?>
<!-- Generator: Adobe Illustrator 16.0.0, SVG Export Plug-In . SVG Version: 6.00 Build 0)  -->
<!DOCTYPE svg PUBLIC "-//W3C//DTD SVG 1.1//EN" "http://www.w3.org/Graphics/SVG/1.1/DTD/svg11.dtd">
<svg version="1.1" xmlns="http://www.w3.org/2000/svg" xmlns:xlink="http://www.w3.org/1999/xlink" x="0px" y="0px" width="612px"
	 height="792px" viewBox="0 0 612 792" enable-background="new 0 0 612 792" xml:space="preserve">
<g id="Layer_1">
	<g id="alfa_romeo_copy">
		<path fill="#0167AE" stroke="#999999" stroke-width="3" stroke-miterlimit="3.8637" d="M308.869,139.725
			c-142.099,0-257.423,115.324-257.423,257.422S166.579,654.57,308.678,654.57c142.099,0,257.422-115.324,257.422-257.423
			S450.968,139.725,308.869,139.725z"/>
		
			<ellipse fill="#999999" stroke="#FFFFFF" stroke-width="3" stroke-miterlimit="3.8637" cx="308.869" cy="397.147" rx="164.475" ry="164.475"/>
		<path fill="#FFFFFF" d="M269.089,319.691c2.869,0,5.546-1.147,7.458-3.06c0.765-0.765,2.295-1.339,3.251-1.339
			c1.147,0,1.53,0.574,1.53,1.721c0,6.694-1.721,20.272-4.781,21.994c0,0,0,0-0.191,0c-0.191,0-0.383,0-0.574,0
			c-0.191,0-0.574,0-0.765,0c-0.191,0-0.574,0-0.765,0c-2.869,0.957-4.59,4.017-5.546,5.738l-0.574,1.147l0.957,0.191
			c1.721,0.382,3.251,0.574,4.972,0.574c4.017,0,7.65-1.339,10.519-4.208c2.677-2.678,4.398-6.312,6.311-10.519
			c2.678-5.929,5.929-13.387,13.77-20.846l0.574-0.574l-0.574-0.574c-7.841-7.458-11.092-14.917-13.77-20.846
			c-1.913-4.208-3.442-7.841-6.311-10.519c-2.869-2.677-6.502-4.207-10.519-4.207c-1.53,0-3.251,0.191-4.972,0.574l-0.957,0.191
			l0.574,1.147c0.957,1.722,2.486,4.781,5.546,5.738c0.191,0,0.382,0.191,0.765,0.191c0.191,0,0.574,0,0.765,0
			c0.191,0,0.383,0,0.574,0c0.191,0,0.191,0,0.191,0c3.251,1.913,4.781,15.3,4.781,21.994c0,1.147-0.574,1.721-1.53,1.721
			c-0.957,0-2.486-0.574-3.251-1.339c-1.913-2.104-4.59-3.251-7.458-3.251c-4.781,0-9.754,3.251-9.945,8.606v1.147
			C259.335,316.44,264.308,319.691,269.089,319.691z"/>
		<path fill="#D50A17" stroke="#FFFFFF" stroke-width="3" stroke-miterlimit="3.8637" d="M292.421,400.398
			c0-8.606,2.104-16.83,5.737-23.906h-58.14V248.355c-14.726,6.885-28.305,15.874-40.354,26.584v101.362h-53.359
			c-0.956,6.885-1.339,13.77-1.339,20.846c0,6.693,0.383,13.196,1.148,19.508h53.55v102.701
			c12.049,10.71,25.627,19.698,40.354,26.584V416.655h54.889C293.377,411.491,292.421,406.137,292.421,400.398z"/>
		
			<path fill="#10A04E" stroke="#FFFFFF" stroke-width="3" stroke-linecap="round" stroke-linejoin="round" stroke-miterlimit="3.8637" d="
			M383.647,402.885c23.333,0,42.075,18.934,42.075,42.075c0,23.333-18.742,42.075-42.075,42.075h-48.769
			c-1.722,0-3.061,1.339-3.061,3.06c0,1.722,1.339,3.061,3.252,3.061h0.191h30.217h-0.191c15.109,0,27.35,12.239,27.35,27.349
			c0,7.65-3.252,14.727-8.415,19.698c0,0-0.957,1.147-3.443,3.061c-1.912,1.339-4.016,2.295-5.929,3.442
			c-4.398,1.912-8.988,3.825-13.578,5.355c4.781-2.869,9.371-8.033,9.371-15.492c0-8.797-7.268-16.447-16.256-16.447h-1.53H336.6
			h-0.382c-17.786,0-33.086-15.491-33.086-33.851c0-17.978,15.109-33.852,33.086-33.852c0,0,44.561,0,47.813,0
			c1.721,0,3.06-1.339,3.06-3.061c0-1.721-1.339-3.06-3.06-3.06c-3.252,0-45.9,0-45.9,0c-25.437,0-46.091-20.655-46.091-46.092
			c0-25.436,20.655-46.091,46.091-46.091h0.383h39.971c5.547,0,9.945-4.973,9.945-10.519c0-5.546-4.398-9.945-9.945-9.945h-1.721
			h-72.102c5.164-15.874,17.595-19.699,17.595-19.699h39.207c1.912,0,3.442-1.53,3.442-3.442s-1.53-3.442-3.442-3.442h-39.207
			c0,0-11.092-5.929-16.064-17.595h28.688c11.666,0,9.754-5.737,15.3-10.71c1.912-1.721,5.164-3.442,10.901-3.442h20.464
			c7.649,0,13.961-5.546,15.108-12.814h0.191c26.584,9.563,45.518,34.999,45.518,64.834c0,38.059-30.791,68.85-68.85,68.85h-36.721
			c-1.721,0-3.06,1.339-3.06,3.06c0,1.722,1.339,3.061,3.06,3.061L383.647,402.885"/>
		<path fill="#FFFFFF" d="M405.45,193.657c-3.634-5.354-9.563-9.753-16.639-12.24c-4.017-1.53-8.224-2.295-12.432-2.295
			c-10.519,0-18.551,5.164-21.42,13.579c-4.207,12.24,3.825,25.054,19.316,30.6c4.207,1.53,8.415,2.295,12.431,2.295l0,0
			c10.328,0,18.36-5.164,21.421-13.77C410.231,205.706,409.275,199.204,405.45,193.657z M396.652,207.619
			c-1.721,4.781-5.737,7.459-11.475,7.459c-2.486,0-4.973-0.574-7.65-1.53c-9.18-3.251-13.578-9.753-11.093-16.83
			c1.53-4.781,5.738-7.268,11.284-7.268c2.486,0,4.973,0.382,7.65,1.53C394.549,194.231,398.947,200.734,396.652,207.619z"/>
		<path fill="#FFFFFF" d="M474.683,238.601l-25.628,5.738l3.061-26.775l-11.857-10.901v0.956c-0.191,1.913-0.766,3.634-1.913,4.781
			l-26.201,25.437l8.798,8.224l19.125-18.551l-3.825,30.026l0.765,0.765l28.879-6.693l-15.873,21.611l8.797,8.224l25.437-33.66
			L474.683,238.601z"/>
		<path fill="#FFFFFF" d="M328.185,196.718c4.591-2.486,7.077-7.077,7.077-13.005c0-9.371-6.503-15.874-16.065-15.874l-36.337,0.382
			l0.574,0.765c0.956,1.147,1.721,2.869,1.913,4.398l0.382,36.912l11.857-0.191l-0.191-11.475l17.595-0.191l8.033,11.284
			l13.388-0.191l-9.372-12.431L328.185,196.718z M318.049,188.876l-20.655,0.191v-11.284l20.847-0.191
			c3.251,0,5.354,2.295,5.354,5.737C323.403,186.581,321.491,188.685,318.049,188.876z"/>
		<path fill="#FFFFFF" d="M184.748,203.794l0.765,0.382c1.147,0.574,2.104,1.913,2.486,3.442v0.191l0.765,42.075l10.519-6.12
			l-0.191-8.224l22.567-13.005l6.885,4.399l10.519-6.12l-39.397-25.436L184.748,203.794z M198.709,224.449l-0.383-17.021
			l14.152,9.18L198.709,224.449z"/>
		<path fill="#FFFFFF" d="M80.899,372.285c0.574-0.191,1.338-0.383,1.912-0.383c0.765,0,1.722,0.191,2.295,0.574l0.191,0.191
			l33.278,25.627l1.912-12.049l-6.693-4.972l3.825-25.627l7.841-2.678l1.721-11.857L82.62,356.029l-2.678,16.639L80.899,372.285z
			 M107.482,358.897l-2.486,15.683l-13.579-10.328L107.482,358.897z"/>
		<path fill="#FFFFFF" d="M480.037,299.228l5.738-3.251l10.9,21.038l8.415-4.59l-10.9-21.038l5.546-3.06l15.683,30.218l8.415-4.59
			l-22.377-43.031l-0.382,0.957c-0.766,1.912-2.295,3.251-3.442,3.825l-31.557,17.021l21.994,42.458l8.224-4.59L480.037,299.228z"/>
		<path fill="#FFFFFF" d="M514.271,341.303c-1.147,0-2.104,0.191-3.252,0.191c-12.431,2.104-19.507,15.683-16.829,31.939
			c2.485,14.917,11.666,25.054,22.949,25.054c1.147,0,2.295,0,3.252-0.191c12.431-2.104,19.507-15.683,16.639-32.13
			C534.735,351.63,525.363,341.303,514.271,341.303z M518.479,386.055c-0.573,0.191-1.339,0.191-1.912,0.191
			c-6.12,0-10.901-5.546-12.432-14.344c-1.529-9.753,1.913-16.83,8.989-17.978c0.573-0.191,1.147-0.191,1.912-0.191
			c6.12,0,10.901,5.546,12.432,14.152C528.997,377.831,525.555,384.908,518.479,386.055z"/>
		<path fill="#FFFFFF" d="M142.099,289.091l-13.961,27.731L99.45,301.905l-6.503,13.196l0.957-0.191
			c0.574-0.191,1.147-0.191,1.913-0.191c1.147,0,2.295,0.191,3.06,0.574l32.512,17.021l19.508-38.633L142.099,289.091z"/>
		<path fill="#FFFFFF" d="M165.431,243.191l-15.874,17.212l-6.694-6.502l22.95-24.863l-6.885-6.694l-32.895,35.764h0.957
			c1.53,0.191,3.251,0.765,4.398,1.53l0,0l26.393,25.437l8.224-8.798l-9.563-9.18l15.874-17.404L165.431,243.191z"/>
		<path fill="#FFFFFF" d="M299.306,272.644c-2.104,0-3.825-1.721-3.825-3.825c0-2.104,1.721-3.825,3.825-3.825l38.441-0.191
			c2.104,0,3.825,1.721,3.825,3.825c0,2.104-1.721,3.825-3.825,3.825L299.306,272.644z"/>
		<path fill="#FFFFFF" d="M336.218,261.36c-2.869,0-5.164-2.295-5.355-5.164c0-2.869,2.295-5.164,5.164-5.164
			c2.868,0,5.354,2.295,5.354,5.164S339.086,261.36,336.218,261.36z"/>
		<path fill="#FFFFFF" d="M318.622,261.36c-2.868,0-5.163-2.295-5.163-5.164s2.295-5.164,5.163-5.355
			c2.869,0,5.164,2.295,5.355,5.164C323.786,259.065,321.491,261.36,318.622,261.36z"/>
		<path fill="#FFFFFF" d="M300.645,261.551c-2.869,0-5.164-2.295-5.164-5.164c0-2.869,2.295-5.164,5.164-5.355
			c2.869,0,5.164,2.295,5.355,5.164C305.809,259.256,303.514,261.551,300.645,261.551z"/>
	</g>
</g>
<g id="Layer_2">
	<g id="alfa_romeo_copy_1_">
		<path fill="#230061" stroke="#C39917" stroke-width="3" stroke-miterlimit="3.8637" d="M308.869,139.725
			c-142.099,0-257.423,115.324-257.423,257.422S166.579,654.57,308.678,654.57c142.099,0,257.422-115.324,257.422-257.423
			S450.968,139.725,308.869,139.725z"/>
		
			<ellipse fill="#999999" stroke="#C39917" stroke-width="3" stroke-miterlimit="3.8637" cx="308.869" cy="397.147" rx="188.737" ry="188.737"/>
		<path fill="#FFFFFF" stroke="#C39917" stroke-miterlimit="10" d="M269.089,319.691c2.869,0,5.546-1.147,7.458-3.06
			c0.765-0.765,2.295-1.339,3.251-1.339c1.147,0,1.53,0.574,1.53,1.721c0,6.694-1.721,20.272-4.781,21.994c0,0,0,0-0.191,0
			c-0.191,0-0.383,0-0.574,0c-0.191,0-0.574,0-0.765,0c-0.191,0-0.574,0-0.765,0c-2.869,0.957-4.59,4.017-5.546,5.738l-0.574,1.147
			l0.957,0.191c1.721,0.382,3.251,0.574,4.972,0.574c4.017,0,7.65-1.339,10.519-4.208c2.677-2.678,4.398-6.312,6.311-10.519
			c2.678-5.929,5.929-13.387,13.77-20.846l0.574-0.574l-0.574-0.574c-7.841-7.458-11.092-14.917-13.77-20.846
			c-1.913-4.208-3.442-7.841-6.311-10.519c-2.869-2.677-6.502-4.207-10.519-4.207c-1.53,0-3.251,0.191-4.972,0.574l-0.957,0.191
			l0.574,1.147c0.957,1.722,2.486,4.781,5.546,5.738c0.191,0,0.382,0.191,0.765,0.191c0.191,0,0.574,0,0.765,0
			c0.191,0,0.383,0,0.574,0c0.191,0,0.191,0,0.191,0c3.251,1.913,4.781,15.3,4.781,21.994c0,1.147-0.574,1.721-1.53,1.721
			c-0.957,0-2.486-0.574-3.251-1.339c-1.913-2.104-4.59-3.251-7.458-3.251c-4.781,0-9.754,3.251-9.945,8.606v1.147
			C259.335,316.44,264.308,319.691,269.089,319.691z"/>
		<path fill="#D50A17" stroke="#C39917" stroke-width="3" stroke-miterlimit="3.8637" d="M292.421,400.398
			c0-8.606,2.104-16.83,5.737-23.906h-58.14V248.355c-14.726,6.885-28.305,15.874-40.354,26.584v101.362h-53.359
			c-0.956,6.885-1.339,13.77-1.339,20.846c0,6.693,0.383,13.196,1.148,19.508h53.55v102.701
			c12.049,10.71,25.627,19.698,40.354,26.584V416.655h54.889C293.377,411.491,292.421,406.137,292.421,400.398z"/>
		
			<path fill="#10A04E" stroke="#C39917" stroke-width="3" stroke-linecap="round" stroke-linejoin="round" stroke-miterlimit="3.8637" d="
			M383.647,402.885c23.333,0,42.075,18.934,42.075,42.075c0,23.333-18.742,42.075-42.075,42.075h-48.769
			c-1.722,0-3.061,1.339-3.061,3.06c0,1.722,1.339,3.061,3.252,3.061h0.191h30.217h-0.191c15.109,0,27.35,12.239,27.35,27.349
			c0,7.65-3.252,14.727-8.415,19.698c0,0-0.957,1.147-3.443,3.061c-1.912,1.339-4.016,2.295-5.929,3.442
			c-4.398,1.912-8.988,3.825-13.578,5.355c4.781-2.869,9.371-8.033,9.371-15.492c0-8.797-7.268-16.447-16.256-16.447h-1.53H336.6
			h-0.382c-17.786,0-33.086-15.491-33.086-33.851c0-17.978,15.109-33.852,33.086-33.852c0,0,44.561,0,47.813,0
			c1.721,0,3.06-1.339,3.06-3.061c0-1.721-1.339-3.06-3.06-3.06c-3.252,0-45.9,0-45.9,0c-25.437,0-46.091-20.655-46.091-46.092
			c0-25.436,20.655-46.091,46.091-46.091h0.383h39.971c5.547,0,9.945-4.973,9.945-10.519c0-5.546-4.398-9.945-9.945-9.945h-1.721
			h-72.102c5.164-15.874,17.595-19.699,17.595-19.699h39.207c1.912,0,3.442-1.53,3.442-3.442s-1.53-3.442-3.442-3.442h-39.207
			c0,0-11.092-5.929-16.064-17.595h28.688c11.666,0,9.754-5.737,15.3-10.71c1.912-1.721,5.164-3.442,10.901-3.442h20.464
			c7.649,0,13.961-5.546,15.108-12.814h0.191c26.584,9.563,45.518,34.999,45.518,64.834c0,38.059-30.791,68.85-68.85,68.85h-36.721
			c-1.721,0-3.06,1.339-3.06,3.06c0,1.722,1.339,3.061,3.06,3.061L383.647,402.885"/>
		<path fill="#FFFFFF" stroke="#C39917" stroke-miterlimit="10" d="M299.306,272.644c-2.104,0-3.825-1.721-3.825-3.825
			c0-2.104,1.721-3.825,3.825-3.825l38.441-0.191c2.104,0,3.825,1.721,3.825,3.825c0,2.104-1.721,3.825-3.825,3.825L299.306,272.644
			z"/>
		<path fill="#FFFFFF" stroke="#C39917" stroke-miterlimit="10" d="M336.218,261.36c-2.869,0-5.164-2.295-5.355-5.164
			c0-2.869,2.295-5.164,5.164-5.164c2.868,0,5.354,2.295,5.354,5.164S339.086,261.36,336.218,261.36z"/>
		<path fill="#FFFFFF" stroke="#C39917" stroke-miterlimit="10" d="M318.622,261.36c-2.868,0-5.163-2.295-5.163-5.164
			s2.295-5.164,5.163-5.355c2.869,0,5.164,2.295,5.355,5.164C323.786,259.065,321.491,261.36,318.622,261.36z"/>
		<path fill="#FFFFFF" stroke="#C39917" stroke-miterlimit="10" d="M300.645,261.551c-2.869,0-5.164-2.295-5.164-5.164
			c0-2.869,2.295-5.164,5.164-5.355c2.869,0,5.164,2.295,5.355,5.164C305.809,259.256,303.514,261.551,300.645,261.551z"/>
	</g>
	<path fill="#999917" d="M61.773,777.204h12.485l-17.932-57.308H31.31l-17.932,57.308h12.099l5.536-19.543h25.224L61.773,777.204z
		 M40.245,729.281h6.759l5.421,16.913h-17.6L40.245,729.281z"/>
	<polygon fill="#999917" points="92.947,766.167 92.947,719.896 79.942,719.896 79.942,766.167 79.942,777.204 92.947,777.204 
		120.131,777.204 120.131,766.167 	"/>
	<polygon fill="#999917" points="166.169,730.934 166.169,719.896 138.986,719.896 125.981,719.896 125.981,730.934 
		125.981,777.204 138.986,777.204 138.986,755.521 159.81,755.521 159.81,744.917 138.986,744.917 138.986,730.934 	"/>
	<path fill="#999917" d="M211.89,777.204h12.485l-17.932-57.308h-25.017l-17.932,57.308h12.099l5.536-19.543h25.224L211.89,777.204z
		 M190.362,729.281h6.759l5.421,16.913h-17.6L190.362,729.281z"/>
	<rect x="233.81" y="739.614" fill="#999917" width="23" height="10.604"/>
	<path fill="#999917" d="M315.139,777.635l-13.421-23.243c7.448-2.501,12.777-8.979,12.777-16.591
		c0-9.775-8.49-17.904-19.278-17.904h-12.12h-13.005v11.037v46.271h13.005v-21.684l6.663-0.006l12.773,22.12H315.139z
		 M283.097,730.934l11.144-0.001c3.978,0,7.175,3.13,7.175,6.991s-3.375,6.992-7.352,6.992l-10.967,0.001V730.934z"/>
	<path fill="#999917" d="M348.827,719.896c-17.121,0-31,12.829-31,28.654c0,15.824,13.879,28.653,31,28.653s31-12.829,31-28.653
		C379.827,732.726,365.948,719.896,348.827,719.896z M348.827,766.846c-10.931,0-19.791-8.191-19.791-18.295
		s8.86-18.295,19.791-18.295c10.93,0,19.791,8.191,19.791,18.295S359.757,766.846,348.827,766.846z"/>
	<polygon fill="#999917" points="429.567,719.896 414.758,748.326 399.947,719.896 386.942,719.896 386.942,766.167 
		386.942,777.204 399.947,777.204 399.947,744.818 414.758,773.2 429.567,744.819 429.567,766.167 429.567,777.204 442.572,777.204 
		442.572,719.896 	"/>
	<polygon fill="#999917" points="490.17,730.934 490.17,719.896 462.986,719.896 449.98,719.896 449.98,730.934 449.98,777.204 
		453.145,777.204 462.986,777.204 490.17,777.204 490.17,766.601 462.986,766.601 462.986,753.519 483.811,753.519 483.811,742.915 
		462.986,742.915 462.986,730.934 	"/>
	<path fill="#999917" d="M524.444,719.896c-17.121,0-31,12.829-31,28.654c0,15.824,13.879,28.653,31,28.653s31-12.829,31-28.653
		C555.444,732.726,541.565,719.896,524.444,719.896z M524.444,766.846c-10.931,0-19.791-8.191-19.791-18.295
		s8.86-18.295,19.791-18.295c10.93,0,19.791,8.191,19.791,18.295S535.374,766.846,524.444,766.846z"/>
	<polygon fill="#999917" points="88.655,28.815 73.845,57.245 59.035,28.815 46.03,28.815 46.03,75.085 46.03,86.123 59.035,86.123 
		59.035,53.737 73.845,82.119 88.655,53.738 88.655,75.085 88.655,86.123 101.66,86.123 101.66,28.815 	"/>
	<polygon fill="#999917" points="123.625,75.085 123.625,28.815 110.621,28.815 110.621,75.085 110.621,86.123 123.625,86.123 	"/>
	<polygon fill="#999917" points="146.3,75.085 146.3,28.815 133.295,28.815 133.295,75.085 133.295,86.123 146.3,86.123 
		173.483,86.123 173.483,75.085 	"/>
	<path fill="#999917" d="M225.975,86.123h12.486l-17.932-57.308h-25.018l-17.931,57.308h12.099l5.535-19.543h25.225L225.975,86.123z
		 M204.447,38.2h6.76l5.42,16.913h-17.6L204.447,38.2z"/>
	<polygon fill="#999917" points="281.724,28.815 281.724,65.496 257.108,28.815 244.104,28.815 244.104,75.085 244.104,86.123 
		257.108,86.123 257.108,51.735 281.724,86.123 294.729,86.123 294.729,28.815 	"/>
	<path fill="#999917" d="M329.478,28.815c-17.121,0-31,12.829-31,28.654c0,15.824,13.879,28.653,31,28.653s31-12.829,31-28.653
		C360.478,41.644,346.599,28.815,329.478,28.815z M329.478,75.764c-10.931,0-19.791-8.191-19.791-18.295s8.86-18.295,19.791-18.295
		c10.93,0,19.791,8.191,19.791,18.295S340.407,75.764,329.478,75.764z"/>
	<path fill="none" stroke="#999917" stroke-miterlimit="3.8637" d="M475.918,69.41"/>
	<path fill="none" stroke="#C39917" stroke-width="10" stroke-miterlimit="3.8637" d="M560.869,103.739
		c0,0-23.316,1.94-46.278-5.977c-9.69-3.343-10.777-4.124-15.976-7.168l0,0c-36.313-18.983-47.918-9.55-50.655,1.734
		c-2.824,11.647,6.433,19.265,12.864,20.255c9.105,1.401,22.104-5.259,36.781-14.536l0,0c14.676-9.277,25.174-15.927,36.78-14.535
		c6.462,0.775,15.561,8.438,12.864,20.256c-2.582,11.319-14.341,20.716-50.655,1.733l0,0c-5.196-3.045-6.284-3.826-15.976-7.168
		c-22.961-7.917-46.278-5.977-46.278-5.977"/>
</g>
</svg>
