<?xml version="1.0" encoding="utf-8"?>
<!-- Generator: Adobe Illustrator 19.1.1, SVG Export Plug-In . SVG Version: 6.00 Build 0)  -->
<svg version="1.1" id="Layer_1" xmlns="http://www.w3.org/2000/svg" xmlns:xlink="http://www.w3.org/1999/xlink" x="0px" y="0px"
	 viewBox="-319 121 320 320" style="enable-background:new -319 121 320 320;" xml:space="preserve">
<g id="bmw">
	<path style="fill:none;stroke:#5F686B;stroke-width:3;stroke-miterlimit:3.8637;" d="M-23.7,281c0-74.7-60.6-135.3-135.3-135.3
		S-294.3,206.3-294.3,281s60.6,135.2,135.3,135.2S-23.7,355.7-23.7,281L-23.7,281z"/>
	<path style="fill:none;stroke:#5F686B;stroke-width:3;stroke-miterlimit:3.8637;" d="M-216.1,206.8c-0.5-3.5-2.6-6.5-5.9-8
		s-7.1-0.9-9.9,1.1c-0.2,0.2-0.5,0.4-0.7,0.5c0.5-1.6,0.6-3.3,0.2-4.9c-0.4-1.6-1.3-3.1-2.5-4.3c-2.4-2.4-6.2-3.2-9.4-2
		c-1.5,0.6-2.9,1.5-3.9,2.8c-0.6,0.7-1.1,1.4-1.7,2.1c-3,3.7-6,7.5-9,11.2c-2.6,3.2-5.1,6.4-7.7,9.6c-0.2,0.2-0.3,0.4-0.5,0.6
		c0,0,0.3,0.3,0.4,0.3c1,0.8,2,1.6,3,2.4c3.8,3,7.5,6,11.3,9c3.7,3,7.5,6,11.2,9c1,0.8,1.9,1.5,2.9,2.3c0,0,0.3,0.3,0.3,0.2
		c0.2-0.2,0.4-0.5,0.6-0.7c2.6-3.2,5.1-6.4,7.7-9.6c3.1-3.8,6.1-7.7,9.2-11.5c1.6-2,3.3-3.8,4.1-6.3
		C-216.1,209.5-216,208.1-216.1,206.8L-216.1,206.8L-216.1,206.8z M-249.2,217.6c-1.6-1.2-3.1-2.5-4.7-3.7c-0.6-0.5-1.2-0.9-1.8-1.4
		c0,0,0.6-0.8,0.7-0.8c2.9-3.6,5.8-7.2,8.7-10.8c0.8-1,1.4-2,2.6-2.5c1.6-0.7,3.5-0.2,4.6,1c0.9,1,1.2,2.4,0.9,3.8
		c-0.3,1.2-1.2,2.1-2,3c-1.5,1.9-3,3.8-4.6,5.7C-246.1,213.8-247.6,215.7-249.2,217.6L-249.2,217.6L-249.2,217.6z M-226.2,213.2
		c-1,1.2-2,2.5-2.9,3.7c-2.7,3.4-5.4,6.7-8.1,10.1l-0.1,0.1c-0.1-0.1-0.3-0.2-0.4-0.3c-0.7-0.6-1.5-1.2-2.2-1.8
		c-1.3-1-2.5-2-3.8-3.1c2.4-3.1,4.9-6.1,7.3-9.2c1.2-1.5,2.4-3,3.6-4.5c0.9-1.1,1.9-1.8,3.3-1.9c1.7-0.1,3.2,0.9,3.9,2.4
		C-225,210.3-225.2,211.9-226.2,213.2L-226.2,213.2z"/>
	<path style="fill:none;stroke:#5F686B;stroke-width:3;stroke-miterlimit:3.8637;" d="M-81,281c0-43.1-34.9-78-78-78s-78,34.9-78,78
		s34.9,78,78,78S-81,324.1-81,281L-81,281z"/>
	<polygon style="fill:none;stroke:#5F686B;stroke-width:3;stroke-miterlimit:3.8637;" points="-71,190.7 -77.9,184.3 -100.2,213.7 
		-93.3,220 -68.8,208.8 -85.2,230.2 -80.4,238.3 -46.9,223 -51.7,214.9 -71,223.7 -57.2,205.7 -63.3,198.2 -83.9,207.6 	"/>
	<polygon style="fill:none;stroke:#5F686B;stroke-width:3;stroke-miterlimit:3.8637;" points="-171.1,168.3 -162.4,193 -155.6,193 
		-146.9,168.3 -145.9,193 -136.3,194.4 -137.7,157.3 -150.1,155.9 -159,182 -167.9,155.9 -180.3,157.3 -181.7,194.4 -172.1,193 	"/>
	<line style="fill:none;stroke:#5F686B;stroke-width:3;stroke-miterlimit:3.8637;" x1="-81" y1="281.5" x2="-237" y2="281.5"/>
	<line style="fill:none;stroke:#5F686B;stroke-width:3;stroke-miterlimit:3.8637;" x1="-159.5" y1="203" x2="-159.5" y2="359"/>
</g>
</svg>
