<?xml version="1.0" encoding="utf-8"?>
<!-- Generator: Adobe Illustrator 16.0.0, SVG Export Plug-In . SVG Version: 6.00 Build 0)  -->
<!DOCTYPE svg PUBLIC "-//W3C//DTD SVG 1.1//EN" "http://www.w3.org/Graphics/SVG/1.1/DTD/svg11.dtd">
<svg version="1.1" id="Layer_1" xmlns="http://www.w3.org/2000/svg" xmlns:xlink="http://www.w3.org/1999/xlink" x="0px" y="0px"
	 width="612px" height="792px" viewBox="0 0 612 792" enable-background="new 0 0 612 792" xml:space="preserve">
<g id="Layer_2">
	<g id="alfa_romeo_copy_1_">
		<g>
			<path fill="#230061" stroke="#D3A12A" stroke-width="3" stroke-miterlimit="10" d="M308.869,139.725
				c-142.099,0-257.423,115.324-257.423,257.422c0,142.098,115.133,257.423,257.232,257.423
				c142.102,0,257.422-115.324,257.422-257.423C566.1,255.048,450.968,139.725,308.869,139.725z"/>
			<path display="none" fill="#D3BD2A" stroke="#000000" stroke-miterlimit="10" d="M308.678,656.07
				c-69.114,0-134.092-26.942-182.964-75.864c-48.859-48.91-75.768-113.922-75.768-183.06
				c0-142.771,116.152-258.921,258.923-258.921c69.114,0,134.092,26.942,182.964,75.864C540.691,262.998,567.6,328.01,567.6,397.147
				C567.6,539.918,451.447,656.07,308.678,656.07z M308.869,141.225c-141.117,0-255.923,114.806-255.923,255.922
				c0,141.114,114.721,255.923,255.732,255.923c141.116,0,255.922-114.809,255.922-255.923
				C564.6,256.031,449.879,141.225,308.869,141.225z"/>
		</g>
		<g>
			
				<ellipse fill="#FFFFFF" stroke="#000000" stroke-width="3" stroke-miterlimit="10" cx="308.869" cy="397.147" rx="188.737" ry="188.737"/>
			<path display="none" fill="#FFFFFF" stroke="#FFB41C" stroke-miterlimit="10" d="M308.869,587.384
				c-104.897,0-190.237-85.34-190.237-190.234c0-104.897,85.34-190.237,190.237-190.237c104.896,0,190.237,85.34,190.237,190.237
				C499.106,502.044,413.767,587.384,308.869,587.384z M308.869,209.91c-103.243,0-187.237,83.994-187.237,187.237
				c0,103.24,83.994,187.234,187.237,187.234s187.237-83.994,187.237-187.234C496.106,293.904,412.112,209.91,308.869,209.91z"/>
		</g>
		<g>
			<path fill="#871700" stroke="#000000" stroke-width="3" stroke-miterlimit="10" d="M313.662,400.879
				c0-9.879,2.438-19.319,6.653-27.44h-90.439V226.354c-17.077,7.903-32.824,18.222-46.797,30.515v116.35h-61.877
				c-1.108,7.903-1.553,15.806-1.553,23.929c0,7.682,0.444,15.146,1.331,22.393h62.099v117.886
				c13.973,12.294,29.719,22.61,46.797,30.518V419.54h86.67C314.771,413.612,313.662,407.466,313.662,400.879z"/>
			<path display="none" fill="#D3BD2A" stroke="#000000" stroke-miterlimit="10" d="M231.615,570.646l-2.477-1.146
				c-17.114-7.921-33-18.279-47.215-30.787l-0.584-0.514V421.262h-61.9l-0.186-1.515c-0.893-7.287-1.344-14.891-1.344-22.602
				c0-8.729,0.514-16.636,1.569-24.166l0.208-1.484h61.652v-115.4l0.584-0.514c14.218-12.51,30.104-22.867,47.215-30.787
				l2.477-1.146v148.067h91.549l-1.301,2.508c-4.229,8.148-6.461,17.365-6.461,26.654c0,5.909,0.919,11.854,2.811,18.172
				l0.662,2.211h-87.26L231.615,570.646L231.615,570.646z M184.819,536.65c13.124,11.455,27.682,21.054,43.316,28.563V417.818
				h86.114c-1.564-5.829-2.327-11.394-2.327-16.939c0-8.893,1.938-17.726,5.618-25.719h-89.405V229.082
				c-15.632,7.507-30.19,17.106-43.316,28.563V374.94h-62.094c-0.899,6.927-1.337,14.209-1.337,22.208
				c0,7.036,0.384,13.982,1.141,20.671h62.29V536.65L184.819,536.65z"/>
		</g>
		<g>
			<path fill="#629AFF" stroke="#000000" stroke-width="3" stroke-miterlimit="10" d="M308.869,208.41
				c104.236,0,188.737,84.5,188.737,188.737c0,104.234-84.501,188.734-188.737,188.734"/>
			<path display="none" fill="#FFFFFF" stroke="#FFB41C" stroke-miterlimit="10" d="M308.869,206.91
				c104.896,0,190.237,85.34,190.237,190.237c0,104.896-85.342,190.234-190.237,190.234 M308.869,584.384
				c103.243,0,187.237-83.994,187.237-187.234c0-103.245-83.994-187.237-187.237-187.237"/>
		</g>
		<path fill="#FA9A2C" stroke="#000000" stroke-width="3" stroke-miterlimit="10" d="M333.392,312.5v24.879
			c-1.381-4.881-5.678-8.443-10.769-8.443c-6.209,0-11.242,5.29-11.242,11.816c0,6.525,5.033,11.815,11.242,11.815
			c5.091,0,9.388-3.562,10.769-8.443v23.042c0,1.483,1.146,2.687,2.559,2.687c1.411,0,2.556-1.203,2.556-2.687V351.59
			c0.219,0.029,0.439,0.049,0.668,0.049h35.318c2.931,0,5.309-2.498,5.309-5.58v-11.544c0-3.082-2.378-5.58-5.309-5.58h-35.318
			c-0.229,0-0.449,0.02-0.668,0.049V312.5c0-1.484-1.145-2.687-2.556-2.687C334.536,309.813,333.392,311.016,333.392,312.5z"/>
		<g>
			<path fill="#054100" stroke="#000000" stroke-width="3" stroke-miterlimit="10" d="M424.999,419.236
				c23.333,0,42.074,16.381,42.074,36.399c0,20.188-18.741,36.401-42.074,36.401h-48.771c-1.722,0-3.061,1.158-3.061,2.646
				c0,1.49,1.339,2.649,3.252,2.649h0.19h30.217h-0.19c15.108,0,27.352,10.588,27.352,23.66c0,6.619-3.252,12.742-8.415,17.043
				c0,0-0.957,0.991-3.442,2.646c-1.912,1.159-4.017,1.985-5.93,2.979c-4.397,1.653-8.987,3.311-13.577,4.633
				c4.78-2.48,9.37-6.949,9.37-13.402c0-7.609-7.27-14.229-16.256-14.229h-1.529h-16.257h-0.382
				c-17.786,0-33.086-13.402-33.086-29.286c0-15.555,15.107-29.288,33.086-29.288c0,0,44.562,0,47.813,0
				c1.723,0,3.062-1.158,3.062-2.646c0-1.49-1.339-2.648-3.062-2.648c-3.252,0-45.898,0-45.898,0
				c-25.438,0-46.093-17.87-46.093-39.877c0-22.006,20.655-39.876,46.093-39.876h0.383h39.972c5.547,0,9.944-4.302,9.944-9.101
				s-4.397-8.604-9.944-8.604h-1.722h-72.104c5.164-13.733,17.597-17.042,17.597-17.042h39.207c1.911,0,3.44-1.324,3.44-2.978
				s-1.529-2.978-3.44-2.978h-39.207c0,0-11.094-5.129-16.063-15.222h28.688c11.666,0,9.754-4.964,15.3-9.266
				c1.912-1.489,5.164-2.978,10.899-2.978h20.466c7.647,0,13.961-4.798,15.106-11.086h0.19c26.584,8.273,45.519,30.28,45.519,56.092
				c0,32.927-30.791,59.567-68.851,59.567h-36.722c-1.722,0-3.061,1.156-3.061,2.646c0,1.49,1.339,2.648,3.061,2.648
				L424.999,419.236"/>
			<path display="none" fill="#D3BD2A" stroke="#000000" stroke-miterlimit="10" d="M402.623,549.595
				c-0.571,0-1.112-0.284-1.363-0.755c-0.317-0.602-0.063-1.313,0.592-1.656c3.229-1.675,8.644-5.5,8.644-12.289
				c0-7.01-6.758-12.932-14.756-12.932H377.57c-18.747,0-34.586-14.006-34.586-30.584c0-16.579,15.839-30.586,34.586-30.586h47.813
				c0.89,0,1.562-0.58,1.562-1.35c0-0.771-0.672-1.353-1.562-1.353h-45.898c-26.241,0-47.593-18.471-47.593-41.175
				c0-22.703,21.352-41.173,47.593-41.173h40.354c4.577,0,8.444-3.574,8.444-7.803c0-4.097-3.709-7.307-8.444-7.307h-73.823
				c-0.479,0-0.932-0.199-1.214-0.535c-0.282-0.336-0.359-0.769-0.213-1.164c5.344-14.211,18.042-17.739,18.58-17.882
				c0.145-0.038,0.292-0.058,0.441-0.058h39.207c1.089,0,1.94-0.738,1.94-1.68s-0.854-1.68-1.94-1.68h-39.207
				c-0.247,0-0.489-0.053-0.707-0.153c-0.474-0.218-11.616-5.464-16.736-15.858c-0.197-0.401-0.149-0.861,0.129-1.225
				c0.277-0.363,0.747-0.582,1.251-0.582h28.688c7.127,0,8.396-1.803,10.322-4.533c0.962-1.364,2.055-2.91,3.977-4.401
				c2.816-2.195,6.824-3.31,11.9-3.31h20.466c6.84,0,12.568-4.202,13.627-9.991c0.113-0.63,0.741-1.095,1.479-1.095h0.19
				c0.173,0,0.345,0.026,0.508,0.076c27.819,8.659,46.511,31.69,46.511,57.313c0,33.561-31.56,60.864-70.351,60.864h-36.723
				c-0.889,0-1.56,0.581-1.56,1.35c0,0.771,0.671,1.354,1.56,1.354l46.874,0.492c24.011,0,43.558,16.912,43.558,37.7
				s-19.547,37.7-43.574,37.7h-48.771c-0.891,0-1.562,0.58-1.562,1.349c0,0.81,0.704,1.353,1.752,1.353h30.407
				c0.019,0,0.038,0,0.057,0.001c15.794,0.116,28.604,11.268,28.604,24.958c0,6.707-3.218,13.242-8.826,17.938
				c-0.265,0.26-1.35,1.271-3.616,2.781c-1.315,0.799-2.632,1.416-3.905,2.012c-0.733,0.348-1.465,0.688-2.168,1.053
				c-0.056,0.027-0.111,0.055-0.173,0.078c-4.071,1.529-8.885,3.282-13.701,4.672C402.94,549.574,402.78,549.595,402.623,549.595z
				 M377.569,463.389c-16.826,0-31.586,13.08-31.586,27.99c0,15.172,14.465,27.988,31.586,27.988h18.168
				c9.625,0,17.756,7.111,17.756,15.525c0,3.574-1.354,6.93-3.854,9.759c2.062-0.724,4.041-1.455,5.873-2.146
				c0.714-0.367,1.452-0.715,2.198-1.063c1.198-0.563,2.438-1.144,3.558-1.821c2.229-1.486,3.146-2.412,3.155-2.42
				c0.032-0.033,0.071-0.069,0.107-0.101c5.056-4.211,7.955-10.081,7.955-16.106c0-12.331-11.598-22.363-25.852-22.363h-30.217
				c-2.709,0-4.752-1.694-4.752-3.944c0-2.214,2.003-3.944,4.561-3.944h48.771c22.373,0,40.574-15.748,40.574-35.104
				c0-19.354-18.201-35.104-40.574-35.104l-46.874-0.494c-2.538,0-4.541-1.734-4.541-3.947c0-2.212,2.003-3.943,4.56-3.943h36.723
				c37.138,0,67.351-26.139,67.351-58.271c0-24.086-17.253-45.783-43.089-54.407c-1.931,6.282-8.499,10.7-16.229,10.7h-20.464
				c-4.313,0-7.645,0.89-9.896,2.645c-1.596,1.238-2.522,2.552-3.419,3.822c-2.097,2.971-4.074,5.777-12.885,5.777h-26.318
				c4.52,7.49,12.427,11.783,14.091,12.626h38.813c2.726,0,4.94,1.918,4.94,4.276c0,2.357-2.217,4.276-4.94,4.276h-38.965
				c-1.524,0.464-10.887,3.702-15.713,14.447h71.697c6.417,0,11.444,4.349,11.444,9.902c0,5.637-5.241,10.398-11.444,10.398h-40.354
				c-24.59,0-44.593,17.306-44.593,38.578c0,21.273,20.003,38.58,44.593,38.58h45.898c2.558,0,4.562,1.732,4.562,3.945
				s-2.004,3.943-4.562,3.943H377.569L377.569,463.389z"/>
		</g>
	</g>
	<g>
		<g>
			<path fill="#FFFFFF" stroke="#000000" stroke-miterlimit="10" d="M159.755,263.526c2.511-3.023,3.806-4.499,6.469-7.375
				c-14.238-6.264-28.473-11.612-43.301-16.31c-6.063,7.66-8.903,11.671-14.143,20.011c9.351,12.458,19.119,24.154,29.737,35.551
				c1.798-3.433,2.739-5.12,4.706-8.435c-4.207-4.546-6.265-6.875-10.287-11.64c4.602-7.347,7.099-10.88,12.433-17.624
				C151.197,259.907,154.074,261.073,159.755,263.526z M119.479,256.533c1.45-2.12,2.189-3.168,3.697-5.24
				c5.364,1.362,8.022,2.102,13.277,3.688c-3.808,4.982-5.625,7.553-9.062,12.842C124.141,263.395,122.558,261.135,119.479,256.533z
				"/>
			<path fill="#FFFFFF" stroke="#000000" stroke-miterlimit="10" d="M166.867,256.018c-2.892,3.105-4.295,4.702-7.008,7.979
				c-5.683-2.447-8.564-3.608-14.394-5.805c-5.154,6.539-7.571,9.958-12.037,17.063c4.017,4.768,6.074,7.1,10.276,11.65
				c-2.139,3.593-3.161,5.425-5.102,9.158c-10.989-11.261-21.123-23.352-30.336-36.106c5.389-8.609,8.317-12.745,14.582-20.633
				c0.11,0.033,0.165,0.048,0.274,0.081C138.089,243.855,152.723,249.404,166.867,256.018z M159.655,263.056
				c2.307-2.769,3.494-4.125,5.929-6.77c-14.008-6.105-28.013-11.334-42.586-15.928c-5.864,7.433-8.616,11.319-13.704,19.391
				c9.171,12.249,18.747,23.768,29.142,34.996c1.653-3.133,2.516-4.676,4.309-7.71c-4.213-4.543-6.277-6.871-10.305-11.633
				c4.737-7.59,7.315-11.236,12.83-18.186C151.097,259.426,153.976,260.596,159.655,263.056z M137.126,254.728
				c-4.113,5.348-6.066,8.113-9.747,13.816c-3.459-4.678-5.144-7.066-8.41-11.938c1.605-2.355,2.425-3.519,4.103-5.815
				C128.753,252.24,131.567,253.028,137.126,254.728z M127.41,267.102c3.188-4.875,4.865-7.251,8.37-11.865
				c-4.951-1.475-7.451-2.163-12.499-3.439c-1.34,1.848-1.999,2.781-3.293,4.667C122.881,260.794,124.366,262.923,127.41,267.102z"
				/>
		</g>
		<g>
			<path fill="#FFFFFF" stroke="#000000" stroke-miterlimit="10" d="M169.652,240.824c-8.009-8.55-16.015-17.104-24.021-25.655
				c-3.685,3.45-5.481,5.227-8.973,8.883c8.474,8.09,16.945,16.183,25.419,24.272c2.425,2.316,3.637,3.473,6.063,5.789
				c2.818-2.951,4.267-4.386,7.241-7.17c6.217-5.82,9.497-8.551,16.343-13.603c-1.991-2.698-2.987-4.045-4.978-6.744
				C179.585,231.881,176.155,234.736,169.652,240.824z"/>
			<path fill="#FFFFFF" stroke="#000000" stroke-miterlimit="10" d="M192.264,233.416c-8.746,6.425-16.421,13.632-24.119,21.244
				c-10.7-10.171-21.399-20.343-32.098-30.515c3.758-3.953,5.696-5.871,9.679-9.584c7.99,8.568,15.978,17.136,23.965,25.707
				c6.529-6.086,9.972-8.94,17.159-14.219C189.016,228.995,190.099,230.469,192.264,233.416z M168.138,253.568
				c7.095-7.397,14.811-14.194,23.046-20.297c-1.816-2.45-2.725-3.677-4.541-6.127c-7.135,5.289-10.553,8.146-17.03,14.235
				c-8.025-8.534-16.051-17.068-24.076-25.603c-3.389,3.187-5.044,4.825-8.27,8.188
				C147.559,233.832,157.848,243.701,168.138,253.568z"/>
		</g>
		<g>
			<path fill="#FFFFFF" stroke="#000000" stroke-miterlimit="10" d="M205.998,183.937c-1.449-3.024-2.173-4.536-3.622-7.561
				c-9.554,4.577-14.189,7.143-23.105,12.781c-4.266,2.698-6.362,4.108-10.468,7.038c1.948,2.73,2.921,4.094,4.869,6.824
				c6.804,9.537,13.606,19.075,20.413,28.609c3.314-2.364,5.005-3.501,8.448-5.678c-3.521-5.568-5.281-8.352-8.801-13.92
				c6.012-3.801,9.107-5.571,15.453-8.828c-1.471-2.866-2.206-4.299-3.677-7.166c-6.603,3.389-9.825,5.23-16.081,9.185
				c-2.271-3.591-3.406-5.386-5.676-8.978C192.336,190.815,196.799,188.343,205.998,183.937z"/>
			<path fill="#FFFFFF" stroke="#000000" stroke-miterlimit="10" d="M203.068,226.063c-3.706,2.332-5.523,3.553-9.079,6.102
				c-8.601-11.999-17.201-23.998-25.8-35.997c10.858-7.783,22.404-14.6,34.466-20.344c1.573,3.301,2.358,4.951,3.931,8.253
				c-9.194,4.379-13.655,6.838-22.237,12.239c2.101,3.339,3.151,5.009,5.252,8.348c6.276-3.949,9.508-5.788,16.131-9.169
				c1.603,3.141,2.406,4.71,4.009,7.851c-6.341,3.237-9.437,4.998-15.445,8.779C197.805,217.7,199.56,220.488,203.068,226.063z
				 M194.184,231.093c3.069-2.18,4.635-3.231,7.815-5.251c-3.532-5.561-5.299-8.342-8.832-13.902
				c6.015-3.822,9.114-5.603,15.465-8.879c-1.338-2.593-2.007-3.891-3.345-6.484c-6.584,3.397-9.797,5.244-16.033,9.206
				c-2.441-3.843-3.662-5.765-6.103-9.607c8.588-5.457,13.055-7.942,22.26-12.376c-1.323-2.748-1.984-4.123-3.308-6.87
				c-11.413,5.498-22.355,11.96-32.685,19.293C177.674,207.846,185.929,219.47,194.184,231.093z"/>
		</g>
		<g>
			<path fill="#FFFFFF" stroke="#000000" stroke-miterlimit="10" d="M249.999,204.722c3.824-1.088,5.755-1.582,9.654-2.464
				c-8.287-13.19-17.079-25.634-26.718-37.871c-9.406,2.921-14.012,4.634-22.973,8.526c0.731,15.538,2.246,30.669,4.641,46.038
				c3.356-1.778,5.061-2.626,8.514-4.23c-0.922-6.119-1.316-9.198-1.958-15.396c7.882-3.436,11.936-4.948,20.213-7.521
				C244.952,196.909,246.678,199.494,249.999,204.722z M220.623,176.232c2.389-0.929,3.592-1.376,6.012-2.237
				c3.663,4.151,5.443,6.259,8.896,10.533c-5.99,1.972-8.94,3.071-14.729,5.481C220.608,184.523,220.572,181.766,220.623,176.232z"
				/>
			<path fill="#FFFFFF" stroke="#000000" stroke-miterlimit="10" d="M260.27,202.508c-4.226,0.943-6.318,1.477-10.456,2.662
				c-3.326-5.224-5.056-7.808-8.64-12.908c-8.009,2.505-11.93,3.968-19.567,7.282c0.636,6.197,1.023,9.279,1.938,15.398
				c-3.75,1.735-5.6,2.655-9.236,4.595c-2.782-15.459-4.382-31.128-4.827-46.829c9.232-4.028,13.982-5.796,23.688-8.792
				c0.073,0.089,0.11,0.133,0.183,0.222C243.241,176.252,252.261,189.077,260.27,202.508z M250.185,204.274
				c3.51-0.993,5.282-1.447,8.855-2.267c-8.182-12.929-16.854-25.142-26.336-37.15c-9.108,2.844-13.572,4.504-22.261,8.262
				c0.697,15.264,2.151,30.142,4.455,45.247c3.075-1.618,4.633-2.389,7.789-3.861c-0.929-6.119-1.323-9.202-1.973-15.399
				c8.127-3.558,12.31-5.119,20.857-7.761C245.146,196.455,246.869,199.042,250.185,204.274z M236.231,184.698
				c-6.453,2.104-9.627,3.286-15.847,5.896c-0.225-5.809-0.269-8.729-0.22-14.592c2.649-1.035,3.984-1.531,6.671-2.482
				C230.712,177.923,232.591,180.16,236.231,184.698z M221.22,189.426c5.355-2.211,8.079-3.227,13.606-5.064
				c-3.263-4.01-4.941-5.989-8.39-9.891c-2.153,0.77-3.224,1.167-5.353,1.992C221.03,181.668,221.058,184.262,221.22,189.426z"/>
		</g>
	</g>
	<g>
		
			<rect x="274.329" y="167.82" transform="matrix(-0.989 0.1478 -0.1478 -0.989 586.6865 300.0903)" fill="#FFFFFF" stroke="#000000" stroke-miterlimit="10" width="15.726" height="8.054"/>
		<path fill="#D3BD2A" stroke="#000000" stroke-miterlimit="10" d="M290.994,174.993l-16.308,2.438l-1.303-8.717l16.307-2.438
			L290.994,174.993z M275.326,176.566l14.805-2.213l-1.079-7.214l-14.805,2.213L275.326,176.566z"/>
	</g>
	<g>
		<g>
			<path fill="#FFFFFF" stroke="#000000" stroke-miterlimit="10" d="M350.098,197.104c-2.448-7.888-3.855-11.829-7.043-19.659
				c6.694-0.61,12.406-4.229,13.791-9.844c1.777-7.208-4.607-15.222-14.846-17c-4.598-0.798-6.91-1.149-11.563-1.748
				c-4.989-0.642-7.505-0.905-12.551-1.312c-0.27,3.342-0.401,5.014-0.673,8.356c-0.938,11.678-1.881,23.356-2.827,35.034
				c4.221,0.34,6.32,0.56,10.492,1.097c0.842-6.535,1.262-9.802,2.104-16.337c2.298,0.293,3.439,0.453,5.725,0.801
				c3.356,7.314,4.869,11.001,7.558,18.398C344.227,195.688,346.193,196.132,350.098,197.104z M329.368,157.168
				c4.143,0.533,6.203,0.842,10.302,1.539c3.66,0.622,6.115,3.536,5.548,6.414c-0.565,2.878-3.979,4.622-7.483,4.028
				c-3.867-0.655-5.813-0.944-9.721-1.446C328.557,163.488,328.825,161.383,329.368,157.168z"/>
			<path fill="#FFFFFF" stroke="#000000" stroke-miterlimit="10" d="M350.677,197.64c-4.252-1.073-6.396-1.559-10.716-2.422
				c-2.688-7.392-4.2-11.075-7.559-18.384c-2.012-0.304-3.017-0.448-5.035-0.71c-0.854,6.533-1.283,9.801-2.137,16.334
				c-4.484-0.585-6.742-0.821-11.28-1.179c1.163-14.718,2.324-29.436,3.482-44.154c9.961,0.785,14.896,1.412,24.633,3.103
				c10.359,1.799,17.076,10.003,15.22,17.484c-1.354,5.444-6.853,9.278-13.647,10.06
				C346.829,185.686,348.234,189.668,350.677,197.64z M340.565,194.564c3.604,0.729,5.396,1.131,8.952,2.005
				c-2.46-7.808-3.866-11.708-7.05-19.456c0.209-0.021,0.313-0.028,0.521-0.047c6.693-0.612,12.124-4.301,13.414-9.572
				c1.73-7.081-4.658-14.815-14.471-16.519c-9.327-1.62-14.056-2.229-23.594-3.016c-1.171,14.209-2.342,28.418-3.517,42.627
				c3.898,0.321,5.842,0.523,9.702,1.013c0.829-6.536,1.242-9.804,2.071-16.339c2.574,0.324,3.857,0.502,6.414,0.896
				C336.369,183.474,337.879,187.164,340.565,194.564z M327.519,168.023c0.573-4.516,0.861-6.774,1.437-11.29
				c4.336,0.549,6.491,0.869,10.779,1.598c3.897,0.663,6.545,3.801,5.933,6.879s-4.185,4.961-7.998,4.315
				C333.63,168.842,331.6,168.541,327.519,168.023z M329.783,157.605c-0.511,3.911-0.768,5.868-1.276,9.779
				c3.733,0.487,5.591,0.766,9.287,1.392c3.283,0.556,6.466-1.117,6.979-3.741c0.521-2.668-1.786-5.379-5.167-5.954
				C335.697,158.416,333.731,158.12,329.783,157.605z"/>
		</g>
		<g>
			<path fill="#FFFFFF" stroke="#000000" stroke-miterlimit="10" d="M391.584,164.275c-11.998-4.599-30.146-1.854-33.569,12.047
				c-3.008,12.212,6.555,24.207,17.981,28.596c11.424,4.387,26.441,1.786,32.356-9.304
				C415.092,182.987,403.589,168.877,391.584,164.275z M378.813,197.571c-8.378-3.213-13.584-11.238-11.351-18.581
				c2.233-7.343,11.91-10.97,21.302-7.368c9.396,3.604,14.109,12.749,10.862,19.702
				C396.379,198.277,387.193,200.786,378.813,197.571z"/>
			<path fill="#FFFFFF" stroke="#000000" stroke-miterlimit="10" d="M375.858,205.272c-11.613-4.48-21.293-16.674-18.271-29.06
				c3.45-14.131,21.919-16.97,34.13-12.291c12.22,4.682,23.888,19.075,17.021,31.892
				C402.723,207.046,387.477,209.718,375.858,205.272z M391.446,164.63c-11.813-4.593-29.627-1.823-33.005,11.803
				c-2.977,12.001,6.456,23.814,17.688,28.129c11.229,4.314,26.039,1.767,31.842-9.146
				C414.559,183.025,403.306,169.107,391.446,164.63z M378.677,197.926c-8.563-3.285-13.912-11.527-11.635-19.063
				c2.277-7.536,12.229-11.29,21.859-7.596c9.632,3.695,14.462,13.114,11.117,20.241
				C396.677,198.635,387.242,201.211,378.677,197.926z M388.628,171.978c-9.127-3.501-18.566,0.013-20.749,7.141
				c-2.182,7.126,2.902,14.967,11.069,18.1c8.169,3.133,17.143,0.682,20.283-6.077C402.373,184.381,397.757,175.479,388.628,171.978
				z"/>
		</g>
		<g>
			<path fill="#FFFFFF" stroke="#000000" stroke-miterlimit="10" d="M456.48,200.281c-9.672,3.523-14.374,5.486-23.466,9.77
				c0.579-10.032,0.646-15.126,0.309-25.411c-4.208-2.531-6.341-3.748-10.664-6.083c-5.567,10.308-11.138,20.615-16.7,30.926
				c-1.594,2.95-2.393,4.426-3.986,7.376c3.614,1.952,5.398,2.969,8.916,5.085c5.071-8.432,7.606-12.649,12.68-21.081
				c0.006,10.066-0.224,15.046-1.122,24.843c8.752-4.493,13.282-6.565,22.624-10.317c-3.908,5.176-5.861,7.765-9.771,12.941
				c-2.021,2.676-3.031,4.012-5.052,6.688c3.276,2.474,4.888,3.752,8.049,6.377c9.271-11.164,18.54-22.325,27.813-33.487
				C462.325,204.766,460.4,203.24,456.48,200.281z"/>
			<path fill="#FFFFFF" stroke="#000000" stroke-miterlimit="10" d="M438.355,241.938c-3.396-2.829-5.129-4.201-8.654-6.854
				c5.634-7.488,8.451-11.231,14.085-18.721c-8.993,3.661-13.361,5.673-21.804,10.024c0.884-9.458,1.116-14.261,1.154-23.972
				c-4.844,8.023-7.265,12.032-12.107,20.055c-3.777-2.281-5.695-3.375-9.584-5.466c6.989-13.002,13.981-26.003,20.976-39.005
				c4.604,2.475,6.872,3.769,11.344,6.465c0.328,10.078,0.268,15.069-0.286,24.905c8.919-4.186,13.526-6.108,23.002-9.564
				c4.171,3.142,6.221,4.766,10.234,8.113C457.262,219.257,447.809,230.598,438.355,241.938z M430.791,234.955
				c3.025,2.293,4.516,3.472,7.443,5.894c9.088-10.985,18.18-21.966,27.269-32.95c-3.549-2.936-5.354-4.365-9.026-7.142
				c-9.863,3.589-14.656,5.594-23.92,9.975c0.604-10.229,0.68-15.422,0.325-25.913c-3.944-2.367-5.945-3.508-9.991-5.703
				c-6.796,12.533-13.593,25.065-20.391,37.596c3.339,1.811,4.99,2.751,8.246,4.701c5.297-8.842,7.941-13.263,13.238-22.105
				c0.054,10.424-0.168,15.58-1.084,25.719c9.063-4.635,13.763-6.766,23.452-10.606
				C440.128,222.635,437.017,226.741,430.791,234.955z"/>
		</g>
		<g>
			<path fill="#FFFFFF" stroke="#000000" stroke-miterlimit="10" d="M490.672,243.635c2.533-2.198,3.802-3.296,6.335-5.494
				c-6.785-7.82-10.362-11.556-17.836-18.642c-3.575-3.39-5.401-5.042-9.124-8.257c-2.19,2.538-3.291,3.806-5.481,6.343
				c-7.657,8.867-15.317,17.731-22.978,26.597c0.757,0.654,1.134,0.982,1.884,1.645c2.333,2.061,3.481,3.114,5.743,5.258
				c6.248,5.924,9.237,9.046,14.91,15.583c2.433-2.111,3.651-3.166,6.084-5.277c-5.879-6.774-8.977-10.011-15.451-16.15
				c2.734-2.884,4.104-4.326,6.838-7.21c5.177,4.906,7.676,7.461,12.487,12.759c2.385-2.166,3.577-3.25,5.962-5.416
				c-4.975-5.476-7.561-8.116-12.909-13.187c2.505-2.642,3.761-3.963,6.266-6.605C480.637,232.444,484.101,236.062,490.672,243.635z
				"/>
			<path fill="#FFFFFF" stroke="#000000" stroke-miterlimit="10" d="M464.099,267.219c-7.399-8.129-14.913-15.626-23.06-23.008
				c9.632-11.188,19.264-22.377,28.896-33.565c9.888,8.502,19.146,17.74,27.669,27.607c-2.768,2.392-4.146,3.587-6.912,5.979
				c-6.551-7.575-10.003-11.192-17.22-18.058c-2.3,2.417-3.453,3.625-5.753,6.042c5.349,5.088,7.936,7.737,12.906,13.23
				c-2.614,2.366-3.919,3.55-6.533,5.916c-4.796-5.298-7.29-7.853-12.445-12.76c-2.531,2.659-3.797,3.989-6.326,6.648
				c6.475,6.161,9.57,9.407,15.446,16.205C468.1,263.76,466.766,264.914,464.099,267.219z M442.133,244.153
				c7.843,6.795,15.205,14.141,22.021,21.967c2.198-1.916,3.302-2.875,5.502-4.791c-5.88-6.752-8.981-9.978-15.455-16.094
				c2.938-3.11,4.409-4.665,7.348-7.774c5.19,4.904,7.7,7.458,12.529,12.754c2.156-1.966,3.231-2.95,5.39-4.916
				c-4.976-5.457-7.562-8.089-12.909-13.142c2.709-2.866,4.063-4.299,6.771-7.166c7.26,6.859,10.737,10.476,17.331,18.047
				c2.3-2.003,3.449-3.005,5.75-5.008c-8.125-9.329-16.902-18.09-26.252-26.192C460.814,222.609,451.474,233.382,442.133,244.153z"
				/>
		</g>
		<g>
			<path fill="#FFFFFF" stroke="#000000" stroke-miterlimit="10" d="M514.614,260.806c-7.332-10.59-23.894-18.664-34.604-9.039
				c-9.407,8.451-8.172,23.755-1.162,33.848c7.016,10.098,21.015,16.873,32.249,11.036
				C523.896,290.002,521.939,271.385,514.614,260.806z M485.313,281.131c-5.181-7.469-4.976-17.035,1.004-21.848
				c5.978-4.813,16.023-2.367,21.832,6.006c5.807,8.373,4.646,18.754-1.961,22.664C499.583,291.863,490.491,288.601,485.313,281.131
				z"/>
			<path fill="#FFFFFF" stroke="#000000" stroke-miterlimit="10" d="M478.535,285.832c-7.024-10.105-8.468-25.847,1.188-34.392
				c11.063-9.792,27.744-1.622,35.203,9.149c7.454,10.764,9.468,29.518-3.616,36.456
				C499.898,303.096,485.547,295.934,478.535,285.832z M514.304,261.022c-7.187-10.482-23.484-18.343-34.007-8.925
				c-9.257,8.288-8.029,23.379-1.138,33.3c6.896,9.929,20.696,16.614,31.725,10.859
				C523.416,289.718,521.584,271.428,514.304,261.022z M484.998,281.348c-5.293-7.632-5.082-17.458,1.041-22.406
				c6.123-4.948,16.468-2.45,22.42,6.133s4.734,19.264-2.047,23.262S490.291,288.98,484.998,281.348z M507.834,265.507
				c-5.643-8.136-15.432-10.548-21.246-5.883c-5.813,4.664-6.015,14.009-0.965,21.29c5.05,7.281,13.932,10.465,20.338,6.657
				C512.368,283.762,513.477,273.644,507.834,265.507z"/>
		</g>
	</g>
	<g>
		<g>
			<path fill="#FFFFFF" stroke="#000000" stroke-miterlimit="10" d="M228.155,577.609c-7.873,5.728-12.014,8.438-20.679,13.517
				c-0.856-10.331-1.038-15.451-0.921-25.498c-3.707-2.264-5.54-3.427-9.161-5.792c-6.384,9.822-12.776,19.641-19.162,29.46
				c-1.829,2.813-2.745,4.217-4.573,7.028c4.361,2.848,6.571,4.241,11.036,6.945c4.941-8.511,7.411-12.766,12.353-21.272
				c0.266,10.253,0.642,15.469,1.887,25.982c9.042-4.871,13.375-7.481,21.634-13.024c-2.599,5.942-3.898,8.914-6.497,14.856
				c-1.344,3.071-2.018,4.606-3.362,7.682c4.666,2.267,7.021,3.346,11.759,5.371c5.149-13.565,10.299-27.13,15.448-40.695
				C233.984,580.449,232.029,579.529,228.155,577.609z"/>
			<path fill="#FFFFFF" stroke="#000000" stroke-miterlimit="10" d="M222.79,623.415c-5.114-2.174-7.652-3.34-12.681-5.793
				c3.772-8.58,5.659-12.868,9.432-21.448c-8.022,5.327-12.224,7.838-20.977,12.537c-1.22-10.166-1.596-15.209-1.9-25.135
				c-4.691,8.112-7.039,12.169-11.73,20.283c-4.819-2.909-7.202-4.413-11.901-7.489c8.075-12.359,16.146-24.722,24.223-37.08
				c3.834,2.511,5.778,3.744,9.709,6.141c-0.112,9.84,0.061,14.854,0.882,24.966c8.471-4.982,12.524-7.638,20.235-13.242
				c4.104,2.04,6.175,3.01,10.347,4.822C233.217,595.789,228.004,609.604,222.79,623.415z M211.313,617.363
				c4.304,2.081,6.472,3.076,10.838,4.953c5.084-13.32,10.17-26.643,15.253-39.961c-3.696-1.625-5.531-2.487-9.173-4.287
				c-8.034,5.852-12.267,8.614-21.126,13.791c-0.89-10.554-1.079-15.782-0.956-26.037c-3.482-2.13-5.205-3.223-8.611-5.441
				c-7.75,11.967-15.502,23.935-23.25,35.9c4.024,2.62,6.059,3.905,10.17,6.401c5.194-8.901,7.792-13.354,12.986-22.26
				c0.224,10.578,0.593,15.964,1.863,26.823c9.33-5.045,13.795-7.755,22.288-13.516
				C217.482,603.185,215.425,607.911,211.313,617.363z"/>
		</g>
		<g>
			<path fill="#FFFFFF" stroke="#000000" stroke-miterlimit="10" d="M240.899,621.014c3.428-11.202,6.855-22.403,10.282-33.605
				c-4.003-1.407-5.993-2.18-9.945-3.824c-3.977,11.021-7.952,22.04-11.925,33.063c-1.138,3.154-1.708,4.731-2.846,7.889
				c4.761,1.938,7.159,2.843,11.98,4.5C239.426,625.824,239.917,624.221,240.899,621.014z"/>
			<path fill="#FFFFFF" stroke="#000000" stroke-miterlimit="10" d="M238.798,629.554c-5.202-1.772-7.788-2.751-12.919-4.852
				c5.036-13.878,10.071-27.756,15.107-41.634c4.247,1.777,6.386,2.604,10.691,4.106
				C247.383,601.302,243.093,615.429,238.798,629.554z M227.052,624.361c4.391,1.775,6.601,2.608,11.043,4.146
				c4.196-13.626,8.393-27.253,12.589-40.879c-3.7-1.31-5.54-2.019-9.197-3.532C236.675,597.52,231.865,610.94,227.052,624.361z"/>
		</g>
		<g>
			<path fill="#FFFFFF" stroke="#000000" stroke-miterlimit="10" d="M257.241,625.881c2.654-11.41,5.309-22.821,7.967-34.229
				c-4.061-1.024-6.082-1.614-10.104-2.92c-3.213,11.266-6.425,22.53-9.635,33.799c-0.919,3.226-1.38,4.841-2.299,8.064
				c4.843,1.539,7.278,2.232,12.169,3.45c10.224,2.545,15.392,3.382,25.763,4.699c0.423-3.327,0.635-4.991,1.058-8.318
				C272.129,629.152,267.131,628.349,257.241,625.881z"/>
			<path fill="#FFFFFF" stroke="#000000" stroke-miterlimit="10" d="M281.532,639.181c-13.204-1.646-26.257-4.286-38.932-8.367
				c4.075-14.19,8.148-28.383,12.222-42.571c4.321,1.414,6.495,2.048,10.862,3.137c-2.634,11.416-5.269,22.831-7.903,34.247
				c9.878,2.438,14.869,3.231,24.888,4.485C282.214,633.739,281.986,635.551,281.532,639.181z M243.74,630.379
				c12.039,3.815,24.416,6.32,36.933,7.932c0.391-3.023,0.586-4.538,0.977-7.563c-10.045-1.295-15.05-2.112-24.951-4.61
				c2.68-11.402,5.354-22.811,8.032-34.216c-3.754-0.958-5.625-1.503-9.345-2.7C251.504,602.939,247.621,616.659,243.74,630.379z"/>
		</g>
		<g>
			<path fill="#FFFFFF" stroke="#000000" stroke-miterlimit="10" d="M331.404,640.163c4.782-0.335,7.176-0.56,11.942-1.117
				c-7.127-13.791-13.507-27.654-19.323-42.046c-7.969,0.396-11.964,0.407-19.932,0.057c-5.734,14.426-12.036,28.324-19.08,42.155
				c4.623,0.515,6.939,0.721,11.576,1.025c2.512-5.785,3.707-8.691,5.975-14.532c9.116,0.411,13.687,0.398,22.802-0.051
				C327.659,631.486,328.867,634.389,331.404,640.163z M311.137,604.38c2.229,0.023,3.342,0.021,5.568-0.012
				c1.86,5.109,2.844,7.657,4.912,12.727c-6.133,0.215-9.203,0.224-15.337,0.033C308.327,612.051,309.298,609.499,311.137,604.38z"
				/>
			<path fill="#FFFFFF" stroke="#000000" stroke-miterlimit="10" d="M344.043,639.345c-5.179,0.62-7.775,0.866-12.974,1.225
				c-2.532-5.778-3.737-8.684-6.025-14.52c-8.854,0.424-13.298,0.436-22.155,0.047c-2.263,5.847-3.457,8.752-5.963,14.541
				c-5.051-0.325-7.572-0.549-12.605-1.123c7.411-13.843,13.937-28.164,19.498-42.849c8.187,0.371,12.292,0.359,20.478-0.059
				c0.04,0.104,0.063,0.153,0.103,0.261C330.025,611.429,336.595,625.625,344.043,639.345z M331.74,639.761
				c4.372-0.313,6.557-0.517,10.915-1.016c-6.965-13.566-13.207-27.207-18.906-41.354c-7.746,0.374-11.63,0.387-19.378,0.057
				c-5.617,14.177-11.784,27.852-18.667,41.459c4.213,0.459,6.323,0.646,10.548,0.93c2.517-5.782,3.714-8.692,5.987-14.531
				c9.374,0.438,14.075,0.425,23.448-0.051C327.986,631.084,329.198,633.989,331.74,639.761z M322.229,617.453
				c-6.619,0.248-9.938,0.254-16.562,0.033c2.186-5.373,3.224-8.07,5.177-13.49c2.463,0.029,3.692,0.026,6.155-0.014
				C318.975,609.395,320.021,612.089,322.229,617.453z M306.885,616.766c5.647,0.159,8.478,0.155,14.123-0.025
				c-1.932-4.775-2.851-7.178-4.598-11.988c-1.99,0.026-2.986,0.03-4.979,0.012C309.706,609.581,308.796,611.982,306.885,616.766z"
				/>
		</g>
		<g>
			<path fill="#FFFFFF" stroke="#000000" stroke-miterlimit="10" d="M371.301,588.896c3.028,10.727,4.544,16.088,7.572,26.813
				c-9.48-6.934-18.14-14.021-26.78-21.979c-4.091,0.755-6.145,1.081-10.26,1.636c1.563,11.607,3.121,23.22,4.687,34.829
				c0.447,3.322,0.674,4.984,1.119,8.311c4.958-0.666,7.431-1.061,12.356-1.969c-1.896-10.275-2.846-15.41-4.742-25.688
				c9.056,7.267,18.085,13.706,27.881,19.938c4.847-1.524,7.258-2.368,12.047-4.188c-4.626-13.754-9.249-27.508-13.875-41.262
				C377.329,586.889,375.324,587.604,371.301,588.896z"/>
			<path fill="#FFFFFF" stroke="#000000" stroke-miterlimit="10" d="M395.762,626.79c-5.071,1.938-7.629,2.83-12.766,4.438
				c-9.502-6.038-18.296-12.278-27.104-19.292c1.856,9.956,2.789,14.935,4.646,24.891c-5.313,0.989-7.98,1.415-13.328,2.123
				c-1.943-14.638-3.884-29.271-5.824-43.907c4.354-0.576,6.523-0.917,10.85-1.719c8.35,7.691,16.728,14.585,25.865,21.32
				c-2.915-10.396-4.373-15.593-7.288-25.988c4.327-1.378,6.479-2.146,10.753-3.816C386.299,598.821,391.03,612.806,395.762,626.79z
				 M383.27,630.352c4.559-1.438,6.823-2.229,11.329-3.93c-4.519-13.521-9.036-27.046-13.556-40.568
				c-3.679,1.421-5.529,2.078-9.248,3.282c2.618,9.213,5.24,18.425,7.86,27.639c-9.874-6.714-19.174-14.272-27.704-22.631
				c-3.857,0.707-5.792,1.017-9.671,1.544c1.928,14.128,3.851,28.256,5.779,42.382c4.568-0.622,6.849-0.984,11.392-1.813
				c-1.937-10.595-2.901-15.892-4.836-26.486C363.546,617.447,373.154,624.32,383.27,630.352z"/>
		</g>
		<g>
			<path fill="#FFFFFF" stroke="#000000" stroke-miterlimit="10" d="M407.352,573.146c-10.842,5.93-20.179,19.286-15.957,31.592
				c4.838,14.094,23.945,13.509,35.156,7.476c11.386-6.128,23-21.664,14.839-34.133
				C434.285,567.226,418.088,567.273,407.352,573.146z M423.081,605.15c-9.354,5.017-19.479,2.706-22.335-4.419
				c-2.854-7.123,1.767-16.021,10.074-20.523c8.307-4.502,17.979-3.229,21.881,3.38C436.602,590.199,432.434,600.135,423.081,605.15
				z"/>
			<path fill="#FFFFFF" stroke="#000000" stroke-miterlimit="10" d="M426.718,612.551c-11.436,6.266-30.855,6.692-35.743-7.646
				c-4.257-12.495,5.195-26.069,16.209-32.102c10.902-5.969,27.356-5.972,34.588,5.023
				C450.1,590.49,438.414,606.367,426.718,612.551z M407.519,573.487c-10.678,5.818-19.884,18.993-15.702,31.081
				c4.775,13.817,23.556,13.227,34.568,7.303c11.188-6.019,22.642-21.521,14.62-33.54
				C433.983,567.805,418.248,567.596,407.519,573.487z M423.25,605.492c-9.589,5.142-20.003,2.741-22.918-4.572
				c-2.914-7.312,1.834-16.453,10.322-21.054c8.488-4.604,18.424-3.291,22.437,3.479C437.104,590.12,432.841,600.35,423.25,605.492z
				 M410.99,580.548c-8.1,4.387-12.616,13.082-9.83,19.995s12.665,9.143,21.754,4.268s13.17-14.556,9.395-20.98
				C428.534,577.403,419.09,576.16,410.99,580.548z"/>
		</g>
	</g>
	<g>
		<path fill="#D3A12A" stroke="#000000" stroke-width="3" stroke-miterlimit="10" d="M501.75,450.542
			c0.616-9.328,5.188-20.906,13.798-35.023l0.688-1.021c0.57-0.842,1.061-1.559,1.506-2.24c-5.604-11.492-9.457-22.633-7.516-31.38
			c1.181-5.305,5.125-10.458,10.298-13.451c3.479-2.009,7.271-2.947,11.188-2.792c0.363-4.685,0.326-7.602,0.324-7.681l9.998-0.172
			c0.008,0.397,0.055,4.382-0.494,10.479c4.59,2.338,7.891,5.963,9.65,10.646c3.996,10.632-0.045,25.617-12.361,45.815l-0.69,1.026
			c-0.532,0.783-0.993,1.461-1.417,2.106c5.895,11.462,9.421,20.898,7.465,31.344c-0.965,5.136-4.674,10.227-9.685,13.279
			c-3.573,2.182-7.638,3.218-11.823,3.071c-0.369,4.712-0.337,7.657-0.337,7.736l-9.997,0.168
			c-0.009-0.396-0.059-4.358,0.489-10.437c-4.544-2.271-7.831-5.836-9.613-10.479C501.972,458.294,501.479,454.634,501.75,450.542z
			 M523.039,422.46c-12.707,21.416-12.055,31.408-10.485,35.501c0.42,1.089,0.998,2.047,1.738,2.874
			c1.35-7.87,3.623-17.072,7.451-26.183c1.518-3.608,2.604-6.054,3.568-7.993C524.586,425.305,523.826,423.906,523.039,422.46z
			 M530.55,374.631c-1.763,0.056-3.439,0.542-5.021,1.453c-3.148,1.822-5.079,4.887-5.541,6.963
			c-0.987,4.44,0.695,10.802,3.467,17.567C527.25,391.555,529.369,382.284,530.55,374.631z M531.097,438.212
			c-0.045,0.104-0.09,0.208-0.135,0.315c-3.807,9.059-5.935,18.359-7.123,26.052c1.938-0.056,3.762-0.604,5.455-1.637
			c2.968-1.81,4.704-4.682,5.063-6.584C535.423,450.649,534.041,444.941,531.097,438.212z M540.069,378.482
			c-1.352,7.852-3.622,17.029-7.438,26.108c-1.507,3.58-2.588,6.017-3.549,7.953c0.748,1.439,1.504,2.855,2.252,4.236
			c12.637-21.294,12.032-31.266,10.494-35.354C541.41,380.312,540.826,379.333,540.069,378.482z"/>
	</g>
	<g>
		<path fill="#D3A12A" stroke="#000000" stroke-width="3" stroke-miterlimit="10" d="M113.074,449.209
			c-1.782,4.643-5.069,8.207-9.613,10.479c0.548,6.074,0.498,10.035,0.489,10.434l-9.997-0.168c0-0.078,0.032-3.023-0.337-7.736
			c-4.186,0.146-8.25-0.891-11.823-3.07c-5.011-3.055-8.72-8.146-9.685-13.279c-1.956-10.443,1.572-19.883,7.465-31.344
			c-0.424-0.646-0.885-1.324-1.417-2.107l-0.69-1.025c-12.318-20.201-16.359-35.186-12.363-45.816
			c1.762-4.684,5.063-8.309,9.652-10.646c-0.549-6.097-0.502-10.081-0.494-10.479l9.998,0.172c-0.002,0.079-0.039,2.996,0.324,7.681
			c3.917-0.155,7.709,0.783,11.188,2.792c5.172,2.993,9.118,8.146,10.297,13.451c1.943,8.747-1.912,19.888-7.514,31.38
			c0.445,0.684,0.934,1.398,1.506,2.24l0.686,1.02c8.609,14.117,13.182,25.695,13.798,35.023
			C114.813,442.297,114.321,445.957,113.074,449.209z M90.979,414.322c0.967,1.939,2.053,4.385,3.57,7.994
			c3.828,9.107,6.102,18.313,7.451,26.182c0.74-0.826,1.318-1.785,1.738-2.873c1.569-4.094,2.222-14.086-10.485-35.502
			C92.467,411.57,91.707,412.969,90.979,414.322z M92.839,388.278c2.77-6.766,4.454-13.127,3.467-17.567
			c-0.462-2.076-2.393-5.141-5.541-6.963c-1.58-0.911-3.259-1.397-5.021-1.453C86.924,369.948,89.043,379.218,92.839,388.278z
			 M81.938,444.021c0.356,1.902,2.093,4.775,5.061,6.584c1.693,1.033,3.518,1.582,5.455,1.637
			c-1.188-7.689-3.316-16.992-7.123-26.051c-0.045-0.107-0.09-0.215-0.135-0.316C82.252,432.605,80.87,438.313,81.938,444.021z
			 M74.464,369.091c-1.538,4.087-2.143,14.059,10.494,35.354c0.748-1.382,1.504-2.797,2.252-4.236
			c-0.961-1.938-2.042-4.373-3.549-7.953c-3.815-9.079-6.088-18.257-7.438-26.108C75.467,366.997,74.883,367.975,74.464,369.091z"/>
	</g>
	<path fill="#3B7E2C" stroke="#000000" stroke-miterlimit="10" d="M407.32,254.65l-12.875,8.867
		c-0.968,0.667-2.576,0.911-4.006,0.61c-1.429-0.3-2.359-1.08-2.318-1.94l0.511-10.457l0.036-0.751l-0.572,0.671l-8.693,10.228
		c-0.844,0.991-2.705,1.574-4.644,1.454c-1.937-0.122-3.526-0.919-3.964-1.992l-4.325-10.58l-0.194-0.483l-0.196,0.483l-4.326,10.58
		c-0.438,1.072-2.026,1.87-3.963,1.992c-1.938,0.121-3.8-0.462-4.644-1.454l-8.693-10.228l-0.572-0.671l0.036,0.751l0.509,10.457
		c0.043,0.86-0.891,1.64-2.318,1.94c-1.428,0.301-3.036,0.057-4.004-0.61l-12.875-8.867l-1.253-0.862l0.788,0.997l18.288,23.116
		c0,0,9.538,2.108,23.226,2.108c13.686,0,23.221-2.108,23.221-2.108l18.287-23.116l0.787-0.997L407.32,254.65z M336.055,265.813
		c2.98-0.704,6.604,8.91,6.604,8.91S333.07,266.519,336.055,265.813z M353.358,274.313c0,0-8.888-9.973-3.778-10.556
		C354.68,263.176,353.358,274.313,353.358,274.313z M366.276,273.689c0,0-6.704-10.77,0-10.77
		C372.967,262.919,366.276,273.689,366.276,273.689z M379.184,274.313c0,0-1.314-11.137,3.783-10.556
		C388.072,264.341,379.184,274.313,379.184,274.313z M389.89,274.724c0,0,3.622-9.614,6.603-8.91
		C399.477,266.519,389.89,274.724,389.89,274.724z"/>
</g>
<g id="Layer_2_1_" display="none">
</g>
</svg>
