<?xml version="1.0" encoding="utf-8"?>
<!-- Generator: Adobe Illustrator 16.0.0, SVG Export Plug-In . SVG Version: 6.00 Build 0)  -->
<!DOCTYPE svg PUBLIC "-//W3C//DTD SVG 1.1//EN" "http://www.w3.org/Graphics/SVG/1.1/DTD/svg11.dtd">
<svg version="1.1" id="Layer_1" xmlns="http://www.w3.org/2000/svg" xmlns:xlink="http://www.w3.org/1999/xlink" x="0px" y="0px"
	 width="612px" height="792px" viewBox="0 0 612 792" enable-background="new 0 0 612 792" xml:space="preserve">
<circle fill-rule="evenodd" clip-rule="evenodd" fill="none" stroke="#686867" stroke-width="4" stroke-miterlimit="3.8637" cx="308.002" cy="400.004" r="232.5"/>
<path fill-rule="evenodd" clip-rule="evenodd" fill="none" stroke="#686867" stroke-width="3" stroke-miterlimit="3.8637" d="
	M516.172,414.909c-17.253-9.178-17.193-11.209-0.363-21.97c8.063-5.157,12.253-11.052,3.603-18.743
	c-5.151-4.581-16.594-1.21-17.168-11.438c-0.496-8.889,10.471-9.707,14.148-16.069c1.059-1.831,1.886-3.797,2.818-5.703
	c-3.777-5.947-9.135-8.205-16.141-7.509c-4.621,0.458-10.047,1.486-12.21-4.43c-1.989-5.44,1.622-8.845,5.419-12.04
	c9.805-8.249,10.505-15.545-2.464-21.198c-6.389,1.449-13.281,6.964-19.145,0.703c-6.509-6.951,1.015-12.632,3.955-18.226
	c2.432-4.628,2.24-9.052,1.725-13.773c-5.512-3.188-11.003-2.452-16.565-0.057c-4.339,1.866-9.161,4.879-13.362,0.966
	c-5.027-4.678-1.16-9.87,0.967-14.507c2.362-5.154,2.513-10.158,0.466-15.338c-7.978-3.019-14.276,1.207-21.016,4.465
	c-9.222,4.458-13.431,0.869-11.683-8.97c1.207-6.785,4.685-13.736-3.767-18.279c-7.77-4.176-11.62,2.173-16.204,6.365
	c-3.21,2.938-6.521,6.111-11.23,3.625c-4.17-2.204-5.82-6.224-5.183-10.798c0.849-6.07,1.732-12.046-5.732-14.629
	c-7.148-2.474-10.657,2.979-14.623,7.205c-8.477,9.039-14.902,8.86-16.655-4.571c-1.563-11.961-8.227-15.053-18.894-13.174
	c-1.292,2.33-2.477,4.725-3.896,6.976c-2.74,4.339-3.072,11.406-9.508,11.833c-7.907,0.523-5.701-7.625-8.073-11.786
	c-2.696-4.728-6.155-7.086-11.582-6.841c-6.708,0.301-8.655,5.089-10.489,10.375c-5.771,16.629-7.763,17.053-19.484,3.559
	c-3.358-3.866-6.651-7.293-12.028-5.879c-5.137,1.352-7.274,5.17-8.147,10.594c-2.809,17.429-4.476,18.122-18.274,7.287
	c-4.693-3.684-9.211-5.957-14.493-2.957c-5.372,3.05-6.013,8.287-4.494,14.043c1.184,4.48,4.13,9.619-0.87,13.284
	c-5.198,3.81-10.066,1.054-14.539-2.38c-4.824-3.703-10.006-7.117-15.861-2.348c-6.28,5.114-4.31,11.419-1.435,17.47
	c2.152,4.527,4.016,9.192-0.047,13.331c-4.277,4.355-9.185,1.58-13.368-0.401c-6.703-3.176-12.599-2.862-17.192,3.073
	c-4.298,5.556-2.463,10.854,1.657,15.984c2.618,3.261,5.902,7.161,3.356,11.569c-3.035,5.254-8.362,3.173-13.019,2.58
	c-5.79-0.737-11.905-2.533-15.509,4.38c-3.479,6.675,0.272,10.996,4.824,15.244c3.108,2.903,6.783,6.242,4.924,10.958
	c-2.115,5.364-7.271,5.455-12.289,5.245c-5.686-0.238-10.513,0.957-12.682,7.312c-2.45,7.183,1.357,10.945,6.717,14.404
	c3.518,2.273,7.653,4.493,7.053,9.738c-0.75,6.546-6.395,6.092-10.874,7.343c-5.173,1.449-10.544,2.74-11.425,9.462
	c-1.013,7.735,4.617,10.19,10.119,12.375c13.192,5.239,11.898,10.134,0.1,15.567c-4.814,2.213-10.359,4.862-9.321,11.431
	c0.853,5.408,5.755,6.974,10.654,8.324c4.404,1.217,10.354,1.01,11.668,6.904c1.612,7.233-5.117,8.39-9.345,11.08
	c-5.39,3.427-9.318,7.459-7.081,14.403c1.985,6.164,7.141,7.378,12.771,7.347c5.236-0.028,11.547-1.828,13.535,5.095
	c1.715,5.976-3.206,9.65-6.93,13.444c-4.12,4.198-9.137,8.208-4.854,15.037c3.714,5.919,9.081,6.556,15.43,4.837
	c4.527-1.226,10.06-3.339,13.374,1.37c4.112,5.845-1.869,9.616-4.524,13.946c-6.175,10.077-3.863,20.179,4.819,19.759
	c5.14-0.248,10.077-3.414,15.242-4.729c9.759-2.482,13.546,1.095,9.792,10.836c-2.466,6.399-7.369,13.021-0.674,19.094
	c7.382,6.691,12.498-1.016,18.146-4.241c3.303-1.891,6.611-3.929,10.444-1.693c4.934,2.875,3.333,7.521,2.271,11.463
	c-1.677,6.229-4.027,12.269,0.657,18.185c8.313,3.979,14.136-0.116,19.784-5.734c2.858-2.841,5.812-7.466,10.687-4.828
	c4.156,2.247,4.175,7.054,4.178,11.415c0.003,6.381-0.977,13.491,7.265,15.834c7.534,2.141,9.975-4.365,13.479-8.864
	c2.874-3.687,5.026-8.754,11.165-7.026c5.022,1.414,5.766,6.073,6.339,10.188c0.914,6.559,1.5,13.776,9.591,14.522
	c7.726,0.712,10.167-6.371,13.162-12.033c1.917-3.625,2.968-9.189,8.144-8.61c4.659,0.524,5.838,5.775,7.431,9.667
	c2.441,5.957,4.175,13.033,12.483,12.249c7.881-0.746,6.727-8.496,8.772-13.616c1.712-4.283,1.055-10.566,6.944-11.525
	c5.982-0.979,7.74,4.803,9.894,8.917c2.731,5.22,6.202,8.907,12.515,7.217c5.638-1.511,6.288-6.574,7.172-11.396
	c3.283-17.894,3.39-17.975,17.976-6.688c4.337,3.357,8.504,7.33,14.222,4.12c4.504-2.53,5.753-7.218,5.773-12.376
	c0.081-20.692,0.194-20.793,18.992-12.622c4.698,2.044,9.304,3.518,13.401-0.201c3.372-3.06,3.384-6.97,2.069-11.673
	c-5.01-17.937-4.74-18.063,14.672-13.823c4.355,0.953,8.712,1.699,11.808-2.173c3.032-3.787,1.559-7.897-0.068-12.062
	c-6.943-17.749-6.859-17.824,13.233-17.545c4.346,0.06,8.511,0.335,11.199-4.17c2.653-4.446,0.963-7.679-1.68-11.579
	c-10.747-15.855-10.374-16.727,8.316-19.855c4.658-0.778,8.292-2.405,10.166-6.584c2.129-4.744-1.137-7.867-4.056-11.134
	c-13.449-15.06-12.755-17.928,6.418-23.296c5.168-1.445,9.132-3.213,9.712-8.876C523.824,420.553,521.154,417.558,516.172,414.909z
	 M308.002,582.237c-100.645,0-182.233-81.589-182.233-182.233s81.589-182.233,182.233-182.233s182.233,81.589,182.233,182.233
	S408.646,582.237,308.002,582.237z"/>
<ellipse fill-rule="evenodd" clip-rule="evenodd" fill="#686867" stroke="#686867" stroke-width="3" stroke-miterlimit="3.8637" cx="307.833" cy="261.667" rx="9" ry="8.833"/>
<path fill-rule="evenodd" clip-rule="evenodd" fill="none" stroke="#686867" stroke-width="3" stroke-miterlimit="3.8637" d="
	M383.813,284.5c-19.276-9.029-62.01-18.683-66.697-18.683h-19.897c-4.754,0-48.652,9.046-67.509,18.066
	c-5.237,2.505-8.542,9.627-8.542,10.947v144.016h14.224v-38.844h1.338c-0.843-1.388-1.338-3.011-1.338-4.754v-90.826
	c0-1.102,2.759-7.046,7.129-9.137c15.738-7.528,52.375-15.078,56.343-15.078h16.606c3.913,0,39.577,8.057,55.665,15.592
	c4.762,2.231,7.808,7.465,7.808,8.623v90.826c0,1.743-0.495,3.367-1.339,4.756l-0.103,38.842h15.666V294.831
	C393.167,293.443,389.518,287.172,383.813,284.5z"/>
<path fill-rule="evenodd" clip-rule="evenodd" fill="none" stroke="#686867" stroke-width="3" stroke-miterlimit="3.8637" d="
	M378.942,404.429H235.391v15.405h7.752c21.741,24.087,42.935,28.381,61.689,28.549c32.571,0.293,57.783-19.931,65.713-28.549h8.397
	V404.429z M297.5,419.834v13.782c-15.558-2.083-26.716-9.544-31.962-13.782H297.5z M311.833,433.883v-14.049h37.307
	C335.438,428.831,322.884,432.846,311.833,433.883z"/>
<path fill-rule="evenodd" clip-rule="evenodd" fill="none" stroke="#686867" stroke-width="3" stroke-miterlimit="3.8637" d="
	M398.5,399.17c0,4.418-3.582,8-8,8h-170c-4.418,0-8-3.582-8-8l0,0c0-4.418,3.582-8,8-8h170
	C394.918,391.17,398.5,394.751,398.5,399.17L398.5,399.17z"/>
<path fill-rule="evenodd" clip-rule="evenodd" fill="none" stroke="#686867" stroke-width="5" stroke-miterlimit="3.8637" d="
	M306.917,473.167 M306.563,448.834c0,0-48.194-1.058-71.172-16l-12.222,0.629v-6.629c0,0-25.001-17.334-30.335-38.334h-7v-45.664
	c0-6.075-4.925-11-11-11h-6c-6.075,0-11,4.925-11,11v57.167c-6.259,0-11.333,8.394-11.333,18.748s5.074,18.748,11.333,18.748v53.337
	c0,6.075,4.925,11,11,11h6c6.075,0,11-4.925,11-11v-49.003H209.5c0,0,10,14.667,21.667,0h3c0,0,15.667,10,51.667,13
	c0,0,3.75,14,21.083,18.333 M195.167,428.409v-17.575l14.667,17.575H195.167z"/>
<path fill-rule="evenodd" clip-rule="evenodd" fill="none" stroke="#686867" stroke-width="5" stroke-miterlimit="3.8637" d="
	M306.917,473.167c17.333-4.333,20.376-18.333,20.376-18.333c35.999-3,51.667-13,51.667-13h3c11.667,14.667,21.666,0,21.666,0h23.667
	v49.003c0,6.075,4.925,11,11,11h6c6.075,0,11-4.925,11-11V437.5c6.259,0,11.333-8.394,11.333-18.748s-5.074-18.748-11.333-18.748
	v-57.167c0-6.075-4.925-11-11-11h-6c-6.075,0-11,4.925-11,11V388.5h-7c-5.334,21-30.335,38.334-30.335,38.334v6.629l-12.223-0.629
	c-22.978,14.942-71.173,16-71.173,16 M403.293,428.409l14.667-17.575v17.575H403.293z"/>
<rect x="251.833" y="298.438" fill-rule="evenodd" clip-rule="evenodd" fill="none" stroke="#686867" stroke-miterlimit="3.8637" width="15.929" height="86.396"/>
<rect x="311.881" y="298.438" fill-rule="evenodd" clip-rule="evenodd" fill="none" stroke="#686867" stroke-miterlimit="3.8637" width="15.929" height="86.396"/>
<rect x="281.857" y="298.438" fill-rule="evenodd" clip-rule="evenodd" fill="none" stroke="#686867" stroke-miterlimit="3.8637" width="15.929" height="86.396"/>
<rect x="341.904" y="298.438" fill-rule="evenodd" clip-rule="evenodd" fill="none" stroke="#686867" stroke-miterlimit="3.8637" width="15.929" height="86.396"/>
</svg>
