<?xml version="1.0" encoding="utf-8"?>
<!-- Generator: Adobe Illustrator 16.0.0, SVG Export Plug-In . SVG Version: 6.00 Build 0)  -->
<!DOCTYPE svg PUBLIC "-//W3C//DTD SVG 1.1//EN" "http://www.w3.org/Graphics/SVG/1.1/DTD/svg11.dtd">
<svg version="1.1" id="Layer_1" xmlns="http://www.w3.org/2000/svg" xmlns:xlink="http://www.w3.org/1999/xlink" x="0px" y="0px"
	 width="612px" height="792px" viewBox="0 0 612 792" enable-background="new 0 0 612 792" xml:space="preserve">
<ellipse fill="none" stroke="#5C5C5C" stroke-width="3" stroke-miterlimit="10" cx="303.258" cy="393.894" rx="263.25" ry="136.605"/>
<path fill="none" stroke="#B5B5B1" stroke-width="3" stroke-miterlimit="10" d="M457.166,484.166c0,1.657-1.343,3-3,3H169.499
	c-1.657,0-3-1.343-3-3V304.833c0-1.657,1.343-3,3-3h284.667c1.657,0,3,1.343,3,3V484.166z"/>
<g id="fiat_copy">
	<path display="none" fill="none" stroke="#3A3A3A" stroke-width="3" stroke-miterlimit="10" d="M604.461,396
		c0-117.811-133.625-213.315-298.461-213.315C141.165,182.685,7.54,278.189,7.54,396S141.165,609.314,306,609.314l0,0
		C470.836,609.314,604.461,513.811,604.461,396z"/>
	<path display="none" fill="none" stroke="#3A3A3A" stroke-width="3" stroke-miterlimit="10" d="M166.579,549.871
		c13.276,5.51,27.239,10.129,41.707,13.801c24.893,5.818,66.82,10.96,98.597,9.872c46.938,1.042,74.521-2.239,104.048-9.463
		c24.845-6.535,48.021-15.939,68.607-27.837c4.51-2.541,8.491-5.524,11.828-8.864c5.162-5.296,9.871-10.812,14.101-16.514
		c0,0,41.243-52.378,50.158-109.993c11.277-60.027-15.227-104.757-15.227-104.757c-2.086-4.329-4.731-8.511-7.899-12.491
		c-3.858-4.611-8.134-9.036-12.799-13.249c-57.861-41.417-129.226-56.084-211.494-56.084c-73.771,0-141.385,17.175-193.949,45.738
		c-13.071,8.435-23.949,18.458-32.129,29.604c-11.784,16.702-16.353,39.083-16.353,39.083c-4.731,32.524-2.836,65.367,5.627,97.502
		c7.76,28.938,21.434,56.9,40.582,82.992c5.433,7.535,11.854,14.686,19.177,21.355C141.376,538.369,153.348,544.895,166.579,549.871
		z"/>
	<path display="none" fill="none" stroke="#3A3A3A" stroke-width="3" stroke-miterlimit="10" d="M297.593,242.492
		c-32.558,0.549-64.979,3.188-96.876,7.886c-33.983,5.362-51.857,11.719-53.358,12.254c-1.501,0.537-17.653,5.504-26.48,15.993
		c-9.71,11.466-11.497,28.058-11.586,28.752c0,0.189-2.206,17.665-2.206,37.001c0,4.874,0.132,9.857,0.485,14.699
		c1.501,18.737,4.633,37.389,9.379,55.848c0,0.189,6.068,26.813,14.895,50.785c9.577,26.135,22.222,50.581,22.354,50.818
		c2.687,5.009,6.814,9.56,12.115,13.358c6.144,3.897,13.097,7.089,20.61,9.463c14.573,4.97,29.841,8.823,45.547,11.498
		c19.46,2.925,39.199,4.796,59.053,5.599c0.508,0,40.582,0.505,72.38-2.539c18.783-1.747,37.235-4.984,55.014-9.652h0.11
		c0.442-0.143,11.034-3.471,19.045-6.672c4.215-1.65,8.23-3.551,12.005-5.678c5.18-2.795,9.499-6.322,12.688-10.361
		c3.877-5.178,7.019-10.621,9.379-16.246c0.64-1.293,8.694-19.431,15.447-39.43c9.378-27.601,17.653-60.312,17.653-60.627
		c3.756-17.774,6.26-35.671,7.502-53.625c0.199-3.58,0.267-7.113,0.267-10.536c-0.007-11.637-0.854-23.266-2.539-34.84
		c-0.11-1.167-2.206-19.479-15.072-31.339c-12.556-11.655-34.932-16.339-37.139-16.781c-18.605-4.876-37.816-8.478-57.375-10.756
		l0,0C372.202,243.817,333.496,241.987,297.593,242.492z"/>
	<path display="none" fill="none" stroke="#3A3A3A" stroke-width="3" stroke-miterlimit="10" d="M291.723,551.621
		c-19.415-0.787-38.72-2.616-57.75-5.473c-15.211-2.617-30.002-6.354-44.135-11.15l0,0l0,0c-6.786-2.16-13.079-5.037-18.669-8.533
		c-4.55-3.293-8.108-7.217-10.46-11.529c-0.154-0.284-12.688-24.51-22.067-50.471c-8.826-23.814-14.719-50.154-14.785-50.47
		c-4.718-18.243-7.843-36.68-9.356-55.201c-0.946-17.045-0.452-34.115,1.479-51.117c0-0.205,1.766-16.198,10.614-26.655
		c7.967-9.463,23.325-14.005,23.479-14.052h0.133h0.133c0.176,0,18.007-6.546,51.836-11.876c31.462-4.619,63.44-7.205,95.551-7.729
		c35.507-0.505,73.616,1.293,101.951,4.731l0,0c19.217,2.251,38.094,5.789,56.382,10.567h0.177h0.198
		c0.221,0,22.244,4.417,33.808,15.078c11.563,10.662,13.659,28.595,13.682,28.784v0.11c1.659,11.396,2.491,22.846,2.494,34.304
		c0,3.375,0,6.845-0.266,10.378c-1.323,25.03-7.37,52.774-7.414,53.057c-0.045,0.283-8.254,32.837-17.654,60.296
		c-6.906,20.345-15.911,38.356-15.999,38.53v0.127v0.126c-1.851,5.401-4.561,10.636-8.076,15.598
		c-2.735,3.431-6.404,6.433-10.791,8.833l0,0l0,0c-3.477,1.948-7.166,3.693-11.033,5.221c-7.68,3.059-17.985,6.309-18.427,6.466
		c-17.265,4.499-35.164,7.64-53.381,9.368C331.708,552.143,292.12,551.637,291.723,551.621z"/>
	<polygon fill="none" stroke="#3A3A3A" stroke-width="3" stroke-miterlimit="10" points="195.402,327.412 196.499,465.832 
		218.194,466.182 218.194,397.758 238.511,397.758 238.511,381.835 218.194,381.835 218.194,344.713 245.456,344.713 
		245.456,327.412 	"/>
	<polygon fill="none" stroke="#3A3A3A" stroke-width="3" stroke-miterlimit="10" points="260.458,328.095 283.65,328.095 
		285.108,465.15 262.435,465.15 	"/>
	<path fill="none" stroke="#3A3A3A" stroke-width="3" stroke-miterlimit="10" d="M302.76,327.666h50.207
		c9.851,16.281,19.729,33.477,22.473,51.046c6.061,37.012,2.973,85.7,2.973,85.7h-17.795l-2.916-69.011h-31.577l-0.135,69.066
		h-21.101L302.76,327.666z M356.549,380.59c-1.568-9.692-11.129-32.429-15.582-37.042h-15.994v36.507L356.549,380.59z"/>
	<polygon fill="none" stroke="#3A3A3A" stroke-width="3" stroke-miterlimit="10" points="379.418,328.898 444.488,328.898 
		444.488,342.195 424.268,342.195 420.756,465.993 397.259,465.993 400.808,342.477 379.092,342.477 	"/>
</g>
<path display="none" fill="none" stroke="#F9F9E4" stroke-width="3" stroke-miterlimit="10" d="M182.211,272.56
	c0,0,121.047-35.727,242.09,0l-33.135,17.272c0,0-68.666-26.999-178,0L182.211,272.56z"/>
<path display="none" fill="none" stroke="#F9F9E4" stroke-width="3" stroke-miterlimit="10" d="M205.261,520.715
	c0,0,104.572,23.118,195.991,0l-29.419-12.216c0,0-47.999,12-139.333,0L205.261,520.715z"/>
<path fill="none" stroke="#F9F9E4" stroke-miterlimit="10" d="M218.936,269.971c0,0,92.501-15.495,168.641,0l-23.082,7.526
	c0,0-47.833-11.765-123.996,0L218.936,269.971z"/>
<path fill="none" stroke="#F9F9E4" stroke-miterlimit="10" d="M245.16,521.44c0,0,71.488,9.982,116.195,0l-15.339-4.79
	c0,0-39.037,4.706-86.655,0L245.16,521.44z"/>
<path fill="#F9F9E4" stroke="#F9F9E4" stroke-miterlimit="10" d="M460.5,347.833c0,0,17.333,9.333,0,20.667V347.833z"/>
<polygon fill="#F9F9E4" stroke="#F9F9E4" stroke-miterlimit="10" points="406.5,295.833 411.79,289.833 424.301,289.833 
	421.167,295.833 "/>
<polygon fill="#F9F9E4" stroke="#F9F9E4" stroke-miterlimit="10" points="427.834,295.833 432.5,284.5 444.488,284.5 
	439.834,295.833 "/>
<path fill="#F9F9E4" stroke="#F9F9E4" stroke-miterlimit="10" d="M444.488,295.833l5.346-6.001c0,0,18,3.333,27.333,12l-8.963,4.001
	l-3.853-4.001c0,0-5.852-6.666-9.852-5.999H444.488z"/>
<path fill="#F9F9E4" stroke="#F9F9E4" stroke-miterlimit="10" d="M460.828,425.834l12.339,6c0,0,6.666,66.666-24.667,68.666
	l-12.339-4.666l2.825-5.334l15.975,0.667c0,0,3.539-1.333,5.539-9.333L460.828,425.834z"/>
<polygon fill="#F9F9E4" stroke="#F9F9E4" stroke-miterlimit="10" points="415.4,493.167 427.834,493.167 415.4,508.499 
	393.167,500.833 "/>
<polygon fill="#F9F9E4" stroke="#F9F9E4" stroke-miterlimit="10" points="460.828,316.5 460.828,333.833 508.841,315.499 
	487.167,301.833 "/>
<path fill="#F9F9E4" stroke="#F9F9E4" stroke-miterlimit="10" d="M468.89,344.576c11.345-2.286,41.338-8.169,59.466-10.239
	C520.15,325.434,513.5,320,513.5,320l-52.672,18.5C464.264,340.516,466.899,342.551,468.89,344.576z"/>
<path fill="#F9F9E4" stroke="#F9F9E4" stroke-miterlimit="10" d="M473.622,359.22c16.197,2.688,58.565,10.242,82.371,19.35
	c-3.703-11.906-10.534-23.065-17.657-32.383l-65.462,4.026C474.28,353.362,474.338,356.405,473.622,359.22z"/>
<g>
	<path fill="#F9F9E4" stroke="#F9F9E4" stroke-miterlimit="10" d="M457.166,372.5c0,0-59.999,26.001,38.001,59.334V416.5
		c0,0-80.667-15.333-38-38.667L457.166,372.5z"/>
	<path fill="#F9F9E4" stroke="#F9F9E4" stroke-miterlimit="10" d="M469.736,366.782c-1.371,1.775-2.889,3.319-4.279,4.581
		c14.974,8.816,59.835,36.517,78.124,62.166c13.26-14.829,14.919-31.361,14.919-31.361c0.079-0.653,0.144-1.307,0.195-1.959
		C544.881,393.985,500.732,374.609,469.736,366.782z"/>
</g>
<path fill="#F9F9E4" stroke="#F9F9E4" stroke-miterlimit="10" d="M529.634,445.093c-8.882-15.779-31.455-49.83-68.845-67.45
	l-0.289,19.803c4.661,2.819,8.463,6.157,11.564,9.788l26.104,7.935v21.333l-14.793-6.108c3.297,13.997,1.459,26.107,1.459,26.107
	C504.556,456.211,519.021,451.56,529.634,445.093z"/>
<path fill="#F9F9E4" stroke="#F9F9E4" stroke-miterlimit="10" d="M162.106,347.833c0,0-17.333,9.333,0,20.667V347.833z"/>
<polygon fill="#F9F9E4" stroke="#F9F9E4" stroke-miterlimit="10" points="211.102,295.833 205.812,289.833 193.301,289.833 
	196.435,295.833 "/>
<polygon fill="#F9F9E4" stroke="#F9F9E4" stroke-miterlimit="10" points="192.771,295.833 188.104,284.5 176.116,284.5 
	180.771,295.833 "/>
<path fill="#F9F9E4" stroke="#F9F9E4" stroke-miterlimit="10" d="M177.117,295.833l-5.346-6.001c0,0-18,3.333-27.333,12l8.963,4.001
	l3.853-4.001c0,0,5.853-6.666,9.852-5.999H177.117z"/>
<path fill="#F9F9E4" stroke="#F9F9E4" stroke-miterlimit="10" d="M161.778,425.834l-12.339,6c0,0-6.666,66.666,24.667,68.666
	l12.339-4.666l-2.825-5.334l-15.975,0.667c0,0-3.539-1.333-5.539-9.333L161.778,425.834z"/>
<polygon fill="#F9F9E4" stroke="#F9F9E4" stroke-miterlimit="10" points="200.199,493.167 187.766,493.167 200.199,508.499 
	222.433,500.833 "/>
<polygon fill="#F9F9E4" stroke="#F9F9E4" stroke-miterlimit="10" points="161.778,316.5 161.778,333.833 113.766,315.499 
	135.439,301.833 "/>
<path fill="#F9F9E4" stroke="#F9F9E4" stroke-miterlimit="10" d="M153.717,344.576c-11.345-2.286-41.338-8.169-59.466-10.239
	c8.205-8.903,14.855-14.337,14.855-14.337l52.672,18.5C158.343,340.516,155.707,342.551,153.717,344.576z"/>
<path fill="#F9F9E4" stroke="#F9F9E4" stroke-miterlimit="10" d="M148.984,359.22c-16.197,2.688-58.565,10.242-82.371,19.35
	c3.703-11.906,10.534-23.065,17.657-32.383l65.462,4.026C148.326,353.362,148.269,356.405,148.984,359.22z"/>
<g>
	<path fill="#F9F9E4" stroke="#F9F9E4" stroke-miterlimit="10" d="M165.44,372.5c0,0,59.999,26.001-38.001,59.334V416.5
		c0,0,80.667-15.333,38-38.667L165.44,372.5z"/>
	<path fill="#F9F9E4" stroke="#F9F9E4" stroke-miterlimit="10" d="M152.87,366.782c1.371,1.775,2.889,3.319,4.279,4.581
		c-14.974,8.816-59.835,36.517-78.124,62.166c-13.26-14.829-14.919-31.361-14.919-31.361c-0.079-0.653-0.144-1.307-0.195-1.959
		C77.726,393.985,121.874,374.609,152.87,366.782z"/>
</g>
<path fill="#F9F9E4" stroke="#F9F9E4" stroke-miterlimit="10" d="M92.973,445.093c8.882-15.779,31.455-49.83,68.845-67.45
	l0.289,19.803c-4.661,2.819-8.463,6.157-11.564,9.788l-26.104,7.935v21.333l14.793-6.108c-3.297,13.997-1.459,26.107-1.459,26.107
	C118.051,456.211,103.585,451.56,92.973,445.093z"/>
<path fill="#F9F9E4" stroke="#F9F9E4" stroke-width="3" stroke-miterlimit="10" d="M306,493.167c0,0.333,0,15.332,0,15.332"/>
<line fill="#F9F9E4" stroke="#F9F9E4" stroke-width="3" stroke-miterlimit="10" x1="312.997" y1="493.167" x2="315.496" y2="508.499"/>
<line fill="#F9F9E4" stroke="#F9F9E4" stroke-width="3" stroke-miterlimit="10" x1="299.005" y1="493.167" x2="296.507" y2="508.499"/>
<line fill="#F9F9E4" stroke="#F9F9E4" stroke-width="3" stroke-miterlimit="10" x1="319.992" y1="492.166" x2="324.492" y2="508.499"/>
<line fill="#F9F9E4" stroke="#F9F9E4" stroke-width="3" stroke-miterlimit="10" x1="292.514" y1="492.166" x2="287.761" y2="508.499"/>
<line fill="#F9F9E4" stroke="#F9F9E4" stroke-width="3" stroke-miterlimit="10" x1="328.833" y1="493.167" x2="335.5" y2="508.499"/>
<line fill="#F9F9E4" stroke="#F9F9E4" stroke-width="3" stroke-miterlimit="10" x1="339.167" y1="493.167" x2="347.833" y2="506.834"/>
<line fill="#F9F9E4" stroke="#F9F9E4" stroke-width="3" stroke-miterlimit="10" x1="350.833" y1="492.166" x2="361.354" y2="505.167"/>
<line fill="#F9F9E4" stroke="#F9F9E4" stroke-width="3" stroke-miterlimit="10" x1="363.5" y1="492.166" x2="376.167" y2="505.167"/>
<line fill="#F9F9E4" stroke="#F9F9E4" stroke-width="3" stroke-miterlimit="10" x1="374.165" y1="493.167" x2="397.165" y2="512.5"/>
<line fill="#F9F9E4" stroke="#F9F9E4" stroke-width="3" stroke-miterlimit="10" x1="285.149" y1="493.211" x2="278.482" y2="508.543"/>
<line fill="#F9F9E4" stroke="#F9F9E4" stroke-width="3" stroke-miterlimit="10" x1="274.815" y1="493.211" x2="266.149" y2="506.878"/>
<line fill="#F9F9E4" stroke="#F9F9E4" stroke-width="3" stroke-miterlimit="10" x1="263.149" y1="492.21" x2="252.628" y2="505.211"/>
<line fill="#F9F9E4" stroke="#F9F9E4" stroke-width="3" stroke-miterlimit="10" x1="250.482" y1="492.21" x2="237.815" y2="505.211"/>
<line fill="#F9F9E4" stroke="#F9F9E4" stroke-width="3" stroke-miterlimit="10" x1="237.815" y1="493.211" x2="214.815" y2="512.544"/>
<line fill="#F9F9E4" stroke="#F9F9E4" stroke-width="3" stroke-miterlimit="10" x1="430.5" y1="500" x2="436.161" y2="505.203"/>
<line fill="#F9F9E4" stroke="#F9F9E4" stroke-width="3" stroke-miterlimit="10" x1="187.76" y1="502.602" x2="182.211" y2="506.834"/>
<line fill="#F9F9E4" stroke="#F9F9E4" stroke-width="3" stroke-miterlimit="10" x1="480.5" y1="463.167" x2="498.5" y2="479"/>
<line fill="#F9F9E4" stroke="#F9F9E4" stroke-width="3" stroke-miterlimit="10" x1="495.167" y1="461.5" x2="511.075" y2="471.503"/>
<line fill="#F9F9E4" stroke="#F9F9E4" stroke-width="3" stroke-miterlimit="10" x1="477.167" y1="476" x2="485.503" y2="486.165"/>
<line fill="#F9F9E4" stroke="#F9F9E4" stroke-width="3" stroke-miterlimit="10" x1="137.589" y1="467.237" x2="119.589" y2="483.07"/>
<line fill="#F9F9E4" stroke="#F9F9E4" stroke-width="3" stroke-miterlimit="10" x1="122.922" y1="465.57" x2="107.014" y2="475.573"/>
<line fill="#F9F9E4" stroke="#F9F9E4" stroke-width="3" stroke-miterlimit="10" x1="140.922" y1="480.07" x2="132.586" y2="490.235"/>
<path fill="#F9F9E4" stroke="#F9F9E4" stroke-width="3" stroke-miterlimit="10" d="M311,297.468c0-0.333,0-15.332,0-15.332"/>
<line fill="#F9F9E4" stroke="#F9F9E4" stroke-width="3" stroke-miterlimit="10" x1="317.997" y1="297.468" x2="320.496" y2="282.136"/>
<line fill="#F9F9E4" stroke="#F9F9E4" stroke-width="3" stroke-miterlimit="10" x1="304.005" y1="297.468" x2="301.507" y2="282.136"/>
<line fill="#F9F9E4" stroke="#F9F9E4" stroke-width="3" stroke-miterlimit="10" x1="324.992" y1="298.469" x2="329.492" y2="282.136"/>
<line fill="#F9F9E4" stroke="#F9F9E4" stroke-width="3" stroke-miterlimit="10" x1="297.514" y1="298.469" x2="292.761" y2="282.136"/>
<line fill="#F9F9E4" stroke="#F9F9E4" stroke-width="3" stroke-miterlimit="10" x1="333.833" y1="297.468" x2="340.5" y2="282.136"/>
<line fill="#F9F9E4" stroke="#F9F9E4" stroke-width="3" stroke-miterlimit="10" x1="344.167" y1="297.468" x2="352.833" y2="283.801"/>
<line fill="#F9F9E4" stroke="#F9F9E4" stroke-width="3" stroke-miterlimit="10" x1="290.149" y1="297.424" x2="283.482" y2="282.092"/>
<line fill="#F9F9E4" stroke="#F9F9E4" stroke-width="3" stroke-miterlimit="10" x1="271.152" y1="298.425" x2="260.631" y2="285.424"/>
<line fill="#F9F9E4" stroke="#F9F9E4" stroke-width="3" stroke-miterlimit="10" x1="281.155" y1="297.587" x2="272.486" y2="283.256"/>
<line fill="#F9F9E4" stroke="#F9F9E4" stroke-width="3" stroke-miterlimit="10" x1="252.631" y1="295.833" x2="245.456" y2="289.757"/>
<line fill="#F9F9E4" stroke="#F9F9E4" stroke-width="3" stroke-miterlimit="10" x1="237.818" y1="295.833" x2="230" y2="291.924"/>
<line fill="#F9F9E4" stroke="#F9F9E4" stroke-width="3" stroke-miterlimit="10" x1="361.354" y1="295.833" x2="369.834" y2="289.757"/>
<line fill="#F9F9E4" stroke="#F9F9E4" stroke-width="3" stroke-miterlimit="10" x1="376.167" y1="295.833" x2="382.5" y2="292.833"/>
</svg>
