<?xml version="1.0" encoding="utf-8"?>
<!-- Generator: Adobe Illustrator 16.0.0, SVG Export Plug-In . SVG Version: 6.00 Build 0)  -->
<!DOCTYPE svg PUBLIC "-//W3C//DTD SVG 1.1//EN" "http://www.w3.org/Graphics/SVG/1.1/DTD/svg11.dtd">
<svg version="1.1" id="Layer_1" xmlns="http://www.w3.org/2000/svg" xmlns:xlink="http://www.w3.org/1999/xlink" x="0px" y="0px"
	 width="612px" height="792px" viewBox="0 0 612 792" enable-background="new 0 0 612 792" xml:space="preserve">
<g id="bmw">
	<path fill="none" stroke="#5F686B" stroke-width="3" stroke-miterlimit="3.8637" d="M567.563,406.914
		c0-142.864-115.898-258.761-258.762-258.761c-142.864,0-258.762,115.897-258.762,258.761c0,142.864,115.897,258.57,258.762,258.57
		C451.664,665.484,567.563,549.778,567.563,406.914L567.563,406.914z"/>
	<path fill="none" stroke="#5F686B" stroke-width="3" stroke-miterlimit="3.8637" d="M199.597,265.007
		c-0.957-6.694-4.973-12.432-11.284-15.3c-6.312-2.869-13.579-1.721-18.934,2.104c-0.382,0.382-0.956,0.765-1.338,0.956
		c0.956-3.06,1.147-6.311,0.382-9.371s-2.486-5.929-4.781-8.224c-4.59-4.59-11.857-6.12-17.978-3.825
		c-2.869,1.147-5.546,2.869-7.458,5.355c-1.148,1.339-2.104,2.677-3.251,4.016c-5.737,7.076-11.475,14.344-17.212,21.42
		c-4.973,6.12-9.754,12.24-14.727,18.36c-0.382,0.382-0.574,0.765-0.956,1.147c0,0,0.574,0.574,0.765,0.574
		c1.913,1.53,3.825,3.06,5.737,4.59c7.268,5.737,14.344,11.475,21.611,17.212c7.076,5.737,14.344,11.476,21.42,17.213
		c1.913,1.529,3.634,2.868,5.546,4.398c0,0,0.574,0.574,0.574,0.383c0.382-0.383,0.765-0.956,1.147-1.339
		c4.973-6.12,9.754-12.24,14.726-18.36c5.929-7.268,11.667-14.726,17.595-21.994c3.06-3.825,6.311-7.268,7.841-12.049
		C199.597,270.17,199.788,267.493,199.597,265.007L199.597,265.007L199.597,265.007z M136.293,285.662
		c-3.06-2.295-5.929-4.781-8.989-7.076c-1.147-0.957-2.295-1.721-3.442-2.678c0,0,1.147-1.53,1.338-1.53
		c5.546-6.885,11.093-13.77,16.639-20.655c1.53-1.912,2.678-3.825,4.973-4.781c3.06-1.338,6.694-0.382,8.797,1.913
		c1.722,1.913,2.295,4.59,1.722,7.268c-0.574,2.295-2.295,4.016-3.825,5.737c-2.869,3.634-5.737,7.268-8.797,10.901
		C142.222,278.394,139.353,282.028,136.293,285.662L136.293,285.662L136.293,285.662z M180.28,277.247
		c-1.913,2.295-3.825,4.781-5.546,7.076c-5.164,6.502-10.327,12.814-15.491,19.316l-0.191,0.191
		c-0.191-0.191-0.574-0.382-0.765-0.573c-1.339-1.147-2.869-2.295-4.208-3.442c-2.486-1.913-4.781-3.825-7.268-5.929
		c4.59-5.929,9.371-11.667,13.961-17.595c2.295-2.869,4.59-5.738,6.885-8.606c1.721-2.104,3.634-3.442,6.312-3.634
		c3.251-0.191,6.12,1.721,7.458,4.59C182.575,271.7,182.193,274.76,180.28,277.247L180.28,277.247z"/>
	<path fill="none" stroke="#5F686B" stroke-width="3" stroke-miterlimit="3.8637" d="M457.975,406.914
		c0-82.429-66.746-149.175-149.174-149.175c-82.429,0-149.175,66.746-149.175,149.175s66.746,149.175,149.175,149.175
		C391.229,556.089,457.975,489.343,457.975,406.914L457.975,406.914z"/>
	<polygon fill="none" stroke="#5F686B" stroke-width="3" stroke-miterlimit="3.8637" points="477.1,234.215 463.904,221.976 
		421.256,278.203 434.451,290.252 481.309,268.832 449.943,309.759 459.123,325.25 523.191,295.989 514.012,280.498 477.1,297.328 
		503.492,262.903 491.826,248.559 452.43,266.537 	"/>
	<polygon fill="none" stroke="#5F686B" stroke-width="3" stroke-miterlimit="3.8637" points="285.659,191.375 302.298,238.614 
		315.303,238.614 331.941,191.375 333.854,238.614 352.214,241.292 349.537,170.338 325.822,167.66 308.801,217.577 291.779,167.66 
		268.064,170.338 265.387,241.292 283.747,238.614 	"/>
	
		<line fill="none" stroke="#5F686B" stroke-width="3" stroke-miterlimit="3.8637" x1="457.975" y1="407.87" x2="159.625" y2="407.87"/>
	
		<line fill="none" stroke="#5F686B" stroke-width="3" stroke-miterlimit="3.8637" x1="307.845" y1="257.739" x2="307.845" y2="556.089"/>
</g>
</svg>
