<?xml version="1.0" encoding="utf-8"?>
<!-- Generator: Adobe Illustrator 16.0.0, SVG Export Plug-In . SVG Version: 6.00 Build 0)  -->
<!DOCTYPE svg PUBLIC "-//W3C//DTD SVG 1.1//EN" "http://www.w3.org/Graphics/SVG/1.1/DTD/svg11.dtd">
<svg version="1.1" id="buick" xmlns="http://www.w3.org/2000/svg" xmlns:xlink="http://www.w3.org/1999/xlink" x="0px" y="0px"
	 width="612px" height="792px" viewBox="0 0 612 792" enable-background="new 0 0 612 792" xml:space="preserve">
<title>brand-icon-buick</title>
<rect x="96.5" y="161.026" fill="none" stroke="#919090" stroke-miterlimit="10" width="415" height="417.474"/>
<g id="Layer_3">
	<path fill="none" stroke="#8E8D8D" stroke-width="2" stroke-miterlimit="10" d="M467.311,296.289
		c1.47-5.658-0.997-10.853-0.997-10.853c-1.603,4.24-3.604,4.595-5.519,3.888s-2.893-5.655-0.89-14.137
		c2.002-8.482,0-17.814,0-17.814c-4.005-9.686-12.415-11.166-12.415-11.166c-9.21-4.595-16.42,0.354-16.42,0.354
		c2.403-3.888,6.809-4.241,6.809-4.241c2.003,0.354,14.418-2.474,11.614-12.369c-2.804-9.896-13.616-12.724-20.824-8.482
		c-7.208,4.242-7.609,22.972-7.609,22.972l-10.813-42.415l-20.557,16.375c0,0,4.724,20.302,5.874,24.745
		c5.949,22.973,5.872,52.305,5.872,52.305l-1.35,10.196c-2.334,6.863-5.735,13.889-10.665,20.434
		c-19.822,26.33-26.428,18.379-27.633,15.551c-1.006-2.366-5.87-11.297,2.673-37.22l1.555-2.89c0,0,2.812,4.408,6.767,4.819
		c0,0,21.427,5.378,22.839-22.606c0,0,0.269-2.12-0.768-4.717c-4.902-12.32-19.438-14.32-31.693-5.913
		c-17.032,11.686-27.782,40.882-24.006,65.212c0.938,6.043,2.685,11.215,5.04,15.4l0.479,3.103c0.438,2.802-1.581,6.697-4.504,8.702
		c-2.922,2.005-5.643,1.359-6.078-1.441l-9.963-64.199l-2.116,1.452l-9.071,6.223l-12.096,8.298l-0.605,0.415l1.439,9.274
		l1.8,11.594l7.016,45.212c0.022,0.15,0.055,0.293,0.082,0.438c-0.628,2.232-2.229,4.564-4.275,5.97
		c-2.922,2.004-5.643,1.359-6.078-1.443l-9.962-64.199l-2.117,1.453l-9.676,6.638l-12.096,8.298l-5.14,3.525l6.578,5.749l1.8,11.594
		l6.724,43.331c0.436,2.801-1.582,6.697-4.504,8.702c-2.923,2.004-5.645,1.358-6.079-1.441l-9.962-64.2l-2.117,1.452l-26.912,18.462
		l6.579,5.749l1.799,11.593l6.295,40.561c-14.599-25.34-42.902-20.514-42.902-20.514c31.951-15.657,38.482-105.204-26.21-71.695
		c-0.488,0.253-0.958,0.509-1.438,0.764l-0.49-13.419c-7.208,21.559-18.42,22.619-18.42,22.619l-0.139,4.107
		c-41.851,32.939-37.373,74.255-25.26,85.453c13.923,12.871,20.813,2.975,20.813,2.975l-2.249,57.29
		c-17.9,3.512-8.347-21.625-8.347-21.625c-39.115,14.041,0.874,158.93,95.016,57.711c24.395-26.229,26.57-47.09,28.12-63.637
		l203.476-143.089l16.574,4.681l27.183-57.923L467.311,296.289z M152.062,391.502c-5.518-0.663-4.494,5.963-4.494,5.963
		c8.409-2.827,5.206,22.266-11.213,9.542c-16.42-12.723,17.622-34.635,17.622-34.635L152.062,391.502z M192.816,372.372
		c-1.792,18.449-16.016,27.566-16.016,27.566l-2.402-46.31C178.403,351.156,195.599,343.75,192.816,372.372z M218.431,476.989
		c-10.418,34.635-47.636,32.154-47.636,32.154l16.819-10.602l-8.01-74.571c18.446,1.408,23.202,5.308,23.202,5.308
		C227.636,442.001,218.431,476.989,218.431,476.989z M256.664,443.341c-0.395-0.892-0.818-1.765-1.271-2.619
		c2.569-0.092,5.363-0.813,8.252-2.23L256.664,443.341z M274.32,431.072c4.373-4.031,8.021-9.246,10.571-14.696
		c3.387,1.167,7.527,0.927,11.939-0.946L274.32,431.072z M309.961,406.305c3.718-3.715,6.852-8.275,9.151-13.042
		c3.054,0.951,6.689,0.779,10.567-0.659L309.961,406.305z M344.699,382.167c4.739-5.033,8.448-11.422,10.566-17.736
		c4.335,1.921,9.216,2.149,14.277,0.472L344.699,382.167z M429.135,270.593l4.34,23.326c-0.258,11.595,7.938,15.431,16.27,14.721
		l-17.074,12.004l-3.534-20.717l-4.069-27.92C425.064,266.353,429.135,270.593,429.135,270.593z M394.77,337.946l0.177,9.217
		l-10.871,7.644C388.305,350.149,391.931,344.359,394.77,337.946z"/>
</g>
</svg>
