<?xml version="1.0" encoding="utf-8"?>
<!-- Generator: Adobe Illustrator 16.0.0, SVG Export Plug-In . SVG Version: 6.00 Build 0)  -->
<!DOCTYPE svg PUBLIC "-//W3C//DTD SVG 1.1//EN" "http://www.w3.org/Graphics/SVG/1.1/DTD/svg11.dtd">
<svg version="1.1" id="Layer_1" xmlns="http://www.w3.org/2000/svg" xmlns:xlink="http://www.w3.org/1999/xlink" x="0px" y="0px"
	 width="612px" height="792px" viewBox="0 0 612 792" enable-background="new 0 0 612 792" xml:space="preserve">
<title>brand-icon-astonmartin-solid1</title>
<circle cx="306" cy="396" r="169.5"/>
<circle cx="306" cy="396" r="169.5"/>
<circle fill="#A8A011" cx="306" cy="396" r="161.242"/>
<g id="astonmartin">
	<path d="M378.414,516.628l-6.125,2.422h37.165l-7.39-3.213L309.22,234.828h-4.809l-94.644,281.579l-7.224,2.732h36.173
		l-5.949-2.413c0,0,71.924-215.551,73.646-218.996C307.777,301.176,378.414,516.628,378.414,516.628z"/>
</g>
<path d="M306,443.74c-30.264-45.152-94.485-138.778-94.485-138.778h-37.549l13.564,7.391l-0.42,165.572L173.502,487h51.628
	l-13.616-8.967c0,0-0.367-121.333,0.53-127.457c3.167,5.98,93.955,133.43,93.955,133.43l0,0c0,0,90.788-127.449,93.956-133.43
	c0.898,6.124,0.529,127.457,0.529,127.457L386.869,487h51.627l-13.605-9.075l-0.422-165.572l13.566-7.391h-37.551
	C400.484,304.962,336.26,398.588,306,443.74L306,443.74z"/>
</svg>
