<?xml version="1.0" encoding="utf-8"?>
<!-- Generator: Adobe Illustrator 19.2.1, SVG Export Plug-In . SVG Version: 6.00 Build 0)  -->
<svg version="1.1" id="Layer_1" xmlns="http://www.w3.org/2000/svg" xmlns:xlink="http://www.w3.org/1999/xlink" x="0px" y="0px"
	 viewBox="0 0 740 120" enable-background="new 0 0 740 120" xml:space="preserve">
<g id="white_outline">
	<g>
		<g>
			<path fill="none" stroke="#F2F4F4" stroke-width="2" stroke-miterlimit="10" d="M693.319,73.688h12.991l-3.024,20.305
				c-1.728,1.488-4.212,2.749-7.452,3.78c-3.24,1.033-7.236,1.548-11.988,1.548c-6.865,0-11.929-2.412-15.192-7.236
				c-3.1-4.579-4.14-10.724-3.172-18.397h18.204l3.785-26.896h-17.806c1.464-6.106,4.199-11.275,8.241-15.478
				c4.824-5.015,10.333-7.524,16.524-7.524c6.192,0,10.657,1.5,13.393,4.5s3.673,7.38,2.809,13.141h19.873l0.144-0.432
				c1.729-9.983-0.48-18.048-6.624-24.193c-6.145-6.144-15.361-9.216-27.649-9.216c-12.433,0-23.113,3.876-32.041,11.628
				c-8.339,7.24-13.639,16.837-15.907,28.786l0.185-1.213h-29.394L612.204,9.1h-21.529L572.32,46.792h-34.884l5.643-37.691h-27.434
				L496.87,46.792h-27.886l-7.341-37.691h-27.577l-5.643,37.691h-55.968v-5.995h33.327l7.463-33.032h-73.821l-7.373,32.147h7.373
				v74.026h63.409l7.815-33.179h-38.193v-6.467h51.85l-5.936,39.646h21.025l5.931-39.646h12.023l8.399,39.646h14.257l20.302-39.646
				h11.96l-5.909,39.646h21.025l5.936-39.646h25.61l-19.306,39.646h21.961l18.399-39.646h23.319l6.452,39.646h21.961l-7.379-39.646
				h20.091l0.059-0.391c-1.51,11.879,1.149,21.7,8.003,29.453c7.128,8.064,16.788,12.097,28.981,12.097
				c10.225,0,18.804-1.572,25.741-4.716c6.936-3.144,12.372-6.852,16.309-11.125l7.673-52.818h-34.088L693.319,73.688z
				 M449.44,46.792l0.684-4.569h0.432l0.968,4.569H449.44z M477.124,86.433l-0.432-0.072l-2.351-12.069h8.83L477.124,86.433z
				 M516.365,46.792h-1.977l2.266-4.425l0.359,0.072L516.365,46.792z M592.745,46.792l4.192-9.033l0.432,0.072l1.458,8.961H592.745z
				 M95.231,39.764c-2.654-6.979-6.882-13.172-12.682-18.58C72.717,12.239,61.412,7.765,48.633,7.765H10.882L3.509,39.469h7.373
				v74.469h31.114c7.964,0,14.844-0.958,20.646-2.875c5.799-1.917,11.255-5.037,16.368-9.364
				c7.274-5.996,12.631-13.516,16.073-22.562c1.081-2.949,1.892-5.7,2.434-8.258c0.539-2.555,0.811-5.062,0.811-7.521
				c0-5.406-0.221-9.903-0.663-13.493C97.222,46.278,96.411,42.912,95.231,39.764z M59.766,74.344
				c-3.295,3.59-7.594,5.629-12.902,6.12h-2.95V39.617c3.932,0,7.374,0.737,10.323,2.212c5.309,2.853,8.649,7.521,10.027,14.009
				c0.295,1.672,0.442,3.244,0.442,4.719C64.707,66.16,63.059,70.757,59.766,74.344z M177.808,77.805
				c4.521-3.348,7.963-7.263,10.322-11.747c2.359-4.481,3.834-10.023,4.424-16.624c0-0.689-0.051-2.217-0.147-4.581
				c-0.099-2.364-0.147-3.643-0.147-3.841c-0.983-6.502-2.975-12.092-5.972-16.771c-3-4.68-7.005-8.498-12.019-11.454
				c-4.229-2.46-9.636-4.136-16.221-5.023h-51.17l-7.373,31.262h7.373v74.911h33.031v-31.41l14.305,31.41h39.52l-18.433-34.359
				L177.808,77.805z M147.874,56.133h-7.964V38.584h7.964c3.439,0,6.021,0.516,7.741,1.548c1.719,1.032,2.825,2.68,3.318,4.94
				c0.195,1.378,0.295,2.311,0.295,2.802C159.228,53.381,155.442,56.133,147.874,56.133z M302.412,7.765l-16.958,53.382
				L270.707,7.765h-33.621l32.146,106.173h30.23L336.328,7.765H302.412z M194.766,39.174h7.373v74.764h32.884V7.765h-32.589
				L194.766,39.174z"/>
		</g>
	</g>
</g>
</svg>
